<svg width="79" height="91" viewBox="0 0 79 91" fill="none" xmlns="http://www.w3.org/2000/svg">
<g opacity="0.5">
<path d="M21.8826 12.2166C22.1926 12.2166 22.4636 12.2006 22.6466 12.0176C22.8696 11.7936 22.8686 11.4466 22.8676 10.6876C22.8676 10.4826 22.8676 10.2436 22.8716 9.96864C22.8766 9.61964 22.7966 9.36564 22.6276 9.19464C22.4606 9.02564 22.2156 8.94364 21.8756 8.94364C21.5826 8.94764 21.3256 8.94865 21.0696 8.94865L19.4526 8.94364C19.1936 8.94364 18.4026 8.95065 18.4026 8.95065C18.1886 8.95065 17.4966 8.93864 17.4966 8.93864C17.1906 8.93864 16.8996 8.95464 16.7096 9.14664C16.4766 9.38164 16.4796 9.75764 16.4866 10.5806C16.4876 10.7996 16.4896 11.0526 16.4876 11.3436C16.4866 11.6286 16.5576 11.8396 16.7056 11.9886C16.8546 12.1386 17.0666 12.2116 17.3566 12.2116C17.6966 12.2066 18.9956 12.2066 18.9956 12.2066L20.3346 12.2136L21.0706 12.2066L21.8826 12.2166ZM36.2086 6.20065C38.5936 6.20465 40.4656 7.94264 40.6616 10.3306C40.7826 11.8196 40.8156 12.2186 42.1956 12.2186C42.3596 12.2186 42.9356 12.2076 42.9356 12.2076L43.0746 12.2106C43.4456 12.2106 43.8946 12.0626 43.9256 11.3576C44.0116 9.49864 43.7056 8.04865 42.9636 6.79365C41.4126 4.16765 38.9576 2.83564 35.6666 2.83264L13.0486 2.83064C12.5836 2.83064 12.1196 2.83065 11.6616 2.97565C10.9656 3.19565 10.5586 3.71064 10.5146 4.42564C10.4686 5.15664 10.8436 5.73164 11.5686 6.04064C11.8966 6.18164 12.2326 6.19965 12.5176 6.19965L12.9726 6.19464L24.5906 6.19565C28.4636 6.19565 32.3366 6.19565 36.2086 6.20065ZM14.5876 14.9616C14.1846 14.9616 13.9106 15.0496 13.7266 15.2386C13.4836 15.4886 13.4626 15.8626 13.4706 16.1596C13.5116 17.5556 13.5106 18.8196 13.4696 20.0216C13.4536 20.4776 13.5336 20.7706 13.7276 20.9716C13.9126 21.1616 14.1846 21.2506 14.5836 21.2506C15.3566 21.2326 16.0506 21.2266 16.7446 21.2266L19.5926 21.2366L22.5366 21.2326C23.2876 21.2326 24.0386 21.2346 24.7906 21.2436H24.7946C25.0726 21.2436 25.4166 21.2166 25.6426 20.9856C25.8146 20.8096 25.8906 20.5576 25.8826 20.1926C25.8486 18.7136 25.8486 17.3626 25.8836 16.0636C25.8946 15.6826 25.8166 15.4206 25.6376 15.2376C25.4026 14.9946 25.0436 14.9646 24.7576 14.9646C23.0126 14.9736 21.2856 14.9796 19.5586 14.9796C17.9076 14.9796 16.2576 14.9736 14.6076 14.9616H14.5876ZM16.1116 23.9926C15.2696 23.9926 15.0676 24.4396 15.0246 25.1096C14.8376 28.0566 13.4196 30.2396 10.8086 31.5976C5.59963 34.3056 2.96963 38.6136 2.99163 44.4046C3.00663 48.4376 3.00363 52.4716 2.99963 56.5056L2.99563 65.5686C2.99563 70.1706 2.99863 79.6326 2.99863 79.6326C2.99663 80.2846 2.99463 80.9596 3.15163 81.6276C4.01063 85.2966 7.03463 87.5986 11.0436 87.6336C13.6326 87.6576 16.2226 87.6656 18.8126 87.6656C21.9646 87.6656 25.1156 87.6546 28.2676 87.6406C31.2266 87.6286 33.5146 86.4936 35.0676 84.2676C36.0286 82.8896 36.4576 81.2666 36.4586 79.0046C36.4616 69.7976 36.4606 46.4166 36.4606 46.4166C36.4596 45.4006 36.4506 44.2176 36.3536 43.0456C35.9296 37.9366 33.4336 34.1566 28.9336 31.8146C26.0486 30.3116 24.5476 28.1126 24.3426 25.0936C24.2906 24.3126 23.9676 23.9926 23.2306 23.9926C22.0156 24.0076 20.8276 24.0146 19.6416 24.0146C18.4746 24.0146 17.3086 24.0076 16.1426 23.9936L16.1116 23.9926ZM19.6686 90.3066C16.6056 90.3066 13.5426 90.3016 10.4806 90.2926C4.84863 90.2766 0.260634 85.6846 0.253634 80.0576C0.242634 73.0936 0.244634 66.1296 0.245634 59.1666C0.246634 54.2906 0.247633 49.4146 0.244633 44.5386C0.240633 37.6306 3.34063 32.4816 9.46063 29.2326C11.2846 28.2646 12.2046 26.8756 12.2716 24.9866C12.2836 24.6476 12.3026 24.1356 11.7616 23.9236C10.8276 23.5576 10.7506 22.7806 10.7456 21.8046C10.7366 19.9276 10.7376 18.0506 10.7406 16.1736L10.7416 14.2956C10.7416 14.1276 10.7466 13.9586 10.7636 13.7916C10.8826 12.6676 11.3176 12.2296 12.3146 12.2296L12.6116 12.2366C12.9276 12.2366 13.3796 12.1986 13.6496 11.8846C13.8536 11.6486 13.9166 11.2986 13.8426 10.8156C13.8146 10.6286 13.8146 10.4136 13.8426 10.1756C13.8906 9.77264 13.8266 9.47665 13.6466 9.27065C13.3966 8.98265 12.9796 8.93764 12.6436 8.93064C10.2356 8.87664 8.62963 7.82565 8.00163 5.89265C7.29363 3.71165 8.35063 1.39364 10.4606 0.498642L11.1106 0.226646L38.0536 0.244644C40.7146 0.866644 42.7686 2.07565 44.2796 3.93565C45.8056 5.81365 46.6146 7.97665 46.6836 10.3626C46.7096 11.2546 46.7096 12.2336 46.6836 13.3546C46.6606 14.3956 46.1736 14.9136 45.1966 14.9416C44.2366 14.9686 43.2746 14.9826 42.3136 14.9826C41.3356 14.9826 40.3586 14.9676 39.3816 14.9396C38.4556 14.9096 37.9646 14.3926 37.9216 13.3986C37.8996 12.9036 37.9026 12.4066 37.9056 11.9096C37.9076 11.5256 37.9096 11.1396 37.9016 10.7536C37.8736 9.55365 37.3056 8.96664 36.1656 8.95964C34.6636 8.94864 33.1616 8.94765 31.6596 8.94765L26.7116 8.94364C26.3056 8.94364 26.0256 9.03664 25.8436 9.23064C25.6696 9.41664 25.5946 9.67865 25.6166 10.0306C25.6256 10.1776 25.6226 10.3256 25.6196 10.4736L25.6156 10.7226C25.6196 12.0396 25.7266 12.1516 27.0486 12.2136C28.0706 12.2636 28.5756 12.7346 28.5906 13.6526C28.6436 16.6986 28.6226 19.7276 28.5956 22.5696C28.5906 23.1716 28.3006 23.6276 27.8016 23.8206C27.1006 24.0916 27.0476 24.6306 27.0876 25.1216C27.2376 26.9926 28.1746 28.3656 29.8706 29.2036C32.7286 30.6126 34.9926 32.6356 36.5986 35.2136C38.2596 37.8796 39.1026 40.7006 39.1036 43.6006L39.1066 50.6656C39.1106 60.4746 39.1146 70.2816 39.1016 80.0906C39.0946 85.7006 34.4986 90.2786 28.8566 90.2936C25.7936 90.3016 22.7316 90.3066 19.6686 90.3066Z" fill="#F1EBDF"/>
<path d="M18.8026 87.4218C16.2166 87.4218 13.6306 87.4128 11.0446 87.3898C7.1266 87.3538 4.2096 85.0728 3.3896 81.5718C3.2196 80.8468 3.2446 80.1088 3.2436 79.3748C3.2386 73.4578 3.2406 67.5408 3.2406 61.6238C3.2406 55.8838 3.2576 50.1428 3.2366 44.4028C3.2146 38.6188 5.8306 34.4608 10.9216 31.8138C13.6406 30.3998 15.0766 28.1578 15.2686 25.1248C15.3076 24.5098 15.4686 24.2378 16.1126 24.2378C16.1216 24.2378 16.1306 24.2378 16.1396 24.2378C17.3146 24.2518 18.4896 24.2588 19.6646 24.2588C20.8446 24.2588 22.0246 24.2518 23.2046 24.2388C23.2146 24.2388 23.2236 24.2378 23.2336 24.2378C23.8626 24.2378 24.0566 24.4868 24.0996 25.1098C24.3166 28.3298 25.9526 30.5368 28.8206 32.0308C33.2526 34.3388 35.6936 38.0498 36.1106 43.0658C36.2026 44.1838 36.2156 45.2988 36.2156 46.4168C36.2156 57.2798 36.2176 68.1418 36.2136 79.0048C36.2126 80.8268 35.9446 82.5838 34.8666 84.1278C33.2636 86.4258 30.9826 87.3858 28.2666 87.3968C25.1116 87.4098 21.9576 87.4218 18.8026 87.4218ZM14.5846 21.0068C13.8966 21.0068 13.6896 20.7208 13.7136 20.0298C13.7586 18.7388 13.7526 17.4438 13.7156 16.1528C13.6966 15.4938 13.8866 15.2058 14.5856 15.2058H14.6046C16.2556 15.2188 17.9066 15.2238 19.5576 15.2238C21.2856 15.2238 23.0136 15.2178 24.7416 15.2088H24.7586C25.3646 15.2088 25.6576 15.3818 25.6396 16.0558C25.6026 17.4358 25.6066 18.8178 25.6376 20.1978C25.6526 20.8198 25.3896 20.9998 24.8286 20.9998C24.8166 20.9998 24.8056 20.9998 24.7936 20.9998C24.0356 20.9898 23.2786 20.9878 22.5206 20.9878C21.5446 20.9878 20.5686 20.9918 19.5926 20.9918H19.5526C18.6136 20.9918 17.6746 20.9818 16.7356 20.9818C16.0426 20.9818 15.3496 20.9878 14.6566 21.0058C14.6326 21.0068 14.6086 21.0068 14.5846 21.0068ZM17.3566 11.9668C16.9376 11.9668 16.7296 11.7938 16.7326 11.3448C16.7446 9.37978 16.5826 9.18279 17.4946 9.18279C17.7236 9.18279 18.0206 9.19579 18.4046 9.19579C18.4916 9.19579 18.5826 9.19479 18.6786 9.19379C18.9466 9.18879 19.2146 9.18778 19.4826 9.18778C20.0076 9.18778 20.5316 9.19279 21.0566 9.19279C21.3186 9.19279 21.5806 9.19178 21.8436 9.18778C21.8546 9.18778 21.8646 9.18778 21.8756 9.18778C22.4056 9.18778 22.6346 9.40278 22.6266 9.96578C22.6016 11.7968 22.7576 11.9718 21.8816 11.9718C21.6756 11.9718 21.4116 11.9618 21.0736 11.9618C20.9626 11.9618 20.8446 11.9628 20.7176 11.9658C20.5876 11.9688 20.4566 11.9698 20.3256 11.9698C20.1046 11.9698 19.8836 11.9668 19.6626 11.9668V11.9638C19.2116 11.9638 18.7616 11.9618 18.3106 11.9618C17.9996 11.9618 17.6886 11.9628 17.3776 11.9668C17.3706 11.9668 17.3636 11.9668 17.3566 11.9668ZM25.1236 3.07578C27.0866 3.07578 29.0496 3.07478 31.0126 3.07478C32.5636 3.07478 34.1156 3.07478 35.6666 3.07678C38.7186 3.07978 41.1596 4.22179 42.7536 6.91779C43.5626 8.28679 43.7536 9.78679 43.6826 11.3458C43.6626 11.7778 43.4676 11.9658 43.0746 11.9658C43.0566 11.9658 43.0366 11.9648 43.0176 11.9638C42.9916 11.9628 42.9656 11.9628 42.9406 11.9628C42.8776 11.9628 42.8146 11.9648 42.7526 11.9668C42.5416 11.9708 42.3566 11.9738 42.1946 11.9738C41.0406 11.9738 41.0256 11.7918 40.9046 10.3118C40.6996 7.80078 38.7406 5.96079 36.2086 5.95679C32.3946 5.95179 28.5806 5.95078 24.7666 5.95078C22.5746 5.95078 20.3816 5.95078 18.1906 5.95078C16.4506 5.95078 14.7116 5.95078 12.9726 5.94978C12.8206 5.94978 12.6686 5.95478 12.5176 5.95478C12.2296 5.95478 11.9426 5.93478 11.6646 5.81578C11.0546 5.55478 10.7186 5.08478 10.7586 4.43978C10.7946 3.84178 11.1276 3.40079 11.7366 3.20879C12.1396 3.08079 12.5496 3.07578 12.9636 3.07578H13.0486H16.7886H24.2686H25.1236ZM38.0536 0.000785828H11.0156C10.7986 0.0907858 10.5816 0.180781 10.3646 0.272781C8.1286 1.22178 7.0186 3.65778 7.7686 5.96778C8.4236 7.98378 10.1016 9.11778 12.6386 9.17478C13.3586 9.19078 13.6876 9.40678 13.5996 10.1458C13.5726 10.3788 13.5656 10.6218 13.6006 10.8518C13.7316 11.7098 13.3936 11.9908 12.6116 11.9908C12.5636 11.9908 12.5146 11.9898 12.4636 11.9878C12.4136 11.9858 12.3636 11.9848 12.3146 11.9848C11.1596 11.9848 10.6486 12.5528 10.5206 13.7658C10.5026 13.9418 10.4976 14.1188 10.4976 14.2958C10.4966 16.7988 10.4886 19.3018 10.5006 21.8058C10.5056 22.7688 10.5706 23.7188 11.6726 24.1508C12.0506 24.2988 12.0396 24.6488 12.0276 24.9768C11.9596 26.8718 10.9966 28.1408 9.3456 29.0168C3.1326 32.3148 -0.00440377 37.4808 0.000596226 44.5388C0.00759623 56.3788 -0.00940435 68.2178 0.00859565 80.0568C0.0165956 85.8008 4.7426 90.5198 10.4796 90.5368C13.5216 90.5458 16.5626 90.5508 19.6046 90.5508C22.6886 90.5508 25.7736 90.5458 28.8566 90.5378C34.6216 90.5218 39.3386 85.8348 39.3466 80.0908C39.3626 67.9278 39.3526 55.7638 39.3486 43.6008C39.3476 40.5118 38.4286 37.6888 36.8066 35.0838C35.1266 32.3888 32.8166 30.3838 29.9796 28.9838C28.3556 28.1828 27.4756 26.9008 27.3306 25.1028C27.2926 24.6318 27.3536 24.2558 27.8896 24.0488C28.5336 23.7998 28.8336 23.2158 28.8396 22.5708C28.8676 19.5968 28.8876 16.6218 28.8356 13.6488C28.8166 12.5558 28.1526 12.0218 27.0606 11.9698C25.8636 11.9118 25.8636 11.9118 25.8606 10.7218C25.8596 10.4858 25.8756 10.2498 25.8606 10.0148C25.8226 9.40579 26.1176 9.18678 26.7006 9.18678H26.7106C27.8426 9.19178 28.9746 9.19279 30.1066 9.19279C30.6276 9.19279 31.1486 9.19178 31.6696 9.19178C33.1686 9.19178 34.6666 9.19378 36.1646 9.20378C37.1926 9.21078 37.6316 9.69878 37.6566 10.7588C37.6766 11.6418 37.6386 12.5268 37.6766 13.4088C37.7236 14.4948 38.2986 15.1508 39.3736 15.1828C40.3546 15.2128 41.3356 15.2268 42.3166 15.2268C43.2796 15.2268 44.2416 15.2128 45.2036 15.1858C46.3336 15.1538 46.9026 14.4928 46.9286 13.3598C46.9516 12.3588 46.9576 11.3568 46.9286 10.3558C46.8566 7.88878 46.0276 5.69878 44.4696 3.78078C42.7986 1.72378 40.5896 0.586786 38.0536 0.000785828ZM18.8026 87.9108C21.9576 87.9108 25.1126 87.8988 28.2686 87.8858C31.3106 87.8738 33.6666 86.7028 35.2686 84.4078C36.2596 82.9868 36.7016 81.3208 36.7026 79.0048C36.7066 69.9238 36.7056 60.8428 36.7046 51.7618V46.4168C36.7046 45.3978 36.6956 44.2118 36.5976 43.0258C36.1656 37.8268 33.6256 33.9818 29.0466 31.5968C26.2436 30.1368 24.7846 28.0048 24.5866 25.0768C24.5486 24.5068 24.3666 23.7498 23.1996 23.7498C22.0226 23.7628 20.8426 23.7698 19.6646 23.7698C18.4916 23.7698 17.3186 23.7628 16.1126 23.7488C15.0076 23.7488 14.8206 24.4678 14.7806 25.0938C14.5966 27.9898 13.2606 30.0468 10.6956 31.3798C5.3996 34.1338 2.7256 38.5158 2.7476 44.4038C2.7616 48.4038 2.7586 52.4038 2.7546 56.4028L2.7516 61.6238V65.7738C2.7506 70.3078 2.7506 74.8418 2.7546 79.3758V79.6268C2.7516 80.2948 2.7496 80.9858 2.9136 81.6828C3.7996 85.4668 6.9136 87.8408 11.0406 87.8788C13.4006 87.9008 15.9396 87.9108 18.8026 87.9108ZM14.5846 21.4958L14.6696 21.4948C15.3586 21.4768 16.0476 21.4718 16.7356 21.4718C17.2046 21.4718 17.6736 21.4738 18.1416 21.4758C18.6126 21.4788 19.0826 21.4808 19.5926 21.4808L21.0576 21.4788L22.5206 21.4768C23.2766 21.4768 24.0316 21.4788 24.8286 21.4888C25.1136 21.4888 25.5256 21.4548 25.8176 21.1558C26.0356 20.9328 26.1366 20.6158 26.1266 20.1868C26.0926 18.7138 26.0936 17.3668 26.1286 16.0688C26.1406 15.6248 26.0376 15.2968 25.8136 15.0668C25.5146 14.7598 25.0926 14.7198 24.7396 14.7198C23.0136 14.7288 21.2846 14.7348 19.5576 14.7348C17.9086 14.7348 16.2586 14.7298 14.5856 14.7168C14.2886 14.7168 13.8576 14.7528 13.5516 15.0678C13.2446 15.3838 13.2166 15.8208 13.2266 16.1668C13.2666 17.5548 13.2666 18.8138 13.2246 20.0138C13.2136 20.3408 13.2356 20.8138 13.5516 21.1408C13.7826 21.3798 14.1206 21.4958 14.5846 21.4958ZM17.3566 12.4558H17.3806H17.3836C17.6926 12.4518 18.0016 12.4508 18.3106 12.4508L18.9856 12.4518H19.1736V12.4558H19.6626L19.9916 12.4568L20.3256 12.4588C20.4596 12.4588 20.5946 12.4578 20.7286 12.4548C20.8516 12.4518 20.9666 12.4508 21.0736 12.4508C21.2596 12.4508 21.4226 12.4538 21.5666 12.4568C21.6836 12.4588 21.7886 12.4608 21.8816 12.4608C22.2336 12.4608 22.5696 12.4398 22.8196 12.1898C23.1146 11.8948 23.1136 11.4908 23.1126 10.6868C23.1126 10.4828 23.1116 10.2458 23.1156 9.97279C23.1216 9.55379 23.0186 9.24278 22.8016 9.02178C22.5866 8.80478 22.2846 8.69878 21.8376 8.69878H21.8356C21.5756 8.70278 21.3166 8.70378 21.0566 8.70378L20.2726 8.70178L19.4826 8.69878C19.2116 8.69878 18.9416 8.69978 18.6706 8.70478L18.4046 8.70679C18.1916 8.70679 18.0066 8.70278 17.8446 8.69978C17.7136 8.69678 17.5976 8.69379 17.4946 8.69379C17.1496 8.69379 16.7916 8.71579 16.5366 8.97379C16.2306 9.28079 16.2346 9.71579 16.2416 10.5818C16.2436 10.7988 16.2456 11.0508 16.2436 11.3418C16.2416 11.6908 16.3386 11.9668 16.5316 12.1618C16.7266 12.3568 17.0036 12.4558 17.3566 12.4558ZM25.1236 2.58678H24.2686H20.5286H16.7886H13.0206H12.9636C12.4806 2.58678 12.0446 2.59778 11.5886 2.74178C10.8006 2.99078 10.3196 3.59878 10.2706 4.40978C10.2196 5.24078 10.6576 5.91679 11.4726 6.26579C11.8406 6.42279 12.2076 6.44379 12.5176 6.44379L12.7546 6.44178L12.9716 6.43878L18.1906 6.43978H21.4786H24.7666C28.5806 6.43978 32.3936 6.44079 36.2086 6.44579C38.4626 6.44979 40.2326 8.09178 40.4176 10.3508C40.5396 11.8448 40.5896 12.4638 42.1946 12.4638C42.3586 12.4638 42.5456 12.4598 42.7616 12.4558L42.8306 12.4538L42.9406 12.4518L42.9966 12.4528L43.0746 12.4548C43.7396 12.4548 44.1386 12.0588 44.1706 11.3688C44.2586 9.46078 43.9416 7.96679 43.1746 6.66879C41.5756 3.96379 39.0496 2.59078 35.6666 2.58778C34.1156 2.58578 32.5636 2.58578 31.0126 2.58578H28.0686L25.1236 2.58678ZM37.9976 0.489784C40.6316 1.10878 42.6256 2.28678 44.0906 4.08978C45.5816 5.92478 46.3716 8.03778 46.4396 10.3698C46.4656 11.2628 46.4656 12.2088 46.4396 13.3488C46.4186 14.2568 46.0336 14.6728 45.1896 14.6968C44.2296 14.7238 43.2636 14.7378 42.3166 14.7378C41.3376 14.7378 40.3526 14.7228 39.3886 14.6938C38.6026 14.6708 38.2026 14.2428 38.1656 13.3878C38.1446 12.9008 38.1476 12.3988 38.1496 11.9128C38.1526 11.5248 38.1546 11.1358 38.1456 10.7478C38.1146 9.40778 37.4486 8.72378 36.1676 8.71478C34.6686 8.70478 33.1696 8.70278 31.6696 8.70278H30.8886H30.1066C28.9746 8.70278 27.8446 8.70278 26.7006 8.69778C26.2356 8.69778 25.8966 8.81678 25.6656 9.06278C25.4446 9.29778 25.3466 9.62778 25.3726 10.0448C25.3816 10.1858 25.3776 10.3268 25.3746 10.4668C25.3736 10.5528 25.3716 10.6378 25.3716 10.7228C25.3756 12.1778 25.5776 12.3878 27.0366 12.4578C28.1806 12.5128 28.3376 13.1278 28.3466 13.6568C28.3996 16.6958 28.3776 19.7248 28.3506 22.5658C28.3486 22.8588 28.2616 23.3808 27.7136 23.5928C26.7486 23.9658 26.8176 24.8198 26.8436 25.1418C27.0016 27.1048 27.9836 28.5448 29.7626 29.4218C32.5796 30.8118 34.8096 32.8038 36.3916 35.3428C38.0286 37.9708 38.8586 40.7488 38.8596 43.6008L38.8626 50.9568C38.8666 60.6678 38.8706 70.3788 38.8576 80.0898C38.8496 85.5668 34.3636 90.0338 28.8556 90.0488C25.7726 90.0568 22.6876 90.0618 19.6046 90.0618C16.5626 90.0618 13.5226 90.0568 10.4806 90.0478C4.9846 90.0318 0.505596 85.5498 0.497596 80.0568C0.486596 73.0948 0.488596 66.1328 0.490596 59.1718C0.491596 54.2938 0.492597 49.4168 0.489597 44.5388C0.484597 37.7288 3.5416 32.6508 9.5746 29.4488C11.4826 28.4358 12.4456 26.9788 12.5166 24.9948C12.5286 24.6628 12.5526 23.9708 11.8516 23.6958C11.1206 23.4098 10.9956 22.8808 10.9896 21.8028C10.9806 19.8948 10.9826 17.9868 10.9846 16.0788L10.9866 14.2958C10.9866 14.1358 10.9906 13.9758 11.0066 13.8178C11.1266 12.6888 11.5586 12.4738 12.3146 12.4738C12.3576 12.4738 12.4006 12.4748 12.4446 12.4768C12.5016 12.4788 12.5576 12.4808 12.6116 12.4808C12.9756 12.4808 13.4996 12.4348 13.8356 12.0448C14.0876 11.7498 14.1696 11.3358 14.0846 10.7778C14.0596 10.6138 14.0596 10.4208 14.0856 10.2038C14.1416 9.72878 14.0586 9.37079 13.8316 9.10979C13.5186 8.74979 13.0356 8.69378 12.6496 8.68578C10.3536 8.63478 8.8266 7.64278 8.2336 5.81678C7.5656 3.75778 8.5636 1.56779 10.5556 0.722786L10.9866 0.542786L11.1136 0.489784H37.9976Z" fill="#7C7958"/>
<path d="M64.8485 2.94021C63.9555 2.97321 63.3075 3.64621 63.3075 4.54221C63.3075 5.42921 64.0465 6.17921 64.9195 6.17921C65.8585 6.15721 66.5515 5.41521 66.5325 4.48921C66.5145 3.57621 65.8515 2.93821 64.9225 2.93821H64.9185L64.8485 2.94021ZM64.9245 8.88721C63.2025 8.88721 61.6335 7.86721 60.9265 6.28921C59.9735 4.15921 60.8825 1.66021 62.9935 0.598207C63.1715 0.509207 63.3515 0.424207 63.5325 0.339207L63.7325 0.245207H66.1515C67.6305 0.865207 68.5715 1.75121 69.0225 3.01221C69.8255 5.25821 68.7855 7.63821 66.6025 8.54921C66.0655 8.77321 65.5005 8.88721 64.9245 8.88721Z" fill="#F1EBDF"/>
<path d="M64.9195 5.93384C64.1895 5.93384 63.5525 5.28884 63.5525 4.54184C63.5525 3.77384 64.0925 3.21284 64.8575 3.18384C64.8795 3.18384 64.9005 3.18284 64.9225 3.18284C65.7115 3.18284 66.2725 3.71684 66.2885 4.49384C66.3035 5.27884 65.7115 5.91584 64.9485 5.93384C64.9385 5.93384 64.9295 5.93384 64.9195 5.93384ZM66.1515 -0.000164032H63.6775C63.4125 0.126836 63.1455 0.247836 62.8835 0.379836C60.6695 1.49284 59.7045 4.15484 60.7035 6.38884C61.4725 8.10684 63.1555 9.13184 64.9235 9.13184C65.5155 9.13184 66.1175 9.01684 66.6975 8.77484C68.9935 7.81584 70.0945 5.28584 69.2525 2.92984C68.7145 1.42184 67.5645 0.574836 66.1515 -0.000164032ZM64.9195 6.42284H64.9545H64.9605C66.0005 6.39784 66.7985 5.54684 66.7775 4.48384C66.7565 3.44684 65.9765 2.69384 64.9225 2.69384L64.8395 2.69584C63.8105 2.73384 63.0635 3.50984 63.0635 4.54184C63.0635 5.02484 63.2645 5.50484 63.6135 5.86084C63.9655 6.21784 64.4415 6.42284 64.9195 6.42284ZM66.0545 0.488836C67.5235 1.10384 68.3695 1.90984 68.7925 3.09484C69.5505 5.21584 68.5685 7.46384 66.5085 8.32284C66.0015 8.53484 65.4675 8.64184 64.9235 8.64184C63.2975 8.64184 61.8165 7.67884 61.1495 6.18884C60.2505 4.17884 61.1085 1.81884 63.1035 0.816835C63.2755 0.729835 63.4505 0.647836 63.6255 0.565836L63.7875 0.488836H66.0545Z" fill="#7C7958"/>
<path d="M60.9011 27.2488C61.3831 27.2488 61.8652 27.2528 62.3472 27.2668H62.3682C62.7052 27.2668 63.0622 27.2338 63.2982 26.9878C63.4812 26.7978 63.5631 26.5138 63.5471 26.1168C63.5231 25.4908 63.5272 24.8648 63.5312 24.2378C63.5352 23.7478 63.5382 23.2578 63.5282 22.7678C63.5042 21.5938 62.9261 21.0168 61.7621 21.0038C60.8161 20.9928 59.8702 20.9878 58.9232 20.9878C57.9552 20.9878 56.9862 20.9928 56.0182 21.0048C54.8922 21.0178 54.3062 21.5868 54.2762 22.6958C54.2592 23.3418 54.2612 23.9868 54.2642 24.6328C54.2662 25.1648 54.2682 25.6978 54.2582 26.2298C54.2532 26.5788 54.3332 26.8338 54.5032 27.0068C54.6712 27.1778 54.9182 27.2618 55.2582 27.2618C55.7722 27.2528 56.2482 27.2508 56.7232 27.2508L58.8232 27.2568L60.9011 27.2488ZM45.2352 69.1298C45.2222 72.8548 45.2092 76.7078 45.2682 80.4968C45.3242 84.0668 48.3032 87.2078 51.9092 87.4998C53.9202 87.6618 56.0512 87.7398 58.4242 87.7408C60.3162 87.7408 62.3182 87.6928 64.9162 87.5858C69.4722 87.3978 72.5432 84.3338 72.5562 79.9598C72.5892 69.7858 72.5762 59.5258 72.5602 49.0348C72.5552 45.9928 71.3412 43.3718 68.9522 41.2418C68.4642 40.8078 67.9691 40.3808 67.4741 39.9538C66.7881 39.3628 66.1012 38.7718 65.4352 38.1588C63.3192 36.2118 62.1991 33.8078 62.1061 31.0138C62.0831 30.3228 61.7731 30.0148 61.0991 30.0148C60.3421 30.0258 59.6222 30.0318 58.9022 30.0318C58.1822 30.0318 57.4622 30.0258 56.7412 30.0158L56.7032 30.0148C56.0412 30.0148 55.7312 30.3228 55.6992 31.0138C55.5682 33.8548 54.4222 36.2818 52.2932 38.2268C51.2382 39.1908 50.1272 40.1358 49.1682 40.9448C46.4652 43.2278 45.1702 46.0788 45.2082 49.6618C45.2452 53.0838 45.2362 56.5638 45.2292 59.9298C45.2252 61.3948 45.2212 64.5688 45.2212 64.5688H45.2462C45.2452 66.0898 45.2402 67.6088 45.2352 69.1298ZM52.7012 90.2958C47.0762 90.2638 42.4932 85.6688 42.4852 80.0528C42.4712 70.6628 42.4582 59.7488 42.4922 49.0408C42.5042 45.1858 44.0552 41.8528 47.1042 39.1308C47.5612 38.7228 48.0272 38.3258 48.4942 37.9288C49.2492 37.2848 50.0302 36.6188 50.7582 35.9168C52.1282 34.5958 52.8632 32.9518 52.9452 31.0328C52.9632 30.6408 52.9072 30.1538 52.3202 29.8658C51.7552 29.5898 51.4952 29.1038 51.4992 28.3388C51.5042 27.5308 51.5022 26.7238 51.5002 25.9158C51.4972 24.8098 51.4942 23.7038 51.5092 22.5978C51.5402 20.2318 53.3942 18.3218 55.7302 18.2488C56.7862 18.2158 57.8442 18.1988 58.9022 18.1988C59.9602 18.1988 61.0182 18.2158 62.0742 18.2488C64.4122 18.3228 66.2221 20.1608 66.2861 22.5228C66.3251 23.9638 66.3162 25.4308 66.3062 26.8498L66.2971 28.4358C66.2961 29.1658 66.0022 29.6438 65.3982 29.8968C64.9642 30.0808 64.7892 30.3748 64.8132 30.8808C64.9082 32.9188 65.6812 34.6398 67.1112 35.9948C67.8972 36.7378 68.7321 37.4498 69.5401 38.1388C69.8631 38.4148 70.1872 38.6898 70.5082 38.9688C73.6942 41.7288 75.3131 45.2138 75.3201 49.3248C75.3391 59.4858 75.3352 69.6458 75.3232 79.8078C75.3172 85.7728 70.7942 90.2828 64.8032 90.2978L55.0452 90.3008C54.2632 90.3008 53.4822 90.2998 52.7012 90.2958Z" fill="#F1EBDF"/>
<path d="M45.4661 64.3249C45.4661 59.4359 45.5051 54.5469 45.4531 49.6589C45.4161 46.1859 46.6821 43.3629 49.3261 41.1319C50.3831 40.2389 51.4371 39.3399 52.4581 38.4069C54.6251 36.4269 55.8071 33.9619 55.9431 31.0249C55.9691 30.4619 56.1681 30.2589 56.7021 30.2589C56.7141 30.2589 56.7261 30.2589 56.7381 30.2599C57.4551 30.2709 58.1731 30.2759 58.8901 30.2759C59.6161 30.2759 60.3411 30.2709 61.0671 30.2599C61.0791 30.2589 61.0901 30.2589 61.1021 30.2589C61.6321 30.2589 61.8431 30.4509 61.8621 31.0209C61.9591 33.9369 63.1351 36.3729 65.2701 38.3379C66.4181 39.3949 67.6251 40.3859 68.7901 41.4239C71.0621 43.4499 72.3101 45.9719 72.3151 49.0349C72.3321 59.3429 72.3451 69.6499 72.3121 79.9579C72.2981 84.1509 69.4131 87.1559 64.9051 87.3419C62.7511 87.4299 60.5921 87.4959 58.4321 87.4959C56.2631 87.4959 54.0931 87.4299 51.9291 87.2549C48.4841 86.9769 45.5671 83.9479 45.5131 80.4929C45.4291 75.1049 45.4911 69.7139 45.4911 64.3249H45.4661ZM55.2591 27.0169C54.7211 27.0169 54.4941 26.7889 54.5031 26.2339C54.5241 25.0569 54.4891 23.8789 54.5211 22.7029C54.5471 21.7249 55.0261 21.2599 56.0211 21.2489C56.9891 21.2379 57.9561 21.2319 58.9231 21.2319C59.8691 21.2319 60.8141 21.2379 61.7591 21.2479C62.7961 21.2589 63.2621 21.7339 63.2841 22.7719C63.3071 23.8899 63.2601 25.0099 63.3031 26.1259C63.3291 26.8149 63.0421 27.0229 62.4381 27.0229C62.4111 27.0229 62.3831 27.0229 62.3551 27.0219C61.8731 27.0079 61.3901 27.0039 60.9071 27.0039C60.2131 27.0039 59.5181 27.0119 58.8241 27.0119C58.1271 27.0109 57.4301 27.0059 56.7331 27.0059C56.2531 27.0059 55.7731 27.0089 55.2931 27.0169C55.2811 27.0169 55.2701 27.0169 55.2591 27.0169ZM58.8991 17.9549C57.8401 17.9549 56.7801 17.9709 55.7221 18.0039C53.2221 18.0819 51.2971 20.0979 51.2641 22.5949C51.2391 24.5089 51.2661 26.4229 51.2551 28.3379C51.2501 29.1089 51.4971 29.7349 52.2131 30.0859C52.6291 30.2899 52.7191 30.6039 52.7011 31.0219C52.6221 32.8769 51.9061 34.4689 50.5881 35.7409C49.4251 36.8639 48.1491 37.8699 46.9411 38.9479C43.9301 41.6359 42.2601 44.9809 42.2471 49.0399C42.2151 59.3769 42.2251 69.7149 42.2411 80.0519C42.2491 85.8029 46.9601 90.5079 52.7001 90.5389C53.4711 90.5439 54.2431 90.5449 55.0151 90.5449C56.2521 90.5449 57.4901 90.5419 58.7271 90.5419H58.8841C60.1391 90.5419 61.3931 90.5439 62.6481 90.5439C63.3671 90.5439 64.0861 90.5429 64.8041 90.5409C70.8931 90.5269 75.5611 85.8849 75.5681 79.8069C75.5791 69.6459 75.5831 59.4859 75.5651 49.3249C75.5581 45.0709 73.8781 41.5649 70.6681 38.7839C69.5331 37.8009 68.3691 36.8479 67.2801 35.8159C65.8731 34.4839 65.1481 32.8169 65.0571 30.8679C65.0391 30.4769 65.1421 30.2709 65.4931 30.1229C66.2321 29.8119 66.5411 29.2089 66.5421 28.4359C66.5471 26.4629 66.5841 24.4879 66.5311 22.5169C66.4641 20.0439 64.5431 18.0829 62.0821 18.0049C61.0221 17.9709 59.9611 17.9549 58.8991 17.9549ZM45.0011 64.8109C45.0011 66.2519 44.9961 67.6939 44.9911 69.1359C44.9781 72.8599 44.9651 76.7109 45.0241 80.4999C45.0821 84.1929 48.1621 87.4419 51.8901 87.7429C53.9101 87.9059 56.0491 87.9849 58.4321 87.9849C60.3271 87.9849 62.3301 87.9369 64.9261 87.8299C69.6221 87.6369 72.7861 84.4739 72.8011 79.9599C72.8331 69.8729 72.8221 59.9859 72.8041 49.0339C72.7991 45.9209 71.5581 43.2379 69.1151 41.0589C68.6261 40.6229 68.1281 40.1939 67.6311 39.7659C66.9581 39.1869 66.2621 38.5869 65.6011 37.9789C63.5351 36.0769 62.4421 33.7309 62.3511 31.0049C62.3241 30.1859 61.9041 29.7709 61.0601 29.7709C60.3371 29.7819 59.6131 29.7869 58.8901 29.7869C58.1751 29.7869 57.4601 29.7819 56.7021 29.7699C55.9011 29.7699 55.4931 30.1729 55.4551 31.0019C55.3261 33.7769 54.2071 36.1469 52.1281 38.0459C51.0711 39.0119 49.9651 39.9519 49.0101 40.7579C46.2871 43.0569 44.9251 46.0539 44.9641 49.6639C45.0001 53.0849 44.9921 56.5649 44.9841 59.9309C44.9801 61.3959 44.9771 62.8599 44.9771 64.3249L45.0011 64.8109ZM55.2591 27.5059H55.2971H55.3011C55.7781 27.4979 56.2561 27.4949 56.7331 27.4949L57.9041 27.4979L58.8241 27.5019C59.1721 27.5019 59.5201 27.4989 59.8691 27.4969C60.2151 27.4949 60.5611 27.4929 60.9071 27.4929C61.3851 27.4929 61.8631 27.4969 62.3411 27.5109L62.4381 27.5119C62.7361 27.5119 63.1681 27.4759 63.4741 27.1579C63.7061 26.9169 63.8091 26.5729 63.7911 26.1069C63.7681 25.4909 63.7721 24.8569 63.7761 24.2449C63.7801 23.7499 63.7831 23.2559 63.7731 22.7619C63.7451 21.4469 63.0701 20.7729 61.7651 20.7589C60.8181 20.7489 59.8701 20.7429 58.9231 20.7429C57.9541 20.7429 56.9851 20.7489 56.0161 20.7599C54.7511 20.7739 54.0651 21.4409 54.0321 22.6899C54.0141 23.3359 54.0171 23.9829 54.0191 24.6299C54.0211 25.1619 54.0241 25.6939 54.0141 26.2249C54.0071 26.6439 54.1101 26.9549 54.3291 27.1779C54.5451 27.3989 54.8501 27.5059 55.2591 27.5059ZM58.9001 18.4439C59.9531 18.4439 61.0181 18.4599 62.0671 18.4929C64.2731 18.5629 65.9821 20.2989 66.0421 22.5299C66.0811 23.9649 66.0711 25.4289 66.0621 26.8459C66.0581 27.3749 66.0541 27.9049 66.0531 28.4349C66.0521 29.0649 65.8141 29.4579 65.3031 29.6719C64.6071 29.9649 64.5501 30.5079 64.5681 30.8909C64.6671 32.9949 65.4661 34.7719 66.9431 36.1709C67.7351 36.9209 68.5751 37.6379 69.3871 38.3299C69.7081 38.6039 70.0291 38.8769 70.3481 39.1539C73.4781 41.8659 75.0691 45.2879 75.0761 49.3259C75.0921 58.1179 75.0931 67.5189 75.0791 79.8059C75.0731 85.6339 70.6551 90.0389 64.8031 90.0519C64.0851 90.0539 63.3661 90.0539 62.6481 90.0539H60.5781L58.8841 90.0529H58.7271L56.8701 90.0539L55.0151 90.0559C54.2441 90.0559 53.4731 90.0539 52.7021 90.0499C47.2121 90.0199 42.7381 85.5349 42.7301 80.0509C42.7151 70.6759 42.7031 59.7759 42.7361 49.0419C42.7481 45.2589 44.2721 41.9859 47.2671 39.3129C47.7211 38.9079 48.1851 38.5129 48.6481 38.1179C49.4081 37.4709 50.1941 36.8019 50.9281 36.0929C52.3441 34.7259 53.1051 33.0269 53.1901 31.0429C53.2011 30.7949 53.2331 30.0409 52.4281 29.6469C51.9511 29.4129 51.7401 29.0099 51.7441 28.3409C51.7481 27.5309 51.7461 26.7209 51.7441 25.9119C51.7411 24.8079 51.7391 23.7049 51.7531 22.6009C51.7831 20.3669 53.5331 18.5619 55.7371 18.4929C56.7871 18.4599 57.8511 18.4439 58.9001 18.4439Z" fill="#7C7958"/>
<path d="M72.4682 11.9683C70.6702 11.9733 69.3162 13.3193 69.3182 15.0973C69.3202 16.8203 70.7412 18.2213 72.4862 18.2213C74.2132 18.2143 75.5632 16.8513 75.5752 15.1173C75.5812 14.2363 75.2682 13.4313 74.6932 12.8533C74.1262 12.2823 73.3392 11.9683 72.4762 11.9683H72.4682ZM72.4362 20.9863C69.3042 20.9863 66.5562 18.2323 66.5562 15.0923C66.5562 11.9073 69.2572 9.21233 72.4542 9.20633C74.0372 9.20633 75.5102 9.81633 76.6162 10.9203C77.7222 12.0263 78.3322 13.4983 78.3312 15.0693C78.3312 18.3123 75.7022 20.9653 72.4702 20.9863H72.4362Z" fill="#F1EBDF"/>
<path d="M72.4865 17.9775C70.8645 17.9775 69.5635 16.6985 69.5625 15.0985C69.5605 13.4555 70.8075 12.2175 72.4685 12.2135H72.4775C74.1345 12.2135 75.3415 13.4405 75.3305 15.1155C75.3195 16.7265 74.0885 17.9705 72.4995 17.9775H72.4865ZM72.4665 8.96247H72.4535C69.0975 8.96947 66.3115 11.7495 66.3115 15.0925C66.3115 18.3885 69.1515 21.2305 72.4365 21.2305H72.4715C75.8335 21.2095 78.5755 18.4425 78.5765 15.0695C78.5765 11.6885 75.8475 8.96247 72.4665 8.96247ZM72.4865 18.4665H72.5005C74.3485 18.4585 75.8065 16.9885 75.8195 15.1195C75.8255 14.1715 75.4875 13.3065 74.8665 12.6815C74.2535 12.0645 73.4045 11.7245 72.4675 11.7245C70.5305 11.7285 69.0715 13.1795 69.0735 15.0985C69.0755 16.9555 70.6065 18.4665 72.4865 18.4665ZM72.4665 8.96247V9.45147C73.9715 9.45147 75.3835 10.0345 76.4435 11.0935C77.5035 12.1535 78.0875 13.5645 78.0875 15.0695C78.0865 18.1775 75.5665 20.7225 72.4365 20.7415C69.4345 20.7415 66.8005 18.1015 66.8005 15.0925C66.8005 12.0405 69.3895 9.45747 72.4545 9.45147L72.4665 8.96247Z" fill="#7C7958"/>
<path d="M19.6126 46.6289C15.4846 46.6449 12.0916 49.9859 12.0496 54.0769C12.0056 58.3379 12.0066 62.5599 12.0506 66.6249C12.0966 70.7139 15.5136 74.0459 19.6696 74.0529C23.7986 74.0539 27.2216 70.7369 27.3126 66.6619C27.3436 65.2119 27.3366 63.7599 27.3286 62.3089C27.3246 61.6379 27.3206 60.9679 27.3216 60.2969C27.3216 59.6499 27.3246 59.0009 27.3286 58.3539C27.3366 56.9089 27.3446 55.4639 27.3136 54.0219C27.2226 49.8759 23.8556 46.6289 19.6466 46.6289H19.6126ZM19.7056 76.7549C14.0676 76.7549 9.49962 72.3879 9.30562 66.8139C9.15062 62.3529 9.22462 57.8319 9.28962 53.8439C9.37462 48.6689 13.6616 44.2909 19.0506 43.8759C19.2916 43.8579 19.5316 43.8479 19.7716 43.8479C24.5746 43.8479 29.0276 47.5709 29.9086 52.3249C30.0336 52.9999 30.0926 53.6459 30.0896 54.2969C30.0826 55.7749 30.0846 57.2529 30.0856 58.7319L30.0876 62.1629C30.0896 63.5159 30.0906 64.8679 30.0856 66.2209C30.0666 72.0999 25.5316 76.7269 19.7636 76.7549H19.7056Z" fill="#F1EBDF"/>
<path d="M19.6823 73.808H19.6693C15.6883 73.801 12.3403 70.579 12.2953 66.622C12.2493 62.442 12.2513 58.26 12.2943 54.079C12.3353 50.078 15.6143 46.888 19.6133 46.872H19.6453C23.7223 46.872 26.9813 49.987 27.0693 54.026C27.1143 56.115 27.0773 58.206 27.0773 60.297C27.0763 62.417 27.1143 64.537 27.0673 66.656C26.9793 70.627 23.6683 73.808 19.6823 73.808ZM19.7713 43.602C19.5253 43.603 19.2783 43.612 19.0313 43.631C13.5553 44.053 9.13227 48.521 9.04527 53.84C8.97427 58.166 8.91127 62.499 9.06127 66.821C9.25427 72.363 13.6903 76.999 19.7063 76.999C19.7263 76.999 19.7453 76.999 19.7643 76.999C25.7553 76.969 30.3103 72.198 30.3303 66.221C30.3373 64.248 30.3313 62.276 30.3313 60.303C30.3313 58.301 30.3253 56.299 30.3343 54.298C30.3373 53.617 30.2723 52.948 30.1493 52.28C29.2343 47.346 24.6843 43.602 19.7713 43.602ZM19.6813 74.297H19.6823C23.9303 74.297 27.4633 70.874 27.5563 66.667C27.5883 65.212 27.5803 63.735 27.5733 62.308C27.5693 61.637 27.5653 60.967 27.5663 60.297C27.5663 59.647 27.5693 58.997 27.5733 58.348C27.5813 56.928 27.5893 55.461 27.5573 54.015C27.4653 49.735 23.9893 46.383 19.6113 46.383C15.3503 46.4 11.8483 49.85 11.8053 54.074C11.7613 58.346 11.7613 62.569 11.8063 66.627C11.8533 70.849 15.3803 74.29 19.6683 74.297H19.6813ZM19.7723 44.092C24.4613 44.092 28.8083 47.728 29.6683 52.369C29.7903 53.029 29.8483 53.659 29.8453 54.296C29.8383 55.746 29.8403 57.197 29.8413 58.648L29.8423 60.303L29.8433 62.119C29.8443 63.485 29.8463 64.852 29.8413 66.219C29.8223 71.962 25.3953 76.482 19.7623 76.51H19.7063C14.2013 76.51 9.73927 72.247 9.55027 66.804C9.39527 62.354 9.46927 57.835 9.53427 53.848C9.61627 48.798 13.8043 44.525 19.0693 44.119C19.3033 44.1 19.5383 44.092 19.7723 44.092Z" fill="#7C7958"/>
<path d="M52.7122 61.7752L52.7092 62.3282C52.7052 62.7352 52.7002 63.1432 52.7162 63.5502C52.8282 66.6222 55.3102 69.2762 58.2492 69.4672C58.4172 69.4782 58.5842 69.4842 58.7492 69.4842C61.9362 69.4842 64.3682 67.5172 64.9452 64.4752C65.2352 62.9432 65.1572 61.3682 65.0612 60.0102C64.8302 56.7552 62.3932 54.3122 59.2662 54.2022C59.1712 54.1982 59.0762 54.1972 58.9832 54.1972C55.7202 54.1972 53.2872 56.2922 52.7822 59.5362C52.7022 60.0492 52.7242 60.5772 52.7442 61.0872C52.7512 61.2402 52.7562 61.3922 52.7602 61.5452L52.7122 61.7752ZM58.8582 72.2212C57.9722 72.2212 57.0962 72.0902 56.2542 71.8332C52.8802 70.7972 50.3972 67.7772 50.0772 64.3162C49.8772 62.1562 49.7382 59.8652 50.4212 57.6712C51.6032 53.8792 54.9812 51.4292 59.0272 51.4292C59.2612 51.4292 59.4982 51.4382 59.7362 51.4552C63.6332 51.7262 66.9612 54.8112 67.6502 58.7902C67.7672 59.4662 67.7992 60.1772 67.8312 60.8652C67.8462 61.1902 67.8612 61.5162 67.8852 61.8402C67.9232 64.9962 67.2422 67.2372 65.6742 69.0922C64.0222 71.0512 61.4732 72.2212 58.8582 72.2212Z" fill="#F1EBDF"/>
<path d="M58.7493 69.2393C58.5893 69.2393 58.4283 69.2343 58.2653 69.2233C55.4613 69.0413 53.0673 66.4833 52.9603 63.5413C52.9383 62.9533 52.9573 62.3643 52.9573 61.7753H53.0073C53.0073 61.0403 52.9123 60.2903 53.0243 59.5723C53.5163 56.4033 55.8393 54.4413 58.9843 54.4413C59.0743 54.4413 59.1653 54.4423 59.2573 54.4463C62.2363 54.5513 64.5923 56.8543 64.8173 60.0273C64.9203 61.4873 64.9823 62.9673 64.7053 64.4293C64.1523 67.3473 61.7833 69.2393 58.7493 69.2393ZM59.0263 51.1853C54.9003 51.1853 51.4143 53.6643 50.1883 57.5993C49.5013 59.8043 49.6243 62.0763 49.8333 64.3383C50.1623 67.8903 52.7363 71.0103 56.1823 72.0663C57.0623 72.3353 57.9643 72.4653 58.8573 72.4653C61.5283 72.4653 64.1283 71.3053 65.8613 69.2513C67.6893 67.0853 68.1623 64.5463 68.1293 61.8233C68.0543 60.7973 68.0653 59.7563 67.8903 58.7483C67.1853 54.6703 63.7153 51.4873 59.7533 51.2103C59.5083 51.1933 59.2663 51.1853 59.0263 51.1853ZM52.5073 61.2863H52.4683V61.7753C52.4683 61.9593 52.4663 62.1433 52.4643 62.3273C52.4603 62.7383 52.4563 63.1493 52.4713 63.5593C52.5883 66.7523 55.1733 69.5123 58.2333 69.7113C58.4073 69.7223 58.5793 69.7283 58.7493 69.7283C62.0083 69.7283 64.5953 67.6353 65.1853 64.5203C65.4813 62.9603 65.4023 61.3653 65.3053 59.9933C65.0653 56.6113 62.5293 54.0723 59.2743 53.9573C59.1773 53.9533 59.0803 53.9523 58.9843 53.9523C55.5933 53.9523 53.0643 56.1283 52.5413 59.4973C52.4573 60.0363 52.4793 60.5753 52.5003 61.0963C52.5023 61.1593 52.5053 61.2233 52.5073 61.2863ZM59.0263 51.6743C59.2553 51.6743 59.4863 51.6823 59.7193 51.6983C63.5053 51.9623 66.7393 54.9623 67.4093 58.8313C67.5233 59.4923 67.5543 60.1633 67.5873 60.8733C67.6023 61.2023 67.6173 61.5313 67.6403 61.8293C67.6783 64.9353 67.0143 67.1273 65.4883 68.9353C63.8813 70.8393 61.4023 71.9763 58.8573 71.9763C57.9963 71.9763 57.1443 71.8493 56.3263 71.5983C53.0453 70.5933 50.6313 67.6573 50.3203 64.2933C50.1223 62.1583 49.9853 59.8943 50.6553 57.7453C51.8043 54.0573 55.0903 51.6743 59.0263 51.6743Z" fill="#7C7958"/>
</g>
</svg>
