<svg width="100" height="105" viewBox="0 0 100 105" fill="none" xmlns="http://www.w3.org/2000/svg">
<g opacity="0.449997">
<path d="M42.5629 3.29804C41.4479 3.29804 41.4439 3.71404 41.4329 4.95204L41.4249 5.55704C41.4169 5.97104 41.5029 6.25504 41.6959 6.45104C41.8979 6.65804 42.1979 6.75004 42.6669 6.75004C43.7449 6.73604 44.7719 6.73404 45.7999 6.73404L49.7819 6.73904L53.7649 6.73404C54.7919 6.73404 55.8199 6.73604 56.8469 6.75004H56.8529C57.2139 6.75004 57.6569 6.71504 57.9219 6.41904C58.1049 6.21404 58.1739 5.92404 58.1299 5.53404C58.0969 5.23904 58.0979 4.99304 58.1309 4.78104C58.2069 4.29404 58.1419 3.93704 57.9299 3.69004C57.6259 3.33404 57.0789 3.28904 56.6349 3.28904C54.8109 3.30804 53.0499 3.31204 51.2889 3.31204L46.4499 3.30804C45.5539 3.30804 43.7499 3.31304 43.7439 3.31304C43.4009 3.31304 43.1729 3.30804 42.9759 3.30404L42.5629 3.29804ZM40.3209 10.059C39.8209 10.059 39.4899 10.16 39.2769 10.377C39.0129 10.648 38.9859 11.052 38.9939 11.412C39.0199 12.498 39.0149 13.585 39.0109 14.672C39.0079 15.361 39.0049 16.049 39.0099 16.738C39.0149 17.381 38.8189 17.999 38.4129 18.628C34.4919 24.695 30.5749 30.765 26.6669 36.841C26.6379 36.886 26.5799 36.944 26.5229 37.001C26.3569 37.166 26.0119 37.51 26.3399 37.913C26.5329 38.152 26.8289 38.152 26.9269 38.152C27.0259 38.152 27.1319 38.142 27.2359 38.131C27.3199 38.122 27.4019 38.112 27.4789 38.112C31.9419 38.116 54.5309 38.116 54.5309 38.116L72.5449 38.117C72.8119 38.117 73.1429 38.117 73.2809 37.862C73.4129 37.619 73.2639 37.33 73.0999 37.079C71.8439 35.152 70.6009 33.217 69.3559 31.283C67.1249 27.814 64.8179 24.227 62.4789 20.737C61.2839 18.957 60.2219 16.969 60.5329 14.508C60.6119 13.884 60.5929 13.248 60.5739 12.635C60.5609 12.194 60.5469 11.753 60.5699 11.315C60.5919 10.889 60.5109 10.594 60.3149 10.387C60.0419 10.101 59.5959 10.064 59.2379 10.064C56.0469 10.075 52.8719 10.082 49.6979 10.082C46.5789 10.082 43.4609 10.075 40.3419 10.059H40.3209ZM20.4659 41.222C20.3329 41.222 19.9259 41.222 19.7599 41.593C19.4429 42.298 19.4149 43.139 19.6729 44.163C19.7659 44.531 20.0419 44.719 20.4939 44.719C20.6189 44.719 20.7509 44.705 20.8789 44.692C20.9829 44.681 21.0839 44.67 21.1739 44.67C27.5079 44.678 33.8409 44.679 40.1729 44.679C40.1729 44.679 73.8089 44.678 78.4989 44.674C78.5779 44.674 78.6659 44.682 78.7549 44.69C78.8639 44.698 78.9759 44.708 79.0829 44.708C79.2289 44.708 79.6719 44.708 79.8419 44.288C80.1269 43.589 80.1499 42.732 79.9099 41.809C79.8029 41.4 79.5049 41.193 79.0259 41.193C78.8789 41.193 78.7229 41.211 78.5709 41.23C78.4479 41.244 78.3289 41.26 78.2219 41.26C66.6299 41.248 55.0379 41.247 43.4459 41.247L26.3749 41.246C24.5859 41.246 22.7979 41.247 21.0099 41.252C20.9339 41.252 20.8529 41.245 20.7709 41.238C20.6689 41.23 20.5649 41.222 20.4659 41.222ZM80.4209 48.015H19.1439C16.6049 48.015 16.1589 47.606 16.1579 45.277L16.1559 43.899C16.1539 42.616 16.1509 41.334 16.1629 40.052C16.1739 38.758 16.7189 38.128 17.8289 38.128C17.9539 38.128 18.0859 38.136 18.2249 38.152C18.5499 38.191 18.8559 38.21 19.1469 38.21C21.0309 38.21 22.3269 37.399 23.4799 35.498C26.1729 31.059 29.0659 26.622 31.8639 22.332C32.9279 20.701 33.9909 19.071 35.0459 17.437C35.3549 16.96 35.3789 16.455 35.3779 16.02C35.3739 14.604 35.3759 9.25604 35.3759 9.25604C35.3749 7.84104 35.6559 6.97704 37.0979 6.74204C37.8039 6.62704 37.8019 6.01404 37.8019 5.81204L37.7969 5.43304C37.7919 5.12104 37.7869 4.81004 37.8109 4.50004C37.8479 4.03004 37.7859 3.38704 36.8259 3.22404C36.0049 3.08404 35.5449 2.60204 35.4939 1.82904C35.4429 1.07304 35.7279 0.556043 36.3629 0.249043H63.2009C63.8339 0.556043 64.1259 1.08604 64.0689 1.82604C64.0269 2.36204 63.7809 3.03204 62.8419 3.18404C62.0229 3.31704 61.6669 3.78204 61.7529 4.60904C61.7869 4.93304 61.7769 5.25904 61.7669 5.60504L61.7609 5.80704C61.7469 6.35204 62.0199 6.67504 62.5719 6.76704C63.6849 6.95504 64.1659 7.60904 64.1799 8.95104L64.2019 10.398C64.2299 12.105 64.2589 13.87 64.1559 15.595C64.0759 16.929 64.7529 17.884 65.4089 18.808C65.5769 19.045 65.7439 19.281 65.8979 19.523C68.1079 23.006 70.3459 26.475 72.5839 29.943C74.1119 32.311 75.6399 34.678 77.1599 37.051C77.5219 37.616 77.9829 38.14 78.8979 38.14C78.9689 38.14 79.0419 38.137 79.1189 38.13C79.4409 38.104 79.7639 38.095 80.0879 38.095C80.3819 38.095 80.6769 38.102 80.9709 38.109L81.5219 38.12C82.7049 38.136 83.3679 38.714 83.3889 39.747C83.4339 41.962 83.4339 44.131 83.3879 46.194C83.3619 47.339 82.7119 47.932 81.3999 48.007C81.2539 48.016 81.1089 48.019 80.9629 48.019L80.4209 48.015Z" fill="#F1EBDF"/>
<path d="M78.2234 41.51C78.4614 41.51 78.7594 41.443 79.0264 41.443C79.3214 41.443 79.5774 41.525 79.6674 41.872C79.8624 42.617 79.9124 43.453 79.6114 44.194C79.5234 44.409 79.3154 44.458 79.0824 44.458C78.8874 44.458 78.6754 44.424 78.4994 44.424C73.5344 44.429 68.5684 44.43 63.6034 44.43C61.2054 44.43 58.8074 44.429 56.4084 44.429H49.6714C46.5894 44.429 43.5084 44.43 40.4254 44.43C34.0094 44.43 27.5924 44.428 21.1764 44.42H21.1744C20.9724 44.42 20.7204 44.469 20.4934 44.469C20.2244 44.469 19.9904 44.401 19.9154 44.103C19.7184 43.321 19.6424 42.465 19.9874 41.695C20.0694 41.513 20.2554 41.471 20.4654 41.471C20.6454 41.471 20.8444 41.502 21.0084 41.502H21.0104C22.7264 41.498 24.4424 41.497 26.1574 41.497C27.5714 41.497 28.9854 41.498 30.3984 41.498C34.5784 41.498 38.7574 41.497 42.9374 41.497C54.6984 41.497 66.4624 41.499 78.2234 41.51ZM26.9264 37.903C26.7694 37.903 26.6274 37.872 26.5334 37.757C26.2764 37.438 26.7214 37.218 26.8774 36.976C30.7854 30.901 34.7024 24.831 38.6234 18.764C39.0284 18.136 39.2654 17.477 39.2604 16.737C39.2474 14.96 39.2844 13.182 39.2444 11.406C39.2264 10.655 39.4094 10.309 40.3214 10.309H40.3404C43.4594 10.325 46.5784 10.332 49.6984 10.332C52.8724 10.332 56.0474 10.325 59.2214 10.314H59.2384C60.0234 10.314 60.3604 10.527 60.3204 11.302C60.2654 12.359 60.4174 13.432 60.2854 14.477C59.9794 16.892 60.9264 18.872 62.2714 20.878C65.8914 26.277 69.3454 31.773 72.8904 37.216C73.2984 37.841 72.9924 37.868 72.5374 37.868C72.4994 37.868 72.4594 37.868 72.4194 37.868C71.2174 37.867 70.0154 37.866 68.8134 37.866C67.2184 37.866 65.6224 37.867 64.0274 37.867H49.7834H42.8154C37.7034 37.867 32.5904 37.866 27.4784 37.863C27.3064 37.863 27.1064 37.903 26.9264 37.903ZM51.2974 3.56204C53.0564 3.56204 54.8154 3.55804 56.5744 3.53904C56.5944 3.53904 56.6134 3.53904 56.6324 3.53904C57.5894 3.53904 58.0324 3.79405 57.8834 4.74305C57.8414 5.01105 57.8514 5.29104 57.8814 5.56204C57.9604 6.27404 57.6174 6.50105 56.8974 6.50105C56.8814 6.50105 56.8664 6.50105 56.8504 6.50005C55.8074 6.48705 54.7634 6.48304 53.7204 6.48304C52.4074 6.48304 51.0944 6.48904 49.7824 6.48904C48.4694 6.48904 47.1564 6.48304 45.8444 6.48304C44.8004 6.48304 43.7574 6.48705 42.7134 6.50005C42.6984 6.50105 42.6824 6.50105 42.6674 6.50105C41.9494 6.50105 41.6604 6.27504 41.6754 5.56204C41.7114 3.74504 41.5714 3.54804 42.5624 3.54804C42.8374 3.54804 43.1994 3.56305 43.6754 3.56305C43.7044 3.56305 43.7334 3.56305 43.7624 3.56305C44.6524 3.55905 45.5414 3.55804 46.4314 3.55804C48.0534 3.55804 49.6754 3.56204 51.2974 3.56204ZM63.2564 4.57764e-05H36.3074C35.4754 0.377046 35.1914 1.05704 35.2434 1.84604C35.3024 2.72404 35.8424 3.31004 36.7834 3.47004C37.4474 3.58304 37.6054 3.92604 37.5614 4.48104C37.5264 4.92304 37.5504 5.36905 37.5514 5.81305C37.5524 6.14505 37.4844 6.42604 37.0584 6.49504C35.3514 6.77304 35.1244 7.94504 35.1254 9.25604C35.1274 11.511 35.1224 13.766 35.1284 16.021C35.1294 16.471 35.0954 16.9 34.8364 17.302C30.9554 23.311 26.9674 29.265 23.2654 35.369C22.1994 37.126 21.0284 37.96 19.1464 37.96C18.8654 37.96 18.5684 37.941 18.2544 37.904C18.1054 37.887 17.9634 37.878 17.8294 37.878C16.5364 37.878 15.9244 38.678 15.9124 40.05C15.8964 41.792 15.9074 43.535 15.9084 45.278C15.9094 47.741 16.4764 48.265 19.1434 48.265C29.3564 48.265 39.5694 48.265 49.7824 48.265C59.9954 48.265 70.2074 48.265 80.4204 48.265C80.6034 48.265 80.7864 48.269 80.9694 48.269C81.1174 48.269 81.2664 48.266 81.4144 48.258C82.8204 48.176 83.6084 47.5 83.6374 46.2C83.6854 44.048 83.6824 41.894 83.6384 39.742C83.6144 38.547 82.8144 37.888 81.5264 37.87C81.0474 37.863 80.5664 37.845 80.0864 37.845C79.7564 37.845 79.4264 37.854 79.0984 37.881C79.0284 37.887 78.9614 37.89 78.8974 37.89C78.1554 37.89 77.7524 37.513 77.3694 36.916C73.6254 31.068 69.8274 25.25 66.1084 19.389C65.3684 18.222 64.3104 17.188 64.4054 15.609C64.5384 13.395 64.4534 11.169 64.4304 8.94804C64.4174 7.77804 64.0744 6.76805 62.6134 6.52105C62.1574 6.44405 62.0004 6.21105 62.0104 5.81305C62.0214 5.40305 62.0434 4.99005 62.0014 4.58305C61.9354 3.94505 62.1324 3.55205 62.8824 3.43105C63.8074 3.28105 64.2554 2.65904 64.3184 1.84604C64.3794 1.05804 64.0894 0.377046 63.2564 4.57764e-05ZM78.2224 41.01C66.4614 40.999 54.6984 40.997 42.9374 40.997L36.6684 40.998H30.3984L28.2784 40.997H26.1574C24.4414 40.997 22.7254 40.998 21.0084 41.002C20.9414 41.002 20.8674 40.996 20.7914 40.989C20.6824 40.98 20.5714 40.971 20.4654 40.971C19.8854 40.971 19.6374 41.254 19.5314 41.49C19.1914 42.249 19.1584 43.144 19.4304 44.225C19.5004 44.502 19.7314 44.969 20.4934 44.969C20.6264 44.969 20.7684 44.955 20.9054 44.941C21.0004 44.931 21.0924 44.92 21.1754 44.92C27.5924 44.928 34.0094 44.93 40.4254 44.93H45.0484L49.6714 44.929H56.4084H60.0064L63.6034 44.93C68.5694 44.93 73.5334 44.929 78.4994 44.924C78.5724 44.924 78.6524 44.932 78.7344 44.938C78.8504 44.948 78.9684 44.958 79.0824 44.958C79.7084 44.958 79.9674 44.645 80.0744 44.383C80.3794 43.633 80.4064 42.721 80.1514 41.746C80.0734 41.446 79.8224 40.943 79.0264 40.943C78.8694 40.943 78.7034 40.962 78.5414 40.981C78.4294 40.995 78.3194 41.01 78.2224 41.01ZM26.9264 38.403C27.0344 38.403 27.1484 38.392 27.2614 38.38C27.3364 38.372 27.4104 38.363 27.4784 38.363C32.5904 38.366 37.7024 38.367 42.8154 38.367H46.2994H49.7834H64.0274H66.4204L68.8134 38.366L72.4184 38.368H72.4714H72.5374C72.8374 38.368 73.2914 38.368 73.5014 37.982C73.7214 37.575 73.4324 37.132 73.3094 36.943C72.0514 35.012 70.8054 33.074 69.5594 31.137C67.3294 27.67 65.0244 24.086 62.6864 20.599C61.5194 18.858 60.4804 16.919 60.7814 14.539C60.8624 13.896 60.8434 13.251 60.8244 12.628C60.8104 12.178 60.7974 11.752 60.8194 11.328C60.8454 10.835 60.7394 10.471 60.4964 10.215C60.1584 9.86004 59.6464 9.81404 59.2204 9.81404C56.0464 9.82504 52.8714 9.83204 49.6984 9.83204C46.5794 9.83204 43.4614 9.82504 40.3214 9.80904C39.9614 9.80904 39.4434 9.85004 39.0984 10.202C38.7694 10.539 38.7344 11.006 38.7444 11.417C38.7694 12.498 38.7644 13.6 38.7604 14.665C38.7584 15.357 38.7554 16.049 38.7604 16.74C38.7644 17.341 38.5874 17.898 38.2034 18.492C34.2824 24.56 30.3644 30.63 26.4574 36.705C26.4424 36.729 26.3844 36.785 26.3474 36.823C25.9014 37.267 25.8334 37.687 26.1454 38.071C26.3234 38.291 26.5864 38.403 26.9264 38.403ZM51.2974 3.06204L48.8654 3.06004L46.4314 3.05804C45.5414 3.05804 44.6514 3.05905 43.7604 3.06305H43.6754C43.4084 3.06305 43.1784 3.05804 42.9794 3.05404C42.8224 3.05104 42.6844 3.04804 42.5624 3.04804C41.2004 3.04804 41.1944 3.72304 41.1834 4.94904C41.1814 5.12704 41.1794 5.32704 41.1754 5.55204C41.1694 5.85704 41.1974 6.30104 41.5164 6.62704C41.8454 6.96204 42.3304 7.00105 42.6674 7.00105L42.7174 7.00005H42.7204C43.7614 6.98705 44.8024 6.98304 45.8444 6.98304L47.8124 6.98605L49.7824 6.98904L51.7524 6.98605L53.7204 6.98304C54.7614 6.98304 55.8034 6.98705 56.8444 7.00005L56.8944 7.00105H56.8974C57.2574 7.00105 57.7754 6.95804 58.1074 6.58604C58.3414 6.32504 58.4304 5.97205 58.3784 5.50705C58.3484 5.23405 58.3484 5.01005 58.3774 4.82005C58.4664 4.25605 58.3814 3.83305 58.1204 3.52805C57.7494 3.09405 57.1304 3.03904 56.6324 3.03904H56.5694C54.8124 3.05804 53.0544 3.06204 51.2974 3.06204ZM63.1424 0.500046C63.6524 0.764046 63.8684 1.18304 63.8194 1.80704C63.7684 2.46504 63.4364 2.83504 62.8024 2.93704C62.1404 3.04404 61.3784 3.42504 61.5044 4.63504C61.5364 4.94204 61.5264 5.26105 61.5164 5.59805L61.5104 5.80005C61.4944 6.46905 61.8554 6.90105 62.5304 7.01405C63.5244 7.18205 63.9164 7.72604 63.9304 8.95404C63.9354 9.43804 63.9434 9.92204 63.9514 10.406C63.9794 12.107 64.0084 13.866 63.9064 15.579C63.8204 17.001 64.5554 18.037 65.2034 18.951C65.3694 19.185 65.5344 19.418 65.6864 19.657C67.8944 23.136 70.1664 26.658 72.3644 30.063C73.8954 32.436 75.4264 34.808 76.9484 37.186C77.3304 37.781 77.8594 38.39 78.8974 38.39C78.9744 38.39 79.0554 38.386 79.1394 38.379C79.4204 38.356 79.7214 38.345 80.0864 38.345C80.3744 38.345 80.6624 38.352 80.9514 38.358C81.1404 38.363 81.3304 38.367 81.5194 38.37C82.2454 38.38 83.1154 38.628 83.1384 39.753C83.1834 41.961 83.1834 44.127 83.1374 46.189C83.1234 46.82 82.9264 47.669 81.3854 47.758C81.2474 47.766 81.1084 47.769 80.9694 47.769L80.6994 47.767L80.4204 47.765H49.7824H19.1434C16.7414 47.765 16.4084 47.463 16.4084 45.277L16.4064 43.846C16.4034 42.582 16.4014 41.318 16.4124 40.054C16.4254 38.569 17.1764 38.378 17.8294 38.378C17.9454 38.378 18.0674 38.386 18.1954 38.401C18.5294 38.44 18.8494 38.46 19.1464 38.46C21.1294 38.46 22.4884 37.613 23.6934 35.628C26.3844 31.191 29.2764 26.757 32.0734 22.469C33.1374 20.838 34.2004 19.208 35.2564 17.573C35.5854 17.063 35.6294 16.525 35.6284 16.02C35.6244 14.61 35.6244 13.2 35.6254 11.791V9.25604C35.6244 7.94504 35.8654 7.19604 37.1384 6.98904C37.5564 6.92104 38.0534 6.66104 38.0514 5.81204C38.0514 5.68504 38.0494 5.55804 38.0474 5.43004C38.0414 5.11404 38.0364 4.81404 38.0604 4.52004C38.1284 3.64304 37.7274 3.12404 36.8684 2.97704C36.1644 2.85704 35.7864 2.46605 35.7424 1.81305C35.7004 1.18305 35.9174 0.763046 36.4224 0.500046H63.1424Z" fill="#7C7958"/>
<path d="M22.0028 104.749C21.3038 104.428 21.0048 103.9 21.0078 102.997C21.0198 98.542 21.0198 94.086 21.0188 89.63L21.0208 82.182C21.0218 81.046 21.6638 80.367 22.7398 80.367C23.8978 80.381 24.4228 80.942 24.4238 82.137C24.4288 86.123 24.4288 100.08 24.4288 100.08C24.4288 101.487 24.5198 101.689 25.9068 101.689L26.9548 101.691C27.5108 101.691 27.8648 101.676 28.0858 101.451C28.3208 101.213 28.3168 100.861 28.3088 100.16L28.3048 99.613C28.3118 93.769 28.3118 87.925 28.3028 82.08C28.3018 81.223 28.5868 80.749 29.2558 80.493C29.5278 80.39 29.7918 80.337 30.0408 80.337C30.4548 80.337 30.8278 80.482 31.1478 80.77C31.6578 81.227 31.7268 81.855 31.7248 82.467C31.7138 87.014 31.7148 91.561 31.7168 96.108L31.7178 100.001C31.7178 101.58 31.8378 101.69 33.5468 101.69H66.1278C67.7338 101.69 67.8458 101.587 67.8458 100.103C67.8458 100.103 67.8458 86.247 67.8498 82.365C67.8518 81.124 68.4178 80.415 69.4428 80.368L69.5938 80.364C70.6918 80.364 71.2498 80.941 71.2528 82.081C71.2598 85.566 71.2588 89.053 71.2578 92.538L71.2568 96.229L71.2608 97.473C71.2658 98.492 71.2708 99.512 71.2488 100.53C71.2428 100.788 71.2638 101.159 71.5108 101.412C71.7028 101.608 71.9868 101.699 72.4048 101.699C72.7958 101.693 73.0908 101.693 73.3458 101.693C74.2718 101.692 74.6938 101.691 74.9468 101.43C75.1788 101.189 75.1668 100.837 75.1458 100.196C75.1368 99.941 75.1268 99.633 75.1278 99.261C75.1528 93.793 75.1438 88.325 75.1338 82.858L75.1318 82.033C75.1298 81.128 75.5028 80.613 76.3058 80.414C76.4978 80.367 76.6828 80.344 76.8568 80.344C77.4708 80.344 77.9828 80.643 78.3778 81.233C78.5438 81.48 78.5438 81.745 78.5438 82.051L78.5448 88.977C78.5448 93.685 78.5448 98.393 78.5538 103.101C78.5558 103.917 78.2488 104.428 77.5608 104.749H22.0028Z" fill="#F1EBDF"/>
<path d="M30.0403 80.0875C29.7573 80.0875 29.4633 80.1475 29.1663 80.2605C28.2913 80.5935 28.0523 81.2615 28.0533 82.0805C28.0613 87.9245 28.0623 93.7695 28.0543 99.6135C28.0523 101.327 28.2263 101.442 26.9603 101.442C26.7633 101.442 26.5313 101.44 26.2583 101.44C26.2143 101.44 26.1683 101.44 26.1213 101.44C26.0433 101.44 25.9683 101.441 25.8983 101.441C24.6813 101.441 24.6783 101.364 24.6783 100.081C24.6773 94.0985 24.6813 88.1175 24.6743 82.1365C24.6723 80.8045 24.0223 80.1325 22.7733 80.1175C22.7623 80.1175 22.7503 80.1175 22.7393 80.1175C21.5303 80.1175 20.7713 80.8955 20.7703 82.1825C20.7653 89.1205 20.7763 96.0585 20.7573 102.997C20.7553 103.904 21.0303 104.6 21.9493 105H77.6143C78.4773 104.618 78.8063 103.978 78.8043 103.1C78.7893 96.0935 78.7963 89.0865 78.7933 82.0795C78.7933 81.7425 78.8003 81.4145 78.5863 81.0945C78.1503 80.4425 77.5693 80.0935 76.8573 80.0935C76.6633 80.0935 76.4593 80.1195 76.2463 80.1725C75.2603 80.4165 74.8803 81.1025 74.8823 82.0345C74.8923 87.7755 74.9043 93.5175 74.8783 99.2595C74.8663 101.733 75.3823 101.403 72.4493 101.45C72.4333 101.45 72.4183 101.45 72.4043 101.45C71.7063 101.45 71.4843 101.173 71.4983 100.537C71.5303 99.1015 71.5073 97.6655 71.5073 96.2305C71.5073 91.5135 71.5133 86.7965 71.5023 82.0805C71.4993 80.7925 70.8183 80.1145 69.5933 80.1145C69.5403 80.1145 69.4863 80.1155 69.4323 80.1185C68.2813 80.1715 67.6013 80.9845 67.6003 82.3655C67.5933 88.2775 67.5973 94.1905 67.5963 100.104C67.5963 101.439 67.5933 101.441 66.1273 101.441C60.1583 101.442 54.1893 101.442 48.2193 101.442C43.3283 101.442 38.4373 101.442 33.5473 101.442C31.9693 101.442 31.9683 101.44 31.9673 100.002C31.9673 94.1565 31.9613 88.3125 31.9753 82.4675C31.9773 81.7565 31.8743 81.0855 31.3143 80.5835C30.9363 80.2445 30.5013 80.0875 30.0403 80.0875ZM30.0403 80.5875C30.3963 80.5875 30.7033 80.7085 30.9813 80.9565C31.3383 81.2765 31.4773 81.6995 31.4753 82.4665C31.4643 87.1215 31.4653 91.7755 31.4673 96.4305V100.002C31.4683 101.724 31.7013 101.942 33.5473 101.942H48.2193L66.1273 101.941C67.8563 101.941 68.0963 101.718 68.0963 100.104V94.0535C68.0963 90.1575 68.0963 86.2615 68.1003 82.3655C68.1013 81.5965 68.3363 80.6695 69.4553 80.6175C69.5023 80.6155 69.5483 80.6145 69.5933 80.6145C70.5523 80.6145 71.0003 81.0805 71.0023 82.0815C71.0103 85.4845 71.0093 88.8875 71.0083 92.2905L71.0073 96.2305C71.0073 96.6515 71.0093 97.0715 71.0113 97.4925C71.0163 98.4875 71.0213 99.5165 70.9983 100.526C70.9913 100.828 71.0193 101.267 71.3323 101.588C71.5713 101.832 71.9213 101.95 72.4043 101.95H72.4533H72.4573C72.7993 101.944 73.0943 101.944 73.3473 101.944C74.3453 101.942 74.8003 101.942 75.1263 101.604C75.4323 101.288 75.4183 100.874 75.3953 100.188C75.3863 99.9355 75.3763 99.6305 75.3783 99.2625C75.4033 93.6925 75.3933 88.0305 75.3833 82.5545L75.3823 82.0335C75.3803 81.2505 75.6843 80.8265 76.3663 80.6575C76.5373 80.6155 76.7033 80.5935 76.8573 80.5935C77.3903 80.5935 77.8203 80.8485 78.1703 81.3725C78.2873 81.5475 78.2933 81.7345 78.2933 82.0805L78.2943 88.7895C78.2943 93.5595 78.2943 98.3305 78.3043 103.101C78.3053 103.807 78.0723 104.219 77.5043 104.5H22.0593C21.4823 104.219 21.2553 103.789 21.2573 102.999C21.2693 98.5405 21.2693 94.0835 21.2693 89.6255C21.2683 87.1445 21.2683 84.6635 21.2703 82.1825C21.2713 81.1725 21.7923 80.6175 22.7673 80.6175C23.7523 80.6295 24.1733 81.0835 24.1743 82.1375C24.1793 86.1595 24.1783 90.1815 24.1783 94.2045V100.081C24.1783 101.564 24.3473 101.941 25.8983 101.941L26.1233 101.94H26.2583L26.6633 101.941L26.9603 101.942C27.5603 101.942 27.9743 101.921 28.2643 101.628C28.5723 101.315 28.5673 100.904 28.5583 100.158C28.5563 99.9975 28.5543 99.8165 28.5543 99.6145C28.5623 93.7695 28.5613 87.9245 28.5533 82.0795C28.5523 81.3235 28.7743 80.9445 29.3443 80.7275C29.5883 80.6345 29.8223 80.5875 30.0403 80.5875Z" fill="#7C7958"/>
<path d="M32.6312 63.3676C32.4852 63.3676 32.0412 63.3676 31.8712 63.7866C31.5862 64.4866 31.5632 65.3446 31.8042 66.2666C31.9102 66.6756 32.2072 66.8826 32.6852 66.8826C32.8322 66.8826 32.9882 66.8636 33.1392 66.8456C33.2622 66.8306 33.3822 66.8146 33.4882 66.8146C39.2292 66.8266 44.9682 66.8286 50.7082 66.8286L63.8012 66.8226C64.7422 66.8226 65.6822 66.8256 66.6222 66.8366H66.6262C66.9632 66.8366 67.3812 66.8026 67.6382 66.5196C67.8162 66.3226 67.8852 66.0476 67.8492 65.6776C67.8272 65.4636 67.8082 65.1836 67.8502 64.9216C67.9292 64.4156 67.8622 64.0466 67.6452 63.7916C67.3302 63.4236 66.7552 63.3766 66.2892 63.3766C63.6142 63.3966 60.9902 63.4026 58.3682 63.4026L44.2472 63.3956C40.5692 63.3956 36.8922 63.3966 33.2142 63.4016C33.1352 63.4016 33.0482 63.3936 32.9582 63.3866C32.8492 63.3776 32.7372 63.3676 32.6312 63.3676ZM5.66515 70.1646C5.29515 70.1646 4.92515 70.1666 4.55615 70.1736C4.38615 70.1766 3.87115 70.1846 3.76815 70.6266C3.54315 71.5926 3.54515 72.3976 3.77515 73.0896C3.90015 73.4636 4.19515 73.6536 4.65515 73.6536C4.80515 73.6536 4.96515 73.6346 5.12115 73.6156C5.24915 73.5996 5.37315 73.5836 5.48515 73.5836C16.0282 73.5946 26.5722 73.5956 37.1132 73.5956H93.9552C94.2882 73.5956 94.6212 73.5956 94.9542 73.5886C95.1882 73.5846 95.7372 73.5736 95.8202 73.0706C95.9552 72.2586 96.1002 71.3726 95.7532 70.6036C95.5242 70.0986 95.0072 70.0986 94.8382 70.0986C94.6732 70.0986 94.4992 70.1196 94.3282 70.1386C94.1832 70.1566 94.0422 70.1746 93.9142 70.1746C72.6412 70.1656 51.3712 70.1636 30.1012 70.1636L5.66515 70.1646ZM2.67015 76.7256C0.643153 76.7256 0.259155 76.3746 0.254155 74.5136C0.250155 72.7036 0.246154 70.8926 0.256154 69.0816C0.264154 67.4266 0.932153 66.8386 2.80515 66.8336C5.26715 66.8276 7.72915 66.8256 10.1912 66.8256L19.2612 66.8276C20.9022 66.8276 21.0162 66.7196 21.0172 65.1726L21.0202 53.2786C21.0212 52.4956 21.2862 52.0056 21.8802 51.6906C22.1662 51.5386 22.4402 51.4646 22.7182 51.4646C23.0412 51.4646 23.3642 51.5646 23.7052 51.7716C24.2202 52.0846 24.4382 52.5146 24.4352 53.2146C24.4292 54.7476 24.4312 56.2796 24.4322 57.8126C24.4352 60.3126 24.4382 62.8116 24.4062 65.3116C24.4012 65.7316 24.4362 66.2036 24.7392 66.5106C24.9692 66.7436 25.3212 66.8516 25.8472 66.8516C25.8472 66.8516 26.5332 66.8336 26.7412 66.8286C28.2112 66.7986 28.3282 66.6826 28.3082 65.2916C28.3062 65.1076 28.3022 64.8956 28.3032 64.6536C28.3112 62.3186 28.3102 59.9836 28.3082 57.6486V53.4756C28.3082 52.5596 28.5842 51.4676 29.8942 51.4676C31.0332 51.4896 31.7122 52.2906 31.7152 53.5586L31.7202 54.7016C31.7282 56.1306 31.7352 57.5586 31.7052 58.9876C31.6982 59.3056 31.7242 59.7036 31.9832 59.9686C32.1912 60.1796 32.5132 60.2786 32.9982 60.2786C38.6742 60.2676 44.3472 60.2636 50.0192 60.2636C55.5382 60.2636 61.0572 60.2676 66.5762 60.2756C67.0722 60.2756 67.3822 60.1816 67.5882 59.9726C67.7802 59.7766 67.8662 59.4916 67.8592 59.0756C67.8172 56.7686 67.8182 54.8836 67.8622 53.1396C67.8892 52.0726 68.7372 51.5136 69.5612 51.5136C69.9232 51.5136 70.2942 51.6166 70.6332 51.8096C71.2152 52.1406 71.2582 52.6086 71.2582 53.2846L71.2612 56.7936C71.2672 59.6556 71.2722 62.5186 71.2352 65.3816C71.2292 65.9316 71.3282 66.2816 71.5592 66.5146C71.7862 66.7456 72.1232 66.8486 72.6522 66.8486C72.6522 66.8486 73.3382 66.8326 73.5502 66.8286C75.0382 66.8046 75.1562 66.6896 75.1372 65.3026C75.1342 65.1236 75.1312 64.9196 75.1322 64.6866C75.1402 62.3846 75.1392 60.0816 75.1382 57.7776V53.4066C75.1392 52.1696 75.7542 51.4586 76.8242 51.4586C77.9302 51.4796 78.5392 52.1856 78.5422 53.3956L78.5462 54.6786C78.5552 58.2216 78.5652 61.8886 78.5292 65.4906C78.5242 65.9816 78.6182 66.2986 78.8342 66.5156C79.0612 66.7456 79.3982 66.8436 79.9612 66.8436C82.7702 66.8276 85.5532 66.8236 88.3352 66.8236L96.4432 66.8296C98.7732 66.8316 99.3092 67.3316 99.3102 69.5046L99.3132 70.9706C99.3162 72.2586 99.3192 73.5456 99.3052 74.8336C99.2892 76.2826 98.8002 76.7236 97.2102 76.7246L73.3842 76.7256H2.67015Z" fill="#F1EBDF"/>
<path d="M93.9123 70.4246C94.1923 70.4246 94.5333 70.3486 94.8373 70.3486C95.1343 70.3486 95.3953 70.4216 95.5253 70.7076C95.8463 71.4166 95.7023 72.2536 95.5743 73.0296C95.5273 73.3136 95.2123 73.3326 94.9483 73.3386C94.6173 73.3456 94.2863 73.3456 93.9553 73.3456C79.2283 73.3456 64.5023 73.3456 49.7763 73.3456C45.6513 73.3456 41.5283 73.3456 37.4033 73.3456C26.7653 73.3456 16.1253 73.3446 5.48727 73.3336C5.23927 73.3336 4.93027 73.4036 4.65527 73.4036C4.36827 73.4036 4.11727 73.3266 4.01227 73.0106C3.76727 72.2756 3.83127 71.4566 4.01127 70.6836C4.06327 70.4616 4.33228 70.4266 4.56028 70.4226C4.92828 70.4166 5.29627 70.4146 5.66427 70.4146C12.5393 70.4146 19.4123 70.4136 26.2863 70.4136C48.8283 70.4136 71.3703 70.4156 93.9113 70.4246H93.9123ZM32.6863 66.6326C32.3923 66.6326 32.1363 66.5506 32.0453 66.2036C31.8513 65.4586 31.8003 64.6226 32.1023 63.8816C32.1903 63.6666 32.3973 63.6176 32.6313 63.6176C32.8253 63.6176 33.0373 63.6516 33.2133 63.6516H33.2153C36.6143 63.6466 40.0133 63.6456 43.4133 63.6456C45.5353 63.6456 47.6593 63.6466 49.7823 63.6466C52.6083 63.6466 55.4343 63.6526 58.2603 63.6526C60.9193 63.6526 63.5793 63.6466 66.2383 63.6256C66.2543 63.6256 66.2693 63.6256 66.2853 63.6256C67.2983 63.6256 67.7593 63.8896 67.6033 64.8826C67.5613 65.1506 67.5733 65.4306 67.6003 65.7016C67.6653 66.3676 67.3393 66.5866 66.6633 66.5866C66.6513 66.5866 66.6383 66.5866 66.6253 66.5866C65.6963 66.5756 64.7683 66.5726 63.8403 66.5726C62.5963 66.5726 61.3523 66.5786 60.1093 66.5786C56.9403 66.5786 53.7733 66.5786 50.6043 66.5786C44.9003 66.5786 39.1953 66.5766 33.4913 66.5656H33.4893C33.2513 66.5656 32.9523 66.6326 32.6863 66.6326ZM76.8243 51.2086C75.6223 51.2086 74.8893 52.0306 74.8883 53.4066C74.8843 57.1666 74.8953 60.9266 74.8833 64.6856C74.8763 66.8136 75.1653 66.5176 72.8003 66.5966C72.7493 66.5986 72.7003 66.5996 72.6523 66.5996C71.7533 66.5996 71.4743 66.2876 71.4853 65.3836C71.5373 61.3516 71.5063 57.3186 71.5083 53.2856C71.5083 52.6226 71.4733 52.0006 70.7573 51.5926C70.3633 51.3686 69.9513 51.2646 69.5613 51.2646C68.5283 51.2646 67.6413 51.9896 67.6123 53.1346C67.5623 55.1156 67.5733 57.0996 67.6093 59.0806C67.6223 59.7986 67.3373 60.0256 66.5823 60.0256H66.5773C61.0583 60.0176 55.5383 60.0136 50.0193 60.0136C44.3473 60.0136 38.6743 60.0186 33.0023 60.0286H32.9953C32.1443 60.0286 31.9403 59.7146 31.9553 58.9926C31.9933 57.1816 31.9713 55.3696 31.9653 53.5586C31.9613 52.1496 31.1743 51.2436 29.9493 51.2176C29.9313 51.2176 29.9133 51.2176 29.8953 51.2176C28.7133 51.2176 28.0593 52.0156 28.0583 53.4766C28.0553 57.2016 28.0663 60.9276 28.0533 64.6526C28.0463 66.8086 28.3403 66.5106 26.0073 66.5986C25.9513 66.6016 25.8983 66.6016 25.8473 66.6016C24.8883 66.6016 24.6443 66.2336 24.6563 65.3146C24.7073 61.2826 24.6683 57.2486 24.6853 53.2156C24.6883 52.5136 24.4823 51.9506 23.8353 51.5586C23.4663 51.3346 23.0963 51.2146 22.7183 51.2146C22.4063 51.2146 22.0893 51.2966 21.7623 51.4696C20.9953 51.8766 20.7713 52.5246 20.7703 53.2786C20.7663 57.2436 20.7683 61.2076 20.7673 65.1726C20.7663 66.5756 20.7653 66.5776 19.2613 66.5776C18.8723 66.5776 18.4833 66.5776 18.0953 66.5776C15.4693 66.5776 12.8433 66.5756 10.2173 66.5756C7.74627 66.5756 5.27527 66.5776 2.80527 66.5836C0.780272 66.5886 0.0152757 67.2876 0.00627569 69.0806C-0.00372431 70.8926 0.000276786 72.7036 0.00427679 74.5156C0.00927679 76.5116 0.513277 76.9756 2.67028 76.9756C10.4593 76.9766 18.2453 76.9766 26.0343 76.9766C33.9283 76.9766 41.8253 76.9766 49.7193 76.9766C56.7443 76.9766 63.7693 76.9766 70.7943 76.9766C79.5993 76.9766 88.4053 76.9766 97.2103 76.9746C98.9393 76.9746 99.5383 76.4346 99.5553 74.8366C99.5743 73.0596 99.5613 71.2816 99.5603 69.5046C99.5593 67.1806 98.9253 66.5806 96.4433 66.5796C93.7393 66.5776 91.0373 66.5736 88.3333 66.5736C85.5513 66.5736 82.7693 66.5776 79.9873 66.5936H79.9593C79.0803 66.5936 78.7703 66.3496 78.7793 65.4936C78.8193 61.4616 78.8023 57.4276 78.7923 53.3946C78.7893 52.0406 78.0613 51.2326 76.8773 51.2096C76.8593 51.2086 76.8413 51.2086 76.8243 51.2086ZM93.9113 69.9246C71.3723 69.9156 48.8263 69.9136 26.2863 69.9136L13.0303 69.9146H5.66427C5.29327 69.9146 4.92227 69.9166 4.55127 69.9226C3.82427 69.9366 3.59227 70.2816 3.52427 70.5696C3.28827 71.5826 3.29327 72.4326 3.53827 73.1686C3.64927 73.5036 3.93427 73.9036 4.65527 73.9036C4.81627 73.9036 4.98627 73.8846 5.15327 73.8636C5.27027 73.8496 5.38427 73.8336 5.48627 73.8336C16.1243 73.8446 26.7653 73.8456 37.4033 73.8456H43.5893H49.7763H93.9553C94.2893 73.8456 94.6243 73.8456 94.9593 73.8386C95.2043 73.8336 95.9513 73.8186 96.0723 73.0786C96.2073 72.2626 96.3593 71.3386 95.9803 70.5016C95.8453 70.2036 95.5383 69.8486 94.8373 69.8486C94.6633 69.8486 94.4783 69.8696 94.2973 69.8916C94.1623 69.9076 94.0303 69.9246 93.9113 69.9246ZM32.6863 67.1326C32.8433 67.1326 33.0093 67.1136 33.1703 67.0936C33.2823 67.0806 33.3913 67.0656 33.4903 67.0656C39.1943 67.0766 44.9003 67.0786 50.6043 67.0786H55.3563H60.1093L61.9753 67.0756L63.8403 67.0726C64.7663 67.0726 65.6923 67.0756 66.6633 67.0866C67.0063 67.0866 67.4993 67.0456 67.8233 66.6876C68.0483 66.4396 68.1403 66.0906 68.0973 65.6526C68.0783 65.4536 68.0603 65.1946 68.0973 64.9596C68.1883 64.3776 68.1023 63.9426 67.8343 63.6286C67.4533 63.1826 66.8063 63.1256 66.2853 63.1256H66.2363H66.2343C63.5763 63.1466 60.9183 63.1526 58.2603 63.1526L54.0213 63.1496L49.7823 63.1466L46.5973 63.1456H43.4133C40.0133 63.1456 36.6143 63.1466 33.2133 63.1516C33.1403 63.1516 33.0603 63.1436 32.9783 63.1376C32.8623 63.1276 32.7443 63.1176 32.6313 63.1176C32.0043 63.1176 31.7463 63.4306 31.6393 63.6926C31.3343 64.4426 31.3073 65.3546 31.5623 66.3296C31.6403 66.6296 31.8903 67.1326 32.6863 67.1326ZM76.8243 51.7086L76.8673 51.7096C78.1033 51.7336 78.2913 52.7766 78.2923 53.3956L78.2963 54.7056C78.3053 58.2406 78.3153 61.8956 78.2793 65.4886C78.2753 65.8386 78.3103 66.3436 78.6563 66.6926C79.0073 67.0476 79.5363 67.0936 79.9883 67.0936H79.9903C82.7703 67.0776 85.5523 67.0736 88.3333 67.0736C90.0953 67.0736 91.8573 67.0746 93.6193 67.0766L96.4433 67.0796C98.6433 67.0806 99.0593 67.4666 99.0603 69.5056L99.0633 70.9496C99.0663 72.2436 99.0693 73.5376 99.0553 74.8316C99.0423 76.0646 98.7733 76.4746 97.2103 76.4746L70.7943 76.4766H60.2573H49.7193H26.0343L2.67028 76.4756C0.792277 76.4756 0.508277 76.2196 0.504277 74.5136C0.500277 72.7036 0.496276 70.8936 0.506276 69.0836C0.513276 67.7316 0.859271 67.0876 2.80627 67.0836C5.27627 67.0776 7.74727 67.0756 10.2173 67.0756L14.1563 67.0766L18.0953 67.0776H19.2613C21.0413 67.0776 21.2663 66.8636 21.2673 65.1726V60.8316C21.2683 58.3136 21.2683 55.7966 21.2703 53.2786C21.2713 52.5806 21.4813 52.1846 21.9963 51.9116C22.2463 51.7796 22.4823 51.7146 22.7183 51.7146C22.9943 51.7146 23.2753 51.8036 23.5753 51.9856C24.0113 52.2496 24.1883 52.6056 24.1853 53.2136C24.1793 54.7476 24.1803 56.2826 24.1823 57.8166C24.1853 60.2726 24.1883 62.8126 24.1563 65.3086C24.1503 65.7806 24.1933 66.3136 24.5613 66.6866C24.9293 67.0586 25.4713 67.1016 25.8473 67.1016C25.9043 67.1016 25.9643 67.1006 26.0263 67.0986C26.3013 67.0886 26.5393 67.0836 26.7453 67.0786C28.3603 67.0456 28.5803 66.8276 28.5583 65.2886C28.5553 65.1056 28.5523 64.8956 28.5533 64.6546C28.5613 62.2816 28.5603 59.9086 28.5583 57.5356C28.5573 56.1826 28.5573 54.8296 28.5583 53.4766C28.5593 51.7456 29.5333 51.7176 29.9213 51.7176H29.9393C30.8913 51.7376 31.4623 52.4256 31.4653 53.5596L31.4713 54.7096C31.4783 56.1106 31.4853 57.5606 31.4553 58.9816C31.4473 59.3486 31.4803 59.8116 31.8053 60.1436C32.1433 60.4886 32.6463 60.5286 33.0033 60.5286C38.6753 60.5186 44.3473 60.5136 50.0193 60.5136C55.5383 60.5136 61.0573 60.5176 66.5823 60.5256C66.9603 60.5256 67.4373 60.4826 67.7663 60.1486C68.0853 59.8236 68.1143 59.3786 68.1093 59.0716C68.0673 56.7656 68.0683 54.8836 68.1123 53.1466C68.1363 52.1966 68.8803 51.7646 69.5613 51.7646C69.8803 51.7646 70.2083 51.8556 70.5103 52.0276C70.9593 52.2836 71.0083 52.6226 71.0083 53.2846C71.0073 54.4506 71.0093 55.6166 71.0123 56.7826C71.0173 59.6006 71.0223 62.5146 70.9853 65.3776C70.9803 65.7976 71.0203 66.3266 71.3813 66.6916C71.7383 67.0526 72.2483 67.0996 72.6523 67.0996C72.7053 67.0996 72.7603 67.0986 72.8173 67.0966C73.0993 67.0866 73.3423 67.0826 73.5533 67.0796C75.1853 67.0526 75.4083 66.8356 75.3873 65.2986C75.3853 65.1216 75.3823 64.9186 75.3833 64.6876C75.3903 62.3916 75.3893 60.0946 75.3883 57.7986C75.3873 56.3346 75.3863 54.8706 75.3883 53.4076C75.3883 52.7726 75.5763 51.7086 76.8243 51.7086Z" fill="#7C7958"/>
</g>
</svg>
