<svg width="87" height="87" viewBox="0 0 87 87" fill="none" xmlns="http://www.w3.org/2000/svg">
<g opacity="0.460007">
<path d="M48.0706 38.8864C47.5426 38.8864 47.2746 39.1474 47.2726 39.6604C47.2716 40.0384 47.2656 40.4164 47.2586 40.7944C47.2326 42.3214 47.2056 43.9004 47.5626 45.4414C48.6416 50.0964 52.5456 53.1394 57.5076 53.1944C59.7286 53.2184 61.9496 53.2314 64.1716 53.2314C66.3926 53.2314 68.6136 53.2184 70.8346 53.1954C75.8326 53.1404 79.7466 50.0654 80.8056 45.3604C81.0816 44.1324 81.0836 42.8744 81.0846 41.6594C81.0856 41.1724 81.0856 40.6854 81.1036 40.1984C81.1216 39.7104 81.0376 39.3974 80.8326 39.1844C80.5716 38.9124 80.1616 38.8764 79.7946 38.8764C77.1776 38.8934 74.5946 38.8974 72.0126 38.8974L53.6166 38.8924C51.8836 38.8924 50.1506 38.8934 48.4166 38.8974L48.0706 38.8864ZM10.8836 58.7704C11.0306 58.7704 11.1776 58.7734 11.3246 58.7844C11.4036 58.7914 11.4776 58.7944 11.5466 58.7944C11.7536 58.7944 12.0496 58.7684 12.2326 58.5394C12.4346 58.2854 12.3786 57.9124 12.3196 57.6554C12.1156 56.7644 11.9546 55.8454 11.7986 54.9564C11.7266 54.5494 11.6546 54.1434 11.5796 53.7374L10.6796 48.9124C9.59862 43.1184 8.51762 37.3244 7.45662 31.5264C7.32762 30.8214 6.99461 30.5204 6.34361 30.5204L6.22862 30.5234C5.84562 30.5414 5.46261 30.5514 5.07961 30.5514C4.71661 30.5514 4.35362 30.5424 3.99162 30.5234L3.82062 30.5184C3.58262 30.5184 3.24262 30.5464 3.03762 30.7934C2.81662 31.0594 2.85662 31.4564 2.91562 31.7734C3.92462 37.1554 4.91762 42.5394 5.90962 47.9244L7.50261 56.5504C7.56461 56.8844 7.60862 57.1644 7.64562 57.3974C7.82562 58.5404 7.90061 58.7824 8.95461 58.7824L9.72262 58.7774L10.1226 58.7804L10.8836 58.7704ZM37.7586 64.3544C38.5256 64.3544 38.8946 64.0644 39.0706 63.8204C39.2486 63.5724 39.4086 63.1164 39.1546 62.3614C38.8066 61.3234 37.9186 61.1904 37.1826 61.1904L25.5996 61.1924C20.1786 61.1924 14.7596 61.1894 9.33962 61.1804C9.04062 61.1804 8.62761 61.2124 8.37761 61.4874C8.19961 61.6824 8.13062 61.9634 8.16662 62.3444C8.17762 62.4674 8.17461 62.5924 8.17061 62.7164L8.16762 62.9304C8.17362 64.2334 8.29061 64.3534 9.56661 64.3544H23.5756H37.7586ZM64.2256 76.8884C66.6436 76.8884 69.0616 76.8964 71.4796 76.9154C71.9656 76.9154 72.2606 76.8254 72.4586 76.6254C72.7126 76.3694 72.7426 75.9844 72.7386 75.6054C72.7126 73.3424 72.7166 71.0784 72.7206 68.8164V63.7744C72.7166 61.4844 72.7136 59.1944 72.7376 56.9044C72.7416 56.5234 72.7116 56.1354 72.4606 55.8814C72.2626 55.6824 71.9706 55.5934 71.5116 55.5934C69.0806 55.6144 66.6786 55.6224 64.2766 55.6224C61.8066 55.6224 59.3376 55.6134 56.8686 55.5984H56.8666C56.5016 55.5984 56.1266 55.6314 55.8836 55.8754C55.6906 56.0694 55.6056 56.3584 55.6076 56.8114C55.6366 63.0744 55.6366 69.4274 55.6076 75.6904C55.6056 76.1464 55.6916 76.4374 55.8856 76.6324C56.1306 76.8774 56.5036 76.9104 56.8356 76.9104C59.3186 76.8964 61.7716 76.8884 64.2256 76.8884ZM70.2946 83.8624C72.6616 83.8624 75.0286 83.8644 77.3956 83.8724C77.7516 83.8724 78.1276 83.8494 78.2726 83.5734C78.4136 83.3054 78.2336 82.9844 78.0616 82.7344C77.7166 82.2304 77.4666 81.8144 77.2746 81.4224C76.5626 79.9684 75.3806 79.2904 73.5546 79.2904C70.9036 79.3084 68.3016 79.3144 65.7016 79.3144L56.1856 79.3064C52.4006 79.3064 52.2916 79.3684 50.3556 82.6494C50.0866 83.1054 49.9236 83.3804 50.0606 83.6214C50.1976 83.8624 50.5086 83.8624 51.0246 83.8634L70.2946 83.8624ZM16.6786 83.8584C19.0776 83.8584 21.4766 83.8654 23.8756 83.8794C24.1716 83.8794 24.5136 83.8484 24.7036 83.6084C24.8976 83.3624 24.8396 83.0314 24.7566 82.6844C24.3626 81.0224 23.9926 79.3534 23.6326 77.6834C23.1846 75.6104 23.0506 74.9904 21.5756 74.9904C21.2086 74.9904 20.7446 75.0264 20.1486 75.0744C19.7396 75.1064 19.4216 75.1314 19.1726 75.1314C18.5276 75.1314 18.5036 75.0904 18.3236 73.6454C18.2676 73.2274 18.2326 72.8654 18.3246 72.7524C18.4116 72.6484 18.7356 72.6144 19.0726 72.5914L21.3076 72.4494C24.3816 72.2534 27.4536 72.0574 30.5286 71.8824C33.4316 71.7164 35.7986 70.4174 37.5606 68.0244C37.5906 67.9844 37.6246 67.9434 37.6596 67.9024C37.8166 67.7164 38.0526 67.4364 37.9176 67.1044C37.8486 66.9364 37.6916 66.7354 37.3286 66.7354C37.2476 66.7354 37.1606 66.7454 37.0766 66.7554C37.0166 66.7634 36.9576 66.7714 36.9036 66.7714C34.0356 66.7654 31.1666 66.7644 28.2976 66.7644L16.2676 66.7674C13.9756 66.7674 11.6846 66.7644 9.39261 66.7524C9.04961 66.7524 8.68062 66.7864 8.43262 67.0354C8.24162 67.2274 8.15361 67.5124 8.15561 67.9314C8.17861 72.8644 8.17662 77.7974 8.15862 82.7304C8.15662 83.1364 8.24262 83.4124 8.42862 83.5994C8.67262 83.8434 9.03461 83.8744 9.32361 83.8744C11.7846 83.8654 14.2316 83.8584 16.6786 83.8584ZM1.29062 86.2744C0.792617 86.2744 0.433614 86.2744 0.344614 86.1854C0.255614 86.0954 0.257615 85.7164 0.260615 85.2364L0.259615 84.7754C0.257615 84.3604 0.256616 84.0014 0.326616 83.9314C0.391616 83.8654 0.730615 83.8654 0.933615 83.8654H1.65661L2.32961 83.8564C2.64761 83.8514 2.96662 83.8464 3.28362 83.8464C3.66462 83.8464 4.04562 83.8534 4.42462 83.8774C4.48762 83.8824 4.54561 83.8844 4.60161 83.8844C4.96461 83.8844 5.21662 83.8004 5.39462 83.6214C5.64862 83.3654 5.67861 82.9604 5.67661 82.6364C5.65461 78.8064 5.65762 74.9754 5.66062 71.1444L5.66162 67.3984L5.65561 66.9494C5.64861 66.6404 5.64162 66.3314 5.66562 66.0254C6.01762 61.6174 5.17162 57.2964 4.35262 53.1164C4.17962 52.2324 4.00661 51.3484 3.84361 50.4624C3.25261 47.2384 2.65162 44.0164 2.04962 40.7934C1.46962 37.6894 0.890616 34.5834 0.320616 31.4774C0.139616 30.4964 0.307617 29.6604 0.805617 29.0604C1.30862 28.4524 2.10961 28.1294 3.12261 28.1234C3.75961 28.1194 4.39862 28.1184 5.03662 28.1184C5.67462 28.1184 6.31262 28.1194 6.95062 28.1244C8.53162 28.1354 9.48162 28.9094 9.77162 30.4244C10.1816 32.5684 10.5766 34.7144 10.9716 36.8624L12.3886 44.4974C13.2146 48.9274 14.0396 53.3564 14.8436 57.7904C15.0246 58.7864 15.7136 58.7864 16.2676 58.7864L17.2466 58.7854C19.0806 58.7854 20.9146 58.7924 22.7486 58.7994C24.5826 58.8064 26.4176 58.8134 28.2516 58.8134C31.6396 58.8134 34.3906 58.7884 36.9106 58.7374L37.0636 58.7354C38.6266 58.7354 39.9306 59.2494 40.7376 60.1834C41.5766 61.1564 41.8866 62.5804 41.6326 64.3024C40.7806 70.0864 36.0756 74.2464 30.1906 74.4204C29.4406 74.4434 28.6906 74.4894 27.9406 74.5354C27.5306 74.5614 27.1206 74.5864 26.7106 74.6084C26.4176 74.6234 26.0536 74.6764 25.8486 74.9494C25.6936 75.1584 25.6626 75.4514 25.7576 75.8474C26.2976 78.1164 26.8256 80.4854 27.3266 82.8874C27.4726 83.5894 27.8296 83.8754 28.5606 83.8754C31.4446 83.8654 34.3176 83.8624 37.1916 83.8624C40.0646 83.8624 42.9386 83.8654 45.8116 83.8734C46.4836 83.8734 46.9016 83.6344 47.2186 83.0744C47.6176 82.3734 48.0366 81.6824 48.4556 80.9914C48.7286 80.5414 49.0006 80.0924 49.2676 79.6394C50.0126 78.3754 51.0566 77.5364 52.3696 77.1464C52.9756 76.9664 53.2226 76.6264 53.2206 75.9754C53.2096 69.2704 53.2086 62.5644 53.2216 55.8604C53.2226 55.2664 52.9816 54.9054 52.4136 54.6504C48.1796 52.7514 45.6766 49.5174 44.9756 45.0364C44.6676 43.0714 44.7776 41.0274 44.8836 39.0514L44.9086 38.5694C44.9686 37.4334 46.0236 36.5214 47.3106 36.4944C48.1476 36.4774 48.9866 36.4644 49.8236 36.4644C50.5496 36.4644 51.2736 36.4744 51.9976 36.4994L52.1046 36.5014C52.4996 36.5014 52.7696 36.4154 52.9526 36.2304C53.2026 35.9774 53.2326 35.5884 53.2286 35.2404C53.1956 31.9414 53.2066 28.6414 53.2166 25.3414V25.2314C53.2266 22.1144 55.5386 19.7634 58.5956 19.7624C61.6466 19.7624 63.9636 22.1104 63.9846 25.2234L63.9856 25.3934C63.9876 25.5664 63.9896 25.7394 63.9846 25.9104C63.9716 26.3404 63.9806 26.6834 63.9876 26.9554C63.9956 27.3034 64.0036 27.6044 63.9406 27.6684C63.8636 27.7474 63.4486 27.7474 63.2256 27.7474L61.9966 27.7434C61.8216 27.7434 61.7116 27.7144 61.6556 27.6574C61.5996 27.6004 61.5726 27.4884 61.5766 27.3234C61.5896 26.6794 61.5896 26.0364 61.5706 25.3944C61.5196 23.5894 60.2546 22.2104 58.6296 22.1864C56.9136 22.1864 55.6446 23.5794 55.6326 25.4274C55.6196 27.2764 55.6206 29.1244 55.6216 30.9734C55.6226 32.4634 55.6236 33.9524 55.6176 35.4434C55.6156 35.9474 55.7296 36.4664 56.5856 36.4954C56.9356 36.5074 57.1796 36.5154 57.3866 36.5154C57.8826 36.5154 58.2366 36.4684 58.4686 36.2364C58.7796 35.9244 58.7786 35.3834 58.7756 34.4014C58.7746 34.0874 58.8166 33.8994 58.9076 33.8074C58.9906 33.7244 59.1516 33.6834 59.3976 33.6834L60.1536 33.6944C60.6696 33.6984 61.0786 33.7014 61.1576 33.7844C61.2216 33.8524 61.2106 34.1674 61.1976 34.5334C61.1906 34.7524 61.1806 35.0154 61.1806 35.3304C61.1796 35.7574 61.2636 36.0324 61.4526 36.2214C61.6926 36.4614 62.0456 36.4944 62.3916 36.4944C65.6156 36.4844 68.8276 36.4814 72.0386 36.4814L80.4306 36.4844C81.5306 36.4844 82.3056 36.7294 82.7996 37.2324C83.2796 37.7214 83.5036 38.4674 83.4846 39.5114C83.4726 40.1364 83.4876 40.7624 83.5016 41.3884C83.5376 42.9544 83.5746 44.5734 83.1756 46.1294C82.1666 50.0614 79.7816 52.9044 76.0876 54.5784C75.3886 54.8954 75.1176 55.3044 75.1206 56.0374C75.1426 62.6674 75.1426 69.3184 75.1206 75.8034C75.1176 76.5974 75.4036 76.9914 76.1436 77.2114C77.3376 77.5694 78.3106 78.3624 79.0356 79.5704L79.7066 80.6754C80.1766 81.4454 80.6466 82.2154 81.0916 82.9984C81.3066 83.3784 81.6776 83.8844 82.4136 83.8844C82.4946 83.8844 82.5796 83.8774 82.6696 83.8654C82.7196 83.8584 82.7706 83.8564 82.8216 83.8564L83.1556 83.8654C84.0226 83.8654 84.6526 83.8824 84.8576 84.1154C85.0666 84.3514 85.0056 84.9814 84.8896 85.9134C84.8496 86.2344 84.7566 86.2674 84.5536 86.2674L83.5836 86.2744H1.29062Z" fill="#F1EBDF"/>
<path d="M65.7025 79.5634C68.3035 79.5634 70.9055 79.5584 73.5055 79.5404C73.5225 79.5404 73.5405 79.5404 73.5575 79.5404C75.1445 79.5404 76.3295 80.0604 77.0505 81.5324C77.2795 82.0004 77.5615 82.4454 77.8555 82.8754C78.2855 83.5004 78.0475 83.6224 77.4145 83.6224H77.3965C75.1235 83.6144 72.8505 83.6124 70.5765 83.6124C68.4115 83.6124 66.2455 83.6144 64.0805 83.6144C61.7385 83.6144 59.3975 83.6144 57.0565 83.6144C55.0465 83.6144 53.0355 83.6144 51.0255 83.6134C50.1095 83.6124 50.0965 83.5804 50.5705 82.7764C52.4715 79.5564 52.4715 79.5564 56.1855 79.5564C59.3585 79.5564 62.5305 79.5634 65.7025 79.5634ZM36.9045 67.0204C37.0345 67.0204 37.1895 66.9854 37.3295 66.9854C37.4815 66.9854 37.6165 67.0264 37.6865 67.1984C37.7855 67.4434 37.5115 67.6684 37.3595 67.8754C35.6585 70.1854 33.4025 71.4664 30.5145 71.6324C26.6935 71.8504 22.8755 72.1004 19.0565 72.3424C18.0345 72.4074 17.9315 72.5474 18.0615 73.5894C18.0645 73.6184 18.0715 73.6464 18.0755 73.6754C18.2485 75.0704 18.2875 75.3814 19.1715 75.3814C19.4255 75.3814 19.7505 75.3554 20.1685 75.3224C20.7555 75.2754 21.2135 75.2394 21.5755 75.2394C22.8525 75.2394 22.9465 75.6914 23.3875 77.7354C23.7485 79.4074 24.1185 81.0774 24.5135 82.7414C24.6515 83.3244 24.6485 83.6294 23.8955 83.6294H23.8775C21.4655 83.6144 19.0545 83.6084 16.6425 83.6084C14.2075 83.6084 11.7725 83.6144 9.33754 83.6244H9.32354C8.66554 83.6244 8.40654 83.4154 8.40854 82.7314C8.42654 77.7974 8.42854 72.8644 8.40654 67.9304C8.40254 67.1944 8.69054 67.0024 9.37154 67.0024H9.39154C11.7215 67.0144 14.0515 67.0174 16.3815 67.0174C18.6365 67.0174 20.8925 67.0144 23.1475 67.0144C24.8415 67.0144 26.5355 67.0134 28.2305 67.0134C31.1215 67.0134 34.0135 67.0154 36.9045 67.0204ZM16.5715 64.1044C14.2365 64.1044 11.9015 64.1044 9.56654 64.1034C8.42254 64.1034 8.42254 64.1004 8.41754 62.9294C8.41654 62.7264 8.43454 62.5214 8.41554 62.3204C8.35054 61.6314 8.67154 61.4294 9.33354 61.4294H9.33854C14.8775 61.4394 20.4155 61.4414 25.9545 61.4414C29.6965 61.4414 33.4405 61.4404 37.1825 61.4394C37.9555 61.4394 38.6355 61.5964 38.9185 62.4404C39.2685 63.4844 38.8375 64.1034 37.7585 64.1044C35.3805 64.1044 33.0025 64.1044 30.6235 64.1044H23.5755C21.2405 64.1044 18.9055 64.1044 16.5715 64.1044ZM64.2765 55.8724C66.6795 55.8724 69.0825 55.8634 71.4845 55.8434C71.4935 55.8434 71.5035 55.8434 71.5125 55.8434C72.3365 55.8434 72.4965 56.1484 72.4885 56.9004C72.4545 60.0324 72.4735 63.1654 72.4735 66.2974C72.4735 69.4004 72.4535 72.5044 72.4885 75.6074C72.4975 76.3664 72.3245 76.6654 71.5085 76.6654H71.4815C69.0765 76.6464 66.6715 76.6384 64.2665 76.6384C61.7985 76.6384 59.3305 76.6464 56.8635 76.6604H56.8385C56.1155 76.6604 55.8545 76.4694 55.8575 75.6914C55.8865 69.3974 55.8865 63.1034 55.8575 56.8104C55.8545 56.0294 56.1195 55.8484 56.8385 55.8484H56.8665C59.3365 55.8634 61.8065 55.8724 64.2765 55.8724ZM71.9835 39.1464C74.5755 39.1464 77.1695 39.1424 79.7615 39.1264H79.7925C80.5895 39.1264 80.8855 39.3384 80.8535 40.1894C80.7915 41.8974 80.9405 43.6224 80.5615 45.3044C79.5275 49.8984 75.7445 52.8904 70.8325 52.9444C68.6095 52.9684 66.3865 52.9814 64.1635 52.9814C61.9455 52.9814 59.7275 52.9684 57.5105 52.9444C52.6315 52.8894 48.8595 49.9294 47.8065 45.3844C47.3695 43.5004 47.5185 41.5734 47.5225 39.6614C47.5245 39.2024 47.7835 39.1364 48.0705 39.1364C48.1855 39.1364 48.3045 39.1474 48.4125 39.1474H48.4165C50.2075 39.1434 51.9975 39.1424 53.7885 39.1424C55.2195 39.1424 56.6505 39.1424 58.0815 39.1424H64.2635C66.8375 39.1424 69.4095 39.1464 71.9835 39.1464ZM8.95554 58.5324C7.88554 58.5324 8.09654 58.3814 7.74854 56.5044C6.21854 48.2454 4.70854 39.9824 3.16154 31.7264C3.02554 31.0034 3.21254 30.7684 3.82154 30.7684C3.87054 30.7684 3.92354 30.7694 3.97854 30.7724C4.34554 30.7924 4.71354 30.8014 5.08154 30.8014C5.46754 30.8014 5.85454 30.7914 6.23954 30.7734C6.27654 30.7714 6.31154 30.7704 6.34554 30.7704C6.86754 30.7704 7.10254 30.9784 7.21054 31.5704C8.56554 38.9784 9.95454 46.3794 11.3335 53.7834C11.5775 55.0934 11.7785 56.4124 12.0765 57.7094C12.2225 58.3504 12.0335 58.5454 11.5455 58.5454C11.4835 58.5454 11.4165 58.5424 11.3445 58.5364C11.1905 58.5234 11.0365 58.5194 10.8825 58.5194C10.6305 58.5194 10.3785 58.5304 10.1275 58.5304C9.98254 58.5274 9.84954 58.5264 9.72554 58.5264C9.41354 58.5264 9.16054 58.5324 8.95554 58.5324ZM58.5975 19.5124H58.5955C55.3905 19.5134 52.9775 21.9544 52.9675 25.2294C52.9565 28.5674 52.9455 31.9064 52.9785 35.2434C52.9865 35.9564 52.8125 36.2514 52.1055 36.2514C52.0735 36.2514 52.0405 36.2504 52.0065 36.2494C51.2795 36.2244 50.5515 36.2144 49.8235 36.2144C48.9845 36.2144 48.1445 36.2274 47.3045 36.2444C45.9445 36.2724 44.7275 37.2484 44.6595 38.5564C44.5455 40.7264 44.3915 42.9244 44.7285 45.0754C45.4525 49.6994 48.0415 52.9634 52.3115 54.8784C52.7695 55.0834 52.9735 55.3414 52.9725 55.8594C52.9585 62.5644 52.9595 69.2694 52.9705 75.9754C52.9715 76.4864 52.8205 76.7514 52.2985 76.9064C50.8745 77.3294 49.8075 78.2314 49.0525 79.5114C48.3745 80.6624 47.6605 81.7914 47.0015 82.9524C46.7245 83.4404 46.3775 83.6234 45.8205 83.6234H45.8125C42.9485 83.6154 40.0855 83.6114 37.2215 83.6114C34.3375 83.6114 31.4535 83.6154 28.5695 83.6254H28.5605C27.9635 83.6254 27.6975 83.4404 27.5715 82.8364C27.0795 80.4804 26.5585 78.1304 26.0005 75.7894C25.8325 75.0864 26.1175 74.8894 26.7235 74.8574C27.8815 74.7964 29.0385 74.7044 30.1975 74.6704C36.1925 74.4934 41.0095 70.2424 41.8805 64.3384C42.4605 60.4054 40.1655 58.4844 37.0625 58.4844C37.0105 58.4844 36.9575 58.4854 36.9055 58.4864C34.0255 58.5464 31.1455 58.5624 28.2645 58.5624C24.5825 58.5624 20.8995 58.5354 17.2175 58.5354C16.9005 58.5354 16.5845 58.5354 16.2675 58.5364H16.2445C15.6595 58.5364 15.2265 58.5034 15.0895 57.7454C14.0135 51.8114 12.8985 45.8844 11.7975 39.9554C11.2045 36.7624 10.6265 33.5664 10.0165 30.3774C9.70454 28.7424 8.62954 27.8864 6.95254 27.8744C6.31854 27.8704 5.68554 27.8684 5.05154 27.8684C4.40754 27.8684 3.76454 27.8704 3.12054 27.8734C0.921537 27.8854 -0.32446 29.3504 0.0735396 31.5224C1.23654 37.8524 2.43654 44.1764 3.59754 50.5074C4.53754 55.6324 5.83854 60.7174 5.41754 66.0054C5.38054 66.4664 5.41254 66.9334 5.41254 67.3974C5.41254 72.4774 5.39754 77.5574 5.42754 82.6374C5.43154 83.3424 5.24554 83.6334 4.60254 83.6334C4.55154 83.6334 4.49754 83.6314 4.44054 83.6284C4.05654 83.6034 3.67154 83.5954 3.28554 83.5954C2.74254 83.5954 2.19854 83.6114 1.65554 83.6154C1.57654 83.6164 1.50153 83.6164 1.43053 83.6164C1.24053 83.6164 1.07554 83.6154 0.932541 83.6154C-0.112459 83.6154 0.019536 83.7064 0.010536 85.2354C0.00353603 86.5214 0.0115348 86.5234 1.29053 86.5234C9.54653 86.5234 17.8005 86.5234 26.0565 86.5234H42.5675C56.2395 86.5234 69.9115 86.5234 83.5835 86.5234C83.8555 86.5234 84.1275 86.5164 84.3995 86.5164C84.4465 86.5164 84.4945 86.5164 84.5415 86.5164H84.5555C84.9365 86.5164 85.0895 86.3334 85.1375 85.9444C85.4105 83.7544 85.2995 83.6144 83.1565 83.6144C83.0465 83.6144 82.9355 83.6064 82.8255 83.6064C82.7605 83.6064 82.6975 83.6084 82.6345 83.6174C82.5575 83.6284 82.4835 83.6334 82.4135 83.6334C81.9075 83.6334 81.5805 83.3544 81.3095 82.8764C80.6505 81.7154 79.9375 80.5854 79.2505 79.4414C78.5355 78.2514 77.5475 77.3704 76.2145 76.9724C75.5655 76.7784 75.3685 76.4654 75.3705 75.8044C75.3925 69.2154 75.3925 62.6264 75.3705 56.0364C75.3685 55.3804 75.6045 55.0714 76.1905 54.8054C79.9685 53.0944 82.3845 50.2194 83.4175 46.1914C83.9835 43.9874 83.6935 41.7424 83.7345 39.5164C83.7765 37.2624 82.7045 36.2344 80.4305 36.2334C77.6765 36.2324 74.9225 36.2304 72.1685 36.2304C68.9135 36.2304 65.6585 36.2334 62.4045 36.2444H62.3885C61.7135 36.2444 61.4295 36.0824 61.4305 35.3304C61.4335 33.2184 61.8365 33.4884 59.4565 33.4344C59.4365 33.4334 59.4165 33.4334 59.3975 33.4334C58.7035 33.4334 58.5235 33.7254 58.5255 34.4024C58.5295 36.0174 58.5125 36.2654 57.3875 36.2654C57.1685 36.2654 56.9065 36.2554 56.5945 36.2454C55.9985 36.2254 55.8655 35.9724 55.8675 35.4434C55.8815 32.1054 55.8595 28.7674 55.8815 25.4294C55.8935 23.6854 57.0575 22.4354 58.5825 22.4364C58.5965 22.4364 58.6105 22.4364 58.6255 22.4364C60.1045 22.4584 61.2735 23.7374 61.3205 25.4014C61.3395 26.0394 61.3395 26.6784 61.3265 27.3164C61.3165 27.7884 61.5165 27.9934 61.9855 27.9934H61.9995C62.1065 27.9924 62.2085 27.9914 62.3055 27.9914C62.6815 27.9914 62.9865 27.9974 63.2315 27.9974C64.5545 27.9974 64.1785 27.8454 64.2345 25.9184C64.2405 25.6864 64.2355 25.4534 64.2345 25.2214C64.2125 21.9504 61.8045 19.5124 58.5975 19.5124ZM65.7025 79.0634C64.1165 79.0634 62.5305 79.0614 60.9445 79.0594C59.3585 79.0584 57.7725 79.0564 56.1855 79.0564C52.2975 79.0564 52.1285 79.1534 50.1405 82.5224C49.8465 83.0194 49.6345 83.3794 49.8435 83.7464C50.0525 84.1124 50.4605 84.1124 51.0245 84.1134L57.0565 84.1144H60.5685H64.0805L67.3285 84.1134L70.5765 84.1124C72.8495 84.1124 75.1225 84.1144 77.4145 84.1224C77.7115 84.1224 78.2655 84.1224 78.4935 83.6894C78.7225 83.2544 78.4045 82.7904 78.2685 82.5924C77.9245 82.0914 77.6875 81.6964 77.4995 81.3134C76.7505 79.7834 75.4615 79.0404 73.5575 79.0404H73.5025C70.9025 79.0584 68.3025 79.0634 65.7025 79.0634ZM36.9045 66.5204C34.0135 66.5154 31.1215 66.5134 28.2305 66.5134L25.3875 66.5144H23.1475L19.7645 66.5154L16.3815 66.5174C14.0525 66.5174 11.7225 66.5144 9.37154 66.5024C9.01754 66.5024 8.56954 66.5434 8.25554 66.8584C7.93954 67.1764 7.90454 67.6234 7.90654 67.9324C7.92754 72.5354 7.92854 77.3754 7.90854 82.7294C7.90754 83.0294 7.94154 83.4644 8.25154 83.7754C8.56354 84.0884 9.01254 84.1244 9.33954 84.1244C11.7735 84.1144 14.2085 84.1084 16.6425 84.1084C19.0535 84.1084 21.4635 84.1144 23.8955 84.1294C24.2015 84.1294 24.6395 84.0914 24.8995 83.7634C25.1845 83.4024 25.0735 82.9354 25.0005 82.6264C24.6575 81.1814 24.3105 79.6404 23.8725 77.6104C23.4335 75.5804 23.2525 74.7394 21.5755 74.7394C21.1935 74.7394 20.7235 74.7764 20.1285 74.8234C19.7245 74.8564 19.4055 74.8814 19.1715 74.8814C18.7295 74.8814 18.7295 74.8814 18.5715 73.6144L18.5575 73.5284C18.5025 73.0854 18.5125 72.9374 18.4995 72.9284C18.5405 72.9034 18.6755 72.8674 19.0885 72.8414L21.3645 72.6964C24.4235 72.5014 27.4825 72.3064 30.5425 72.1314C33.5245 71.9604 35.9535 70.6284 37.7625 68.1724C37.7885 68.1364 37.8195 68.1004 37.8505 68.0634C38.0225 67.8604 38.3415 67.4824 38.1495 67.0104C38.0695 66.8144 37.8575 66.4854 37.3295 66.4854C37.2385 66.4854 37.1415 66.4954 37.0475 66.5074C36.9975 66.5134 36.9495 66.5204 36.9045 66.5204ZM16.5715 64.6044H20.0735H23.5755H27.0995H30.6235H37.7585C38.6315 64.6034 39.0635 64.2564 39.2735 63.9654C39.4855 63.6694 39.6795 63.1374 39.3925 62.2814C38.9425 60.9394 37.6635 60.9394 37.1825 60.9394L32.9215 60.9404L25.9545 60.9414C20.4165 60.9414 14.8785 60.9394 9.33354 60.9294C8.99554 60.9294 8.50954 60.9694 8.19254 61.3184C7.96454 61.5694 7.87454 61.9124 7.91754 62.3674C7.92854 62.4804 7.92354 62.5954 7.92054 62.7094C7.91854 62.7834 7.91654 62.8584 7.91754 62.9324C7.92354 64.3844 8.13954 64.6034 9.56654 64.6034L16.5715 64.6044ZM64.2765 55.3724C61.8075 55.3724 59.3385 55.3634 56.8385 55.3484C56.4515 55.3484 56.0145 55.3894 55.7065 55.6994C55.3945 56.0124 55.3565 56.4584 55.3575 56.8124C55.3865 63.0734 55.3865 69.4244 55.3575 75.6894C55.3565 76.0444 55.3945 76.4924 55.7085 76.8084C56.0175 77.1184 56.4525 77.1604 56.8655 77.1604C59.3315 77.1464 61.7995 77.1384 64.2665 77.1384C66.6705 77.1384 69.0735 77.1464 71.5085 77.1654C71.8385 77.1654 72.3145 77.1274 72.6365 76.8014C72.9555 76.4794 72.9935 76.0144 72.9885 75.6014C72.9625 73.3394 72.9665 71.0364 72.9705 68.8094L72.9735 66.2974L72.9715 63.7704C72.9675 61.5204 72.9635 59.1924 72.9885 56.9064C72.9925 56.4704 72.9535 56.0244 72.6375 55.7054C72.3175 55.3814 71.8435 55.3434 71.4825 55.3434H71.4805C69.0795 55.3634 66.6775 55.3724 64.2765 55.3724ZM71.9835 38.6464L68.1235 38.6444L64.2635 38.6424H58.0815H55.9345H53.7885C51.9975 38.6424 50.2065 38.6434 48.4125 38.6474C48.3665 38.6474 48.3185 38.6444 48.2685 38.6424C48.2035 38.6394 48.1365 38.6364 48.0705 38.6364C47.1275 38.6364 47.0235 39.3524 47.0225 39.6604C47.0225 40.0354 47.0155 40.4114 47.0085 40.7864C46.9825 42.3294 46.9545 43.9254 47.3185 45.4974C48.4255 50.2674 52.4235 53.3874 57.5055 53.4444C59.7075 53.4684 61.9475 53.4814 64.1635 53.4814C66.3715 53.4814 68.6165 53.4684 70.8375 53.4444C75.9555 53.3884 79.9645 50.2364 81.0495 45.4144C81.3315 44.1594 81.3335 42.8894 81.3345 41.6604C81.3355 41.1764 81.3355 40.6914 81.3535 40.2084C81.3675 39.8294 81.3415 39.3514 81.0125 39.0104C80.6865 38.6724 80.2135 38.6264 79.7605 38.6264H79.7585C77.1675 38.6424 74.5745 38.6464 71.9835 38.6464ZM8.95554 59.0324L9.26654 59.0294C9.40254 59.0284 9.55454 59.0264 9.72554 59.0264C9.84654 59.0264 9.97754 59.0274 10.1275 59.0304C10.2565 59.0304 10.3855 59.0274 10.5145 59.0244C10.6375 59.0224 10.7595 59.0194 10.8825 59.0194C11.0235 59.0194 11.1635 59.0234 11.3045 59.0344C11.3905 59.0414 11.4705 59.0454 11.5455 59.0454C11.6945 59.0454 12.1495 59.0454 12.4275 58.6954C12.6975 58.3574 12.6345 57.9074 12.5635 57.5984C12.3605 56.7134 12.1995 55.7964 12.0435 54.9104C11.9725 54.5034 11.9005 54.0974 11.8255 53.6914L10.9085 48.7734C9.83254 43.0104 8.75754 37.2474 7.70254 31.4804C7.60754 30.9614 7.36354 30.2704 6.34554 30.2704C6.30354 30.2704 6.26054 30.2714 6.21554 30.2734C5.83854 30.2914 5.45954 30.3014 5.08154 30.3014C4.72254 30.3014 4.36354 30.2924 4.00554 30.2734C3.94054 30.2704 3.87954 30.2684 3.82154 30.2684C3.53254 30.2684 3.11754 30.3064 2.84554 30.6334C2.55754 30.9804 2.60054 31.4484 2.66954 31.8184C3.68054 37.2124 4.67554 42.6104 5.67054 48.0074C6.19854 50.8704 6.72654 53.7334 7.25654 56.5954C7.31854 56.9284 7.36254 57.2054 7.39854 57.4364C7.58554 58.6224 7.71354 59.0324 8.95554 59.0324ZM58.5975 20.0124C61.5535 20.0124 63.7135 22.2044 63.7345 25.2254L63.7355 25.3874C63.7375 25.5594 63.7395 25.7314 63.7345 25.9034C63.7215 26.3384 63.7305 26.6854 63.7375 26.9614C63.7425 27.1514 63.7475 27.3604 63.7375 27.4764C63.6435 27.4904 63.4735 27.4974 63.2315 27.4974L62.8705 27.4944L62.3055 27.4914L61.9855 27.4934C61.9065 27.4934 61.8615 27.4844 61.8445 27.4844C61.8425 27.4844 61.8415 27.4844 61.8405 27.4854C61.8345 27.4664 61.8245 27.4194 61.8265 27.3274C61.8405 26.6644 61.8385 26.0114 61.8205 25.3864C61.7655 23.4464 60.3945 21.9624 58.5825 21.9364C56.7715 21.9354 55.3955 23.4364 55.3815 25.4254C55.3695 27.2794 55.3705 29.1344 55.3715 30.9884C55.3725 32.4724 55.3735 33.9574 55.3675 35.4414C55.3665 35.7534 55.3625 36.7044 56.5775 36.7444L56.6415 36.7474C56.9315 36.7564 57.1785 36.7654 57.3875 36.7654C57.8465 36.7654 58.3205 36.7374 58.6455 36.4124C59.0295 36.0264 59.0285 35.4494 59.0255 34.4004C59.0245 34.0484 59.0825 33.9854 59.0855 33.9834C59.0855 33.9824 59.1415 33.9334 59.4395 33.9334H59.4445C59.7145 33.9394 59.9485 33.9424 60.1515 33.9434C60.4705 33.9464 60.7995 33.9494 60.9535 33.9734C60.9635 34.0944 60.9555 34.3204 60.9485 34.5244C60.9405 34.7454 60.9305 35.0114 60.9305 35.3294C60.9305 35.6394 60.9655 36.0874 61.2755 36.3984C61.5805 36.7034 62.0095 36.7444 62.4055 36.7444C65.6595 36.7334 68.9145 36.7304 72.1685 36.7304L77.4705 36.7324L80.4305 36.7334C81.4595 36.7344 82.1765 36.9544 82.6205 37.4064C83.0515 37.8464 83.2525 38.5334 83.2345 39.5064C83.2225 40.1384 83.2375 40.7774 83.2515 41.3954C83.2885 43.0154 83.3235 44.5454 82.9335 46.0674C81.9445 49.9214 79.6065 52.7084 75.9845 54.3504C75.2005 54.7054 74.8675 55.2104 74.8705 56.0384C74.8925 62.6034 74.8925 69.2524 74.8705 75.8024C74.8675 76.7064 75.2265 77.1994 76.0715 77.4514C77.2035 77.7894 78.1295 78.5454 78.8215 79.6984C79.0445 80.0694 79.2695 80.4394 79.4955 80.8094C79.9565 81.5634 80.4325 82.3444 80.8745 83.1224C81.2605 83.8034 81.7635 84.1334 82.4135 84.1334C82.5055 84.1334 82.6025 84.1274 82.7035 84.1124C82.7435 84.1074 82.7845 84.1064 82.8255 84.1064C82.8735 84.1064 82.9235 84.1074 82.9725 84.1094C83.0335 84.1124 83.0955 84.1144 83.1565 84.1144C83.6675 84.1144 84.5235 84.1144 84.6695 84.2804C84.8195 84.4494 84.7125 85.3124 84.6415 85.8834C84.6325 85.9574 84.6205 85.9994 84.6215 86.0124C84.6075 86.0144 84.5845 86.0164 84.5475 86.0164H84.3995C84.2615 86.0164 84.1225 86.0184 83.9845 86.0204C83.8515 86.0214 83.7175 86.0234 83.5835 86.0234H42.5675H34.3125H26.0565H1.29053C0.983535 86.0234 0.667538 86.0234 0.534538 85.9964C0.507538 85.8594 0.509536 85.5314 0.510536 85.2384C0.511536 85.0654 0.510536 84.9114 0.510536 84.7734C0.508536 84.5214 0.507537 84.2614 0.523537 84.1284C0.643537 84.1154 0.853541 84.1154 0.932541 84.1154H1.14354L1.43053 84.1164L1.65954 84.1154C1.88354 84.1134 2.10854 84.1104 2.33354 84.1064C2.65054 84.1014 2.96854 84.0954 3.28554 84.0954C3.71854 84.0954 4.07554 84.1054 4.40854 84.1274C4.47754 84.1314 4.54154 84.1334 4.60254 84.1334C5.03054 84.1334 5.34754 84.0234 5.57154 83.7974C5.89054 83.4764 5.92954 83.0074 5.92754 82.6344C5.90554 78.8024 5.90754 74.9044 5.91054 71.1354L5.91254 67.3974C5.91254 67.2474 5.90854 67.0954 5.90554 66.9444C5.89854 66.6314 5.89254 66.3344 5.91554 66.0444C6.26954 61.6044 5.41954 57.2654 4.59854 53.0704C4.42554 52.1864 4.25254 51.3024 4.08954 50.4174C3.49654 47.1804 2.89254 43.9464 2.28854 40.7124C1.71154 37.6194 1.13454 34.5264 0.565536 31.4324C0.399536 30.5264 0.548536 29.7614 0.997536 29.2194C1.45154 28.6714 2.18654 28.3784 3.12354 28.3734C3.76654 28.3704 4.40854 28.3684 5.05154 28.3684C5.68454 28.3684 6.31654 28.3704 6.94854 28.3744C8.39454 28.3844 9.26154 29.0904 9.52554 30.4714C9.93654 32.6184 10.3325 34.7694 10.7285 36.9194C10.9205 37.9614 11.1115 39.0044 11.3055 40.0464L12.1565 44.6184C12.9775 49.0224 13.7985 53.4264 14.5975 57.8344C14.8145 59.0324 15.7045 59.0364 16.2625 59.0364H16.2685L17.2175 59.0354C19.0575 59.0354 20.8985 59.0424 22.7395 59.0494C24.5815 59.0554 26.4235 59.0624 28.2645 59.0624C31.6475 59.0624 34.3965 59.0384 36.9155 58.9864L37.0625 58.9844C38.5525 58.9844 39.7895 59.4684 40.5475 60.3464C41.3385 61.2624 41.6285 62.6174 41.3855 64.2654C40.5505 69.9274 35.9445 74.0004 30.1835 74.1704C29.4225 74.1924 28.6535 74.2404 27.9095 74.2864C27.5055 74.3124 27.1015 74.3374 26.6975 74.3584C26.3765 74.3754 25.9185 74.4394 25.6485 74.8004C25.4455 75.0714 25.4015 75.4334 25.5135 75.9054C26.0505 78.1584 26.5785 80.5254 27.0815 82.9384C27.2525 83.7594 27.7085 84.1254 28.5715 84.1254C31.4545 84.1154 34.3385 84.1114 37.2215 84.1114C40.0845 84.1114 42.9475 84.1154 45.8205 84.1234C46.5645 84.1234 47.0785 83.8294 47.4365 83.1984C47.8315 82.5034 48.2555 81.8044 48.6645 81.1284C48.9395 80.6754 49.2145 80.2224 49.4835 79.7654C50.1955 78.5584 51.1905 77.7574 52.4415 77.3864C53.1545 77.1734 53.4725 76.7384 53.4705 75.9744C53.4585 68.9054 53.4595 62.3264 53.4725 55.8604C53.4735 55.1624 53.1785 54.7184 52.5165 54.4214C48.3635 52.5594 45.9095 49.3894 45.2225 44.9974C44.9185 43.0604 45.0275 41.0314 45.1325 39.0704L45.1585 38.5824C45.2115 37.5754 46.1585 36.7684 47.3155 36.7444C48.1515 36.7274 48.9875 36.7144 49.8235 36.7144C50.6075 36.7144 51.3155 36.7254 51.9895 36.7494L52.1055 36.7514C52.3985 36.7514 52.8235 36.7154 53.1305 36.4064C53.4445 36.0884 53.4825 35.6374 53.4785 35.2384C53.4455 31.9844 53.4565 28.6734 53.4665 25.4714L53.4675 25.2304C53.4765 22.2564 55.6815 20.0134 58.5955 20.0124H58.5975Z" fill="#7C7958"/>
<path d="M46.579 27.7554C45.935 27.7554 45.292 27.7494 44.649 27.7374C43.136 27.7114 42.077 26.6604 42.074 25.1824C42.06 17.7244 42.059 10.2654 42.075 2.80737C42.078 1.25837 43.154 0.256372 44.817 0.254372C47.84 0.250372 62.311 0.250372 62.311 0.250372L83.302 0.251371C85.306 0.252371 86.28 1.21437 86.281 3.19337C86.284 10.3914 86.284 17.5894 86.281 24.7864C86.28 26.7754 85.31 27.7414 83.315 27.7424L68.078 27.7434C67.657 27.7434 67.293 27.7424 67.22 27.6684C67.147 27.5954 67.15 27.2404 67.153 26.8654L67.152 26.2764C67.148 25.8244 67.146 25.4684 67.22 25.3944C67.282 25.3304 67.593 25.3304 67.725 25.3304L68.58 25.3384C70.91 25.3324 73.171 25.3264 75.432 25.3264C77.785 25.3264 80.138 25.3334 82.491 25.3524H82.495C82.933 25.3524 83.332 25.3154 83.594 25.0524C83.805 24.8404 83.897 24.5174 83.894 24.0064C83.858 17.8814 83.856 11.3304 83.89 3.98237C83.891 3.61437 83.857 3.20337 83.596 2.94137C83.388 2.73237 83.084 2.64337 82.582 2.64337C76.434 2.65537 70.296 2.66137 64.158 2.66137C58.019 2.66137 51.881 2.65537 45.742 2.64437C45.389 2.64437 44.999 2.67837 44.745 2.93437C44.49 3.18937 44.457 3.57937 44.459 3.92837C44.49 11.0274 44.489 17.6064 44.457 24.0394C44.454 24.5444 44.546 24.8624 44.756 25.0734C45.006 25.3254 45.379 25.3544 45.637 25.3544L45.814 25.3504C46.205 25.3304 46.597 25.3244 46.99 25.3244L48.658 25.3364C48.927 25.3364 49.196 25.3334 49.465 25.3254H49.474C49.739 25.3254 49.875 25.3614 49.947 25.4354C50.026 25.5164 50.062 25.6804 50.057 25.9384C50.051 26.2434 50.051 26.5054 50.05 26.7284C50.049 27.7484 50.049 27.7484 49.505 27.7484L48.619 27.7374L48.297 27.7404C47.725 27.7504 47.152 27.7554 46.579 27.7554Z" fill="#F1EBDF"/>
<path d="M53.7584 -0.000116348C50.7774 -0.000116348 47.7974 0.000883362 44.8164 0.00388336C43.0264 0.00588336 41.8284 1.10488 41.8244 2.80588C41.8084 10.2649 41.8094 17.7239 41.8244 25.1829C41.8274 26.8059 43.0134 27.9599 44.6444 27.9879C45.2844 27.9989 45.9244 28.0049 46.5644 28.0049C47.1434 28.0049 47.7224 27.9999 48.3014 27.9909C48.4134 27.9889 48.5194 27.9879 48.6194 27.9879C48.9904 27.9879 49.2804 27.9979 49.5054 27.9979C50.4524 27.9979 50.2684 27.8179 50.3074 25.9419C50.3194 25.3319 50.1214 25.0749 49.5224 25.0749C49.5014 25.0749 49.4794 25.0749 49.4574 25.0759C49.1934 25.0839 48.9294 25.0859 48.6654 25.0859C48.1074 25.0859 47.5494 25.0749 46.9914 25.0749C46.5944 25.0749 46.1974 25.0809 45.8014 25.0999C45.7444 25.1029 45.6894 25.1049 45.6374 25.1049C44.9434 25.1049 44.7034 24.8409 44.7074 24.0399C44.7404 17.3359 44.7384 10.6309 44.7094 3.92688C44.7054 3.12588 44.9374 2.89388 45.7344 2.89388H45.7414C51.8494 2.90588 57.9574 2.91188 64.0654 2.91188C70.2344 2.91188 76.4034 2.90588 82.5734 2.89288H82.5814C83.4274 2.89288 83.6434 3.15888 83.6394 3.98088C83.6094 10.6559 83.6044 17.3319 83.6434 24.0069C83.6494 24.9119 83.3504 25.1029 82.5374 25.1029C82.5224 25.1029 82.5084 25.1029 82.4934 25.1029C80.1284 25.0829 77.7634 25.0769 75.3984 25.0769C73.1484 25.0769 70.8984 25.0829 68.6484 25.0889H68.5894C68.2294 25.0889 67.9464 25.0799 67.7224 25.0799C66.7624 25.0799 66.9144 25.2339 66.9024 26.8639C66.8944 27.9889 66.9064 27.9929 68.0784 27.9929C70.8424 27.9939 73.6074 27.9949 76.3714 27.9949C78.6864 27.9949 81.0014 27.9949 83.3154 27.9929C85.4584 27.9909 86.5294 26.9249 86.5304 24.7869C86.5344 17.5889 86.5344 10.3909 86.5304 3.19288C86.5294 1.06288 85.4554 0.00288446 83.3024 0.00188446C80.5834 -0.00011554 77.8654 -0.000116348 75.1464 -0.000116348C71.5084 -0.000116348 67.8704 0.000883102 64.2334 0.000883102H63.6844C60.3754 0.000883102 57.0664 -0.000116348 53.7584 -0.000116348ZM53.7584 0.499884H58.7214L63.6844 0.500883H64.2334L68.9954 0.499884H75.1464L83.3014 0.501884C85.1884 0.502884 86.0294 1.33288 86.0304 3.19388C86.0344 10.3909 86.0344 17.5889 86.0304 24.7869C86.0304 26.6569 85.1924 27.4919 83.3154 27.4929C81.0004 27.4949 78.6864 27.4949 76.3714 27.4949L68.0784 27.4929C67.8284 27.4929 67.5514 27.4929 67.4164 27.4739C67.3994 27.3429 67.4014 27.0829 67.4024 26.8669C67.4044 26.6429 67.4034 26.4469 67.4014 26.2739C67.3994 26.0059 67.3974 25.7299 67.4154 25.5919C67.4704 25.5859 67.5644 25.5799 67.7224 25.5799L68.0474 25.5839C68.2054 25.5859 68.3854 25.5889 68.5894 25.5889H68.6504C70.8994 25.5829 73.1494 25.5769 75.3984 25.5769C77.7624 25.5769 80.1254 25.5829 82.5374 25.6029C82.9844 25.6029 83.4434 25.5569 83.7704 25.2289C84.1054 24.8919 84.1464 24.3969 84.1434 24.0039C84.1074 17.9089 84.1064 11.3599 84.1394 3.98288C84.1414 3.56388 84.0994 3.09288 83.7724 2.76388C83.4444 2.43488 82.9634 2.39288 82.5724 2.39288C76.4034 2.40588 70.2334 2.41188 64.0654 2.41188C57.9574 2.41188 51.8504 2.40588 45.7344 2.39388C45.3594 2.39388 44.8884 2.43588 44.5674 2.75688C44.2464 3.07988 44.2074 3.55288 44.2094 3.92888C44.2394 11.0249 44.2394 17.6029 44.2074 24.0379C44.2054 24.4259 44.2454 24.9149 44.5784 25.2499C44.8954 25.5679 45.3344 25.6049 45.6374 25.6049C45.6974 25.6049 45.7604 25.6029 45.8264 25.5999C46.2144 25.5799 46.6024 25.5749 46.9914 25.5749C47.2684 25.5749 47.5454 25.5779 47.8234 25.5809C48.1044 25.5829 48.3844 25.5859 48.6654 25.5859C48.9344 25.5859 49.2034 25.5829 49.4714 25.5759L49.5224 25.5749C49.7094 25.5749 49.7674 25.6089 49.7674 25.6089C49.7694 25.6119 49.8124 25.6759 49.8074 25.9319C49.8014 26.2399 49.8004 26.5029 49.8004 26.7279C49.7994 27.0309 49.7994 27.3419 49.7764 27.4879C49.7264 27.4939 49.6434 27.4979 49.5054 27.4979C49.4094 27.4979 49.3014 27.4959 49.1794 27.4939C49.0174 27.4909 48.8314 27.4879 48.6194 27.4879C48.5164 27.4879 48.4084 27.4889 48.2934 27.4909C47.7174 27.4999 47.1414 27.5049 46.5644 27.5049C45.9274 27.5049 45.2904 27.4989 44.6534 27.4879C43.2844 27.4649 42.3274 26.5159 42.3244 25.1819C42.3094 17.4939 42.3094 9.96588 42.3244 2.80688C42.3284 1.38788 43.2824 0.505883 44.8174 0.503883C47.7974 0.500883 50.7784 0.499884 53.7584 0.499884Z" fill="#7C7958"/>
<path d="M23.1932 36.0959C22.9642 36.0959 22.6352 36.1209 22.4142 36.3459C22.1882 36.5739 22.1662 36.9139 22.1692 37.1509C22.1932 39.1899 22.1932 41.3539 22.1702 43.7649C22.1672 44.0549 22.1942 44.3819 22.4162 44.6059C22.5842 44.7749 22.8272 44.8539 23.1822 44.8539C24.7422 44.8429 26.2852 44.8379 27.8272 44.8379C29.4482 44.8379 31.0692 44.8429 32.6912 44.8519C32.9312 44.8519 33.2562 44.8259 33.4742 44.6069C33.6392 44.4399 33.7152 44.1979 33.7122 43.8439C33.6892 41.3649 33.6902 39.1719 33.7142 37.1429C33.7182 36.7729 33.6412 36.5189 33.4702 36.3459C33.2492 36.1219 32.9172 36.0969 32.6882 36.0969C31.9852 36.1089 31.3332 36.1119 30.6822 36.1119L28.0242 36.1059L25.3072 36.1119C24.6172 36.1119 23.9282 36.1089 23.2382 36.0959H23.1932ZM29.1582 50.4119C29.3622 50.4119 29.5382 50.4169 29.6912 50.4209L30.0082 50.4259C30.2742 50.4259 30.5272 50.4109 30.7032 50.2359C30.9232 50.0139 30.9222 49.6639 30.9192 48.8979C30.9182 48.6909 30.9172 48.4499 30.9202 48.1709C30.9232 47.8599 30.8502 47.6329 30.6962 47.4779C30.5452 47.3249 30.3242 47.2499 30.0232 47.2499C29.7222 47.2549 29.4542 47.2559 29.1872 47.2559L27.7732 47.2519C27.5252 47.2519 26.7662 47.2589 26.7662 47.2589L25.9402 47.2489C25.6312 47.2489 25.3602 47.2639 25.1772 47.4479C24.9612 47.6649 24.9632 47.9919 24.9662 48.7069C24.9672 48.8979 24.9682 49.5339 24.9682 49.5339C24.9522 49.8139 25.0172 50.0329 25.1612 50.1859C25.3072 50.3409 25.5282 50.4189 25.8182 50.4189C26.1262 50.4139 26.4032 50.4129 26.6802 50.4129L28.5172 50.4199L29.1582 50.4119ZM27.8952 52.8389C26.9462 52.8389 25.9992 52.8319 25.0502 52.8169C23.6572 52.7939 22.6112 51.7549 22.5642 50.3459C22.5392 49.6259 22.5452 48.9039 22.5582 48.1829C22.5682 47.6609 22.3512 47.3699 21.8332 47.2099C20.3562 46.7579 19.7772 45.9589 19.7692 44.3619L19.7612 43.9079C19.7522 43.5429 19.7422 43.1799 19.7762 42.8209C19.8142 42.4309 19.7502 42.1589 19.5752 41.9659C19.3392 41.7049 18.9582 41.6679 18.6152 41.6659H18.5952C18.2352 41.6659 18.0042 41.6729 17.8082 41.6789C17.6672 41.6829 17.4342 41.6869 17.4322 41.6869C16.9882 41.6869 16.9882 41.6819 16.9792 40.6369C16.9772 40.4339 16.9752 40.1999 16.9692 39.9309C16.9632 39.6579 17.0032 39.4809 17.0902 39.3919C17.1802 39.2999 17.3652 39.2569 17.6722 39.2569L17.9482 39.2579C19.7182 39.2579 19.7682 38.9599 19.7692 37.1639L19.7682 36.9039C19.7672 36.6739 19.7652 36.4449 19.7732 36.2159C19.8222 34.7569 20.8632 33.7249 22.3042 33.7039C23.0482 33.6939 23.7922 33.6909 24.5362 33.6909L27.9592 33.6979L31.2842 33.6929C32.0032 33.6929 32.7222 33.6949 33.4412 33.6999C35.0342 33.7139 36.0822 34.7499 36.1102 36.3419L36.1132 36.4799C36.1242 37.0669 36.1342 37.6549 36.1082 38.2409C36.0912 38.6079 36.1652 38.8709 36.3342 39.0469C36.4802 39.1999 36.6902 39.2789 36.9572 39.2789C37.0122 39.2789 37.1352 39.2689 37.1352 39.2689L37.2762 39.2699C38.1742 39.2829 38.6492 39.4019 38.8612 39.6679C39.0822 39.9429 39.0922 40.4639 38.8952 41.4089C38.8502 41.6249 38.7852 41.6629 38.6122 41.6679L37.6822 41.6799L37.2462 41.6789C36.7962 41.6789 36.5082 41.6929 36.3182 41.8849C36.1092 42.0939 36.1102 42.4059 36.1142 43.0249C36.1142 43.0249 36.1152 44.3789 36.1112 44.5749C36.0892 45.9309 35.4222 46.8279 34.1812 47.1709C33.5402 47.3489 33.2902 47.6819 33.3202 48.3209C33.3512 49.0149 33.3382 49.7119 33.3202 50.3039C33.2772 51.7419 32.2132 52.7989 30.7882 52.8189C29.8242 52.8319 28.8592 52.8389 27.8952 52.8389Z" fill="#F1EBDF"/>
<path d="M25.8192 50.1698C25.3982 50.1698 25.1922 49.9838 25.2172 49.5478C25.2212 49.4908 25.2162 49.4318 25.2162 49.3738C25.2332 47.6658 25.0812 47.4988 25.9422 47.4988C26.1502 47.4988 26.4182 47.5088 26.7612 47.5088C26.8472 47.5088 26.9382 47.5078 27.0332 47.5068C27.2822 47.5028 27.5312 47.5018 27.7802 47.5018C28.2582 47.5018 28.7362 47.5058 29.2142 47.5058C29.4742 47.5058 29.7342 47.5048 29.9942 47.5008C30.0042 47.4998 30.0142 47.4998 30.0232 47.4998C30.4822 47.4998 30.6752 47.6908 30.6702 48.1678C30.6512 49.9848 30.7962 50.1768 30.0082 50.1768C29.7972 50.1768 29.5212 50.1628 29.1562 50.1628C29.0472 50.1628 28.9312 50.1638 28.8062 50.1678C28.7092 50.1698 28.6132 50.1708 28.5162 50.1708C28.3512 50.1708 28.1872 50.1688 28.0222 50.1688C27.5792 50.1668 27.1362 50.1628 26.6932 50.1628C26.4102 50.1628 26.1272 50.1648 25.8452 50.1698C25.8362 50.1698 25.8272 50.1698 25.8192 50.1698ZM23.1822 44.6038C22.5602 44.6038 22.4152 44.3348 22.4202 43.7668C22.4412 41.5608 22.4442 39.3538 22.4192 37.1478C22.4122 36.5498 22.6252 36.3458 23.1902 36.3458C23.2042 36.3458 23.2192 36.3458 23.2342 36.3468C23.9202 36.3588 24.6062 36.3618 25.2922 36.3618C26.2032 36.3618 27.1132 36.3558 28.0242 36.3558C28.9022 36.3558 29.7802 36.3618 30.6572 36.3618C31.3182 36.3618 31.9792 36.3588 32.6402 36.3468C32.6562 36.3468 32.6712 36.3458 32.6872 36.3458C33.2422 36.3458 33.4712 36.5348 33.4642 37.1398C33.4372 39.3748 33.4412 41.6098 33.4622 43.8458C33.4672 44.4128 33.2532 44.6018 32.7052 44.6018H32.6922C31.0802 44.5928 29.4692 44.5878 27.8572 44.5878C26.3042 44.5878 24.7512 44.5928 23.1992 44.6038H23.1822ZM24.5512 33.4408C23.8012 33.4408 23.0512 33.4438 22.3012 33.4548C20.7112 33.4768 19.5772 34.6248 19.5232 36.2068C19.5122 36.5258 19.5192 36.8458 19.5192 37.1648C19.5182 38.8968 19.5182 39.0078 17.9482 39.0078C17.8652 39.0078 17.7792 39.0078 17.6882 39.0068H17.6722C16.9882 39.0068 16.7032 39.1998 16.7202 39.9368C16.7602 41.7238 16.6172 41.9368 17.4382 41.9368C17.6942 41.9368 18.0452 41.9158 18.5242 41.9158C18.5532 41.9158 18.5832 41.9158 18.6132 41.9158C19.2712 41.9198 19.5962 42.0778 19.5282 42.7968C19.4792 43.3138 19.5172 43.8398 19.5192 44.3628C19.5282 46.0488 20.1622 46.9608 21.7602 47.4498C22.1842 47.5798 22.3162 47.7738 22.3082 48.1788C22.2952 48.9038 22.2892 49.6298 22.3142 50.3548C22.3652 51.8748 23.5192 53.0428 25.0472 53.0668C26.0002 53.0828 26.9532 53.0898 27.9072 53.0898C28.8692 53.0898 29.8302 53.0818 30.7922 53.0688C32.3712 53.0468 33.5242 51.8838 33.5702 50.3108C33.5902 49.6438 33.6002 48.9748 33.5692 48.3088C33.5462 47.7928 33.7112 47.5598 34.2482 47.4118C35.6252 47.0318 36.3382 46.0128 36.3622 44.5798C36.3672 44.2318 36.3612 43.8828 36.3642 43.5348C36.3772 42.0158 36.2302 41.9288 37.2402 41.9288C37.3712 41.9288 37.5212 41.9298 37.6942 41.9298C37.7662 41.9298 37.8422 41.9298 37.9222 41.9298C38.1542 41.9268 38.3872 41.9238 38.6192 41.9178C38.9192 41.9108 39.0732 41.7788 39.1402 41.4608C39.5402 39.5378 39.1742 39.0468 37.2802 39.0198C37.2422 39.0188 37.2052 39.0168 37.1672 39.0168C37.1472 39.0168 37.1262 39.0178 37.1062 39.0198C37.0532 39.0248 37.0032 39.0278 36.9562 39.0278C36.4952 39.0278 36.3352 38.7528 36.3582 38.2518C36.3872 37.6148 36.3722 36.9748 36.3612 36.3368C36.3302 34.6058 35.1872 33.4648 33.4432 33.4508C32.7362 33.4448 32.0292 33.4428 31.3222 33.4428C30.2012 33.4428 29.0802 33.4468 27.9592 33.4478H27.8562C26.7552 33.4478 25.6532 33.4408 24.5512 33.4408ZM25.8192 50.6698H25.8492H25.8532C26.1332 50.6648 26.4132 50.6628 26.6932 50.6628L27.4942 50.6658L28.0222 50.6688L28.2662 50.6698L28.5162 50.6708C28.6172 50.6708 28.7182 50.6698 28.8182 50.6668C28.9392 50.6638 29.0512 50.6628 29.1562 50.6628C29.3582 50.6628 29.5332 50.6678 29.6842 50.6708C29.8062 50.6738 29.9132 50.6768 30.0082 50.6768C30.3022 50.6768 30.6372 50.6558 30.8802 50.4118C31.1742 50.1178 31.1722 49.7088 31.1692 48.8958C31.1682 48.6898 31.1672 48.4508 31.1702 48.1728C31.1742 47.7918 31.0772 47.5068 30.8742 47.3018C30.6742 47.0988 30.3962 47.0008 29.9882 47.0008H29.9862C29.7282 47.0048 29.4712 47.0058 29.2142 47.0058L28.4992 47.0038L27.7802 47.0018C27.5282 47.0018 27.2772 47.0028 27.0252 47.0068L26.7612 47.0088C26.5722 47.0088 26.4052 47.0058 26.2602 47.0028C26.1412 47.0008 26.0362 46.9988 25.9422 46.9988C25.5882 46.9988 25.2502 47.0198 25.0002 47.2708C24.7102 47.5628 24.7122 47.9458 24.7162 48.7088C24.7172 48.8978 24.7192 49.1168 24.7162 49.3688L24.7172 49.4588C24.7182 49.4798 24.7192 49.4998 24.7182 49.5198C24.6982 49.8708 24.7862 50.1528 24.9802 50.3578C25.1752 50.5648 25.4582 50.6698 25.8192 50.6698ZM23.1822 45.1038H23.2012C24.7532 45.0928 26.3062 45.0878 27.8572 45.0878C29.4682 45.0878 31.0792 45.0928 32.7052 45.1018C32.9762 45.1018 33.3682 45.0688 33.6522 44.7828C33.9352 44.4968 33.9642 44.1078 33.9622 43.8408C33.9392 41.3808 33.9402 39.1908 33.9642 37.1458C33.9672 36.8678 33.9382 36.4638 33.6482 36.1698C33.3612 35.8798 32.9622 35.8458 32.6872 35.8458L32.6362 35.8468H32.6312C31.9732 35.8588 31.3152 35.8618 30.6572 35.8618L29.3422 35.8588L28.0242 35.8558L26.6562 35.8588L25.2922 35.8618C24.6092 35.8618 23.9262 35.8588 23.2432 35.8468L23.1942 35.8458H23.1902C22.9182 35.8458 22.5232 35.8798 22.2362 36.1698C21.9452 36.4638 21.9152 36.8718 21.9192 37.1538C21.9432 39.2048 21.9432 41.3668 21.9202 43.7618C21.9172 44.0838 21.9502 44.4908 22.2392 44.7818C22.4532 44.9988 22.7622 45.1038 23.1822 45.1038ZM24.5512 33.9408L26.2022 33.9438C26.7542 33.9458 27.3052 33.9478 27.8562 33.9478H27.9592L29.5562 33.9448L31.3222 33.9428C32.0272 33.9428 32.7332 33.9448 33.4392 33.9508C34.9072 33.9628 35.8352 34.8808 35.8612 36.3458L35.8632 36.4818C35.8742 37.0578 35.8842 37.6528 35.8582 38.2288C35.8382 38.6678 35.9352 38.9918 36.1532 39.2208C36.3482 39.4248 36.6192 39.5278 36.9562 39.5278C37.0202 39.5278 37.0872 39.5248 37.1582 39.5168L37.1672 39.0168L37.2132 39.5178L37.2672 39.5198H37.2732C38.0672 39.5318 38.5092 39.6278 38.6672 39.8248C38.8822 40.0938 38.7612 40.8288 38.6502 41.3578C38.6452 41.3838 38.6402 41.4028 38.6352 41.4168C38.6272 41.4168 38.6182 41.4178 38.6062 41.4178C38.3772 41.4238 38.1472 41.4268 37.9182 41.4298H37.6942H37.4382L37.2402 41.4288C36.8172 41.4288 36.4182 41.4288 36.1402 41.7078C35.8582 41.9918 35.8602 42.3588 35.8642 43.0258C35.8652 43.1728 35.8662 43.3408 35.8642 43.5308C35.8632 43.6838 35.8632 43.8378 35.8642 43.9918C35.8642 44.1848 35.8652 44.3778 35.8622 44.5708C35.8412 45.8218 35.2542 46.6148 34.1152 46.9298C33.3572 47.1388 33.0352 47.5718 33.0702 48.3318C33.1012 49.0178 33.0882 49.7098 33.0712 50.2958C33.0312 51.6168 32.0912 52.5508 30.7852 52.5688C29.8262 52.5818 28.8662 52.5898 27.9072 52.5898C26.9562 52.5898 26.0052 52.5828 25.0552 52.5668C23.7992 52.5468 22.8562 51.6088 22.8132 50.3378C22.7882 49.5738 22.7962 48.8228 22.8082 48.1878C22.8202 47.5498 22.5342 47.1638 21.9062 46.9718C20.5382 46.5528 20.0272 45.8448 20.0192 44.3598C20.0182 44.2058 20.0152 44.0518 20.0112 43.8978C20.0022 43.5298 19.9932 43.1828 20.0262 42.8438C20.0692 42.3848 19.9822 42.0428 19.7602 41.7978C19.4592 41.4658 19.0132 41.4188 18.6162 41.4158H18.5242C18.2412 41.4158 18.0032 41.4228 17.8012 41.4288C17.6622 41.4328 17.5422 41.4368 17.4382 41.4368C17.3542 41.4368 17.2972 41.4338 17.2592 41.4308C17.2352 41.2768 17.2322 40.9508 17.2292 40.6348C17.2282 40.4308 17.2262 40.1958 17.2192 39.9258C17.2132 39.6318 17.2682 39.5668 17.2682 39.5668C17.2692 39.5658 17.3312 39.5068 17.6862 39.5068L17.9482 39.5078C19.8522 39.5078 20.0182 39.1238 20.0192 37.1648L20.0182 36.8988C20.0172 36.6738 20.0152 36.4488 20.0232 36.2238C20.0672 34.9058 21.0072 33.9728 22.3082 33.9548C23.0562 33.9438 23.8042 33.9408 24.5512 33.9408Z" fill="#7C7958"/>
<path d="M68.7787 18.6968C68.5287 18.6968 68.1537 18.3228 67.5337 17.7028L65.1297 15.2948C62.8777 13.0378 60.6257 10.7798 58.3517 8.54678C58.1127 8.31278 58.0017 8.13878 58.0027 8.00278C58.0037 7.86478 58.1157 7.69578 58.3657 7.45678L58.4407 7.38478C59.0077 6.84278 59.3507 6.51378 59.5777 6.51378C59.8107 6.51378 60.1617 6.86578 60.7447 7.44778L69.9717 16.6788L70.1137 16.8128C70.2657 16.9538 70.3977 17.0738 70.4447 17.2438C70.4247 17.3038 70.3237 17.4018 70.1617 17.5478C70.1117 17.5928 70.0617 17.6378 70.0147 17.6858C69.4007 18.3168 69.0297 18.6968 68.7787 18.6968Z" fill="#F1EBDF"/>
<path d="M59.5775 6.26375C59.2375 6.26375 58.8945 6.60375 58.1935 7.27575C57.6275 7.81775 57.5915 8.15075 58.1755 8.72475C61.2595 11.7528 64.3005 14.8238 67.3565 17.8798C68.0675 18.5908 68.4245 18.9478 68.7785 18.9478C69.1345 18.9478 69.4875 18.5868 70.1935 17.8618C70.3895 17.6598 70.6585 17.5028 70.6855 17.1758C70.6005 16.8738 70.3505 16.7048 70.1485 16.5028C67.0755 13.4238 63.9975 10.3478 60.9215 7.27175C60.2465 6.59675 59.9135 6.26375 59.5775 6.26375ZM59.5775 6.76375C59.7065 6.76375 60.1645 7.22175 60.5675 7.62475L62.5745 9.63175C64.9825 12.0388 67.3895 14.4468 69.7955 16.8558C69.8425 16.9038 69.8935 16.9508 69.9435 16.9968C70.0355 17.0818 70.1055 17.1468 70.1505 17.2088C70.1195 17.2468 70.0685 17.2948 69.9955 17.3618C69.9405 17.4108 69.8855 17.4608 69.8355 17.5128C69.3875 17.9718 68.9245 18.4478 68.7785 18.4478C68.6315 18.4478 68.1635 17.9788 67.7105 17.5258L65.3305 15.1418C63.1085 12.9148 60.8105 10.6108 58.5265 8.36775C58.2555 8.10175 58.2525 8.00375 58.2525 8.00375C58.2525 7.99975 58.2565 7.90775 58.5385 7.63675L58.6125 7.56675C59.0055 7.19075 59.4505 6.76375 59.5775 6.76375Z" fill="#7C7958"/>
<path d="M74.2958 14.6596C74.2228 14.6076 74.1358 14.5476 74.0618 14.4736L71.9778 12.3886C70.6208 11.0306 69.2648 9.67359 67.8998 8.32359C67.6348 8.06159 67.6378 7.97059 67.9198 7.66859C68.6078 6.93159 69.0048 6.50659 69.2818 6.50659C69.5588 6.50659 69.9708 6.91859 70.6538 7.60059L71.9958 8.95059C73.1858 10.1506 74.3758 11.3496 75.5958 12.5186C75.8348 12.7476 75.9478 12.9256 75.9418 13.0606C75.9358 13.1886 75.8198 13.3416 75.5878 13.5266C75.3458 13.7216 75.1298 13.9466 74.9138 14.1736C74.8028 14.2896 74.6918 14.4056 74.5768 14.5166C74.4628 14.6306 74.4128 14.6766 74.3288 14.6836L74.2958 14.6596Z" fill="#F1EBDF"/>
<path d="M69.2818 6.25657C68.8918 6.25657 68.5118 6.66857 67.7378 7.49657C67.3868 7.87157 67.3408 8.12257 67.7238 8.50157C69.7878 10.5416 71.8318 12.6016 73.8858 14.6506C74.0058 14.7706 74.1538 14.8606 74.2448 14.9316C74.2648 14.9336 74.2838 14.9346 74.3018 14.9346C74.5278 14.9346 74.6378 14.8066 74.7508 14.6966C75.0838 14.3736 75.3838 14.0106 75.7448 13.7226C76.3368 13.2486 76.3368 12.8826 75.7688 12.3386C74.0918 10.7336 72.4728 9.06857 70.8318 7.42657C70.0538 6.64857 69.6628 6.25657 69.2818 6.25657ZM69.2818 6.75657C69.4548 6.75657 69.9508 7.25257 70.4778 7.77957C70.9338 8.23557 71.3878 8.69357 71.8418 9.15157C73.0048 10.3236 74.2078 11.5366 75.4228 12.6996C75.6858 12.9516 75.6918 13.0496 75.6918 13.0496C75.6918 13.0496 75.6728 13.1396 75.4318 13.3316C75.1728 13.5396 74.9488 13.7736 74.7328 14.0006C74.6248 14.1146 74.5158 14.2286 74.3728 14.3676C74.3658 14.3746 74.3578 14.3826 74.3488 14.3906C74.3118 14.3626 74.2738 14.3316 74.2388 14.2966L72.1578 12.2156C70.7998 10.8566 69.4418 9.49657 68.0758 8.14557C68.0018 8.07257 67.9708 8.02757 67.9588 8.02257C67.9728 7.99657 68.0128 7.93457 68.1318 7.80757C68.6368 7.26657 69.1128 6.75657 69.2818 6.75657Z" fill="#7C7958"/>
<path d="M56.2415 17.2944C55.9775 17.2944 55.5855 16.9024 54.9355 16.2534L54.3665 15.6854C53.7995 15.1174 53.2315 14.5514 52.6675 13.9814C52.5635 13.8754 52.4705 13.7594 52.3845 13.6504L52.3385 13.5954C52.3915 13.4254 52.5125 13.3154 52.6595 13.1834C52.7125 13.1354 52.7635 13.0884 52.8125 13.0384C53.4005 12.4404 53.7565 12.0784 53.9925 12.0784C54.2265 12.0784 54.5795 12.4314 55.1645 13.0164L55.8695 13.7304C56.4285 14.2994 56.9885 14.8684 57.5745 15.4074C57.7455 15.5654 57.8335 15.6954 57.8355 15.7944C57.8375 15.9004 57.7465 16.0424 57.5475 16.2414C56.8775 16.9154 56.5005 17.2944 56.2415 17.2944Z" fill="#F1EBDF"/>
<path d="M53.9929 11.8279C53.6529 11.8279 53.3139 12.1719 52.6339 12.8639C52.4179 13.0839 52.1239 13.2559 52.0699 13.6599C52.1959 13.8109 52.3309 13.9959 52.4899 14.1569C53.2429 14.9179 54.0019 15.6729 54.7589 16.4299C55.5039 17.1739 55.8739 17.5439 56.2419 17.5439C56.6119 17.5439 56.9789 17.1679 57.7249 16.4189C58.1689 15.9729 58.2349 15.6759 57.7439 15.2239C56.9149 14.4599 56.1389 13.6379 55.3419 12.8389C54.6689 12.1659 54.3299 11.8279 53.9929 11.8279ZM53.9929 12.3279C54.1229 12.3279 54.5829 12.7869 54.9879 13.1929C55.2219 13.4269 55.4539 13.6629 55.6859 13.8989C56.2389 14.4619 56.8109 15.0439 57.4049 15.5919C57.5499 15.7249 57.5809 15.7929 57.5849 15.7929C57.5809 15.8099 57.5499 15.8859 57.3709 16.0659L57.3249 16.1119C56.8479 16.5909 56.3969 17.0439 56.2419 17.0439C56.0819 17.0439 55.6109 16.5739 55.1129 16.0759L54.5869 15.5509C54.0059 14.9709 53.4239 14.3899 52.8459 13.8049C52.7689 13.7279 52.6999 13.6439 52.6339 13.5629C52.6749 13.5089 52.7359 13.4509 52.8269 13.3689C52.8829 13.3179 52.9389 13.2669 52.9909 13.2139C53.3989 12.7989 53.8609 12.3279 53.9929 12.3279Z" fill="#7C7958"/>
</g>
</svg>
