<svg width="155" height="111" viewBox="0 0 155 111" fill="none" xmlns="http://www.w3.org/2000/svg">
<g opacity="0.470001">
<path d="M49.346 45.2948C52.97 45.2948 56.595 45.3108 60.219 45.2898C63.318 45.2718 64.433 44.1608 64.443 41.1158C64.455 37.5418 64.454 33.9678 64.444 30.3938C64.435 27.3068 63.339 26.1748 60.278 26.1648C54.086 26.1448 47.894 26.1498 41.703 26.1628C39.093 26.1678 38.048 26.9888 37.417 29.4888C36.494 33.1468 35.579 36.8058 34.678 40.4698C33.884 43.6958 35.109 45.2638 38.473 45.2888C42.097 45.3148 45.721 45.2948 49.346 45.2948ZM105.73 45.2988C109.507 45.2988 113.284 45.3358 117.06 45.2858C119.701 45.2518 121.129 43.5838 120.56 41.1958C119.592 37.1338 118.568 33.0848 117.514 29.0438C117.002 27.0818 115.954 26.2008 113.95 26.1858C107.404 26.1378 100.856 26.1268 94.31 26.1868C91.718 26.2098 90.632 27.4558 90.622 30.1098C90.608 33.7348 90.614 37.3608 90.619 40.9868C90.623 44.2128 91.711 45.2878 95.003 45.2988C98.579 45.3118 102.154 45.3018 105.73 45.2988ZM77.546 90.3938H144.515C148.275 90.3938 148.275 90.3938 148.272 86.6498C148.27 84.2288 148.27 84.2278 145.774 84.2278H10.779C6.78604 84.2278 6.78604 84.2278 6.79504 88.1878C6.80004 90.3908 6.80004 90.3938 9.06604 90.3938C31.893 90.3938 54.72 90.3938 77.546 90.3938ZM77.526 6.8028C61.802 6.8028 46.079 6.79079 30.356 6.80879C23.863 6.81579 19.76 10.4428 19.63 16.7488C19.441 25.8668 19.585 34.9908 19.562 44.1128C19.56 45.0648 19.986 45.3248 20.853 45.3108C22.868 45.2788 24.885 45.2728 26.9 45.3148C27.782 45.3328 28.109 45.0588 27.853 44.1698C27.423 42.6768 27.52 41.1738 27.889 39.6878C28.945 35.4368 29.942 31.1688 31.109 26.9468C32.421 22.1988 35.95 19.4778 41.02 19.3978C47.62 19.2938 54.224 19.2918 60.825 19.3958C66.502 19.4848 70.758 22.9848 71.112 28.2518C71.466 33.5138 71.557 38.8228 70.979 44.0948C70.874 45.0548 71.061 45.3328 72.025 45.3188C75.2 45.2738 78.375 45.3028 81.55 45.3028C84.077 45.3028 84.071 45.3028 83.852 42.8888C83.807 42.3878 83.809 41.8818 83.808 41.3778C83.805 37.6488 83.799 33.9198 83.808 30.1898C83.824 23.6478 87.868 19.4648 94.413 19.3858C100.863 19.3068 107.314 19.3248 113.764 19.3818C119.195 19.4298 122.819 22.3178 124.151 27.5368C125.098 31.2448 125.999 34.9648 126.935 38.6748C127.395 40.4968 127.757 42.3208 127.213 44.1858C126.945 45.1008 127.328 45.3298 128.183 45.3138C130.198 45.2748 132.216 45.2638 134.23 45.3158C135.258 45.3418 135.51 44.8778 135.507 43.9458C135.486 34.9748 135.55 26.0048 135.467 17.0348C135.428 12.7778 133.675 9.42879 129.573 7.65479C127.924 6.94079 126.162 6.80679 124.393 6.80579C108.771 6.80079 93.148 6.8028 77.526 6.8028ZM77.542 77.4348C100.423 77.4348 123.304 77.4358 146.185 77.4338C148.264 77.4338 148.269 77.4258 148.271 75.3258C148.274 70.8908 148.297 66.4558 148.263 62.0208C148.218 55.9718 144.378 52.1098 138.306 52.1068C97.786 52.0888 57.265 52.0888 16.745 52.1068C10.683 52.1098 6.84804 55.9838 6.80304 62.0368C6.77104 66.4208 6.79404 70.8058 6.79604 75.1908C6.79704 77.4298 6.80004 77.4338 9.05004 77.4338C31.881 77.4348 54.711 77.4348 77.542 77.4348ZM154.959 108.015C154.766 108.246 154.568 108.474 154.38 108.709C153.47 109.85 152.289 110.267 150.889 109.906C149.549 109.561 148.717 108.669 148.479 107.293C148.037 104.74 148.338 102.164 148.283 99.5988C148.231 97.2078 148.27 97.2058 145.885 97.2058C100.317 97.2048 54.749 97.2048 9.18104 97.2058C6.79704 97.2058 6.79704 97.2078 6.79504 99.6008C6.79404 101.566 6.82004 103.533 6.78104 105.498C6.76604 106.247 6.68904 107.017 6.48804 107.734C6.08604 109.171 4.61304 110.131 3.13304 110.034C1.63304 109.935 0.336045 108.818 0.0800445 107.337C-0.0139555 106.796 0.00504378 106.232 0.00504378 105.679C0.00104378 91.2118 -0.00395622 76.7448 0.00504378 62.2778C0.0100438 54.2458 4.03304 48.5858 11.658 45.9768C12.776 45.5948 12.78 44.8688 12.78 43.9878C12.776 35.0658 12.772 26.1438 12.781 17.2218C12.786 11.4618 14.958 6.75879 19.598 3.24179C22.532 1.01879 25.886 0.0347922 29.488 0.0307922C61.496 -0.00120777 93.505 -0.0182072 125.513 0.0297928C135.075 0.0447928 142.215 7.2728 142.276 16.8538C142.332 25.7758 142.315 34.6978 142.263 43.6198C142.255 45.0258 142.612 45.7168 144.061 46.2048C149.28 47.9628 152.663 51.6288 154.388 56.8398C154.594 57.4608 154.769 58.0908 154.959 58.7168V108.015Z" fill="#F1EBDF"/>
</g>
</svg>
