<svg width="147" height="110" viewBox="0 0 147 110" fill="none" xmlns="http://www.w3.org/2000/svg">
<g opacity="0.419998">
<path d="M73.9468 26.8115C68.2668 26.8115 62.5888 26.8225 56.9088 26.8415C53.5508 26.8525 50.6948 29.1025 49.9628 32.3125C49.3428 35.0335 49.3288 37.9505 49.9228 40.7495C50.6928 44.3835 53.6458 46.4845 58.0258 46.5115C60.0308 46.5245 62.0368 46.5285 64.0428 46.5285L82.5488 46.5115C84.5048 46.5115 86.4608 46.5145 88.4178 46.5245C91.7818 46.5245 93.7508 45.1305 94.8208 43.9615C96.2578 42.3905 96.9678 40.2235 96.7718 38.0145C96.7048 37.2595 96.7198 36.5055 96.7368 35.7075C96.7478 35.2015 96.7578 34.6945 96.7468 34.1885C96.6508 30.0175 93.5108 26.8585 89.4448 26.8415C84.2788 26.8205 79.1128 26.8115 73.9468 26.8115ZM111.421 46.5045C113.479 46.5045 115.538 46.5155 117.596 46.5425H117.603C118.117 46.5425 118.753 46.4915 119.18 46.0625C119.613 45.6285 119.667 44.9855 119.665 44.4735C119.63 34.9915 119.638 25.5085 119.647 16.0245C119.648 14.4725 119.316 13.1805 118.632 12.0765C117.122 9.63851 114.873 8.45451 111.755 8.45451C105.706 8.47051 99.6898 8.47551 93.6758 8.47551L73.1948 8.46851C69.5878 8.46851 65.9788 8.47951 62.3708 8.49051C58.7638 8.49951 55.1578 8.51051 51.5518 8.51051C45.1928 8.51051 40.0108 8.4765 35.2478 8.4035L35.0768 8.40251C32.5778 8.40251 30.4508 9.2285 28.9238 10.7915C27.4288 12.3225 26.6378 14.4965 26.6958 16.9135C26.8468 23.2565 26.8158 29.7135 26.7858 35.9585C26.7718 38.6135 26.7588 41.2675 26.7588 43.9215L26.7718 45.0685C26.7788 45.9875 27.3168 46.5145 28.2478 46.5145L32.6388 46.5135C35.7408 46.5135 38.8428 46.5155 41.9448 46.5215C42.1398 46.5215 42.7218 46.5215 43.0098 46.0755C43.2988 45.6305 43.0598 45.1005 42.9818 44.9265C41.3918 41.4025 41.5648 37.5895 41.7328 33.9035C42.1198 25.4055 48.7548 18.9405 57.1648 18.8675C62.0458 18.8245 67.2128 18.8025 72.5218 18.8025C78.1028 18.8025 83.6828 18.8265 89.2618 18.8655C96.0258 18.9125 101.852 23.1065 103.761 29.3025C105.331 34.3945 105.258 39.5375 103.542 44.5865C103.369 45.0975 103.21 45.6775 103.511 46.0975C103.801 46.5015 104.345 46.5365 104.833 46.5365C107.08 46.5165 109.25 46.5045 111.421 46.5045ZM96.6238 74.0165C109.673 74.0165 122.718 74.0215 135.766 74.0455C136.494 74.0455 137.211 73.9795 137.674 73.4985C138.037 73.1215 138.184 72.5725 138.151 71.7185C138.079 69.8055 138.093 67.8525 138.105 65.9625C138.113 64.8375 138.121 63.7105 138.112 62.5855C138.068 57.4865 134.899 54.3175 129.842 54.3165L73.1988 54.3125L16.5568 54.3165C11.5008 54.3175 8.33384 57.4885 8.29184 62.5905C8.27584 64.6075 8.27984 66.6255 8.28384 68.6435L8.28684 71.3155C8.28784 73.7905 8.50984 74.0185 10.9258 74.0185L96.6238 74.0165ZM122.34 92.3545C126.889 92.3545 131.437 92.3595 135.987 92.3795C136.611 92.3795 137.273 92.3175 137.709 91.8575C138.043 91.5055 138.18 90.9935 138.14 90.2445C138.075 89.0025 138.09 87.7285 138.104 86.4965C138.11 85.9435 138.117 85.3915 138.117 84.8395C138.117 82.2035 137.908 81.9905 135.319 81.9905H11.0568L10.6068 81.9995C10.5378 81.9995 10.4678 81.9975 10.3998 81.9895C10.2528 81.9735 10.1148 81.9645 9.98584 81.9645C9.43484 81.9645 9.00784 82.1205 8.71484 82.4265C8.38084 82.7765 8.23384 83.3015 8.26584 84.0335C8.32384 85.3435 8.30984 86.6855 8.29884 87.9835C8.29284 88.5655 8.28684 89.1475 8.28684 89.7285C8.28784 92.1365 8.50584 92.3585 10.8708 92.3585L122.34 92.3545ZM142.078 109.5C141.641 109.5 141.172 109.413 140.68 109.239C139.17 108.704 138.194 107.391 138.134 105.812C138.087 104.569 138.085 103.332 138.127 102.132C138.15 101.499 138.017 101.041 137.72 100.735C137.459 100.462 137.083 100.325 136.605 100.325C136.528 100.325 136.448 100.329 136.363 100.335C136.262 100.344 136.16 100.346 136.057 100.346L135.407 100.335H10.9778C8.51484 100.335 8.28884 100.559 8.28684 102.991L8.28884 103.782C8.29084 104.326 8.29284 104.87 8.28284 105.413C8.24384 107.775 6.61784 109.49 4.41684 109.49C2.13684 109.452 0.532841 107.744 0.530841 105.427C0.514841 92.2265 0.508839 79.0255 0.532839 65.8255C0.533839 65.2795 0.524841 64.7325 0.515841 64.1855C0.477841 61.8075 0.44184 59.5605 1.15684 57.3265C3.22584 50.8555 8.97784 46.6165 15.8108 46.5255H16.9668C17.6378 46.5255 18.1028 46.5005 18.4348 46.1665C18.8198 45.7815 18.8168 45.2275 18.8108 44.0135L18.8088 33.3025C18.8078 27.7315 18.8058 22.1615 18.8138 16.5895C18.8258 7.12451 25.4188 0.510507 34.8468 0.507507C47.9468 0.502507 61.0488 0.499512 74.1478 0.499512C86.6378 0.499512 99.1268 0.501507 111.617 0.507507C121.007 0.512507 127.575 7.09151 127.59 16.5075C127.604 25.7995 127.603 35.0915 127.58 44.3845C127.579 45.0275 127.614 45.6905 128.047 46.1235C128.33 46.4075 128.724 46.5445 129.256 46.5445C129.351 46.5445 129.453 46.5405 129.561 46.5315C129.963 46.4975 130.365 46.4805 130.762 46.4805C137.758 46.4805 144.147 51.7415 145.626 58.7165C145.659 58.8735 145.723 59.0015 145.775 59.1055L145.782 59.1195V106.91C144.609 108.676 143.429 109.5 142.078 109.5Z" fill="#F1EBDF"/>
<path d="M41.715 91.859C31.435 91.859 21.151 91.859 10.871 91.859C8.78803 91.859 8.78803 91.855 8.78703 89.728C8.78603 87.822 8.84903 85.914 8.76503 84.012C8.71703 82.925 9.09703 82.465 9.98603 82.465C10.097 82.465 10.217 82.473 10.344 82.487C10.429 82.496 10.515 82.499 10.601 82.499C10.753 82.499 10.905 82.49 11.057 82.49C52.477 82.49 93.898 82.49 135.319 82.49C137.616 82.49 137.616 82.492 137.617 84.84C137.617 86.651 137.545 88.465 137.641 90.271C137.708 91.553 137.211 91.88 136.018 91.88H135.988C131.336 91.86 126.684 91.855 122.032 91.855C117.696 91.855 113.36 91.859 109.025 91.859H97.088H73.216H41.715ZM47.044 73.519C35.006 73.519 22.965 73.519 10.926 73.518C8.78803 73.518 8.78703 73.517 8.78703 71.315C8.78603 68.408 8.76803 65.502 8.79203 62.595C8.83003 57.776 11.776 54.817 16.557 54.817C35.437 54.814 54.318 54.812 73.199 54.812C92.079 54.812 110.96 54.814 129.841 54.817C134.625 54.817 137.571 57.771 137.611 62.59C137.637 65.64 137.535 68.692 137.651 71.738C137.709 73.243 137.161 73.546 135.785 73.546H135.767C122.786 73.522 109.806 73.517 96.824 73.517C88.928 73.517 81.03 73.519 73.133 73.519C64.436 73.519 55.741 73.519 47.044 73.519ZM64.001 46.029C62.01 46.029 60.019 46.025 58.028 46.012C54.002 45.986 51.142 44.092 50.411 40.646C49.839 37.948 49.834 35.129 50.45 32.424C51.139 29.401 53.812 27.352 56.911 27.341C62.543 27.322 68.174 27.311 73.807 27.311C79.018 27.311 84.231 27.321 89.442 27.342C93.246 27.358 96.159 30.374 96.246 34.2C96.276 35.486 96.16 36.782 96.274 38.058C96.628 42.035 93.879 46.025 88.472 46.025H88.42C86.444 46.015 84.468 46.013 82.493 46.013C79.379 46.013 76.266 46.02 73.152 46.02C70.102 46.02 67.052 46.029 64.001 46.029ZM28.246 46.015C27.603 46.015 27.276 45.713 27.272 45.065C27.269 44.684 27.259 44.303 27.259 43.921C27.258 34.914 27.411 25.904 27.196 16.902C27.084 12.211 30.239 8.902 35.076 8.902C35.13 8.902 35.184 8.903 35.239 8.904C40.662 8.987 46.085 9.011 51.51 9.011C58.737 9.011 65.966 8.968 73.194 8.968C80.051 8.969 86.906 8.975 93.763 8.975C99.748 8.975 105.736 8.971 111.721 8.954H111.754C114.541 8.954 116.719 9.937 118.206 12.339C118.906 13.468 119.147 14.707 119.146 16.025C119.138 25.508 119.13 34.992 119.164 44.476C119.168 45.625 118.805 46.043 117.667 46.043C117.646 46.043 117.625 46.043 117.603 46.043C115.553 46.016 113.503 46.005 111.453 46.005C109.27 46.005 107.087 46.017 104.904 46.036C104.881 46.037 104.858 46.037 104.835 46.037C103.828 46.037 103.649 45.828 104.015 44.748C105.766 39.591 105.829 34.316 104.238 29.155C102.266 22.756 96.15 18.413 89.266 18.365C83.699 18.326 78.133 18.303 72.566 18.303C67.431 18.303 62.295 18.322 57.161 18.367C48.46 18.443 41.632 25.124 41.233 33.881C41.06 37.679 40.897 41.521 42.525 45.132C42.792 45.724 42.634 46.022 41.95 46.022H41.945C38.888 46.015 35.831 46.014 32.773 46.014C31.265 46.014 29.755 46.014 28.246 46.015ZM73.457 0C60.588 0 47.717 0.00300323 34.847 0.00800323C25.165 0.0110032 18.326 6.88 18.313 16.589C18.302 25.549 18.313 34.508 18.31 43.468C18.309 45.876 18.442 46.026 16.965 46.026C16.754 46.026 16.511 46.023 16.229 46.023C16.096 46.023 15.955 46.024 15.804 46.026C8.70603 46.12 2.81803 50.493 0.681031 57.174C-0.229969 60.021 0.0380321 62.931 0.0330321 65.825C0.00803214 79.026 0.01503 92.227 0.03003 105.428C0.03303 108.05 1.86603 109.947 4.33603 109.988C4.36303 109.988 4.39003 109.989 4.41703 109.989C6.89203 109.989 8.73803 108.069 8.78303 105.421C8.79603 104.611 8.78603 103.801 8.78603 102.991C8.78803 100.837 8.78803 100.835 10.977 100.835C32.179 100.835 53.373 100.835 74.575 100.835H135.407C135.624 100.835 135.842 100.846 136.059 100.846C136.175 100.846 136.29 100.843 136.405 100.833C136.475 100.827 136.542 100.824 136.605 100.824C137.396 100.824 137.657 101.281 137.627 102.114C137.583 103.351 137.588 104.593 137.634 105.83C137.703 107.638 138.824 109.111 140.513 109.709C141.059 109.902 141.578 110 142.077 110C143.641 110 144.998 109.04 146.281 107.059V59.007C146.225 58.876 146.144 58.75 146.115 58.613C144.561 51.286 137.974 45.98 130.762 45.98C130.35 45.98 129.935 45.998 129.519 46.033C129.426 46.041 129.338 46.045 129.256 46.045C128.172 46.045 128.077 45.363 128.08 44.386C128.103 35.093 128.104 25.8 128.089 16.507C128.074 6.892 121.214 0.0130032 111.616 0.00800323C98.897 0.00300323 86.177 0 73.457 0ZM41.715 92.859H57.465H73.216H85.152H97.088H109.025L115.528 92.857L122.032 92.854C126.683 92.854 131.333 92.859 136.018 92.88C136.674 92.88 137.501 92.803 138.071 92.202C138.642 91.599 138.669 90.781 138.639 90.218C138.574 88.989 138.589 87.718 138.604 86.489C138.61 85.939 138.617 85.39 138.616 84.84C138.616 81.929 138.184 81.491 135.319 81.491L11.057 81.49C10.971 81.49 10.885 81.493 10.799 81.495C10.733 81.497 10.667 81.5 10.601 81.5C10.552 81.5 10.503 81.499 10.454 81.493C10.288 81.475 10.131 81.466 9.98603 81.466C9.29303 81.466 8.74403 81.673 8.35303 82.082C7.91903 82.535 7.72803 83.18 7.76603 84.056C7.82303 85.355 7.81003 86.693 7.79803 87.987C7.79203 88.567 7.78703 89.148 7.78703 89.729C7.78803 92.42 8.22103 92.858 10.871 92.858L41.715 92.859ZM47.044 74.518H73.133L84.979 74.517L96.824 74.516C108.447 74.516 122.162 74.52 135.785 74.546C136.603 74.546 137.44 74.461 138.033 73.845C138.636 73.219 138.674 72.321 138.65 71.7C138.578 69.799 138.591 67.853 138.605 65.97C138.612 64.841 138.62 63.711 138.611 62.582C138.565 57.176 135.205 53.818 129.841 53.817C110.96 53.814 92.08 53.813 73.199 53.813C54.318 53.813 35.437 53.814 16.557 53.817C11.194 53.818 7.83503 57.178 7.79203 62.587C7.77603 64.634 7.78003 66.682 7.78303 68.729L7.78703 71.315C7.78703 74.069 8.22703 74.518 10.926 74.518H47.044ZM64.001 47.028C65.539 47.028 67.077 47.026 68.616 47.024C70.128 47.022 71.64 47.019 73.152 47.019C74.71 47.019 76.267 47.017 77.824 47.016C79.38 47.014 80.936 47.012 82.493 47.012C84.467 47.012 86.441 47.015 88.415 47.024L88.472 47.025C91.963 47.025 94.051 45.542 95.189 44.299C96.721 42.625 97.479 40.318 97.27 37.97C97.205 37.242 97.22 36.501 97.236 35.717C97.247 35.215 97.257 34.697 97.246 34.177C97.145 29.801 93.72 26.36 89.446 26.343C84.234 26.321 79.02 26.312 73.807 26.312C68.173 26.312 62.541 26.323 56.907 26.342C53.315 26.354 50.259 28.764 49.475 32.202C48.839 34.992 48.825 37.984 49.433 40.853C50.244 44.68 53.455 46.983 58.022 47.012C60.015 47.025 62.008 47.028 64.001 47.028ZM28.246 47.014L32.773 47.013C35.83 47.013 38.887 47.015 41.95 47.021C42.643 47.021 43.141 46.794 43.43 46.347C43.719 45.9 43.721 45.353 43.437 44.721C41.896 41.304 42.067 37.554 42.232 33.926C42.607 25.697 49.029 19.438 57.169 19.367C62.067 19.324 67.247 19.302 72.566 19.302C77.847 19.302 83.307 19.323 89.259 19.364C95.803 19.411 101.439 23.463 103.283 29.45C104.821 34.439 104.748 39.478 103.069 44.426C102.915 44.88 102.628 45.724 103.104 46.389C103.568 47.036 104.392 47.036 104.835 47.036H104.913C107.093 47.017 109.273 47.005 111.453 47.005C113.642 47.005 115.65 47.017 117.59 47.042L117.667 47.043C118.2 47.043 118.973 46.978 119.534 46.415C120.102 45.844 120.166 45.033 120.164 44.472C120.13 35.148 120.138 25.667 120.146 16.497V16.026C120.147 14.377 119.791 12.999 119.056 11.813C117.448 9.216 115.06 7.954 111.718 7.954C105.734 7.971 99.747 7.975 93.763 7.975C90.133 7.975 86.504 7.974 82.874 7.972L73.194 7.969C69.579 7.969 65.964 7.979 62.349 7.99C58.736 8 55.122 8.011 51.51 8.011C45.171 8.011 40.006 7.977 35.255 7.904L35.076 7.903C32.44 7.903 30.189 8.781 28.566 10.443C26.977 12.071 26.136 14.373 26.197 16.926C26.348 23.26 26.316 29.713 26.285 35.953C26.272 38.609 26.259 41.265 26.259 43.922C26.259 44.142 26.262 44.363 26.266 44.584L26.272 45.072C26.281 46.27 27.037 47.014 28.246 47.014ZM73.457 1C86.177 1 98.896 1.002 111.616 1.008C120.712 1.012 127.075 7.386 127.09 16.508C127.105 26.357 127.102 35.475 127.08 44.384C127.079 44.936 127.076 45.859 127.692 46.477C128.068 46.854 128.594 47.045 129.256 47.045C129.364 47.045 129.48 47.04 129.604 47.029C129.987 46.997 130.377 46.98 130.762 46.98C137.526 46.98 143.706 52.07 145.137 58.821C145.172 58.988 145.229 59.125 145.282 59.235V106.757C143.913 108.762 142.803 109.001 142.077 109.001C141.698 109.001 141.284 108.922 140.847 108.767C139.533 108.302 138.685 107.162 138.633 105.793C138.587 104.559 138.584 103.333 138.626 102.15C138.654 101.373 138.475 100.797 138.08 100.387C137.72 100.014 137.223 99.825 136.605 99.825C136.515 99.825 136.421 99.829 136.321 99.837C136.234 99.844 136.147 99.846 136.059 99.846C135.959 99.846 135.859 99.844 135.758 99.841C135.641 99.838 135.524 99.835 135.407 99.835H104.991H74.575L10.977 99.836C8.23603 99.836 7.78903 100.278 7.78703 102.99L7.78803 103.757C7.79003 104.306 7.79203 104.855 7.78303 105.405C7.74803 107.515 6.36303 108.989 4.41703 108.989L4.35203 108.988C2.39803 108.956 1.03203 107.491 1.03003 105.427C1.01703 93.798 1.00603 80 1.03203 65.827C1.03303 65.277 1.02403 64.726 1.01603 64.176C0.97903 61.84 0.944031 59.634 1.63303 57.478C3.63603 51.217 9.20303 47.114 15.818 47.025C15.963 47.023 16.1 47.023 16.229 47.023L16.644 47.024L16.965 47.026C17.584 47.026 18.286 47.026 18.789 46.52C19.32 45.986 19.317 45.286 19.311 44.013L19.309 43.468C19.31 40.088 19.31 36.709 19.309 33.329C19.307 27.749 19.306 22.17 19.313 16.59C19.324 7.419 25.713 1.011 34.847 1.007C47.717 1.002 60.588 1 73.457 1Z" fill="#7C7958"/>
</g>
</svg>
