<svg width="119" height="113" viewBox="0 0 119 113" fill="none" xmlns="http://www.w3.org/2000/svg">
<g opacity="0.440002">
<path d="M80.118 22.1235C80.188 22.1235 80.26 22.1285 80.333 22.1335C80.418 22.1395 80.504 22.1445 80.589 22.1445C80.849 22.1445 81.222 22.0955 81.461 21.6675C81.82 21.0235 81.832 20.2955 81.493 19.7185C81.154 19.1405 80.509 18.7945 79.768 18.7935L38.271 18.7945C37.959 18.7945 37.646 18.7945 37.335 18.8125C36.981 18.8315 36.733 18.9785 36.576 19.2645C36.22 19.9125 36.21 20.6425 36.549 21.2155C36.888 21.7875 37.532 22.1305 38.271 22.1305L71.161 22.1315C74.146 22.1315 77.13 22.1305 80.115 22.1235H80.118ZM36.144 25.2625C34.341 25.2615 33.232 24.1695 33.177 22.3405C33.157 21.6595 33.163 20.9785 33.169 20.2975C33.176 19.5185 33.182 18.7375 33.151 17.9595C33.102 16.7635 33.564 15.9765 34.648 15.4065C38.554 13.3555 42.748 11.1415 46.951 8.84053C47.412 8.58853 47.789 8.39453 48.097 8.23653C49.551 7.49253 49.606 7.40453 49.578 5.89653C49.572 5.53053 49.563 5.06953 49.576 4.47753C49.583 4.16753 49.58 3.85753 49.578 3.54853C49.574 3.05453 49.57 2.56153 49.606 2.06953C49.691 0.907531 50.285 0.240532 51.236 0.240532L51.351 0.243532C52.305 0.296532 52.837 0.980531 52.849 2.17253C52.857 2.89853 52.854 3.62553 52.85 4.35253C52.847 5.31753 52.843 6.28153 52.863 7.24553C52.893 8.67353 52.329 9.64453 51.088 10.2995C49.169 11.3105 47.261 12.3425 45.353 13.3725L43.371 14.4415C43.211 14.5275 43.055 14.6225 42.899 14.7175L42.514 14.9465L42.736 15.4725H75.472L75.432 15.1965C75.366 14.7405 75.034 14.6015 74.813 14.5085C74.765 14.4875 74.718 14.4685 74.675 14.4445L73.795 13.9685C71.522 12.7335 69.249 11.5005 66.959 10.2985C65.73 9.65153 65.165 8.72053 65.18 7.36553C65.191 6.50953 65.188 5.65153 65.186 4.79453C65.183 3.88553 65.18 2.97553 65.193 2.06453C65.207 0.977531 65.764 0.296532 66.68 0.243532L66.807 0.239531C67.72 0.239531 68.291 0.824532 68.374 1.84453C68.475 3.08653 68.497 4.43053 68.444 6.07453C68.412 7.03553 68.767 7.62053 69.666 8.09153C71.48 9.04353 73.286 10.0135 75.092 10.9815C77.609 12.3325 80.212 13.7275 82.798 15.0545C84.451 15.9025 85.059 16.9075 84.9 18.5235C84.825 19.2865 84.841 20.0625 84.857 20.8145C84.868 21.3235 84.879 21.8325 84.863 22.3395C84.802 24.1685 83.692 25.2615 81.895 25.2625C74.269 25.2675 66.644 25.2695 59.019 25.2695C51.394 25.2695 43.769 25.2675 36.144 25.2625Z" fill="#F1EBDF"/>
<path d="M48.6452 21.8898C45.1872 21.8898 41.7292 21.8898 38.2712 21.8898C36.8772 21.8888 36.1182 20.5968 36.7872 19.3798C36.9152 19.1458 37.1132 19.0658 37.3492 19.0528C37.6552 19.0358 37.9632 19.0348 38.2712 19.0348C45.6632 19.0348 53.0542 19.0348 60.4462 19.0348C66.8862 19.0348 73.3282 19.0348 79.7682 19.0348C81.1602 19.0348 81.9262 20.3378 81.2502 21.5498C81.0842 21.8478 80.8422 21.9038 80.5882 21.9038C80.4302 21.9038 80.2682 21.8828 80.1172 21.8828H80.1142C77.3722 21.8888 74.6302 21.8898 71.8882 21.8898C70.0192 21.8898 68.1502 21.8898 66.2812 21.8898C63.8612 21.8898 61.4402 21.8898 59.0192 21.8898H53.9382H48.6452ZM66.8072 -0.000232697C66.7602 -0.000232697 66.7132 0.000765106 66.6662 0.00376511C65.6292 0.0627651 64.9682 0.824768 64.9522 2.06177C64.9282 3.82777 64.9602 5.59577 64.9392 7.36277C64.9222 8.81977 65.5562 9.83277 66.8472 10.5108C69.4312 11.8678 71.9942 13.2658 74.5592 14.6558C74.7922 14.7828 75.1342 14.8228 75.1932 15.2318H42.8952C42.8692 15.1698 42.8432 15.1088 42.8172 15.0468C43.0392 14.9158 43.2582 14.7758 43.4852 14.6538C46.0552 13.2698 48.6182 11.8748 51.2002 10.5128C52.5342 9.80877 53.1352 8.73877 53.1032 7.23977C53.0672 5.55077 53.1072 3.85977 53.0902 2.16977C53.0762 0.840765 52.4372 0.0617651 51.3642 0.00376511C51.3202 0.000765106 51.2772 -0.000232697 51.2352 -0.000232697C50.1682 -0.000232697 49.4612 0.741765 49.3652 2.05177C49.3072 2.85477 49.3532 3.66476 49.3352 4.47076C49.2592 7.88176 49.8992 6.95276 46.8342 8.62976C42.7582 10.8608 38.6502 13.0338 34.5362 15.1938C33.3772 15.8018 32.8572 16.6608 32.9102 17.9688C32.9692 19.4268 32.8922 20.8888 32.9362 22.3478C32.9952 24.3068 34.2052 25.5028 36.1442 25.5038C43.7692 25.5078 51.3942 25.5098 59.0192 25.5098C66.6442 25.5098 74.2692 25.5078 81.8942 25.5038C83.8322 25.5028 85.0382 24.3078 85.1032 22.3478C85.1452 21.0808 85.0152 19.8028 85.1392 18.5468C85.3222 16.6998 84.5042 15.6598 82.9072 14.8408C78.5002 12.5798 74.1642 10.1798 69.7782 7.87877C68.9932 7.46677 68.6552 6.97677 68.6842 6.08277C68.7302 4.66477 68.7292 3.23676 68.6142 1.82476C68.5162 0.631764 67.8052 -0.000232697 66.8072 -0.000232697ZM48.6452 22.3718H51.2922H53.9382H59.0192L66.2812 22.3708L69.0852 22.3718H71.8882C74.6312 22.3718 77.3732 22.3708 80.1172 22.3638C80.1812 22.3638 80.2482 22.3688 80.3152 22.3738C80.4062 22.3798 80.4972 22.3858 80.5882 22.3858C80.7732 22.3858 81.3362 22.3858 81.6712 21.7848C82.0722 21.0648 82.0832 20.2468 81.7012 19.5958C81.3172 18.9428 80.5952 18.5538 79.7682 18.5538L60.4462 18.5528L38.2712 18.5538C37.9542 18.5538 37.6382 18.5538 37.3222 18.5718C36.8832 18.5958 36.5612 18.7898 36.3642 19.1488C35.9672 19.8718 35.9582 20.6898 36.3412 21.3378C36.7242 21.9848 37.4452 22.3708 38.2712 22.3708L48.6452 22.3718ZM66.8072 0.481766C67.5902 0.481766 68.0612 0.972766 68.1332 1.86377C68.2342 3.09577 68.2562 4.43176 68.2032 6.06676C68.1682 7.12076 68.5722 7.79077 69.5542 8.30477C71.3742 9.25977 73.1862 10.2328 74.9982 11.2048C77.5092 12.5518 80.1072 13.9458 82.6872 15.2698C84.2572 16.0748 84.8102 16.9798 84.6602 18.4998C84.5832 19.2768 84.6002 20.0608 84.6162 20.8188C84.6272 21.3178 84.6382 21.8328 84.6222 22.3318C84.5652 24.0398 83.5712 25.0208 81.8942 25.0218C74.2692 25.0258 66.6442 25.0278 59.0192 25.0278C51.3942 25.0278 43.7692 25.0258 36.1442 25.0218C34.4632 25.0208 33.4692 24.0408 33.4182 22.3328C33.3982 21.6568 33.4042 20.9638 33.4092 20.2938C33.4162 19.5268 33.4232 18.7338 33.3912 17.9498C33.3462 16.8438 33.7562 16.1468 34.7602 15.6198C38.6632 13.5708 42.8552 11.3568 47.0662 9.05276C47.5252 8.80076 47.9002 8.60877 48.2062 8.45177C49.7432 7.66477 49.8492 7.49677 49.8192 5.89077C49.8122 5.52777 49.8032 5.07077 49.8172 4.48177C49.8232 4.17077 49.8212 3.85877 49.8192 3.54777C49.8152 3.04277 49.8112 2.56576 49.8462 2.08776C49.8892 1.48776 50.1282 0.481766 51.2362 0.481766C51.2692 0.481766 51.3032 0.482765 51.3382 0.483765C52.3742 0.540765 52.6012 1.43477 52.6082 2.17477C52.6162 2.89877 52.6132 3.62277 52.6092 4.34677C52.6052 5.29777 52.6012 6.28077 52.6222 7.25077C52.6502 8.57677 52.1272 9.47877 50.9752 10.0868C49.0552 11.0998 47.1452 12.1308 45.2352 13.1628L43.2572 14.2298C43.0952 14.3168 42.9382 14.4108 42.7812 14.5068L42.5722 14.6318L42.2092 14.8458L42.3732 15.2338L42.4172 15.3378L42.4512 15.4188L42.5752 15.7128H42.8952H75.1932H75.7502L75.6702 15.1618C75.5852 14.5718 75.1442 14.3858 74.9072 14.2858C74.8662 14.2688 74.8262 14.2528 74.7892 14.2328L73.6892 13.6358C71.5252 12.4628 69.2882 11.2488 67.0712 10.0838C65.9312 9.48477 65.4072 8.62177 65.4212 7.36777C65.4312 6.50777 65.4292 5.64777 65.4262 4.78777C65.4242 3.88077 65.4212 2.97476 65.4332 2.06776C65.4462 1.10676 65.9062 0.529764 66.6942 0.484764C66.7322 0.482764 66.7702 0.481766 66.8072 0.481766Z" fill="#7C7958"/>
<path d="M48.4154 72.2739C47.2424 72.2709 46.1304 71.7949 45.2844 70.9359C44.4414 70.0799 43.9854 68.9669 44.0004 67.8019C44.0324 65.4029 46.0054 63.4379 48.3984 63.4229C50.8614 63.4229 52.8454 65.4039 52.8494 67.8389C52.8514 69.0269 52.3914 70.1419 51.5564 70.9789C50.7224 71.8139 49.6114 72.2739 48.4294 72.2739H48.4154Z" fill="#F1EBDF"/>
<path d="M48.4269 63.1826H48.3969C45.8859 63.1986 43.7929 65.2826 43.7599 67.7996C43.7259 70.3466 45.8599 72.5086 48.4149 72.5156H48.4279C51.0079 72.5156 53.0939 70.4256 53.0899 67.8396C53.0859 65.2606 51.0019 63.1826 48.4269 63.1826ZM48.4269 63.1826V63.6646C50.7289 63.6646 52.6049 65.5376 52.6079 67.8406C52.6099 68.9636 52.1749 70.0176 51.3849 70.8096C50.5959 71.5996 49.5459 72.0346 48.4159 72.0346C47.3079 72.0306 46.2559 71.5806 45.4549 70.7666C44.6579 69.9576 44.2269 68.9056 44.2419 67.8066C44.2709 65.5366 46.1369 63.6786 48.3999 63.6646L48.4269 63.1826Z" fill="#7C7958"/>
<path d="M69.6092 72.2739C67.1792 72.2739 65.1962 70.2949 65.1902 67.8629C65.1862 66.6729 65.6452 65.5569 66.4802 64.7189C67.3142 63.8829 68.4252 63.4229 69.6102 63.4229C72.0062 63.4259 73.9912 65.3809 74.0382 67.7799C74.0612 68.9389 73.6122 70.0519 72.7732 70.9149C71.9412 71.7699 70.8012 72.2649 69.6452 72.2739H69.6092Z" fill="#F1EBDF"/>
<path d="M69.6097 63.1826C67.0237 63.1826 64.9417 65.2726 64.9497 67.8636C64.9567 70.4396 67.0407 72.5156 69.6097 72.5156C69.6217 72.5156 69.6347 72.5156 69.6477 72.5156C72.1987 72.4956 74.3297 70.3146 74.2787 67.7756C74.2287 65.2566 72.1267 63.1856 69.6157 63.1826H69.6097ZM69.6157 63.6646C71.8767 63.6676 73.7527 65.5156 73.7977 67.7846C73.8197 68.8786 73.3947 69.9306 72.6017 70.7456C71.8137 71.5556 70.7357 72.0256 69.6097 72.0336C67.3117 72.0336 65.4377 70.1626 65.4307 67.8626C65.4277 66.7376 65.8607 65.6816 66.6507 64.8896C67.4387 64.0996 68.4887 63.6646 69.6097 63.6646H69.6157Z" fill="#7C7958"/>
<path d="M44.4871 83.9812C43.8881 83.9812 43.5091 84.0942 43.2571 84.3492C43.0001 84.6082 42.8921 84.9902 42.8981 85.6262C42.9421 91.2532 42.9411 96.4152 42.8951 101.406C42.8891 102.066 42.9981 102.46 43.2611 102.725C43.5151 102.982 43.8991 103.096 44.5051 103.096C46.7871 103.07 49.0111 103.063 51.2351 103.063L58.9621 103.073L66.7261 103.065C69.0141 103.065 71.3021 103.071 73.5911 103.092C74.1981 103.092 74.5561 102.984 74.7961 102.743C75.0431 102.495 75.1461 102.128 75.1411 101.521C75.1011 96.1722 75.1011 90.8252 75.1411 85.6272C75.1471 84.9902 75.0391 84.6082 74.7821 84.3482C74.5301 84.0942 74.1511 83.9812 73.5531 83.9812C68.6971 83.9992 63.8581 84.0072 59.0201 84.0072C54.1811 84.0072 49.3431 83.9992 44.5051 83.9812H44.4871ZM43.4951 106.362C40.6351 106.359 39.6211 105.35 39.6201 102.507C39.6171 96.4742 39.6161 90.4422 39.6201 84.4102C39.6221 81.6442 40.5671 80.7102 43.3621 80.7102H74.7161C77.4481 80.7112 78.4171 81.6902 78.4191 84.4502C78.4231 90.5212 78.4241 96.5912 78.4191 102.663C78.4161 105.283 77.3481 106.354 74.7331 106.359C72.4951 106.364 70.2571 106.366 68.0181 106.366L43.4951 106.362Z" fill="#F1EBDF"/>
<path d="M44.5043 102.854C43.4263 102.854 43.1253 102.482 43.1353 101.406C43.1843 96.1464 43.1793 90.8844 43.1383 85.6234C43.1303 84.5934 43.4233 84.2214 44.4863 84.2214H44.5033C49.3423 84.2384 54.1813 84.2474 59.0203 84.2474C63.8583 84.2474 68.6973 84.2384 73.5363 84.2214H73.5533C74.6173 84.2214 74.9093 84.5944 74.9013 85.6244C74.8593 90.9234 74.8613 96.2234 74.9003 101.522C74.9073 102.505 74.6253 102.851 73.6343 102.851C73.6203 102.851 73.6073 102.851 73.5933 102.851C71.2743 102.829 68.9543 102.823 66.6353 102.823C64.0773 102.823 61.5193 102.83 58.9613 102.83H58.9073C56.3563 102.83 53.8053 102.822 51.2543 102.822C49.0233 102.822 46.7913 102.828 44.5603 102.854C44.5413 102.854 44.5233 102.854 44.5043 102.854ZM59.6553 80.4674C54.2243 80.4674 48.7933 80.4684 43.3623 80.4694C40.4513 80.4694 39.3823 81.5244 39.3793 84.4094C39.3753 90.4414 39.3763 96.4744 39.3793 102.506C39.3803 105.498 40.4833 106.599 43.4953 106.602C45.5903 106.604 47.6843 106.605 49.7783 106.605C52.8713 106.605 55.9643 106.603 59.0573 106.603H59.2913C62.2903 106.603 65.2903 106.606 68.2893 106.606C70.4373 106.606 72.5853 106.604 74.7333 106.6C77.5023 106.594 78.6573 105.426 78.6593 102.662C78.6643 96.5914 78.6633 90.5204 78.6603 84.4494C78.6583 81.5384 77.5963 80.4694 74.7163 80.4694C69.6953 80.4684 64.6753 80.4674 59.6553 80.4674ZM44.5043 103.336L44.5663 103.335C46.5183 103.313 48.5813 103.303 51.2543 103.303C52.5293 103.303 53.8043 103.305 55.0803 103.308C56.3553 103.31 57.6313 103.312 58.9073 103.312H58.9613C60.2403 103.312 61.5203 103.31 62.7993 103.309C64.0773 103.307 65.3563 103.305 66.6353 103.305C68.9533 103.305 71.2713 103.311 73.6343 103.333C74.0603 103.333 74.5963 103.285 74.9663 102.912C75.3413 102.535 75.3853 101.969 75.3823 101.519C75.3423 96.1654 75.3423 90.8184 75.3823 85.6274C75.3863 85.1294 75.3383 84.5674 74.9523 84.1784C74.5673 83.7894 74.0023 83.7394 73.5353 83.7394C68.6973 83.7574 63.8583 83.7654 59.0203 83.7654C54.1813 83.7654 49.3433 83.7574 44.4863 83.7394C44.0373 83.7394 43.4723 83.7894 43.0863 84.1784C42.7003 84.5674 42.6523 85.1284 42.6563 85.6274C42.7003 91.2374 42.7003 96.3974 42.6543 101.402C42.6493 101.917 42.6973 102.498 43.0893 102.894C43.4783 103.286 44.0493 103.336 44.5043 103.336ZM59.6553 80.9494L74.7163 80.9504C77.3353 80.9514 78.1763 81.8014 78.1783 84.4494C78.1823 90.5204 78.1823 96.5914 78.1773 102.661C78.1753 105.176 77.2423 106.112 74.7323 106.118C72.5853 106.123 70.4373 106.124 68.2893 106.124L63.7903 106.123L59.2913 106.122H59.1743H59.0573H54.4173L49.7783 106.123C47.6843 106.123 45.5903 106.122 43.4963 106.12C40.7453 106.117 39.8623 105.239 39.8603 102.506C39.8583 96.4744 39.8573 90.4424 39.8613 84.4094C39.8633 81.7914 40.7143 80.9504 43.3633 80.9504L59.6553 80.9494Z" fill="#7C7958"/>
<path d="M91.014 52.1245C91.887 52.1245 92.761 52.1255 93.634 52.1315C94.333 52.1315 94.684 51.7835 94.719 51.0685C94.84 48.5485 94.99 45.4115 92.442 43.1105C91.883 42.6055 91.644 41.8955 91.689 40.8785C91.722 40.1595 91.714 39.4395 91.706 38.7195L91.7 37.2535L91.3 37.6025C90.701 38.1255 90.762 38.7355 90.81 39.2265L90.821 39.3415C91.005 41.3725 90.448 42.9835 89.117 44.2685C88.418 44.9425 87.97 45.8425 87.784 46.9415C87.615 47.9425 87.642 48.9575 87.668 49.9375C87.679 50.3685 87.69 50.7985 87.686 51.2285C87.683 51.4955 87.759 51.7095 87.912 51.8645C88.083 52.0375 88.344 52.1255 88.686 52.1255L91.014 52.1245ZM107.014 52.1105C107.63 52.1105 108.247 52.1205 108.863 52.1485L109.044 52.1535C109.551 52.1535 109.896 52.0405 110.131 51.7985C110.377 51.5435 110.483 51.1595 110.464 50.5915L110.459 50.4395C110.401 48.7165 110.34 46.9345 110.474 45.2025C110.68 42.5605 109.934 40.4425 108.196 38.7285C107.632 38.1725 107.38 37.4595 107.404 36.4845C107.422 35.7685 107.417 35.0505 107.413 34.3325L107.41 32.9255L107.026 33.2065C106.449 33.6305 106.507 34.1405 106.549 34.5115C106.813 36.8365 106.208 38.6525 104.701 40.0965C103.962 40.8035 103.55 41.7895 103.54 42.8725C103.527 44.3395 103.523 45.8065 103.519 47.2735C103.516 48.4955 103.513 49.7185 103.505 50.9395C103.502 51.3435 103.597 51.6365 103.797 51.8385C103.997 52.0395 104.291 52.1375 104.695 52.1375L105.147 52.1305C105.769 52.1205 106.391 52.1105 107.014 52.1105ZM4.82897 55.4135C3.70397 55.4135 3.27897 55.8275 3.26197 56.9395C3.25197 57.5645 3.36197 57.9595 3.61797 58.2195C3.94597 58.5535 4.47497 58.5985 4.94897 58.5985C16.223 58.5795 27.485 58.5755 38.748 58.5755L78.67 58.5765C90.135 58.5765 101.601 58.5795 113.067 58.5975C114.327 58.5975 114.758 58.1845 114.785 56.9625C114.797 56.3995 114.69 56.0215 114.446 55.7715C114.102 55.4205 113.573 55.4205 113.014 55.4205C91.671 55.4295 70.378 55.4305 49.085 55.4305L16.694 55.4345C12.749 55.4345 8.80297 55.4305 4.85797 55.4135H4.82897ZM69.089 74.2875C72.724 74.2875 76.36 74.2915 79.995 74.3075C80.457 74.3075 80.948 74.2645 81.26 73.9455C81.5 73.7005 81.608 73.3275 81.597 72.7725C81.537 69.3565 81.562 65.9315 81.591 63.3285C81.597 62.7785 81.496 62.4295 81.263 62.1935C81.035 61.9635 80.69 61.8555 80.178 61.8555C73.12 61.8655 66.07 61.8705 59.02 61.8705C51.97 61.8705 44.92 61.8655 37.87 61.8555C37.349 61.8555 37.003 61.9635 36.776 62.1935C36.543 62.4305 36.442 62.7795 36.449 63.3275C36.473 65.4285 36.469 67.5285 36.465 69.6285L36.462 72.3145C36.462 74.1795 36.57 74.2905 38.388 74.2915L69.089 74.2875ZM86.337 61.8535C85.786 61.8535 85.434 61.9615 85.196 62.2025C84.956 62.4455 84.852 62.8085 84.86 63.3775C84.91 67.0485 84.908 70.0105 84.854 72.6995C84.842 73.2985 84.949 73.6815 85.202 73.9385C85.523 74.2675 86.035 74.3095 86.445 74.3095C88.542 74.2895 90.583 74.2835 92.623 74.2835L99.747 74.2915L106.799 74.2865C108.94 74.2865 111.082 74.2905 113.223 74.3055C113.673 74.3055 114.136 74.2635 114.434 73.9595C114.666 73.7245 114.77 73.3675 114.761 72.8385C114.71 69.8835 114.709 66.7595 114.757 63.2845C114.764 62.7685 114.663 62.4215 114.437 62.1925C114.143 61.8945 113.683 61.8555 113.315 61.8555C108.857 61.8665 104.41 61.8725 99.964 61.8725C95.426 61.8725 90.888 61.8665 86.35 61.8535H86.337ZM4.78497 61.8495C4.21997 61.8495 3.85997 61.9585 3.61797 62.2045C3.30797 62.5205 3.27297 63.0125 3.28097 63.4525C3.33997 67.1405 3.33797 69.9785 3.27397 72.6575C3.25897 73.2765 3.36797 73.6715 3.62497 73.9355C3.94997 74.2675 4.45897 74.3115 4.91497 74.3115C7.02697 74.2895 9.06997 74.2825 11.114 74.2825L18.228 74.2915L25.312 74.2845C27.404 74.2845 29.496 74.2895 31.588 74.3085H31.59C32.234 74.3085 32.596 74.1995 32.844 73.9475C33.085 73.7025 33.193 73.3265 33.183 72.7665C33.131 69.8125 33.13 66.7635 33.181 63.4435C33.191 62.8325 33.088 62.4635 32.838 62.2095C32.594 61.9615 32.229 61.8505 31.657 61.8505C27.2 61.8665 22.762 61.8745 18.322 61.8745C13.815 61.8745 9.30797 61.8655 4.80197 61.8495H4.78497ZM86.083 77.5715C85.668 77.5715 85.381 77.6665 85.178 77.8685C84.965 78.0825 84.866 78.3975 84.867 78.8605C84.884 88.6585 84.882 98.4565 84.869 108.255C84.868 108.707 84.964 109.014 85.168 109.219C85.371 109.422 85.67 109.517 86.111 109.517C90.872 109.508 95.624 109.504 100.378 109.504C104.692 109.504 109.008 109.507 113.322 109.514C113.8 109.514 114.144 109.399 114.378 109.165C114.704 108.838 114.749 108.344 114.747 107.858C114.743 105.754 114.743 103.648 114.744 101.543V99.0035H114.718V79.2055L114.76 79.0205C114.783 78.5155 114.687 78.1695 114.46 77.9325C114.214 77.6745 113.841 77.5635 113.212 77.5635C108.783 77.5815 104.377 77.5855 99.971 77.5855L88.753 77.5825L87.191 77.5945C86.87 77.5945 86.549 77.5905 86.228 77.5755L86.083 77.5715ZM17.528 109.504C22.191 109.504 26.855 109.509 31.519 109.531C32.17 109.531 32.563 109.417 32.818 109.161C33.078 108.899 33.188 108.508 33.185 107.85C33.145 97.6275 33.146 88.2825 33.189 79.2815C33.192 78.6095 33.079 78.2075 32.811 77.9385C32.546 77.6725 32.143 77.5585 31.465 77.5585C26.762 77.5815 22.088 77.5875 17.413 77.5875C17.413 77.5875 4.37297 77.5865 4.36997 77.5865C3.91697 77.5865 3.63497 77.7245 3.46597 77.9955L3.42997 78.0545L3.30197 98.2785L3.29897 107.479C3.29997 109.336 3.46397 109.507 5.25597 109.507L17.528 109.504ZM38.142 77.5575C37.487 77.5575 37.078 77.6755 36.815 77.9395C36.544 78.2115 36.435 78.6095 36.438 79.3145C36.479 88.8355 36.479 98.4135 36.438 107.784C36.435 108.489 36.543 108.887 36.813 109.157C37.073 109.419 37.475 109.535 38.116 109.535C41.635 109.508 45.112 109.501 48.588 109.501L59.02 109.508L69.543 109.5C72.989 109.5 76.435 109.507 79.881 109.535H79.883C80.565 109.535 80.966 109.418 81.226 109.157C81.496 108.887 81.604 108.489 81.601 107.784C81.561 98.3565 81.561 88.7785 81.601 79.3135C81.604 78.6085 81.495 78.2105 81.224 77.9385C80.962 77.6755 80.552 77.5575 79.897 77.5575C72.928 77.5765 65.974 77.5865 59.019 77.5865C52.065 77.5865 45.111 77.5765 38.156 77.5575H38.142ZM113.241 112.687C94.922 112.655 76.604 112.642 58.285 112.642C40.486 112.642 22.685 112.654 4.88597 112.674C2.52497 112.674 1.09297 111.845 0.240967 109.987V52.9575C0.790967 52.3785 1.47697 52.1195 2.44897 52.1195L2.58397 52.1215C3.24397 52.1375 3.90597 52.1415 4.56697 52.1415L7.17997 52.1335C7.56997 52.1335 8.35197 52.1405 8.35297 52.1405C8.82597 52.1405 9.10997 52.0615 9.31597 51.8835C9.54797 51.6855 9.65997 51.3715 9.65997 50.9255C9.65997 50.1005 9.29497 49.6825 8.57497 49.6825C8.50797 49.6825 8.43797 49.6855 8.36397 49.6915L8.26097 49.6965L8.13797 49.6935C6.61597 49.6635 5.88997 49.1165 5.88697 48.0655C5.88597 47.6135 6.02197 47.2465 6.29097 46.9775C6.64497 46.6225 7.23797 46.4345 8.00497 46.4345H8.00797C8.67697 46.4345 9.05197 46.3205 9.30497 46.0665C9.56197 45.8085 9.67597 45.4135 9.67297 44.7905C9.67097 44.2945 9.65497 43.7975 9.63897 43.3005C9.59397 41.9115 9.54797 40.4765 9.82597 39.0915C10.444 36.0065 13.201 33.6805 16.237 33.6805C16.433 33.6805 16.632 33.6885 16.83 33.7085C20.293 34.0515 22.837 36.8115 22.88 40.2725C22.902 42.1155 22.898 43.9585 22.879 45.8005C22.867 47.0055 22.255 47.7585 21.281 47.7665C20.35 47.7665 19.702 47.0205 19.654 45.9075C19.609 44.8455 19.611 43.7605 19.614 42.7105C19.615 42.0115 19.617 41.3115 19.605 40.6135C19.568 38.3815 18.306 36.9935 16.313 36.9935C14.238 37.0125 12.964 38.4065 12.952 40.6355C12.945 41.9885 12.947 43.3425 12.95 44.6955C12.952 46.6845 12.956 48.6725 12.929 50.6615C12.922 51.2005 13.027 51.5625 13.261 51.7995C13.499 52.0405 13.86 52.1485 14.431 52.1485C18.403 52.1355 22.359 52.1295 26.316 52.1295C30.35 52.1295 34.387 52.1365 38.422 52.1475C39.352 52.1475 39.758 51.8075 39.933 50.8935C40.341 48.7795 41.616 47.7445 43.833 47.7275C43.833 47.7275 44.949 47.7145 45.25 47.7145C45.657 47.7145 46.064 47.7215 46.469 47.7415C47.458 47.7945 48.037 48.3925 48.016 49.3435C47.996 50.2435 47.438 50.7945 46.484 50.8525C46.181 50.8705 45.876 50.8735 45.571 50.8735L44.909 50.8715C44.706 50.8715 44.504 50.8735 44.302 50.8795L44.187 50.8815C43.945 50.8815 43.643 50.8825 43.448 51.0885C43.335 51.2085 43.284 51.3715 43.295 51.5745C43.309 51.8285 43.445 52.1315 44.015 52.1315L44.27 52.1265C45.001 52.1335 45.718 52.1355 46.436 52.1355L52.545 52.1255C53.671 52.1255 54.798 52.1305 55.924 52.1475H55.928C56.533 52.1475 56.89 52.0315 57.118 51.7835C57.336 51.5445 57.422 51.1905 57.378 50.7005C57.337 50.2255 57.347 49.7395 57.408 49.2575C57.524 48.3445 58.151 47.7495 59.004 47.7415C59.851 47.7415 60.485 48.3265 60.635 49.2315C60.653 49.3375 60.656 49.4455 60.66 49.5525L60.664 49.6645C60.779 52.0415 60.875 52.1345 63.231 52.1345L73.464 52.1385C73.596 52.1385 73.726 52.1345 73.856 52.1235L73.995 52.1175C74.194 52.1145 74.442 52.1095 74.609 51.9285C74.713 51.8155 74.76 51.6605 74.748 51.4665C74.713 50.8995 74.131 50.8875 73.883 50.8815C73.533 50.8745 73.182 50.8735 72.831 50.8735L72.036 50.8685C71.262 50.8585 70.705 50.6855 70.382 50.3525C70.132 50.0955 70.014 49.7415 70.022 49.2715C70.033 48.6205 70.247 47.7515 71.986 47.7285C72.339 47.7225 72.693 47.7205 73.046 47.7205L74.171 47.7265C76.419 47.7435 77.701 48.7695 78.091 50.8585C78.262 51.7745 78.68 52.1485 79.536 52.1485L79.71 52.1445C80.266 52.1195 80.826 52.1005 81.384 52.1005C81.854 52.1005 82.324 52.1135 82.791 52.1495C82.881 52.1565 82.967 52.1605 83.048 52.1605C83.528 52.1605 83.873 52.0385 84.104 51.7875C84.362 51.5075 84.458 51.0905 84.407 50.4755C84.371 50.0615 84.381 49.6305 84.391 49.2125C84.395 49.0255 84.399 48.8395 84.4 48.6535C84.409 45.8775 85.176 43.7145 86.745 42.0415C87.341 41.4065 87.605 40.6635 87.555 39.7705C87.496 38.7345 87.521 37.6865 87.554 36.7985C87.612 35.1895 88.62 34.1875 90.252 34.1135C90.588 34.0995 90.902 34.0915 91.197 34.0915C92.749 34.0915 93.638 34.3195 94.166 34.8565C94.762 35.4625 94.993 36.5525 94.961 38.6195C94.939 40.0275 95.088 41.5205 96.316 42.8985C97.401 44.1175 97.955 45.7465 98.009 47.8795C98.035 48.9135 98.03 49.9485 98.015 50.9825C98.01 51.3745 98.099 51.6585 98.288 51.8515C98.476 52.0425 98.755 52.1355 99.139 52.1365C99.505 52.1365 99.77 52.0475 99.952 51.8645C100.201 51.6145 100.231 51.2485 100.229 50.9585C100.224 49.9635 100.227 48.9685 100.23 47.9735C100.234 46.5465 100.238 45.1205 100.219 43.6945C100.19 41.4995 100.864 39.5885 102.223 38.0165C103.014 37.1005 103.343 36.1455 103.257 35.0105C103.187 34.1055 103.222 33.1975 103.26 32.5085C103.353 30.8145 104.433 29.7765 106.148 29.7305C106.369 29.7255 106.579 29.7215 106.782 29.7215C108.479 29.7215 109.39 29.9445 109.926 30.4905C110.508 31.0845 110.719 32.1145 110.678 34.1655C110.641 36.0385 111.065 37.3465 112.097 38.5375C113.181 39.7915 113.727 41.4325 113.721 43.4145C113.715 45.1145 113.717 46.8135 113.719 48.5145L113.721 50.2165C113.722 52.0075 113.826 52.1145 115.564 52.1355H115.766C115.931 52.1355 116.028 52.1365 116.125 52.1445C117.302 52.2335 117.857 52.8145 117.871 53.9735C117.888 55.3445 117.885 56.7155 117.882 58.0865L117.879 79.0105L117.847 99.2445C117.841 101.651 117.844 104.818 117.922 107.974C117.957 109.391 117.551 110.574 116.749 111.397C115.925 112.241 114.716 112.687 113.253 112.687H113.241Z" fill="#F1EBDF"/>
<path d="M100.24 77.8267C104.557 77.8267 108.873 77.8227 113.19 77.8057H113.213C114.152 77.8057 114.562 78.0547 114.519 79.0097H114.477V80.5257C114.477 80.6397 114.475 80.7527 114.477 80.8667V99.2447H114.504C114.504 102.116 114.5 104.988 114.507 107.859C114.509 108.702 114.347 109.272 113.327 109.272H113.322C109.082 109.266 104.842 109.262 100.601 109.262C95.774 109.262 90.946 109.267 86.118 109.275H86.112C85.362 109.275 85.109 108.985 85.11 108.255C85.123 98.4567 85.125 88.6587 85.107 78.8607C85.106 78.0847 85.41 77.8127 86.084 77.8127C86.127 77.8127 86.171 77.8137 86.217 77.8157C86.541 77.8307 86.866 77.8357 87.191 77.8357C87.712 77.8357 88.232 77.8237 88.753 77.8237C92.581 77.8237 96.411 77.8267 100.24 77.8267ZM17.402 77.8277C22.081 77.8277 26.759 77.8227 31.438 77.7997H31.469C32.594 77.7997 32.953 78.1077 32.948 79.2817C32.903 88.8037 32.907 98.3267 32.944 107.85C32.948 108.937 32.647 109.29 31.546 109.29H31.52C26.888 109.268 22.255 109.263 17.623 109.263C13.935 109.263 10.246 109.266 6.558 109.266C6.124 109.266 5.69 109.266 5.256 109.266C3.591 109.265 3.541 109.211 3.54 107.479C3.539 104.413 3.542 101.347 3.542 98.2807L3.67 78.1237C3.79 77.9307 3.993 77.8257 4.309 77.8257C4.328 77.8257 4.347 77.8257 4.367 77.8267C4.419 77.8287 4.47099 77.8297 4.52299 77.8297C4.66299 77.8297 4.803 77.8237 4.943 77.8237H5.102C9.202 77.8237 13.302 77.8277 17.402 77.8277ZM59.019 77.8277C65.974 77.8277 72.928 77.8177 79.883 77.7987H79.899C81.078 77.7987 81.365 78.1777 81.36 79.3127C81.32 88.8037 81.319 98.2937 81.361 107.785C81.366 108.915 81.082 109.294 79.926 109.294C79.912 109.294 79.898 109.294 79.883 109.294C76.444 109.266 73.004 109.26 69.564 109.26C66.049 109.26 62.535 109.267 59.02 109.267C55.512 109.267 52.004 109.26 48.497 109.26C45.049 109.26 41.603 109.266 38.156 109.294C38.142 109.294 38.128 109.294 38.115 109.294C36.958 109.294 36.674 108.916 36.678 107.785C36.72 98.2947 36.719 88.8037 36.679 79.3137C36.674 78.1787 36.96 77.7987 38.14 77.7987H38.156C45.11 77.8177 52.065 77.8277 59.019 77.8277ZM59.02 62.1117C66.07 62.1117 73.12 62.1067 80.17 62.0967H80.176C81.095 62.0967 81.36 62.4527 81.35 63.3267C81.315 66.4757 81.301 69.6277 81.357 72.7767C81.375 73.8187 80.967 74.0667 80.019 74.0667H79.996C76.344 74.0507 72.692 74.0467 69.039 74.0467C65.661 74.0467 62.282 74.0507 58.904 74.0507C54.65 74.0507 50.395 74.0507 46.141 74.0507C43.556 74.0507 40.973 74.0507 38.388 74.0507C36.705 74.0497 36.703 74.0467 36.702 72.3157C36.701 69.3187 36.725 66.3217 36.689 63.3257C36.679 62.4507 36.946 62.0967 37.864 62.0967H37.87C44.92 62.1067 51.97 62.1117 59.02 62.1117ZM86.449 74.0687C85.459 74.0687 85.073 73.7767 85.095 72.7047C85.157 69.5957 85.143 66.4837 85.101 63.3747C85.088 62.4417 85.38 62.0937 86.338 62.0937H86.349C90.864 62.1077 95.38 62.1137 99.894 62.1137C104.365 62.1137 108.834 62.1077 113.305 62.0967H113.316C114.188 62.0967 114.529 62.3617 114.516 63.2817C114.472 66.4687 114.465 69.6567 114.52 72.8427C114.537 73.8377 114.136 74.0637 113.259 74.0637H113.225C111.083 74.0497 108.942 74.0457 106.8 74.0457C104.449 74.0457 102.098 74.0507 99.747 74.0507C97.39 74.0507 95.033 74.0437 92.677 74.0437C90.617 74.0437 88.558 74.0487 86.499 74.0687C86.482 74.0687 86.466 74.0687 86.449 74.0687ZM4.915 74.0707C3.895 74.0707 3.487 73.7927 3.515 72.6627C3.588 69.5927 3.57 66.5197 3.521 63.4487C3.506 62.4847 3.748 62.0897 4.786 62.0897H4.80099C9.28199 62.1077 13.764 62.1157 18.246 62.1157C22.711 62.1157 27.175 62.1077 31.64 62.0907H31.655C32.677 62.0907 32.955 62.4637 32.94 63.4397C32.892 66.5497 32.887 69.6607 32.942 72.7697C32.96 73.7957 32.575 74.0667 31.634 74.0667C31.619 74.0667 31.605 74.0667 31.59 74.0667C29.497 74.0487 27.404 74.0447 25.312 74.0447C22.95 74.0447 20.589 74.0507 18.228 74.0507C15.859 74.0507 13.49 74.0427 11.121 74.0427C9.07399 74.0427 7.028 74.0487 4.981 74.0707C4.959 74.0707 4.937 74.0707 4.915 74.0707ZM4.95 58.3567C3.87 58.3567 3.484 58.0757 3.502 56.9437C3.519 55.9127 3.873 55.6547 4.832 55.6547H4.85699C8.84999 55.6707 12.844 55.6747 16.838 55.6747C20.489 55.6747 24.14 55.6717 27.792 55.6717C35.389 55.6717 42.989 55.6717 50.586 55.6717C71.38 55.6717 92.17 55.6707 112.964 55.6617H113.045C113.937 55.6617 114.572 55.6887 114.544 56.9577C114.518 58.0977 114.141 58.3567 113.078 58.3567H113.067C101.625 58.3387 90.179 58.3357 78.736 58.3357C72.161 58.3357 65.589 58.3367 59.014 58.3367C52.373 58.3367 45.733 58.3347 39.093 58.3347C27.715 58.3347 16.338 58.3387 4.96 58.3567H4.95ZM88.961 51.8847H88.686C88.244 51.8847 87.921 51.7247 87.926 51.2307C87.942 49.8137 87.784 48.3897 88.021 46.9817C88.184 46.0167 88.581 45.1207 89.284 44.4407C90.755 43.0207 91.241 41.3057 91.061 39.3197C91.015 38.8147 90.911 38.2617 91.459 37.7837C91.459 38.8117 91.494 39.8417 91.448 40.8677C91.407 41.8007 91.589 42.6647 92.281 43.2897C94.651 45.4307 94.614 48.2197 94.478 51.0567C94.451 51.6297 94.212 51.8897 93.645 51.8897H93.635C92.761 51.8847 91.887 51.8837 91.013 51.8837C90.329 51.8837 89.645 51.8847 88.961 51.8847ZM104.691 51.8957C104.038 51.8957 103.74 51.6157 103.745 50.9417C103.765 48.2527 103.756 45.5637 103.781 42.8747C103.791 41.8707 104.168 40.9397 104.867 40.2707C106.541 38.6677 107.045 36.7377 106.792 34.5137C106.751 34.1507 106.691 33.7517 107.169 33.4007C107.169 34.4267 107.188 35.4537 107.163 36.4787C107.14 37.4067 107.356 38.2397 108.027 38.9007C109.791 40.6387 110.425 42.7257 110.234 45.1837C110.095 46.9787 110.162 48.7957 110.223 50.5987C110.256 51.5627 109.91 51.9127 109.045 51.9127C108.99 51.9127 108.933 51.9117 108.874 51.9087C108.253 51.8797 107.631 51.8697 107.009 51.8697C106.248 51.8697 105.486 51.8847 104.725 51.8957C104.714 51.8957 104.702 51.8957 104.691 51.8957ZM106.783 29.4807C106.578 29.4807 106.365 29.4837 106.141 29.4897C104.325 29.5377 103.12 30.6777 103.019 32.4947C102.973 33.3377 102.952 34.1887 103.016 35.0287C103.1 36.1327 102.77 37.0147 102.041 37.8587C100.606 39.5197 99.949 41.4867 99.978 43.6977C100.011 46.1177 99.976 48.5387 99.988 50.9597C99.991 51.5597 99.815 51.8947 99.142 51.8947H99.14C98.489 51.8947 98.248 51.6057 98.256 50.9857C98.271 49.9487 98.275 48.9107 98.249 47.8737C98.202 45.9807 97.756 44.1527 96.495 42.7387C95.393 41.5007 95.178 40.1757 95.201 38.6227C95.259 34.8557 94.501 33.8507 91.197 33.8507C90.9 33.8507 90.582 33.8587 90.241 33.8737C88.505 33.9507 87.376 35.0557 87.313 36.7887C87.277 37.7867 87.258 38.7887 87.314 39.7847C87.361 40.6107 87.126 41.2827 86.569 41.8767C84.781 43.7827 84.167 46.1117 84.159 48.6527C84.157 49.2677 84.115 49.8857 84.166 50.4957C84.245 51.4357 83.963 51.9197 83.048 51.9197C82.972 51.9197 82.893 51.9167 82.809 51.9097C82.336 51.8727 81.86 51.8587 81.383 51.8587C80.821 51.8587 80.259 51.8787 79.699 51.9047C79.643 51.9067 79.589 51.9087 79.537 51.9087C78.829 51.9087 78.485 51.6567 78.328 50.8157C77.909 48.5727 76.486 47.5037 74.173 47.4847C73.786 47.4817 73.399 47.4797 73.012 47.4797C72.669 47.4797 72.326 47.4817 71.983 47.4867C70.534 47.5067 69.8 48.1057 69.781 49.2677C69.762 50.4697 70.517 51.0887 72.034 51.1097C72.648 51.1187 73.263 51.1097 73.878 51.1227C74.146 51.1287 74.487 51.1437 74.507 51.4807C74.536 51.9477 74.119 51.8577 73.835 51.8837C73.714 51.8937 73.592 51.8967 73.469 51.8967C73.322 51.8967 73.175 51.8927 73.029 51.8927C71.367 51.8927 69.706 51.8927 68.044 51.8927H63.231C61.013 51.8927 61.013 51.8927 60.904 49.6527C60.897 49.4997 60.898 49.3437 60.873 49.1927C60.703 48.1637 59.973 47.5007 59.02 47.5007H59.002C58.038 47.5097 57.303 48.1767 57.169 49.2267C57.106 49.7197 57.095 50.2277 57.139 50.7227C57.218 51.6227 56.83 51.9077 55.989 51.9077C55.969 51.9077 55.948 51.9067 55.927 51.9067C54.798 51.8897 53.668 51.8847 52.538 51.8847C51.068 51.8847 49.597 51.8927 48.126 51.8927H48.089C47.512 51.8927 46.934 51.8937 46.357 51.8937C45.666 51.8937 44.976 51.8927 44.285 51.8847H44.27C44.191 51.8847 44.103 51.8907 44.015 51.8907C43.78 51.8907 43.551 51.8507 43.535 51.5607C43.507 51.0637 43.982 51.1297 44.31 51.1197C44.504 51.1147 44.699 51.1127 44.894 51.1127C45.12 51.1127 45.346 51.1147 45.571 51.1147C45.881 51.1147 46.19 51.1107 46.499 51.0927C47.593 51.0267 48.234 50.3657 48.256 49.3487C48.28 48.2827 47.617 47.5607 46.482 47.5017C46.071 47.4807 45.659 47.4737 45.247 47.4737C44.775 47.4737 44.303 47.4827 43.831 47.4857C41.537 47.5047 40.131 48.5937 39.697 50.8477C39.541 51.6607 39.23 51.9067 38.434 51.9067H38.422C34.388 51.8947 30.353 51.8887 26.318 51.8887C22.36 51.8887 18.403 51.8947 14.446 51.9077H14.43C13.509 51.9077 13.157 51.6297 13.17 50.6647C13.215 47.3227 13.175 43.9787 13.193 40.6357C13.204 38.5407 14.397 37.2517 16.279 37.2347C16.291 37.2347 16.302 37.2347 16.314 37.2347C18.169 37.2347 19.328 38.5037 19.364 40.6177C19.394 42.3847 19.338 44.1537 19.413 45.9187C19.468 47.2057 20.257 48.0077 21.268 48.0077H21.283C22.387 47.9987 23.106 47.1617 23.12 45.8037C23.139 43.9597 23.143 42.1147 23.12 40.2707C23.077 36.7067 20.406 33.8207 16.853 33.4697C16.647 33.4497 16.441 33.4397 16.237 33.4397C13.099 33.4397 10.242 35.7917 9.59 39.0437C9.208 40.9467 9.424 42.8767 9.432 44.7917C9.437 45.8297 9.118 46.1937 8.087 46.1937C8.074 46.1937 8.062 46.1937 8.049 46.1937C8.035 46.1937 8.021 46.1937 8.007 46.1937C6.452 46.1937 5.643 46.9117 5.646 48.0667C5.649 49.2587 6.475 49.9017 8.04 49.9317C8.114 49.9337 8.188 49.9377 8.262 49.9377C8.303 49.9377 8.345 49.9367 8.386 49.9327C8.453 49.9257 8.516 49.9227 8.575 49.9227C9.17 49.9227 9.419 50.2367 9.419 50.9257C9.42 51.6947 9.067 51.8997 8.394 51.8997C8.38 51.8997 8.367 51.8997 8.353 51.8997C7.958 51.8947 7.562 51.8927 7.167 51.8927C6.311 51.8927 5.454 51.9007 4.598 51.9007C3.928 51.9007 3.259 51.8957 2.59 51.8797C2.542 51.8787 2.496 51.8787 2.449 51.8787C1.486 51.8787 0.662 52.1257 0 52.8637V78.0467V98.2807V110.039C0.948 112.15 2.574 112.914 4.875 112.914H4.886C22.683 112.895 40.485 112.883 58.282 112.883C76.604 112.883 94.919 112.896 113.241 112.928H113.253C116.233 112.928 118.241 111.125 118.163 107.968C118.091 105.061 118.08 102.153 118.087 99.2447L118.12 79.0097C118.12 72.5847 118.12 66.1597 118.12 59.7337C118.12 57.8127 118.136 55.8907 118.112 53.9707C118.096 52.6667 117.438 52.0027 116.143 51.9037C116.03 51.8947 115.915 51.8937 115.801 51.8937C115.758 51.8937 115.715 51.8937 115.672 51.8937C115.637 51.8937 115.602 51.8937 115.567 51.8937C113.964 51.8747 113.963 51.8747 113.962 50.2157C113.96 47.9497 113.955 45.6817 113.962 43.4157C113.968 41.5437 113.488 39.7787 112.278 38.3807C111.183 37.1157 110.887 35.7787 110.919 34.1707C110.994 30.3847 110.24 29.4807 106.783 29.4807ZM100.24 77.3447L94.496 77.3437L88.753 77.3417C88.491 77.3417 88.229 77.3447 87.967 77.3477C87.708 77.3507 87.45 77.3537 87.191 77.3537C86.874 77.3537 86.556 77.3487 86.239 77.3347C86.186 77.3317 86.134 77.3307 86.084 77.3307C85.607 77.3307 85.255 77.4517 85.007 77.6987C84.749 77.9577 84.624 78.3377 84.625 78.8617C84.641 87.8017 84.642 97.4167 84.628 108.254C84.628 108.582 84.665 109.056 84.997 109.388C85.327 109.719 85.792 109.757 86.119 109.757C90.947 109.748 95.774 109.744 100.601 109.744C104.841 109.744 109.081 109.747 113.327 109.754C113.868 109.754 114.267 109.617 114.548 109.335C114.938 108.944 114.99 108.369 114.988 107.858C114.984 105.764 114.984 103.67 114.985 101.575V99.2447L114.959 98.7627V80.8597L114.958 80.6527L114.959 80.5257V79.4917H114.98L115 79.0317C115.017 78.6697 114.996 78.1437 114.635 77.7657C114.26 77.3737 113.679 77.3237 113.189 77.3237C108.873 77.3407 104.556 77.3447 100.24 77.3447ZM17.402 77.3467L11.252 77.3447L5.102 77.3427H4.943L4.724 77.3447L4.52299 77.3477C4.47699 77.3477 4.432 77.3477 4.386 77.3457L4.309 77.3437C3.714 77.3437 3.411 77.6287 3.261 77.8677L3.189 77.9837L3.188 78.1207L3.061 98.2807L3.059 102.255L3.058 107.479C3.059 109.472 3.326 109.747 5.256 109.747L6.558 109.748L12.091 109.746L17.623 109.744C22.255 109.744 26.887 109.749 31.546 109.772C32.013 109.772 32.599 109.722 32.988 109.331C33.377 108.94 33.428 108.362 33.426 107.848C33.386 97.6147 33.387 88.2717 33.43 79.2837C33.432 78.7897 33.383 78.1717 32.982 77.7687C32.587 77.3717 31.996 77.3177 31.437 77.3177C26.324 77.3427 21.25 77.3467 17.402 77.3467ZM38.157 109.775H38.16C41.143 109.752 44.331 109.741 48.497 109.741C50.25 109.741 52.004 109.743 53.758 109.745C55.512 109.747 57.266 109.748 59.02 109.748C60.778 109.748 62.535 109.747 64.293 109.745C66.05 109.743 67.807 109.741 69.564 109.741C73.72 109.741 76.901 109.752 79.926 109.775C80.403 109.775 81.001 109.724 81.397 109.327C81.794 108.929 81.845 108.323 81.842 107.782C81.802 98.3887 81.801 88.8107 81.842 79.3147C81.844 78.7747 81.793 78.1687 81.395 77.7697C80.996 77.3687 80.386 77.3167 79.882 77.3167C72.928 77.3367 65.973 77.3467 59.019 77.3467C52.065 77.3467 45.111 77.3367 38.14 77.3167C37.653 77.3167 37.044 77.3677 36.644 77.7697C36.246 78.1687 36.195 78.7757 36.197 79.3157C36.238 88.8247 36.238 98.4017 36.197 107.783C36.194 108.323 36.245 108.929 36.642 109.327C37.037 109.724 37.635 109.775 38.157 109.775ZM59.02 61.6297C51.97 61.6297 44.92 61.6247 37.864 61.6147C37.497 61.6147 36.967 61.6577 36.604 62.0247C36.243 62.3907 36.202 62.9147 36.207 63.3307C36.232 65.4427 36.228 67.5917 36.224 69.6707C36.222 70.5517 36.22 71.4337 36.22 72.3157C36.221 74.3037 36.444 74.5317 38.388 74.5317L46.141 74.5327H54.264L58.904 74.5317L63.972 74.5307L69.039 74.5287C72.691 74.5287 76.343 74.5327 80.019 74.5477C80.507 74.5477 81.056 74.4967 81.431 74.1147C81.811 73.7287 81.846 73.1607 81.839 72.7687C81.778 69.3557 81.803 65.9327 81.832 63.3317C81.836 62.9147 81.795 62.3897 81.434 62.0247C81.071 61.6577 80.542 61.6147 80.17 61.6147C73.12 61.6247 66.07 61.6297 59.02 61.6297ZM86.449 74.5507L86.502 74.5497H86.504C88.562 74.5307 90.619 74.5247 92.677 74.5247C93.855 74.5247 95.033 74.5267 96.211 74.5287C97.39 74.5307 98.568 74.5317 99.747 74.5317L103.274 74.5297L106.8 74.5277C108.94 74.5277 111.081 74.5317 113.259 74.5457C113.722 74.5457 114.245 74.4957 114.606 74.1287C114.974 73.7547 115.008 73.2107 115.001 72.8347C114.951 69.8887 114.95 66.7657 114.998 63.2887C115.003 62.9207 114.968 62.3887 114.609 62.0237C114.252 61.6617 113.731 61.6157 113.304 61.6157C108.834 61.6257 104.365 61.6317 99.894 61.6317C95.38 61.6317 90.865 61.6257 86.338 61.6127C85.953 61.6127 85.397 61.6557 85.024 62.0337C84.654 62.4087 84.613 62.9507 84.619 63.3807C84.67 67.1037 84.668 69.9757 84.613 72.6947C84.605 73.1097 84.639 73.7087 85.03 74.1077C85.415 74.4997 85.991 74.5507 86.449 74.5507ZM4.915 74.5527H4.986C6.78 74.5327 8.67199 74.5237 11.121 74.5237C12.305 74.5237 13.489 74.5257 14.674 74.5277C15.858 74.5297 17.043 74.5317 18.228 74.5317L21.77 74.5287L25.312 74.5257C27.403 74.5257 29.495 74.5307 31.634 74.5487C32.08 74.5487 32.64 74.4997 33.015 74.1177C33.396 73.7297 33.431 73.1577 33.424 72.7617C33.371 69.8137 33.371 66.7667 33.422 63.4477C33.429 62.9937 33.388 62.4247 33.01 62.0407C32.629 61.6537 32.055 61.6097 31.639 61.6097C27.174 61.6257 22.71 61.6337 18.246 61.6337C13.765 61.6337 9.283 61.6257 4.786 61.6087C4.392 61.6087 3.824 61.6527 3.447 62.0357C3.074 62.4147 3.032 62.9667 3.04 63.4567C3.099 67.1477 3.097 69.9837 3.033 72.6517C3.023 73.0797 3.055 73.6957 3.452 74.1027C3.839 74.4997 4.409 74.5527 4.915 74.5527ZM4.95 58.8387H4.961C16.338 58.8207 27.715 58.8167 39.093 58.8167L49.053 58.8177H59.014H68.875L78.736 58.8167C90.179 58.8167 101.624 58.8197 113.078 58.8377C114.222 58.8377 114.991 58.5197 115.025 56.9677C115.039 56.3357 114.91 55.9027 114.618 55.6037C114.203 55.1807 113.588 55.1807 113.045 55.1807H112.964C92.17 55.1887 71.38 55.1897 50.586 55.1897H39.189H27.792L22.314 55.1917L16.838 55.1927C12.845 55.1927 8.851 55.1897 4.832 55.1727C3.565 55.1727 3.04 55.6837 3.021 56.9367C3.013 57.4037 3.055 57.9907 3.446 58.3887C3.837 58.7847 4.426 58.8387 4.95 58.8387ZM88.961 52.3667L89.987 52.3657H91.013C91.886 52.3657 92.759 52.3667 93.645 52.3717C94.216 52.3717 94.908 52.1477 94.959 51.0797C95.082 48.5097 95.236 45.3097 92.604 42.9317C92.102 42.4787 91.888 41.8297 91.93 40.8887C91.962 40.1607 91.955 39.4257 91.947 38.7147C91.944 38.4047 91.941 38.0937 91.941 37.7837V36.7237L91.142 37.4207C90.449 38.0247 90.519 38.7327 90.57 39.2497L90.581 39.3627C90.76 41.3437 90.242 42.8467 88.95 44.0947C88.223 44.7957 87.738 45.7667 87.546 46.9017C87.374 47.9267 87.401 48.9527 87.427 49.9457C87.438 50.3727 87.449 50.7987 87.445 51.2247C87.44 51.6417 87.603 51.8947 87.741 52.0337C87.959 52.2547 88.277 52.3667 88.686 52.3667H88.961ZM104.691 52.3777H104.729H104.732L105.167 52.3707C105.781 52.3617 106.395 52.3517 107.009 52.3517C107.7 52.3517 108.302 52.3647 108.851 52.3897C108.918 52.3927 108.983 52.3947 109.045 52.3947C109.408 52.3947 109.933 52.3507 110.304 51.9667C110.692 51.5647 110.719 50.9837 110.705 50.5827L110.7 50.4397C110.642 48.7207 110.581 46.9417 110.715 45.2217C110.925 42.5027 110.157 40.3237 108.365 38.5577C107.851 38.0517 107.622 37.3947 107.644 36.4907C107.662 35.7717 107.658 35.0517 107.654 34.3317C107.652 34.0217 107.65 33.7117 107.65 33.4007V32.4507L106.884 33.0127C106.193 33.5187 106.266 34.1577 106.313 34.5687C106.568 36.8147 106.003 38.5157 104.534 39.9227C103.749 40.6747 103.31 41.7217 103.299 42.8697C103.286 44.3377 103.282 45.8057 103.279 47.2747C103.275 48.4957 103.272 49.7167 103.264 50.9387C103.26 51.4087 103.379 51.7587 103.626 52.0077C103.873 52.2567 104.222 52.3777 104.691 52.3777ZM106.783 29.9627C108.386 29.9627 109.275 30.1707 109.754 30.6597C110.278 31.1937 110.476 32.2087 110.437 34.1607C110.399 36.0987 110.841 37.4557 111.914 38.6957C112.959 39.9037 113.486 41.4917 113.48 43.4137C113.475 45.1067 113.476 46.8007 113.478 48.4937L113.48 50.2167C113.481 52.1317 113.695 52.3537 115.562 52.3757H115.672H115.737H115.801C115.903 52.3757 116.005 52.3767 116.107 52.3847C117.162 52.4647 117.617 52.9407 117.63 53.9767C117.647 55.3487 117.644 56.7207 117.641 58.0927L117.638 59.7337V79.0097L117.605 99.2437C117.599 101.805 117.604 104.845 117.681 107.98C117.714 109.33 117.332 110.454 116.576 111.229C115.799 112.025 114.65 112.446 113.241 112.446C95.865 112.416 77.888 112.401 58.282 112.401C40.485 112.401 22.682 112.413 4.875 112.433C2.621 112.433 1.30099 111.684 0.481995 109.934V98.2807V78.0467V53.0567C0.973995 52.5767 1.589 52.3597 2.449 52.3597L2.578 52.3617C3.251 52.3777 3.924 52.3817 4.598 52.3817C5.027 52.3817 5.45599 52.3807 5.88499 52.3787C6.31199 52.3767 6.74 52.3747 7.167 52.3747C7.56 52.3747 7.954 52.3767 8.394 52.3807C8.699 52.3807 9.143 52.3487 9.472 52.0667C9.761 51.8197 9.901 51.4467 9.901 50.9247C9.901 49.6337 9.07 49.4417 8.575 49.4417C8.502 49.4417 8.424 49.4447 8.34 49.4527C8.314 49.4557 8.288 49.4557 8.262 49.4557L8.143 49.4527L8.05 49.4507C6.33 49.4177 6.129 48.6447 6.128 48.0657C6.127 47.6797 6.239 47.3707 6.462 47.1477C6.77 46.8387 7.304 46.6747 8.007 46.6757H8.087C8.53 46.6757 9.088 46.6257 9.475 46.2367C9.868 45.8417 9.916 45.2557 9.914 44.7887C9.912 44.2917 9.896 43.7927 9.88 43.2947C9.833 41.8557 9.79 40.4967 10.062 39.1387C10.658 36.1637 13.313 33.9207 16.237 33.9207C16.425 33.9207 16.616 33.9307 16.806 33.9497C20.145 34.2787 22.598 36.9397 22.639 40.2767C22.659 41.9737 22.659 43.7797 22.638 45.7987C22.627 46.8737 22.119 47.5197 21.268 47.5257C20.476 47.5257 19.937 46.8867 19.895 45.8977C19.849 44.8397 19.852 43.7567 19.854 42.7097C19.856 42.0087 19.857 41.3087 19.846 40.6097C19.806 38.2307 18.452 36.7537 16.275 36.7537C14.123 36.7717 12.724 38.2947 12.711 40.6337C12.704 41.9877 12.706 43.3417 12.708 44.6957C12.712 46.6507 12.715 48.6717 12.688 50.6577C12.683 51.0407 12.719 51.5937 13.089 51.9697C13.457 52.3417 13.998 52.3897 14.447 52.3897C18.404 52.3767 22.361 52.3697 26.318 52.3697C30.352 52.3697 34.387 52.3767 38.434 52.3887C39.469 52.3887 39.972 51.9687 40.17 50.9387C40.552 48.9557 41.75 47.9847 43.835 47.9677L44.347 47.9627C44.647 47.9587 44.947 47.9557 45.247 47.9557C45.65 47.9557 46.054 47.9617 46.456 47.9827C47.312 48.0277 47.793 48.5217 47.775 49.3377C47.753 50.3267 47.053 50.5767 46.47 50.6117C46.171 50.6297 45.871 50.6327 45.571 50.6327L45.235 50.6317L44.894 50.6307C44.694 50.6307 44.495 50.6327 44.295 50.6387L44.186 50.6397C43.928 50.6407 43.538 50.6417 43.273 50.9237C43.162 51.0397 43.035 51.2497 43.054 51.5877C43.067 51.8237 43.187 52.3727 44.015 52.3727L44.165 52.3687L44.28 52.3667C44.972 52.3737 45.665 52.3757 46.357 52.3757H47.223L48.126 52.3747C48.862 52.3747 49.598 52.3727 50.334 52.3707C51.068 52.3687 51.803 52.3667 52.538 52.3667C53.665 52.3667 54.793 52.3707 55.92 52.3887H55.989C56.376 52.3887 56.932 52.3437 57.295 51.9467C57.562 51.6547 57.668 51.2407 57.619 50.6807C57.578 50.2217 57.588 49.7537 57.647 49.2877C57.748 48.4897 58.269 47.9887 59.02 47.9827C59.738 47.9827 60.266 48.4767 60.398 49.2717C60.413 49.3657 60.415 49.4607 60.419 49.5567L60.423 49.6767C60.544 52.1727 60.754 52.3747 63.231 52.3747H65.637H68.044H73.029L73.242 52.3767L73.469 52.3787C73.606 52.3787 73.742 52.3757 73.878 52.3627C73.917 52.3597 73.958 52.3597 74 52.3587C74.218 52.3547 74.549 52.3487 74.786 52.0917C74.936 51.9297 75.004 51.7137 74.988 51.4517C74.956 50.9297 74.586 50.6567 73.888 50.6417C73.541 50.6337 73.193 50.6337 72.845 50.6327C72.577 50.6317 72.309 50.6317 72.04 50.6277C71.331 50.6187 70.832 50.4687 70.555 50.1837C70.352 49.9747 70.257 49.6777 70.263 49.2747C70.272 48.6777 70.477 47.9897 71.989 47.9677C72.33 47.9627 72.671 47.9617 73.012 47.9617C73.398 47.9617 73.783 47.9637 74.169 47.9667C76.283 47.9837 77.489 48.9437 77.854 50.9037C78.046 51.9317 78.565 52.3897 79.537 52.3897C79.596 52.3897 79.657 52.3887 79.721 52.3857C80.177 52.3647 80.777 52.3407 81.383 52.3407C81.889 52.3407 82.343 52.3567 82.772 52.3897C82.869 52.3977 82.961 52.4017 83.048 52.4017C83.599 52.4017 84.002 52.2537 84.281 51.9507C84.684 51.5137 84.682 50.8877 84.646 50.4557C84.613 50.0547 84.622 49.6487 84.632 49.2187C84.636 49.0307 84.64 48.8427 84.641 48.6547C84.649 45.9417 85.395 43.8327 86.92 42.2067C87.564 41.5207 87.85 40.7197 87.795 39.7577C87.737 38.7327 87.762 37.6907 87.794 36.8067C87.847 35.3377 88.77 34.4207 90.262 34.3547C90.595 34.3407 90.906 34.3327 91.197 34.3327C92.679 34.3327 93.515 34.5397 93.994 35.0257C94.54 35.5807 94.75 36.6207 94.72 38.6157C94.697 40.0727 94.853 41.6197 96.136 43.0587C97.182 44.2327 97.716 45.8117 97.768 47.8857C97.79 48.7827 97.792 49.7367 97.775 50.9787C97.768 51.4397 97.88 51.7797 98.117 52.0207C98.353 52.2597 98.687 52.3767 99.142 52.3767C99.572 52.3767 99.893 52.2647 100.122 52.0347C100.437 51.7177 100.472 51.2677 100.47 50.9567C100.465 49.9607 100.468 48.9647 100.471 47.9677C100.475 46.5667 100.479 45.1177 100.46 43.6917C100.432 41.5567 101.086 39.7007 102.405 38.1737C103.242 37.2057 103.588 36.1947 103.497 34.9927C103.428 34.1007 103.463 33.2037 103.5 32.5217C103.586 30.9667 104.578 30.0137 106.154 29.9717C106.373 29.9657 106.582 29.9627 106.783 29.9627Z" fill="#7C7958"/>
</g>
</svg>
