<svg width="87" height="69" viewBox="0 0 87 69" fill="none" xmlns="http://www.w3.org/2000/svg">
<g opacity="0.5">
<path d="M66.5947 5.58895C64.6907 5.59295 64.3567 5.91995 64.3567 7.77895L64.3577 26.876C64.3527 27.307 64.3477 27.81 64.7237 28.191C64.9697 28.44 65.3127 28.566 65.7417 28.566C66.1417 28.566 66.5407 28.57 66.9417 28.575C67.3467 28.58 67.7527 28.585 68.1587 28.585C69.2537 28.585 70.5477 28.553 71.8537 28.312C77.2097 27.321 81.1167 22.636 81.1427 17.171C81.1667 11.859 77.7137 7.37296 72.5507 6.00996C71.1157 5.63096 69.6577 5.57795 68.2947 5.57795L66.5947 5.58895ZM10.6327 5.56895C10.1167 5.56895 9.5327 5.62495 9.1167 6.04195C8.6957 6.46495 8.6437 7.06695 8.6447 7.54195C8.6737 15.953 8.6717 24.363 8.6687 32.773L8.6677 39.567C8.6677 40.609 8.7777 41.6 8.9937 42.512C10.0967 47.161 14.1077 50.171 19.2117 50.178C23.3457 50.184 27.4817 50.187 31.6157 50.187C37.4057 50.187 43.1947 50.181 48.9847 50.169C49.9737 50.168 50.9317 50.063 51.8307 49.856C56.5017 48.783 59.5247 44.747 59.5297 39.573C59.5327 35.855 59.5327 32.136 59.5327 28.417C59.5317 21.461 59.5317 14.504 59.5547 7.54795C59.5567 7.06895 59.5047 6.46595 59.0827 6.04295C58.6657 5.62495 58.0817 5.56796 57.5647 5.56796C53.3587 5.58796 49.1777 5.59195 44.9977 5.59195L23.0997 5.59296C18.9547 5.59296 14.8117 5.58795 10.6667 5.56895H10.6327ZM33.8977 55.002C28.7437 55.002 23.5927 54.997 18.4407 54.987C10.4077 54.973 3.8627 48.447 3.8497 40.442C3.8347 31.229 3.8387 22.017 3.8417 12.805L3.8447 3.58895C3.8457 1.61995 4.6827 0.779954 6.6447 0.778954L38.6397 0.777954C41.7427 0.777954 44.8467 0.785953 47.9497 0.793953C51.0547 0.801953 54.1587 0.809956 57.2637 0.809956C62.0227 0.809956 65.9367 0.790954 69.5797 0.750954L69.7487 0.749954C78.0027 0.749954 84.9777 7.00596 85.9707 15.302C86.9837 23.747 80.6867 31.947 72.2207 33.208C71.3607 33.337 70.4347 33.394 69.2177 33.394C68.6967 33.394 68.1737 33.384 67.6527 33.374C67.2197 33.365 66.7877 33.358 66.3557 33.355C64.9407 33.355 64.3277 33.965 64.3277 35.333C64.3277 36.022 64.3457 36.71 64.3647 37.4C64.4127 39.24 64.4577 40.979 64.1697 42.721C63.0147 49.702 56.8177 54.977 49.7557 54.988C44.4697 54.997 39.1827 55.002 33.8977 55.002Z" fill="#F1EBDF"/>
<path d="M65.7419 27.816C65.0419 27.816 65.1079 27.328 65.1069 26.876C65.1059 23.597 65.1069 20.317 65.1069 17.038C65.1059 13.952 65.1059 10.866 65.1059 7.77895C65.1069 6.33995 65.1069 6.34195 66.5959 6.33895C67.1609 6.33795 67.7269 6.32895 68.2929 6.32895C69.6599 6.32895 71.0239 6.38295 72.3599 6.73495C77.0899 7.98395 80.4159 12.042 80.3919 17.167C80.3679 22.332 76.6759 26.658 71.7179 27.574C70.5399 27.792 69.3499 27.836 68.1569 27.836C67.3539 27.836 66.5499 27.816 65.7479 27.816H65.7419ZM45.0489 6.34295C49.2129 6.34295 53.3769 6.33795 57.5409 6.31895H57.5679C58.5039 6.31895 58.8079 6.55295 58.8049 7.54595C58.7689 18.221 58.7889 28.897 58.7789 39.572C58.7749 44.419 56.0209 48.124 51.6629 49.125C50.7919 49.325 49.8769 49.418 48.9819 49.42C43.2179 49.431 37.4549 49.437 31.6909 49.437C27.5319 49.437 23.3719 49.434 19.2129 49.428C14.4239 49.421 10.7489 46.662 9.72393 42.339C9.50893 41.433 9.41793 40.502 9.41793 39.567C9.41693 28.891 9.43093 18.216 9.39493 7.53996C9.39093 6.54096 9.70893 6.31895 10.6359 6.31895H10.6639C14.8719 6.33795 19.0789 6.34295 23.2869 6.34295C26.9079 6.34295 30.5299 6.33895 34.1509 6.33895C37.7839 6.33895 41.4159 6.34295 45.0489 6.34295ZM69.7479 -4.57764e-05C69.6889 -4.57764e-05 69.6299 -4.63257e-05 69.5719 0.000953674C65.4779 0.0459537 61.3849 0.0589523 57.2899 0.0589523C51.0739 0.0589523 44.8559 0.0279541 38.6399 0.0279541C32.9099 0.0279541 27.1809 0.0279541 21.4509 0.0279541C16.5159 0.0279541 11.5799 0.0279536 6.64493 0.0289536C4.26293 0.0299536 3.09593 1.20095 3.09493 3.58895C3.09293 15.874 3.08093 28.158 3.09993 40.442C3.11293 48.836 10.0199 55.722 18.4379 55.738C23.5419 55.748 28.6439 55.752 33.7469 55.752C39.0829 55.752 44.4209 55.747 49.7569 55.738C57.2439 55.726 63.6879 50.23 64.9099 42.844C65.3219 40.352 65.0769 37.837 65.0779 35.334C65.0779 34.342 65.3879 34.104 66.3129 34.104C66.3249 34.104 66.3379 34.104 66.3499 34.104C67.3069 34.111 68.2649 34.144 69.2229 34.144C70.2589 34.144 71.2949 34.105 72.3309 33.951C81.2529 32.622 87.7829 24.119 86.7159 15.213C85.6289 6.14795 77.8859 -4.57764e-05 69.7479 -4.57764e-05ZM65.7419 29.316H65.7479C66.1429 29.316 66.5379 29.321 66.9339 29.326C67.3419 29.331 67.7499 29.336 68.1569 29.336C69.2859 29.336 70.6249 29.302 71.9899 29.049C77.7009 27.993 81.8649 22.999 81.8919 17.174C81.9189 11.515 78.2419 6.73695 72.7429 5.28495C71.2239 4.88395 69.7059 4.82795 68.2929 4.82795C67.9869 4.82795 67.6809 4.83095 67.3749 4.83395C67.1139 4.83595 66.8539 4.83795 66.5869 4.83895C64.2749 4.84395 63.6069 5.50295 63.6059 7.77895L63.6069 17.038V19.21V26.876V26.967C63.6019 27.368 63.5939 28.115 64.1899 28.718C64.4599 28.991 64.9479 29.316 65.7419 29.316ZM45.0489 4.84295L39.6009 4.84095L34.1509 4.83895L28.7179 4.84095L23.2869 4.84295C19.0809 4.84295 14.8759 4.83795 10.6359 4.81895C10.0039 4.81895 9.19893 4.89795 8.58593 5.51395C7.96193 6.13895 7.89293 6.97295 7.89493 7.54495C7.92293 15.882 7.92093 24.359 7.91893 32.557L7.91793 39.567C7.91793 40.666 8.03393 41.715 8.26393 42.685C9.44993 47.684 13.7459 50.92 19.2109 50.928C23.3699 50.934 27.5309 50.937 31.6909 50.937C37.4559 50.937 43.2199 50.931 48.9859 50.92C50.0339 50.918 51.0469 50.806 51.9979 50.587C57.0239 49.433 60.2739 45.11 60.2789 39.574C60.2829 35.835 60.2829 32.095 60.2819 28.356C60.2819 21.537 60.2819 14.485 60.3049 7.55095C60.3069 6.97595 60.2369 6.13895 59.6139 5.51395C58.9999 4.89795 58.1989 4.81895 57.5349 4.81895C53.3739 4.83795 49.2109 4.84295 45.0489 4.84295ZM69.7479 1.49995C77.6229 1.49995 84.2769 7.47195 85.2259 15.392C86.1909 23.445 80.1849 31.264 72.1089 32.467C71.2889 32.589 70.3979 32.644 69.2229 32.644C68.7039 32.644 68.1839 32.634 67.6639 32.624C67.2289 32.616 66.7949 32.607 66.3129 32.604C64.0529 32.604 63.5779 34.088 63.5779 35.333C63.5779 36.026 63.5959 36.72 63.6139 37.415C63.6619 39.22 63.7069 40.925 63.4299 42.599C62.3339 49.223 56.4549 54.227 49.7549 54.238C44.4189 54.247 39.0819 54.252 33.7469 54.252C28.6449 54.252 23.5439 54.248 18.4409 54.238C10.8209 54.223 4.61193 48.034 4.59993 40.44C4.58493 31.117 4.58893 21.794 4.59193 12.47L4.59493 3.58895C4.59593 2.02995 5.09393 1.52995 6.64493 1.52895L21.4509 1.52795H30.0449H38.6399C41.7469 1.52795 44.8539 1.53595 47.9609 1.54395C51.0709 1.55095 54.1809 1.55895 57.2899 1.55895C62.0399 1.55895 65.9479 1.54095 69.5879 1.50095L69.7479 1.49995Z" fill="#7C7958"/>
<path d="M74.6104 67.3446L3.46438 67.3426C2.55338 67.3426 1.81838 67.0696 1.33938 66.5536C0.904383 66.0866 0.704389 65.4386 0.758389 64.6776C0.839389 63.5496 1.75239 62.6336 2.88139 62.5466C3.04639 62.5336 3.21039 62.5316 3.37539 62.5316L82.8634 62.5356L83.5164 62.5286C83.7564 62.5286 84.0384 62.5376 84.2904 62.6106C85.4234 62.9336 86.1414 64.0676 85.9984 65.3066C85.8664 66.4506 84.8744 67.3236 83.6894 67.3336C82.3244 67.3466 80.9594 67.3496 79.5934 67.3496L74.6104 67.3446Z" fill="#F1EBDF"/>
<path d="M83.5156 61.7781C83.2976 61.7781 83.0796 61.7861 82.8626 61.7861C66.8386 61.7841 50.8186 61.7841 34.7936 61.7841C24.4926 61.7841 14.1876 61.7841 3.88663 61.7841C3.71563 61.7841 3.54463 61.7811 3.37463 61.7811C3.19063 61.7811 3.00663 61.7851 2.82363 61.7991C1.31963 61.9161 0.117631 63.1301 0.0106309 64.6241C-0.136369 66.6841 1.25263 68.0921 3.46363 68.0931C10.3846 68.0951 17.3056 68.0951 24.2266 68.0951H38.3806H43.3866C49.8316 68.0951 56.2756 68.0961 62.7196 68.0961C66.6826 68.0961 70.6466 68.0961 74.6096 68.0951H74.6786C76.2896 68.0951 77.9006 68.1001 79.5116 68.1001C80.9066 68.1001 82.3016 68.0971 83.6966 68.0841C85.2766 68.0701 86.5706 66.8871 86.7426 65.3931C86.9296 63.7781 85.9896 62.3151 84.4966 61.8891C84.1726 61.7961 83.8446 61.7781 83.5156 61.7781ZM83.5156 63.2781C83.7836 63.2781 83.9536 63.2941 84.0846 63.3311C84.8746 63.5571 85.3546 64.3341 85.2526 65.2211C85.1646 65.9911 84.4896 66.5771 83.6826 66.5841C82.2926 66.5971 80.9016 66.6001 79.5116 66.6001L77.0966 66.5981L74.6786 66.5951H74.6096L62.7196 66.5961L43.3866 66.5951H38.3806H31.3036H24.2266C17.3056 66.5951 10.3856 66.5951 3.46463 66.5931C2.77763 66.5931 2.21763 66.3971 1.88763 66.0431C1.52363 65.6521 1.47963 65.1141 1.50663 64.7311C1.56063 63.9711 2.17663 63.3541 2.93963 63.2951C3.08363 63.2831 3.22963 63.2811 3.37463 63.2811L3.61763 63.2831L3.88663 63.2841H5.93763H34.7936L82.8626 63.2861C82.9806 63.2861 83.0986 63.2841 83.2166 63.2821C83.3166 63.2801 83.4156 63.2781 83.5156 63.2781Z" fill="#7C7958"/>
</g>
</svg>
