<svg width="99" height="99" viewBox="0 0 99 99" fill="none" xmlns="http://www.w3.org/2000/svg">
<g opacity="0.5">
<path d="M47.8089 37.0222C50.5349 37.0222 52.5679 38.7912 53.1149 41.6382L53.9109 45.7532C54.4919 48.7512 55.0729 51.7492 55.6299 54.7512C55.7899 55.6132 56.1779 56.0762 57.0129 56.4002C61.1579 58.0132 65.2929 59.6512 69.4289 61.2892L75.6409 63.7482C76.0989 63.9352 76.5739 64.1282 77.0909 64.1282C77.2669 64.1282 77.4429 64.1052 77.6119 64.0602C78.7519 63.7522 79.2379 62.8772 79.5909 61.9772C81.8119 56.3182 84.0419 50.6632 86.2739 45.0072L88.7859 38.6382L89.2859 37.3572C89.5719 36.6212 89.8589 35.8832 90.1549 35.1512C90.2689 34.8702 90.4069 34.6302 90.5649 34.4412L93.2569 27.4972C93.2999 27.2542 93.3679 27.0162 93.4639 26.7632C93.7259 26.0872 93.9959 25.4132 94.2639 24.7392C94.5409 24.0442 94.8189 23.3492 95.0879 22.6522C95.8149 20.7742 95.2849 19.5542 93.4179 18.8142C80.3019 13.6162 67.1849 8.42219 54.0649 3.23619C53.4949 3.01019 52.9989 2.90118 52.5509 2.90118C51.5039 2.90118 50.7549 3.50919 50.2619 4.76019C45.9389 15.7292 41.6199 26.6992 37.3039 37.6692C37.2769 37.7392 37.2389 37.8102 37.1999 37.8822C37.0739 38.1172 36.9159 38.4082 37.1109 38.6872C37.2199 38.8442 37.3669 38.9232 37.5449 38.9232C37.6939 38.9232 37.8389 38.8712 37.9799 38.8192C38.0619 38.7892 38.1419 38.7572 38.2179 38.7442C40.0659 38.3992 41.9109 38.0412 43.7549 37.6822L46.5049 37.1502C46.9469 37.0652 47.3859 37.0222 47.8089 37.0222ZM47.8119 39.8722C47.4849 39.8722 47.1239 39.9112 46.7089 39.9912C42.0809 40.8882 37.4549 41.7932 32.8279 42.6962L24.8779 44.2482C18.4159 45.5072 11.9549 46.7652 5.49191 48.0172C3.31091 48.4402 2.61891 49.4522 3.02291 51.6262C3.12191 52.1602 3.22791 52.6932 3.33391 53.2252C3.47891 53.9482 3.62291 54.6712 3.74991 55.3972C3.78191 55.5782 3.79691 55.7462 3.79991 55.9032L5.13791 62.9492C5.21891 63.1272 5.27191 63.2882 5.30591 63.4602L8.2149 78.4602C9.1689 83.3922 10.1219 88.3252 11.0809 93.2562C11.3809 94.7972 12.2079 95.5802 13.5389 95.5802C13.7879 95.5802 14.0579 95.5522 14.3419 95.4992C19.9449 94.4442 25.5389 93.3572 31.1349 92.2702L33.4549 91.8202C39.3669 90.6712 45.2779 89.5162 51.1889 88.3622L55.8509 87.4512C58.1419 87.0022 58.8289 85.9862 58.3869 83.7022C57.9109 81.2432 56.0539 71.7542 55.6109 69.4662C53.8679 60.4772 52.1269 51.4872 50.3909 42.4972C50.0359 40.6572 49.2639 39.8722 47.8119 39.8722ZM12.2879 98.3672C10.0069 97.5952 8.68891 95.9782 8.18191 93.2842C6.93691 86.6542 5.64791 80.0342 4.35891 73.4132L3.59191 69.4692L3.55291 69.4772L0.956905 55.8232C0.762905 54.9332 0.576907 54.0452 0.390907 53.1582L0.128906 51.9162L0.131908 49.2502C0.895908 46.9832 2.45191 45.6832 5.01991 45.2002C10.4689 44.1722 15.9119 43.1092 21.3539 42.0452C25.0019 41.3342 28.6509 40.6212 32.3009 39.9182C33.1459 39.7552 33.5939 39.3862 33.9009 38.6032C35.9079 33.4832 37.9229 28.3672 39.9389 23.2512C42.4759 16.8112 45.0129 10.3712 47.5329 3.92419C48.2569 2.07219 49.4939 0.829191 51.3139 0.124191L53.9539 0.132187L65.5819 4.74718C75.2519 8.57418 84.9229 12.4022 94.5899 16.2362C97.1539 17.2522 98.3789 19.1042 98.2339 21.7412C98.1979 22.3992 97.9879 23.0072 97.8089 23.4642C97.4439 24.4022 97.0729 25.3342 96.7009 26.2682L96.5929 26.5402L96.6019 26.5432L90.8709 41.3662L90.7619 41.3242C90.7619 41.3242 82.5699 62.1072 82.1399 63.1872C81.1809 65.5992 79.4209 66.9282 77.1849 66.9282C76.3899 66.9282 75.5519 66.7562 74.6939 66.4182C71.2239 65.0532 67.7579 63.6782 64.2919 62.3032L57.9169 59.7772L57.7339 59.6982C57.5159 59.6002 57.2689 59.4892 56.9449 59.4892C56.8779 59.4892 56.8089 59.4942 56.7359 59.5032L56.5969 59.5232L56.9849 61.5762C57.2479 62.9762 57.5109 64.3732 57.7799 65.7682L59.0829 72.5022C59.7989 76.1992 60.5159 79.8952 61.2219 83.5942C61.8589 86.9312 60.1279 89.5052 56.8129 90.1522C51.8329 91.1252 31.1199 95.1542 31.1199 95.1542C25.9129 96.1682 20.7049 97.1882 15.4989 98.2092C15.3679 98.2352 15.2399 98.2762 15.1129 98.3172L14.9549 98.3672H12.2879Z" fill="#F1EBDF"/>
<path d="M13.539 95.446C12.249 95.446 11.497 94.696 11.212 93.231C9.856 86.254 8.509 79.275 7.158 72.297C6.586 69.342 6.012 66.388 5.436 63.434C5.4 63.248 5.343 63.078 5.269 62.925L3.933 55.901C3.93 55.737 3.914 55.562 3.882 55.374C3.661 54.113 3.388 52.861 3.154 51.602C2.762 49.497 3.42 48.554 5.517 48.148C11.98 46.896 18.442 45.638 24.903 44.379C32.18 42.961 39.456 41.533 46.734 40.122C47.133 40.045 47.491 40.005 47.812 40.005C49.226 40.005 49.924 40.778 50.26 42.522C51.997 51.513 53.737 60.502 55.48 69.492C56.401 74.238 57.336 78.98 58.256 83.727C58.684 85.939 58.037 86.888 55.826 87.32C48.361 88.778 40.896 90.239 33.43 91.689C27.061 92.926 20.693 94.168 14.318 95.367C14.039 95.42 13.78 95.446 13.539 95.446ZM37.545 38.791C37.426 38.791 37.314 38.746 37.22 38.612C37.021 38.326 37.315 38.006 37.428 37.719C41.743 26.747 46.062 15.778 50.386 4.81C50.855 3.62 51.553 3.034 52.551 3.034C52.981 3.034 53.468 3.144 54.016 3.36C67.136 8.546 80.253 13.74 93.369 18.938C95.174 19.654 95.663 20.798 94.964 22.604C94.433 23.978 93.872 25.342 93.34 26.716C93.238 26.98 93.17 27.224 93.133 27.448L90.462 34.356C90.299 34.551 90.154 34.799 90.032 35.101C89.563 36.259 89.119 37.427 88.661 38.59C85.595 46.369 82.522 54.145 79.467 61.928C79.098 62.868 78.622 63.65 77.578 63.931C77.411 63.976 77.248 63.995 77.09 63.995C76.512 63.995 75.984 63.738 75.452 63.528C69.322 61.11 63.202 58.666 57.06 56.276C56.274 55.97 55.912 55.543 55.761 54.726C54.949 50.35 54.086 45.983 53.246 41.613C52.68 38.668 50.572 36.889 47.809 36.889C47.38 36.889 46.937 36.932 46.48 37.019C43.718 37.55 40.958 38.096 38.194 38.613C37.992 38.65 37.756 38.791 37.545 38.791ZM53.954 0H51.266C49.407 0.719 48.15 1.977 47.409 3.875C42.887 15.444 38.309 26.99 33.777 38.554C33.482 39.306 33.054 39.638 32.275 39.788C23.18 41.537 14.097 43.353 4.995 45.069C2.479 45.543 0.808 46.828 0 49.25V51.943C0.275 53.245 0.543 54.548 0.827 55.848L3.448 69.634L3.487 69.627C5.021 77.518 6.567 85.407 8.052 93.308C8.535 95.883 9.785 97.662 12.288 98.5H14.976C15.159 98.446 15.339 98.376 15.525 98.34C20.731 97.319 25.938 96.299 31.145 95.284C39.709 93.616 48.275 91.955 56.838 90.283C60.226 89.622 62.005 86.987 61.352 83.569C60.218 77.625 59.056 71.685 57.91 65.743C57.519 63.713 57.141 61.68 56.754 59.635C56.82 59.626 56.884 59.622 56.944 59.622C57.329 59.622 57.592 59.792 57.869 59.901C63.461 62.113 69.048 64.341 74.645 66.543C75.531 66.892 76.384 67.061 77.185 67.061C79.439 67.061 81.277 65.717 82.264 63.236C82.891 61.658 83.511 60.077 84.134 58.498C86.369 52.831 88.606 47.164 90.837 41.495L90.946 41.538L96.775 26.465L96.767 26.462C97.157 25.48 97.549 24.498 97.933 23.514C98.155 22.946 98.332 22.366 98.366 21.748C98.514 19.081 97.267 17.154 94.639 16.112C81.08 10.735 67.516 5.37 53.954 0ZM13.539 95.712C13.795 95.712 14.074 95.684 14.367 95.629C20.055 94.559 25.831 93.436 31.417 92.351L33.48 91.95C39.741 90.734 45.999 89.511 52.258 88.288L55.877 87.581C58.232 87.121 58.972 86.026 58.517 83.676C58.039 81.208 57.557 78.74 57.074 76.273C56.629 73.996 56.183 71.719 55.742 69.441C53.998 60.452 52.258 51.462 50.522 42.471C50.152 40.556 49.341 39.739 47.812 39.739C47.476 39.739 47.107 39.779 46.684 39.861C42.052 40.758 37.421 41.663 32.791 42.568L24.852 44.118C18.391 45.377 11.929 46.635 5.466 47.887C3.222 48.322 2.476 49.412 2.892 51.651C2.992 52.192 3.1 52.733 3.208 53.273C3.351 53.988 3.494 54.703 3.619 55.42C3.648 55.586 3.664 55.749 3.672 55.951L5.007 62.975L5.014 63.009L5.029 63.041C5.095 63.175 5.144 63.325 5.175 63.485C5.751 66.439 6.325 69.393 6.897 72.348L8.211 79.139C9.123 83.854 10.034 88.569 10.951 93.282C11.265 94.895 12.135 95.712 13.539 95.712ZM37.545 39.057C37.718 39.057 37.882 38.996 38.026 38.943C38.101 38.915 38.174 38.887 38.242 38.874C40.066 38.534 41.888 38.18 43.71 37.826C44.65 37.644 45.59 37.461 46.53 37.281C46.964 37.197 47.394 37.155 47.809 37.155C50.467 37.155 52.45 38.883 52.984 41.663C53.244 43.016 53.507 44.37 53.769 45.723C54.344 48.688 54.939 51.755 55.499 54.775C55.666 55.678 56.091 56.185 56.964 56.524C61.164 58.159 65.425 59.846 69.546 61.478C71.482 62.245 73.418 63.012 75.354 63.776L75.59 63.871C76.06 64.063 76.546 64.261 77.09 64.261C77.278 64.261 77.466 64.237 77.647 64.188C78.844 63.866 79.348 62.958 79.714 62.025C81.971 56.275 84.238 50.529 86.505 44.782L88.909 38.687C89.079 38.257 89.246 37.826 89.414 37.394C89.699 36.662 89.984 35.929 90.278 35.201C90.388 34.931 90.518 34.704 90.666 34.527L90.695 34.493L90.711 34.452L93.382 27.544L93.392 27.519L93.396 27.492C93.431 27.281 93.496 27.052 93.589 26.812C93.855 26.124 94.128 25.44 94.401 24.755C94.674 24.071 94.947 23.387 95.213 22.7C95.961 20.764 95.39 19.453 93.467 18.691C80.351 13.492 67.234 8.299 54.113 3.113C53.528 2.881 53.016 2.768 52.551 2.768C51.443 2.768 50.654 3.404 50.138 4.712C45.815 15.68 41.495 26.65 37.18 37.621C37.155 37.686 37.119 37.751 37.083 37.819C36.954 38.057 36.76 38.417 37.002 38.764C37.136 38.956 37.324 39.057 37.545 39.057ZM53.903 0.265999L64.784 4.573C74.704 8.5 84.624 12.426 94.541 16.36C97.045 17.352 98.243 19.161 98.1 21.734C98.065 22.374 97.86 22.969 97.685 23.417C97.362 24.246 97.033 25.072 96.705 25.899L96.52 26.364L96.428 26.617L96.43 26.618L90.794 41.193L90.687 41.151L90.59 41.398C88.737 46.105 86.88 50.811 85.024 55.516L83.887 58.4L83.367 59.72C82.918 60.86 82.469 61.999 82.016 63.137C81.079 65.496 79.363 66.795 77.185 66.795C76.407 66.795 75.585 66.627 74.742 66.295C71.277 64.932 67.815 63.559 64.354 62.185C62.225 61.341 60.096 60.496 57.966 59.654C57.907 59.63 57.848 59.604 57.789 59.577C57.559 59.473 57.298 59.356 56.944 59.356C56.872 59.356 56.797 59.361 56.717 59.372L56.44 59.41L56.492 59.685L56.856 61.613C57.118 63.009 57.381 64.402 57.649 65.793C58.07 67.976 58.493 70.158 58.916 72.34C59.644 76.099 60.373 79.858 61.091 83.619C61.713 86.877 60.024 89.39 56.787 90.022C51.693 91.017 46.598 92.007 41.503 92.998L31.094 95.023C25.887 96.038 20.68 97.058 15.473 98.079C15.336 98.105 15.201 98.149 15.067 98.192L14.935 98.234H12.332C10.084 97.468 8.807 95.886 8.313 93.259C7.052 86.549 5.725 79.735 4.442 73.146L3.748 69.576L3.661 69.331L1.087 55.791C0.888 54.881 0.697 53.97 0.506 53.059L0.266 51.916V49.294C1.024 47.062 2.543 45.802 5.045 45.33C10.522 44.298 16.084 43.211 21.463 42.16C25.083 41.453 28.703 40.746 32.325 40.049C33.21 39.879 33.702 39.474 34.025 38.651C36.053 33.477 38.09 28.307 40.127 23.136C42.642 16.751 45.158 10.365 47.656 3.972C48.36 2.173 49.557 0.959999 51.316 0.265999H53.903Z" fill="#7C7958"/>
<path d="M72.302 48.4214C71.585 48.4214 70.855 48.7414 70.297 49.3004C69.761 49.8384 69.453 50.5344 69.455 51.2104C69.457 52.7214 70.696 53.9584 72.215 53.9674C73.836 53.9674 74.973 52.8654 75 51.2864C75.028 49.7414 73.841 48.4564 72.356 48.4224L72.302 48.4214ZM72.213 56.8574C69.111 56.8474 66.682 54.3654 66.686 51.2084C66.691 48.0404 69.126 45.6514 72.352 45.6514C73.856 45.6554 75.24 46.2284 76.266 47.2624C77.315 48.3204 77.887 49.7534 77.878 51.2974C77.86 54.3624 75.325 56.8574 72.23 56.8574H72.213Z" fill="#F1EBDF"/>
<path d="M72.2352 53.8343H72.2162C70.7692 53.8253 69.5902 52.6493 69.5882 51.2103C69.5852 49.8363 70.9032 48.5553 72.3012 48.5553C72.3182 48.5553 72.3352 48.5553 72.3532 48.5553C73.7612 48.5873 74.8932 49.8153 74.8672 51.2843C74.8412 52.7893 73.7612 53.8343 72.2352 53.8343ZM72.3522 45.5193C69.0392 45.5193 66.5582 47.9513 66.5532 51.2083C66.5482 54.4273 69.0482 56.9803 72.2132 56.9893H72.2302C75.3752 56.9893 77.9922 54.4143 78.0112 51.2983C78.0302 48.0673 75.5512 45.5273 72.3702 45.5193H72.3522ZM72.2342 54.1003C73.9122 54.1003 75.1052 52.9443 75.1342 51.2893C75.1622 49.6703 73.9172 48.3243 72.3592 48.2893L72.3012 48.2883C71.5502 48.2883 70.7862 48.6233 70.2032 49.2063C69.6422 49.7693 69.3202 50.4993 69.3212 51.2103C69.3242 52.7943 70.6222 54.0913 72.2142 54.1003H72.2342ZM72.3522 45.5193L72.3692 45.7853C73.8202 45.7893 75.1702 46.3473 76.1712 47.3563C77.1942 48.3893 77.7532 49.7883 77.7452 51.2973C77.7272 54.2893 75.2532 56.7233 72.2142 56.7233C69.1842 56.7143 66.8152 54.2923 66.8192 51.2093C66.8242 48.1163 69.2022 45.7853 72.3522 45.7853V45.5193Z" fill="#7C7958"/>
<path d="M64.8917 30.7136C63.3687 30.7216 62.1257 31.9496 62.1227 33.4516C62.1207 35.0096 63.3017 36.2406 64.8147 36.2546C66.3817 36.2546 67.6167 35.0806 67.6537 33.5806C67.6717 32.8326 67.3777 32.0906 66.8467 31.5466C66.3227 31.0096 65.6337 30.7136 64.9077 30.7136H64.8917ZM64.7677 39.1426C63.3607 39.1286 61.9527 38.5076 60.9047 37.4366C59.8287 36.3376 59.2207 34.8656 59.2387 33.3986C59.2737 30.4426 61.8977 27.8496 64.8537 27.8496L64.9667 27.8506C68.0047 27.9186 70.5397 30.5506 70.5017 33.5976C70.4637 36.6036 67.8627 39.1426 64.8207 39.1426H64.7677Z" fill="#F1EBDF"/>
<path d="M64.8414 36.1219H64.8154C63.3794 36.1089 62.2534 34.9349 62.2564 33.4519C62.2594 32.0239 63.4414 30.8549 64.8924 30.8459H64.9074C66.3534 30.8459 67.5564 32.1019 67.5204 33.5779C67.4864 34.9969 66.2984 36.1219 64.8414 36.1219ZM64.8544 27.7169C61.8254 27.7169 59.1414 30.3529 59.1054 33.3969C59.0684 36.5109 61.7034 39.2469 64.7674 39.2759C64.7844 39.2759 64.8024 39.2759 64.8204 39.2759C67.9264 39.2759 70.5964 36.6759 70.6354 33.5999C70.6744 30.4759 68.0844 27.7869 64.9704 27.7179C64.9314 27.7169 64.8934 27.7169 64.8544 27.7169ZM64.8404 36.3879C66.4534 36.3879 67.7484 35.1569 67.7864 33.5839C67.8054 32.7999 67.4974 32.0229 66.9414 31.4539C66.3924 30.8899 65.6694 30.5799 64.8914 30.5799C63.2944 30.5889 61.9934 31.8779 61.9904 33.4519C61.9874 35.0839 63.2264 36.3729 64.8134 36.3879H64.8404ZM64.8544 27.9829L64.9644 27.9839C67.9314 28.0499 70.4064 30.6199 70.3694 33.5959C70.3324 36.5309 67.7914 39.0099 64.8204 39.0099H64.7694C63.3974 38.9969 62.0234 38.3889 60.9994 37.3429C59.9484 36.2689 59.3554 34.8319 59.3724 33.3999C59.4064 30.5139 61.9684 27.9829 64.8544 27.9829Z" fill="#7C7958"/>
<path d="M57.5247 13.0038C55.9987 13.0038 54.7227 14.1908 54.6817 15.6508C54.6607 16.4058 54.9387 17.1258 55.4667 17.6778C55.9907 18.2268 56.6897 18.5348 57.4357 18.5478C59.0277 18.5478 60.1977 17.3858 60.2097 15.8438C60.2227 14.2478 59.0867 13.0268 57.5677 13.0048L57.5247 13.0038ZM57.3977 21.4258C54.3627 21.4098 51.9007 18.8338 51.9087 15.6828C51.9167 12.6338 54.4087 10.1338 57.4637 10.1098C58.9507 10.1098 60.3327 10.6978 61.3957 11.7668C62.4787 12.8548 63.0957 14.3438 63.0887 15.8508C63.0747 18.8728 60.4817 21.4258 57.4257 21.4258H57.3977Z" fill="#F1EBDF"/>
<path d="M57.4884 18.4156C57.4714 18.4156 57.4554 18.4156 57.4384 18.4156C55.9644 18.3896 54.7724 17.1356 54.8144 15.6556C54.8544 14.2586 56.0654 13.1376 57.5234 13.1376C57.5374 13.1376 57.5514 13.1376 57.5654 13.1376C59.0184 13.1596 60.0894 14.3126 60.0774 15.8426C60.0644 17.3126 58.9504 18.4156 57.4884 18.4156ZM57.5034 9.97759C57.4894 9.97759 57.4764 9.97759 57.4624 9.97759C54.3424 10.0006 51.7844 12.5676 51.7754 15.6826C51.7664 18.9066 54.2894 21.5426 57.3964 21.5586H57.4254C60.5704 21.5586 63.2074 18.9656 63.2224 15.8516C63.2364 12.6636 60.6164 9.97759 57.5034 9.97759ZM57.4884 18.6816C59.1024 18.6816 60.3294 17.4626 60.3434 15.8446C60.3574 14.1736 59.1644 12.8946 57.5234 12.8716C55.9264 12.8716 54.5924 14.1166 54.5484 15.6476C54.5264 16.4376 54.8174 17.1916 55.3694 17.7696C55.9184 18.3436 56.6514 18.6676 57.4334 18.6816H57.4884ZM57.5034 9.97759V10.2436C58.9144 10.2436 60.2634 10.8176 61.3014 11.8606C62.3594 12.9236 62.9624 14.3776 62.9554 15.8506C62.9424 18.8006 60.4094 21.2916 57.3984 21.2916C54.4364 21.2776 52.0334 18.7616 52.0414 15.6836C52.0504 12.7066 54.4824 10.2656 57.4644 10.2436L57.5034 9.97759Z" fill="#7C7958"/>
<path d="M30.6459 64.9468C29.9319 64.9508 29.2549 65.2508 28.7389 65.7918C28.2239 66.3318 27.9429 67.0348 27.9479 67.7708C27.9579 69.2728 29.2099 70.4948 30.7409 70.4958C32.2509 70.4958 33.4819 69.2558 33.4879 67.7298C33.4909 66.9948 33.2059 66.3018 32.6849 65.7788C32.1509 65.2418 31.4319 64.9468 30.6639 64.9468H30.6459ZM30.7729 73.3838C27.7439 73.3768 25.0779 70.7648 25.0669 67.7958C25.0619 66.3338 25.6869 64.8638 26.7839 63.7638C27.8609 62.6818 29.2939 62.0608 30.7159 62.0608C33.7669 62.0708 36.3469 64.6548 36.3659 67.7038C36.3749 69.1478 35.7579 70.6028 34.6729 71.6938C33.6069 72.7668 32.1889 73.3838 30.7829 73.3838H30.7729Z" fill="#F1EBDF"/>
<path d="M30.7436 70.3636H30.7406C29.2886 70.3626 28.0896 69.1936 28.0806 67.7706C28.0716 66.3196 29.2466 65.0876 30.6466 65.0796H30.6616C32.1566 65.0796 33.3606 66.2616 33.3546 67.7296C33.3486 69.1796 32.1756 70.3636 30.7436 70.3636ZM30.7156 61.9286C27.6356 61.9286 24.9226 64.6796 24.9336 67.7956C24.9446 70.8416 27.6686 73.5096 30.7726 73.5166H30.7826C33.8296 73.5166 36.5176 70.7846 36.4986 67.7026C36.4796 64.5976 33.8216 61.9376 30.7306 61.9286H30.7156ZM30.7406 70.6296H30.7436C32.3236 70.6296 33.6146 69.3296 33.6206 67.7306C33.6236 66.9596 33.3246 66.2336 32.7786 65.6856C32.2186 65.1236 31.4666 64.8136 30.6446 64.8136C29.8946 64.8176 29.1836 65.1326 28.6426 65.7006C28.1036 66.2656 27.8096 67.0006 27.8146 67.7716C27.8246 69.3466 29.1376 70.6286 30.7406 70.6296ZM30.7156 61.9286L30.7296 62.1946C33.6946 62.2036 36.2136 64.7266 36.2326 67.7046C36.2406 69.1146 35.6376 70.5346 34.5786 71.6016C33.5366 72.6496 32.1536 73.2506 30.7726 73.2506C27.8146 73.2446 25.2106 70.6946 25.1996 67.7946C25.1946 66.3676 25.8066 64.9326 26.8776 63.8576C27.9306 62.8016 29.3296 62.1946 30.7156 62.1946V61.9286Z" fill="#7C7958"/>
<path d="M41.1681 48.8777C39.6501 48.9077 38.4711 50.1487 38.4831 51.7027C38.4951 53.2297 39.7131 54.4397 41.2541 54.4597C42.7111 54.4597 44.0211 53.1297 44.0291 51.6687C44.0341 50.9677 43.7341 50.2607 43.2071 49.7297C42.6691 49.1877 41.9451 48.8767 41.2231 48.8767H41.2211L41.1681 48.8777ZM41.2611 57.2607C39.7361 57.2597 38.3081 56.6647 37.2351 55.5877C36.1751 54.5207 35.5951 53.1067 35.6031 51.6087C35.6181 48.5437 38.1481 46.0507 41.2441 46.0507C44.3271 46.0507 46.8391 48.5637 46.8441 51.6507C46.8461 53.1577 46.2661 54.5697 45.2091 55.6287C44.1581 56.6807 42.7571 57.2607 41.2651 57.2607H41.2611Z" fill="#F1EBDF"/>
<path d="M41.2833 54.3276C41.2743 54.3276 41.2653 54.3276 41.2563 54.3276C39.7983 54.3086 38.6283 53.1456 38.6163 51.7026C38.6043 50.2236 39.7283 49.0396 41.1713 49.0106C41.1873 49.0106 41.2043 49.0096 41.2213 49.0096C42.6483 49.0096 43.9063 50.2526 43.8973 51.6676C43.8883 53.0566 42.6353 54.3276 41.2833 54.3276ZM41.2443 45.9176C38.0743 45.9176 35.4853 48.4676 35.4693 51.6086C35.4533 54.7966 38.0513 57.3916 41.2613 57.3936H41.2633C44.4323 57.3936 46.9813 54.8326 46.9763 51.6516C46.9723 48.4766 44.4153 45.9186 41.2463 45.9176H41.2443ZM41.2813 54.5936H41.2833C42.7813 54.5936 44.1533 53.1996 44.1633 51.6696C44.1683 50.9326 43.8533 50.1916 43.3013 49.6356C42.7383 49.0686 41.9803 48.7436 41.2213 48.7436L41.1653 48.7446C39.5733 48.7766 38.3373 50.0766 38.3503 51.7046C38.3633 53.3036 39.6383 54.5726 41.2533 54.5936H41.2813ZM41.2463 46.1836C44.2543 46.1846 46.7063 48.6376 46.7103 51.6516C46.7123 53.1226 46.1463 54.5016 45.1143 55.5346C44.0893 56.5616 42.7213 57.1276 41.2613 57.1276C39.7733 57.1266 38.3773 56.5466 37.3303 55.4946C36.2953 54.4526 35.7283 53.0726 35.7363 51.6096C35.7513 48.6176 38.2223 46.1836 41.2443 46.1836H41.2463Z" fill="#7C7958"/>
<path d="M46.4153 75.9058C45.6753 75.9198 44.9853 76.2218 44.4743 76.7568C43.9523 77.3008 43.6753 78.0198 43.6933 78.7828C43.7273 80.2598 44.9773 81.4598 46.4773 81.4598C48.0113 81.4418 49.2313 80.1988 49.2323 78.6868C49.2333 77.9448 48.9433 77.2458 48.4163 76.7178C47.8933 76.1938 47.2023 75.9048 46.4713 75.9048H46.4693L46.4153 75.9058ZM46.4723 84.3428C43.4573 84.3428 40.8113 81.6768 40.8113 78.6388C40.8113 75.6498 43.4383 73.0268 46.4343 73.0268C49.4723 73.0478 52.1093 75.6898 52.1123 78.6828C52.1153 81.7338 49.5453 84.3258 46.4993 84.3428H46.4723Z" fill="#F1EBDF"/>
<path d="M46.4775 81.3266C45.0415 81.3266 43.8595 80.1946 43.8265 78.7796C43.7915 77.2896 44.9475 76.0676 46.4185 76.0386C46.4355 76.0376 46.4525 76.0376 46.4705 76.0376C47.9125 76.0376 49.1025 77.2296 49.1005 78.6876C49.0985 80.1316 47.9425 81.3096 46.5095 81.3266C46.4985 81.3266 46.4875 81.3266 46.4775 81.3266ZM46.4335 72.8936C43.3695 72.8936 40.6785 75.5766 40.6785 78.6386C40.6795 81.7626 43.3755 84.4756 46.4715 84.4756H46.4995C49.5945 84.4586 52.2485 81.7836 52.2455 78.6826C52.2425 75.6226 49.5405 72.9146 46.4685 72.8936H46.4335ZM46.4775 81.5926H46.5105H46.5125C48.0845 81.5746 49.3645 80.2716 49.3665 78.6876C49.3675 77.9096 49.0635 77.1766 48.5105 76.6236C47.9615 76.0746 47.2375 75.7716 46.4705 75.7716L46.4135 75.7726C45.6365 75.7876 44.9135 76.1046 44.3765 76.6656C43.8315 77.2346 43.5415 77.9876 43.5605 78.7866C43.5965 80.3336 44.9055 81.5926 46.4775 81.5926ZM46.4335 72.8936L46.4675 73.1596C49.4005 73.1796 51.9765 75.7606 51.9795 78.6836C51.9815 81.6626 49.4715 84.1926 46.4715 84.2096C43.5275 84.2096 40.9455 81.6066 40.9455 78.6386C40.9445 77.2496 41.5465 75.8526 42.5955 74.8066C43.6435 73.7606 45.0425 73.1596 46.4335 73.1596V72.8936Z" fill="#7C7958"/>
<path d="M20.1204 81.0546C19.3854 81.0616 18.6974 81.3536 18.1844 81.8756C17.6724 82.3986 17.3944 83.0906 17.4024 83.8246C17.4194 85.3096 18.6844 86.5766 20.1664 86.5936C20.9314 86.5936 21.6164 86.3116 22.1294 85.7976C22.6584 85.2676 22.9494 84.5506 22.9484 83.7796C22.9464 82.2006 21.7724 81.0536 20.1564 81.0536L20.1204 81.0546ZM20.2034 89.3896C17.1144 89.3856 14.5814 86.8806 14.5554 83.8056C14.5424 82.3266 15.1144 80.9286 16.1664 79.8676C17.2464 78.7796 18.6924 78.1786 20.2374 78.1786C21.7354 78.1836 23.1364 78.7726 24.1944 79.8376C25.2574 80.9086 25.8384 82.3206 25.8324 83.8146C25.8194 86.8886 23.2984 89.3896 20.2114 89.3896H20.2034Z" fill="#F1EBDF"/>
<path d="M20.1991 86.4615C20.1891 86.4615 20.1781 86.4615 20.1681 86.4615C18.7601 86.4455 17.5501 85.2325 17.5351 83.8235C17.5201 82.3785 18.6731 81.2025 20.1211 81.1875C20.1321 81.1875 20.1441 81.1875 20.1551 81.1875C21.7011 81.1875 22.8131 82.2675 22.8151 83.7795C22.8171 85.2785 21.6601 86.4615 20.1991 86.4615ZM20.2361 78.0465C17.0091 78.0465 14.3941 80.6355 14.4211 83.8065C14.4481 86.9505 17.0461 89.5185 20.2031 89.5225H20.2111C23.3691 89.5225 25.9521 86.9615 25.9651 83.8155C25.9791 80.6585 23.4001 78.0545 20.2521 78.0465H20.2361ZM20.1971 86.7275H20.1991C20.9661 86.7275 21.6851 86.4305 22.2231 85.8915C22.7781 85.3365 23.0821 84.5865 23.0811 83.7785C23.0791 82.1225 21.8491 80.9215 20.1181 80.9215C19.3471 80.9295 18.6271 81.2355 18.0891 81.7825C17.5521 82.3305 17.2611 83.0565 17.2691 83.8265C17.2861 85.3815 18.6121 86.7095 20.1651 86.7275H20.1971ZM20.2361 78.0465L20.2511 78.3125C21.7001 78.3165 23.0661 78.8915 24.1001 79.9315C25.1371 80.9765 25.7051 82.3555 25.6991 83.8135C25.6861 86.8145 23.2241 89.2565 20.2041 89.2565C17.1881 89.2525 14.7131 86.8065 14.6881 83.8045C14.6751 82.3615 15.2341 80.9975 16.2601 79.9615C17.3151 78.8985 18.7271 78.3125 20.2361 78.3125V78.0465Z" fill="#7C7958"/>
<path d="M14.8381 53.9849C13.3731 54.0229 12.1661 55.3429 12.2021 56.8689C12.2361 58.3389 13.4911 59.5339 15.0001 59.5339C16.5571 59.5049 17.7631 58.2369 17.7411 56.7089C17.7211 55.2059 16.4521 53.9839 14.9141 53.9839L14.8381 53.9849ZM15.0271 62.4209C12.0181 62.4199 9.35108 59.8219 9.31908 56.8599C9.30508 55.4079 9.91808 53.9429 11.0031 52.8389C12.0791 51.7439 13.5181 51.1099 14.9511 51.0999C17.9531 51.0999 20.5841 53.7219 20.6141 56.7109C20.6291 58.1489 20.0121 59.6059 18.9211 60.7099C17.8501 61.7949 16.4351 62.4179 15.0391 62.4209H15.0271Z" fill="#F1EBDF"/>
<path d="M14.9998 59.4007C13.5678 59.4007 12.3678 58.2657 12.3348 56.8657C12.3008 55.4127 13.4488 54.1537 14.8418 54.1177C14.8658 54.1167 14.8898 54.1167 14.9138 54.1167C16.3778 54.1167 17.5888 55.2737 17.6088 56.7107C17.6298 58.1687 16.4838 59.3727 15.0508 59.4007C15.0338 59.4007 15.0168 59.4007 14.9998 59.4007ZM14.9868 50.9677C14.9748 50.9677 14.9628 50.9677 14.9508 50.9677C11.8578 50.9897 9.15382 53.7547 9.18682 56.8617C9.21882 59.9097 11.9338 62.5537 15.0278 62.5537H15.0388C18.0678 62.5477 20.7788 59.7737 20.7478 56.7097C20.7168 53.6287 18.0428 50.9677 14.9868 50.9677ZM14.9998 59.6667H15.0558C16.6328 59.6367 17.8978 58.3087 17.8748 56.7067C17.8528 55.1317 16.5238 53.8507 14.9138 53.8507L14.8348 53.8517C13.2978 53.8917 12.0308 55.2747 12.0688 56.8727C12.1048 58.4127 13.4198 59.6667 14.9998 59.6667ZM14.9868 50.9677V51.2337C17.8848 51.2337 20.4518 53.7947 20.4808 56.7127C20.4958 58.1147 19.8918 59.5377 18.8268 60.6167C17.7798 61.6757 16.3998 62.2847 15.0278 62.2877C12.0888 62.2877 9.48382 59.7507 9.45282 56.8587C9.43782 55.4427 10.0368 54.0117 11.0968 52.9337C12.1488 51.8637 13.5538 51.2437 14.9528 51.2337L14.9868 50.9677Z" fill="#7C7958"/>
</g>
</svg>
