<svg width="154" height="110" viewBox="0 0 154 110" fill="none" xmlns="http://www.w3.org/2000/svg">
<g opacity="0.360001">
<path d="M20.373 95.8442C24.662 95.8442 28.951 95.8002 33.239 95.8702C34.546 95.8922 34.975 95.4952 34.953 94.1722C34.903 91.1832 34.762 88.1822 35.09 85.2032C35.862 78.1752 38.289 71.7532 42.383 65.9852C43.009 65.1032 42.752 64.7572 41.917 64.3082C28.179 56.9332 10.238 64.6492 6.044 79.7042C4.758 84.3202 5.269 89.0112 5.165 93.6802C5.124 95.5422 5.458 95.8342 7.357 95.8392C11.696 95.8522 16.034 95.8432 20.373 95.8442ZM132.963 94.0292C137.301 94.0292 141.64 94.0292 145.979 94.0302C147.113 94.0302 148.197 93.8352 148.184 92.4112C148.146 88.3792 148.595 84.3192 147.865 80.3202C144.679 62.8762 125.458 54.6012 110.53 62.9182C109.515 63.4832 109.472 63.9542 110.171 64.8562C112.35 67.6682 114.058 70.7612 115.439 74.0422C117.907 79.9022 118.717 86.0302 118.429 92.3302C118.37 93.6152 118.747 94.0842 120.097 94.0602C124.385 93.9822 128.674 94.0312 132.963 94.0292ZM76.605 103.921C87.536 103.921 98.467 103.925 109.397 103.917C112.162 103.915 113.171 102.893 113.178 100.116C113.188 96.5222 113.151 92.9292 113.185 89.3352C113.216 86.0652 112.773 82.8612 111.829 79.7442C106.317 61.5272 88.722 50.7742 69.921 54.0982C53.005 57.0892 40.346 72.0212 40.198 89.1782C40.167 92.7212 40.198 96.2652 40.188 99.8092C40.179 102.984 41.09 103.918 44.263 103.92C55.044 103.923 65.825 103.921 76.605 103.921ZM0 82.4502C0.901 77.5882 2.521 73.0232 5.464 68.9832C14.653 56.3702 31.361 52.5742 45.104 60.0522C46.211 60.6542 46.844 60.6182 47.776 59.7312C63.344 44.9102 87.717 44.2962 103.989 58.3112C105.152 59.3132 105.96 59.5702 107.438 58.6932C126.544 47.3532 150.846 59.3622 153.333 81.4212C153.783 85.4142 153.565 89.5032 153.403 93.5372C153.27 96.8482 150.211 99.2712 146.505 99.2802C137.921 99.3022 129.338 99.2872 120.754 99.2882C118.517 99.2892 118.517 99.2902 118.426 101.545C118.26 105.673 114.754 109.085 110.466 109.167C106.724 109.239 102.98 109.189 99.237 109.189C80.772 109.189 62.306 109.192 43.841 109.187C38.945 109.186 36.017 106.85 34.978 102.03C34.778 101.102 34.236 101.115 33.572 101.115C29.73 101.115 25.887 101.114 22.044 101.114C17.203 101.114 12.36 101.029 7.522 101.141C3.809 101.227 1.304 99.7102 0 96.2292V82.4502Z" fill="#F1EBDF"/>
<path d="M75.8404 5.26404C66.0344 5.28004 58.2274 13.096 58.1244 22.804C58.0324 31.548 64.9964 40.284 75.9664 40.366C85.6134 40.438 93.5894 32.345 93.5834 22.829C93.5764 13.207 85.5374 5.24904 75.8404 5.26404ZM75.8164 45.665C63.2434 45.663 52.7184 35.405 52.7754 22.887C52.8354 9.56604 63.6314 0.0110381 75.8274 3.8147e-05C88.4954 -0.0109619 98.9344 10.361 98.8974 22.896C98.8614 35.328 88.3804 45.666 75.8164 45.665Z" fill="#F1EBDF"/>
<path d="M135.644 33.2854C135.636 26.3214 130.05 20.8084 123.014 20.8214C116.125 20.8344 110.37 26.4444 110.335 33.1804C110.299 40.1054 116.061 45.8284 123.053 45.8154C130.065 45.8014 135.652 40.2414 135.644 33.2854ZM140.944 33.2824C140.974 43.0614 132.962 51.0664 123.125 51.0854C113.19 51.1034 105.073 43.1224 105.066 33.3284C105.06 23.5614 113.095 15.5674 122.932 15.5534C132.954 15.5394 140.913 23.3734 140.944 33.2824Z" fill="#F1EBDF"/>
<path d="M17.7246 34.523C17.7226 41.486 23.3096 47.026 30.3276 47.021C37.2836 47.016 43.0296 41.368 43.0326 34.531C43.0366 27.698 37.2706 22.02 30.3376 22.029C23.3026 22.038 17.7266 27.561 17.7246 34.523ZM12.4236 34.537C12.4116 24.748 20.4126 16.774 30.2606 16.759C40.2076 16.743 48.2986 24.708 48.3026 34.519C48.3056 44.286 40.2686 52.276 30.4256 52.291C20.4286 52.306 12.4356 44.423 12.4236 34.537Z" fill="#F1EBDF"/>
</g>
</svg>
