<svg width="100" height="106" viewBox="0 0 100 106" fill="none" xmlns="http://www.w3.org/2000/svg">
<g opacity="0.440002">
<path d="M61.9232 80.0303C56.7882 80.0303 52.3322 76.1983 51.5602 71.1163L51.5482 71.0423L51.5152 70.9733C51.3652 70.6753 51.2902 70.3683 51.2902 70.0613C51.2902 66.5363 48.4222 63.6693 44.8972 63.6693C41.3712 63.6693 38.5042 66.5363 38.5042 70.0613C38.5042 70.1973 38.4892 70.3383 38.4602 70.4793C37.9402 75.9463 33.4482 80.0303 28.0062 80.0303C22.8712 80.0303 18.4152 76.1983 17.6422 71.1163L17.6302 71.0423L17.5972 70.9733C17.4472 70.6753 17.3722 70.3683 17.3722 70.0613C17.3722 66.5363 14.5042 63.6693 10.9792 63.6693C7.4532 63.6693 4.5862 66.5363 4.5862 70.0613C4.5862 71.0883 3.8122 71.9583 2.7852 72.0863C2.6582 72.1033 2.5982 72.1133 2.5332 72.1133C1.4022 72.1133 0.481201 71.1923 0.481201 70.0613C0.481201 64.2733 5.1912 59.5643 10.9792 59.5643C16.1142 59.5643 20.5702 63.3963 21.3432 68.4783L21.3552 68.5533L21.3892 68.6223C21.5382 68.9193 21.6132 69.2253 21.6132 69.5333C21.6132 73.0583 24.4812 75.9263 28.0062 75.9263C31.5312 75.9263 34.3992 73.0583 34.3992 69.5333C34.3992 69.3933 34.4132 69.2523 34.4422 69.1133C34.9632 63.6473 39.4552 59.5643 44.8972 59.5643C50.0312 59.5643 54.4872 63.3963 55.2612 68.4783L55.2732 68.5533L55.3072 68.6213C55.4552 68.9193 55.5302 69.2253 55.5302 69.5333C55.5302 73.0583 58.3982 75.9263 61.9232 75.9263C65.4482 75.9263 68.3172 73.0583 68.3172 69.5333C68.3172 69.3933 68.3312 69.2523 68.3602 69.1133C68.8802 63.6473 73.3712 59.5643 78.8142 59.5643C84.6022 59.5643 89.3122 64.2733 89.3122 70.0613C89.3122 71.1923 88.3912 72.1133 87.2592 72.1133C86.1282 72.1133 85.2072 71.1923 85.2072 70.0613C85.2072 66.5363 82.3392 63.6693 78.8142 63.6693C75.2882 63.6693 72.4212 66.5363 72.4212 70.0613C72.4212 70.2053 72.4042 70.3453 72.3772 70.4813C71.8572 75.9463 67.3642 80.0303 61.9232 80.0303Z" fill="#F1EBDF"/>
<path d="M78.814 59.0827C73.113 59.0827 68.416 63.4517 67.888 69.0167C67.854 69.1837 67.835 69.3557 67.835 69.5327C67.835 72.7917 65.184 75.4437 61.923 75.4437C58.664 75.4437 56.012 72.7917 56.012 69.5327C56.012 69.1257 55.908 68.7467 55.738 68.4057C54.935 63.1367 50.387 59.0827 44.897 59.0827C39.195 59.0827 34.498 63.4517 33.97 69.0167C33.936 69.1837 33.918 69.3557 33.918 69.5327C33.918 72.7917 31.266 75.4437 28.006 75.4437C24.746 75.4437 22.095 72.7917 22.095 69.5327C22.095 69.1257 21.991 68.7467 21.82 68.4057C21.018 63.1367 16.47 59.0827 10.979 59.0827C4.925 59.0827 0 64.0067 0 70.0607C0 71.4607 1.134 72.5947 2.533 72.5947C2.641 72.5947 2.742 72.5767 2.845 72.5627C4.096 72.4087 5.067 71.3537 5.067 70.0607C5.067 66.8017 7.719 64.1497 10.979 64.1497C14.239 64.1497 16.891 66.8017 16.891 70.0607C16.891 70.4687 16.996 70.8467 17.166 71.1877C17.968 76.4567 22.517 80.5117 28.006 80.5117C33.707 80.5117 38.404 76.1417 38.932 70.5757C38.966 70.4097 38.985 70.2377 38.985 70.0607C38.985 66.8017 41.637 64.1497 44.897 64.1497C48.157 64.1497 50.809 66.8017 50.809 70.0607C50.809 70.4687 50.913 70.8467 51.083 71.1877C51.886 76.4567 56.434 80.5117 61.923 80.5117C67.625 80.5117 72.322 76.1417 72.85 70.5757C72.884 70.4097 72.903 70.2377 72.903 70.0607C72.903 66.8017 75.554 64.1497 78.814 64.1497C82.074 64.1497 84.726 66.8017 84.726 70.0607C84.726 71.4597 85.86 72.5937 87.259 72.5947C88.659 72.5947 89.793 71.4607 89.793 70.0607C89.793 64.0067 84.868 59.0827 78.814 59.0827ZM78.814 60.0457C84.337 60.0457 88.83 64.5387 88.83 70.0607C88.83 70.9267 88.126 71.6317 87.26 71.6317C86.394 71.6307 85.689 70.9267 85.689 70.0607C85.689 66.2707 82.605 63.1867 78.814 63.1867C75.023 63.1867 71.94 66.2707 71.94 70.0607C71.94 70.1657 71.928 70.2737 71.906 70.3827L71.896 70.4337L71.891 70.4847C71.4 75.6527 67.115 79.5487 61.923 79.5487C57.025 79.5487 52.774 75.8917 52.035 71.0427L52.013 70.8937L51.945 70.7587C51.829 70.5247 51.772 70.2967 51.772 70.0607C51.772 66.2707 48.688 63.1867 44.897 63.1867C41.106 63.1867 38.022 66.2707 38.022 70.0607C38.022 70.1657 38.011 70.2737 37.989 70.3827L37.978 70.4337L37.973 70.4847C37.483 75.6527 33.198 79.5487 28.006 79.5487C23.107 79.5487 18.856 75.8917 18.118 71.0427L18.095 70.8937L18.028 70.7587C17.911 70.5237 17.854 70.2957 17.854 70.0607C17.854 66.2707 14.77 63.1867 10.979 63.1867C7.188 63.1867 4.104 66.2707 4.104 70.0607C4.104 70.8457 3.512 71.5097 2.72 71.6077L2.648 71.6177C2.61 71.6227 2.573 71.6307 2.533 71.6317C1.668 71.6317 0.963005 70.9267 0.963005 70.0607C0.963005 64.5387 5.456 60.0457 10.979 60.0457C15.879 60.0457 20.13 63.7027 20.868 68.5517L20.891 68.7017L20.959 68.8387C21.074 69.0667 21.132 69.2997 21.132 69.5327C21.132 73.3227 24.215 76.4067 28.006 76.4067C31.797 76.4067 34.881 73.3227 34.881 69.5327C34.881 69.4257 34.892 69.3167 34.914 69.2097L34.924 69.1587L34.929 69.1077C35.419 63.9417 39.705 60.0457 44.897 60.0457C49.796 60.0457 54.047 63.7027 54.786 68.5517L54.809 68.7007L54.876 68.8367C54.991 69.0657 55.049 69.2997 55.049 69.5327C55.049 73.3227 58.133 76.4067 61.923 76.4067C65.714 76.4067 68.798 73.3227 68.798 69.5327C68.798 69.4257 68.809 69.3167 68.831 69.2107L68.842 69.1597L68.847 69.1077C69.337 63.9417 73.622 60.0457 78.814 60.0457Z" fill="#7C7958"/>
<path d="M49.9224 38.511H77.3994V25.386H49.9224V38.511ZM79.4514 53.875C78.3194 53.875 77.3984 52.954 77.3984 51.822V42.615H49.9224V51.822C49.9224 52.954 49.0014 53.875 47.8704 53.875C46.7384 53.875 45.8174 52.954 45.8174 51.822V10.98C45.8174 5.19098 50.7715 0.480957 56.8605 0.480957C62.9495 0.480957 67.9025 5.19098 67.9025 10.98C67.9025 12.111 66.9814 13.032 65.8514 13.032C64.7194 13.032 63.7985 12.111 63.7985 10.98C63.7985 7.45398 60.6865 4.58594 56.8605 4.58594C53.0345 4.58594 49.9224 7.45398 49.9224 10.98V21.281H77.3984V10.98C77.3984 5.19098 82.3524 0.480957 88.4424 0.480957C94.5304 0.480957 99.4834 5.19098 99.4834 10.98C99.4834 12.111 98.5624 13.032 97.4324 13.032C96.3004 13.032 95.3794 12.111 95.3794 10.98C95.3794 7.45398 92.2684 4.58594 88.4424 4.58594C84.6164 4.58594 81.5034 7.45398 81.5034 10.98V51.822C81.5034 52.954 80.5824 53.875 79.4514 53.875Z" fill="#F1EBDF"/>
<path d="M50.4044 25.8669H76.9185V38.0291H50.4044V25.8669ZM88.4424 0C82.0874 0 76.9174 4.92598 76.9174 10.98V20.8H50.4044V10.98C50.4044 7.71998 53.3005 5.06689 56.8605 5.06689C60.4215 5.06689 63.3174 7.71998 63.3174 10.98C63.3174 12.378 64.4505 13.5139 65.8505 13.5139C67.2495 13.5139 68.3844 12.378 68.3844 10.98C68.3844 4.92598 63.2145 0 56.8605 0C50.5055 0 45.3364 4.92598 45.3364 10.98V51.823C45.3364 53.222 46.4704 54.3569 47.8704 54.3569C49.2694 54.3569 50.4044 53.222 50.4044 51.823V43.0969H76.9174V51.823C76.9174 53.222 78.0514 54.3569 79.4514 54.3569C80.8514 54.3569 81.9844 53.222 81.9844 51.823V10.98C81.9844 7.71998 84.8824 5.06689 88.4424 5.06689C92.0024 5.06689 94.8984 7.71998 94.8984 10.98C94.8984 12.378 96.0324 13.5139 97.4324 13.5139C98.8324 13.5139 99.9655 12.378 99.9655 10.98C99.9655 4.92598 94.7964 0 88.4424 0ZM49.4414 38.9919H50.4044H76.9174H77.8804V38.0291V25.8669V24.9041H76.9174H50.4044H49.4414V25.8669V38.0291V38.9919ZM88.4424 0.962891C94.2654 0.962891 99.0024 5.45698 99.0024 10.98C99.0024 11.846 98.2984 12.551 97.4324 12.551C96.5664 12.551 95.8615 11.846 95.8615 10.98C95.8615 7.18898 92.5334 4.104 88.4424 4.104C84.3504 4.104 81.0214 7.18898 81.0214 10.98V51.823C81.0214 52.689 80.3174 53.394 79.4514 53.394C78.5854 53.394 77.8804 52.689 77.8804 51.823V43.0969V42.134H76.9174H50.4044H49.4414V43.0969V51.823C49.4414 52.689 48.7364 53.394 47.8704 53.394C47.0044 53.394 46.2994 52.689 46.2994 51.823V10.98C46.2994 5.45698 51.0375 0.962891 56.8605 0.962891C62.6835 0.962891 67.4214 5.45698 67.4214 10.98C67.4214 11.846 66.7165 12.551 65.8505 12.551C64.9845 12.551 64.2804 11.846 64.2804 10.98C64.2804 7.18898 60.9525 4.104 56.8605 4.104C52.7695 4.104 49.4414 7.18898 49.4414 10.98V20.8V21.7629H50.4044H76.9174H77.8804V20.8V10.98C77.8804 5.45698 82.6184 0.962891 88.4424 0.962891Z" fill="#7C7958"/>
<path d="M61.9232 105.034C56.7882 105.034 52.3322 101.201 51.5602 96.1182L51.5482 96.0432L51.5142 95.9742C51.3652 95.6792 51.2902 95.3722 51.2902 95.0642C51.2902 91.5392 48.4222 88.6722 44.8972 88.6722C41.3712 88.6722 38.5042 91.5392 38.5042 95.0642C38.5042 95.2012 38.4892 95.3422 38.4602 95.4832C37.9402 100.95 33.4482 105.034 28.0062 105.034C22.8712 105.034 18.4152 101.201 17.6422 96.1182L17.6302 96.0432L17.5962 95.9742C17.4472 95.6792 17.3722 95.3722 17.3722 95.0642C17.3722 91.5392 14.5042 88.6722 10.9792 88.6722C7.4532 88.6722 4.5862 91.5392 4.5862 95.0642C4.5862 96.0922 3.8122 96.9622 2.7852 97.0902C2.6532 97.1062 2.5952 97.1162 2.5332 97.1162C1.4022 97.1162 0.481201 96.1952 0.481201 95.0642C0.481201 92.4742 1.4472 89.9792 3.2022 88.0392C5.1972 85.8332 8.0322 84.5672 10.9792 84.5672C16.1142 84.5672 20.5702 88.4002 21.3432 93.4822L21.3552 93.5582L21.3892 93.6272C21.5382 93.9222 21.6132 94.2272 21.6132 94.5352C21.6132 98.0612 24.4812 100.93 28.0062 100.93C31.5312 100.93 34.3992 98.0612 34.3992 94.5352C34.3992 94.3972 34.4132 94.2562 34.4422 94.1172C34.9632 88.6512 39.4542 84.5672 44.8972 84.5672C50.0312 84.5672 54.4872 88.4002 55.2612 93.4822L55.2732 93.5572L55.3072 93.6262C55.4552 93.9222 55.5302 94.2282 55.5302 94.5352C55.5302 98.0612 58.3982 100.93 61.9232 100.93C65.4482 100.93 68.3172 98.0612 68.3172 94.5352C68.3172 94.3972 68.3312 94.2572 68.3602 94.1172C68.8802 88.6512 73.3712 84.5672 78.8142 84.5672C81.9392 84.5672 84.8822 85.9522 86.8892 88.3662C88.4512 90.2472 89.3122 92.6262 89.3122 95.0642C89.3122 96.1952 88.3912 97.1162 87.2592 97.1162C86.1282 97.1162 85.2072 96.1952 85.2072 95.0642C85.2072 91.5392 82.3392 88.6722 78.8142 88.6722C75.2882 88.6722 72.4212 91.5392 72.4212 95.0642C72.4212 95.2092 72.4042 95.3492 72.3772 95.4852C71.8572 100.95 67.3642 105.034 61.9232 105.034Z" fill="#F1EBDF"/>
<path d="M78.814 84.0856C73.112 84.0856 68.416 88.4546 67.888 94.0206C67.854 94.1876 67.835 94.3596 67.835 94.5356C67.835 97.7956 65.184 100.448 61.923 100.448C58.664 100.448 56.012 97.7956 56.012 94.5356C56.012 94.1296 55.908 93.7506 55.738 93.4096C54.935 88.1396 50.387 84.0856 44.897 84.0856C39.195 84.0856 34.498 88.4546 33.97 94.0206C33.936 94.1876 33.918 94.3596 33.918 94.5356C33.918 97.7956 31.266 100.448 28.006 100.448C24.746 100.448 22.095 97.7956 22.095 94.5356C22.095 94.1286 21.991 93.7506 21.82 93.4096C21.018 88.1396 16.47 84.0856 10.979 84.0856C7.753 84.0856 4.856 85.4926 2.845 87.7156C1.083 89.6636 0 92.2366 0 95.0646C0 96.4636 1.134 97.5976 2.533 97.5976C2.641 97.5976 2.742 97.5796 2.845 97.5666C4.096 97.4116 5.067 96.3576 5.067 95.0646C5.067 91.8036 7.719 89.1536 10.979 89.1536C14.239 89.1536 16.891 91.8036 16.891 95.0646C16.891 95.4706 16.996 95.8506 17.166 96.1906C17.968 101.461 22.516 105.516 28.006 105.516C33.708 105.516 38.404 101.146 38.932 95.5796C38.966 95.4146 38.985 95.2406 38.985 95.0646C38.985 91.8036 41.637 89.1536 44.897 89.1536C48.157 89.1536 50.809 91.8036 50.809 95.0646C50.809 95.4706 50.913 95.8506 51.083 96.1906C51.886 101.461 56.434 105.516 61.923 105.516C67.625 105.516 72.322 101.146 72.85 95.5796C72.884 95.4146 72.903 95.2406 72.903 95.0646C72.903 91.8036 75.554 89.1536 78.814 89.1536C82.074 89.1536 84.726 91.8036 84.726 95.0646C84.726 96.4636 85.86 97.5976 87.259 97.5976C88.659 97.5976 89.793 96.4636 89.793 95.0646C89.793 92.4036 88.84 89.9616 87.259 88.0586C85.244 85.6336 82.207 84.0856 78.814 84.0856ZM78.814 85.0486C81.796 85.0486 84.604 86.3706 86.518 88.6736C88.009 90.4686 88.83 92.7376 88.83 95.0646C88.83 95.9306 88.126 96.6346 87.259 96.6346C86.393 96.6346 85.689 95.9306 85.689 95.0646C85.689 91.2736 82.605 88.1896 78.814 88.1896C75.023 88.1896 71.94 91.2736 71.94 95.0646C71.94 95.1696 71.928 95.2786 71.906 95.3856L71.896 95.4366L71.891 95.4886C71.401 100.656 67.116 104.553 61.923 104.553C57.025 104.553 52.774 100.896 52.035 96.0456L52.013 95.8956L51.945 95.7606C51.83 95.5316 51.772 95.2966 51.772 95.0646C51.772 91.2736 48.688 88.1896 44.897 88.1896C41.106 88.1896 38.022 91.2736 38.022 95.0646C38.022 95.1696 38.011 95.2786 37.989 95.3856L37.978 95.4366L37.973 95.4886C37.483 100.656 33.198 104.553 28.006 104.553C23.107 104.553 18.856 100.896 18.118 96.0456L18.095 95.8956L18.027 95.7606C17.912 95.5306 17.854 95.2956 17.854 95.0646C17.854 91.2736 14.77 88.1896 10.979 88.1896C7.188 88.1896 4.104 91.2736 4.104 95.0646C4.104 95.8486 3.51201 96.5136 2.72501 96.6116L2.645 96.6216C2.609 96.6276 2.572 96.6346 2.533 96.6346C1.668 96.6346 0.963005 95.9306 0.963005 95.0646C0.963005 92.5936 1.88501 90.2126 3.55901 88.3626C5.46401 86.2566 8.168 85.0486 10.979 85.0486C15.879 85.0486 20.13 88.7056 20.868 93.5546L20.891 93.7056L20.959 93.8416C21.074 94.0696 21.132 94.3036 21.132 94.5356C21.132 98.3266 24.215 101.411 28.006 101.411C31.797 101.411 34.881 98.3266 34.881 94.5356C34.881 94.4296 34.892 94.3206 34.914 94.2126L34.924 94.1626L34.929 94.1116C35.419 88.9446 39.705 85.0486 44.897 85.0486C49.796 85.0486 54.047 88.7056 54.786 93.5546L54.809 93.7046L54.876 93.8406C54.991 94.0696 55.049 94.3036 55.049 94.5356C55.049 98.3266 58.133 101.411 61.923 101.411C65.714 101.411 68.798 98.3266 68.798 94.5356C68.798 94.4286 68.81 94.3206 68.832 94.2126L68.842 94.1626L68.847 94.1116C69.337 88.9446 73.622 85.0486 78.814 85.0486Z" fill="#7C7958"/>
</g>
</svg>
