<svg width="121" height="103" viewBox="0 0 121 103" fill="none" xmlns="http://www.w3.org/2000/svg">
<g opacity="0.440002">
<path d="M86.7537 3.39903C86.3457 3.39903 85.8887 3.44003 85.5857 3.74703C85.3487 3.98703 85.2417 4.34903 85.2487 4.88703C85.2907 8.35003 85.2917 12.063 85.2527 16.573C85.2447 17.445 85.5927 17.929 86.4557 18.244C89.4787 19.343 92.7127 20.532 95.8787 21.771C96.1787 21.887 96.4067 21.942 96.5967 21.942C96.7937 21.942 96.9537 21.881 97.0727 21.761C97.2827 21.548 97.3207 21.2 97.3157 20.707C97.2927 18.825 97.2967 16.943 97.3007 15.061L97.3037 12.875L97.2977 10.604C97.2907 8.71003 97.2837 6.81504 97.3207 4.92004C97.3327 4.36504 97.2257 3.99303 96.9867 3.75003C96.7487 3.50603 96.3967 3.39803 95.8467 3.39803C94.3077 3.42003 92.8417 3.43103 91.3757 3.43103C89.8587 3.43103 88.3427 3.42003 86.8267 3.39903H86.7537ZM24.6697 71.225C24.0657 71.225 23.6607 71.351 23.3937 71.621C23.1157 71.902 22.9957 72.329 23.0037 73.004C23.0377 75.876 23.0317 78.746 23.0267 81.617L23.0227 84.932L23.0247 88.224C23.0287 91.227 23.0327 94.23 23.0087 97.233C23.0037 97.82 23.1117 98.192 23.3577 98.44C23.5957 98.679 23.9547 98.792 24.4877 98.792C26.6667 98.77 28.8067 98.76 30.9457 98.76C33.1137 98.76 35.2797 98.77 37.4477 98.788C37.9947 98.788 38.3427 98.678 38.5757 98.446C38.8147 98.206 38.9207 97.856 38.9187 97.309C38.8967 88.158 38.8987 80.15 38.9227 72.829C38.9247 72.255 38.8057 71.868 38.5487 71.61C38.2887 71.349 37.9067 71.232 37.3107 71.232C35.1097 71.249 32.9467 71.26 30.7827 71.26C28.7637 71.26 26.7457 71.251 24.7277 71.225H24.6697ZM67.7957 79.989C67.2747 79.989 66.9237 80.098 66.6937 80.333C66.4577 80.573 66.3567 80.923 66.3657 81.469C66.3977 83.38 66.3907 85.293 66.3847 87.204L66.3807 89.417L66.3857 91.629C66.3917 93.5 66.3987 95.37 66.3637 97.239C66.3527 97.838 66.4507 98.2 66.6937 98.447C66.9257 98.683 67.2827 98.794 67.8167 98.794C69.9197 98.769 71.9757 98.758 74.0307 98.758C76.1567 98.758 78.2817 98.77 80.4087 98.79C81.0127 98.79 81.3737 98.679 81.6187 98.433C81.8607 98.189 81.9727 97.819 81.9697 97.268C81.9417 92.528 81.9407 87.514 81.9647 81.491C81.9677 80.948 81.8557 80.583 81.6147 80.339C81.3777 80.102 81.0287 79.991 80.5187 79.991C78.3837 80.005 76.2727 80.013 74.1607 80.013C72.0487 80.013 69.9377 80.005 67.8257 79.989H67.7957ZM93.1397 98.757C95.1667 98.757 97.1927 98.769 99.2197 98.795H99.2227C99.8327 98.795 100.202 98.679 100.442 98.434C100.694 98.176 100.796 97.799 100.783 97.172C100.745 95.351 100.753 93.497 100.76 91.704L100.765 89.47L100.76 87.211C100.753 85.344 100.746 83.416 100.783 81.52C100.795 80.962 100.688 80.588 100.448 80.343C100.206 80.097 99.8467 79.987 99.2847 79.987C97.1877 80.005 95.1297 80.013 93.0737 80.013C90.9877 80.013 88.9027 80.004 86.8177 79.988H86.8147C86.3877 79.988 85.9057 80.029 85.5957 80.341C85.3557 80.584 85.2457 80.95 85.2497 81.496C85.2877 86.698 85.2877 92.008 85.2497 97.278C85.2457 97.841 85.3507 98.201 85.5917 98.443C85.8297 98.683 86.1877 98.791 86.7517 98.791C88.9097 98.77 91.0247 98.757 93.1397 98.757ZM55.4227 83.144C55.4277 87.795 55.4327 92.444 55.3957 97.093C55.3897 97.763 55.5077 98.183 55.7767 98.455C56.0197 98.7 56.3767 98.814 56.8987 98.814C56.9747 98.814 57.0557 98.811 57.1397 98.806C57.8807 98.764 58.6257 98.744 59.3697 98.744C60.1097 98.744 60.8497 98.764 61.5867 98.806C61.6637 98.811 61.7357 98.813 61.8047 98.813C62.2957 98.813 62.6317 98.704 62.8647 98.469C63.1957 98.135 63.2367 97.603 63.2327 97.126C63.1977 92.696 63.2037 88.265 63.2097 83.836L63.2137 80.339C63.2157 77.67 64.2167 76.676 66.9067 76.674L83.5697 76.67L100.234 76.674C102.895 76.676 103.932 77.706 103.934 80.346L103.937 83.304C103.942 87.956 103.947 92.607 103.92 97.257C103.916 97.852 104.023 98.227 104.268 98.473C104.493 98.7 104.822 98.805 105.302 98.805L105.441 98.802C106.277 98.771 107.116 98.753 107.954 98.753C108.768 98.753 109.582 98.77 110.394 98.803L110.558 98.807C111.095 98.807 111.452 98.679 111.681 98.404C111.893 98.15 111.987 97.781 111.987 97.207C111.963 75.322 111.964 53.566 111.988 32.542C111.99 31.518 111.607 30.977 110.623 30.613C96.5457 25.393 82.4757 20.158 68.4047 14.922L57.2617 10.777C56.6787 10.56 56.2927 10.417 56.0197 10.417C55.3957 10.417 55.3957 10.992 55.3957 12.036L55.3947 54.682H55.4197L55.4227 83.144ZM15.2677 98.753C16.1277 98.753 16.9857 98.768 17.8437 98.81C17.9337 98.815 18.0207 98.817 18.1017 98.817C18.6777 98.817 19.0657 98.697 19.3237 98.437C19.6087 98.15 19.7337 97.699 19.7287 96.975C19.6857 90.252 19.6917 83.415 19.6987 76.802L19.7027 71.977C19.7047 69.179 20.9107 67.983 23.7347 67.977C25.9887 67.971 28.2437 67.969 30.4977 67.969C33.0107 67.969 35.5237 67.972 38.0377 67.976C41.0877 67.979 42.2227 69.121 42.2237 72.186L42.2257 77.158C42.2297 83.793 42.2337 90.426 42.2047 97.061C42.2017 97.557 42.2457 98.11 42.5867 98.453C42.8327 98.7 43.1967 98.815 43.7307 98.815L43.9127 98.81C44.7467 98.775 45.5817 98.764 46.4167 98.764C47.0097 98.764 47.6047 98.769 48.1977 98.775C48.7937 98.78 49.3887 98.786 49.9837 98.786H50.1217C51.9317 98.784 52.0397 98.672 52.0397 96.804L52.0427 33.9C52.0507 33.485 52.0577 33.093 51.8157 32.846C51.6907 32.718 51.5167 32.653 51.2997 32.653C51.0997 32.653 50.8567 32.708 50.5567 32.82C37.6347 37.663 24.7017 42.472 11.7657 47.274C10.9687 47.569 10.6447 48.029 10.6447 48.863C10.6607 65.033 10.6637 81.202 10.6407 97.371C10.6397 97.892 10.7467 98.243 10.9767 98.473C11.2027 98.7 11.5307 98.8 12.0407 98.8L12.1417 98.799C13.1827 98.775 14.2257 98.753 15.2677 98.753ZM25.2597 102.082C21.6607 102.082 18.0617 102.044 14.4617 102.004L9.75074 101.957C7.93574 101.941 7.49174 101.491 7.49174 99.665L7.48874 50.917C7.48874 49.779 7.48874 49.208 6.85774 49.208C6.58574 49.208 6.21574 49.347 5.60374 49.578L5.05275 49.787C4.26775 50.084 3.48274 50.381 2.68774 50.651C2.38674 50.753 2.09574 50.805 1.82474 50.805C1.12974 50.805 0.614745 50.472 0.373745 49.867C0.202745 49.437 0.196739 49.019 0.356739 48.657C0.547739 48.225 0.965738 47.877 1.56574 47.65C5.21974 46.268 8.87975 44.907 12.5397 43.545L22.8357 39.71C32.0887 36.26 41.3417 32.811 50.6037 29.387C51.6837 28.988 52.1007 28.39 52.0907 27.257C52.0487 21.997 52.0467 16.466 52.0867 10.349C52.0937 9.19903 51.6617 8.58603 50.6437 8.30003C49.8007 8.06303 48.9907 7.72103 48.2327 7.39203C47.2577 6.96803 46.8457 6.15203 47.1817 5.31303C47.4417 4.66103 47.9717 4.28703 48.6347 4.28703C48.8607 4.28703 49.0967 4.33103 49.3367 4.41803C52.5637 5.58703 55.7787 6.78904 58.9937 7.99004L80.2007 15.911C80.7327 16.109 81.0717 16.231 81.3277 16.231C81.9537 16.231 81.9547 15.64 81.9557 14.66V10.071C81.9547 7.70403 81.9527 5.33603 81.9607 2.97003C81.9677 0.652032 82.3807 0.245034 84.7167 0.244034L91.8567 0.241035L98.2717 0.246033C100.067 0.249033 100.517 0.673031 100.564 2.41503C100.621 4.49303 100.614 6.60904 100.608 8.65604L100.605 10.988L100.611 13.713C100.62 16.365 100.629 19.107 100.582 21.802C100.56 23.054 101.002 23.706 102.16 24.125C105.816 25.448 109.458 26.81 113.099 28.173C114.927 28.857 116.754 29.542 118.584 30.22C119.464 30.546 120.013 30.881 120.214 31.626C120.332 32.066 120.234 32.535 119.945 32.912C119.657 33.289 119.23 33.504 118.774 33.504C118.438 33.494 118.135 33.395 117.842 33.299C116.926 33.003 116.388 32.829 116.001 32.829C115.58 32.829 115.325 33.045 115.221 33.493C115.137 33.856 115.137 34.39 115.137 35.199L115.136 99.494C115.136 101.606 114.794 101.952 112.694 101.957C108.323 101.97 103.953 101.991 99.5817 102.012C92.3407 102.046 85.0997 102.082 77.8587 102.082C74.3837 102.082 70.9097 102.074 67.4357 102.053C59.6027 102.009 51.7687 101.979 43.9367 101.968H43.2867C40.3027 101.968 37.3177 101.997 34.3337 102.025C31.4017 102.053 28.4687 102.081 25.5367 102.082H25.2597Z" fill="#F1EBDF"/>
<path d="M67.8165 98.5522C66.8395 98.5522 66.5865 98.1762 66.6045 97.2432C66.6535 94.6352 66.6215 92.0252 66.6215 89.4162C66.6215 86.7652 66.6495 84.1142 66.6055 81.4642C66.5905 80.5602 66.8985 80.2292 67.7955 80.2292H67.8235C69.9445 80.2452 72.0655 80.2532 74.1855 80.2532C76.2895 80.2532 78.3935 80.2462 80.4965 80.2312H80.5195C81.4265 80.2312 81.7275 80.6072 81.7245 81.4892C81.7025 86.7492 81.6975 92.0092 81.7285 97.2682C81.7345 98.2352 81.3795 98.5482 80.4495 98.5482C80.4365 98.5482 80.4235 98.5482 80.4105 98.5482C78.2925 98.5282 76.1745 98.5172 74.0565 98.5172C71.9915 98.5172 69.9265 98.5282 67.8625 98.5522C67.8465 98.5522 67.8315 98.5522 67.8165 98.5522ZM93.0745 80.2542C95.1315 80.2542 97.1885 80.2452 99.2455 80.2272C99.2585 80.2272 99.2705 80.2272 99.2835 80.2272C100.218 80.2272 100.562 80.5422 100.542 81.5152C100.49 84.1662 100.524 86.8182 100.524 89.4702C100.525 92.0392 100.489 94.6092 100.543 97.1772C100.563 98.1562 100.299 98.5532 99.2745 98.5532C99.2575 98.5532 99.2405 98.5532 99.2225 98.5532C97.1925 98.5272 95.1625 98.5162 93.1315 98.5162C91.0185 98.5162 88.9055 98.5282 86.7935 98.5492C86.7775 98.5492 86.7625 98.5492 86.7475 98.5492C85.8225 98.5492 85.4835 98.2562 85.4905 97.2792C85.5285 92.0172 85.5285 86.7552 85.4905 81.4932C85.4835 80.4972 85.8695 80.2282 86.7765 80.2282C86.7895 80.2282 86.8025 80.2292 86.8155 80.2292C88.9015 80.2452 90.9875 80.2542 93.0745 80.2542ZM24.4875 98.5502C23.5155 98.5502 23.2425 98.1642 23.2495 97.2342C23.2825 93.1342 23.2635 89.0322 23.2635 84.9312C23.2625 80.9542 23.2915 76.9772 23.2445 73.0012C23.2315 71.9132 23.5475 71.4652 24.6695 71.4652C24.6875 71.4652 24.7055 71.4652 24.7245 71.4662C26.7475 71.4912 28.7705 71.5012 30.7935 71.5012C32.9545 71.5012 35.1155 71.4902 37.2755 71.4732C37.2875 71.4732 37.2995 71.4722 37.3115 71.4722C38.2785 71.4722 38.6855 71.7942 38.6815 72.8282C38.6545 80.9882 38.6585 89.1492 38.6785 97.3102C38.6805 98.2002 38.3825 98.5462 37.4775 98.5462H37.4495C35.2675 98.5292 33.0865 98.5192 30.9055 98.5192C28.7785 98.5192 26.6515 98.5282 24.5255 98.5492C24.5125 98.5492 24.4995 98.5502 24.4875 98.5502ZM12.0395 98.5592C11.2275 98.5592 10.8795 98.2952 10.8815 97.3712C10.9035 81.2012 10.9015 65.0322 10.8855 48.8632C10.8845 48.1182 11.1655 47.7522 11.8495 47.4992C24.7855 42.6972 37.7195 37.8882 50.6405 33.0452C50.9225 32.9392 51.1365 32.8932 51.2995 32.8932C51.8935 32.8932 51.7995 33.5112 51.7995 34.1162C51.7995 44.6472 51.7995 55.1782 51.7995 65.7092C51.7995 76.0742 51.8005 86.4392 51.7985 96.8042C51.7985 98.5402 51.7955 98.5422 50.1205 98.5442H50.0065C48.8095 98.5442 47.6135 98.5232 46.4175 98.5232C45.5785 98.5232 44.7395 98.5332 43.9025 98.5692C43.8435 98.5722 43.7865 98.5732 43.7315 98.5732C42.6885 98.5732 42.4405 98.1132 42.4445 97.0622C42.4825 88.7702 42.4665 80.4782 42.4645 72.1862C42.4635 68.9712 41.2405 67.7392 38.0375 67.7342C35.5555 67.7312 33.0735 67.7282 30.5905 67.7282C28.3055 67.7282 26.0195 67.7302 23.7345 67.7362C20.7755 67.7422 19.4645 69.0482 19.4625 71.9762C19.4575 80.3102 19.4335 88.6432 19.4885 96.9772C19.4955 98.1712 19.1515 98.5762 18.1015 98.5762C18.0235 98.5762 17.9415 98.5742 17.8555 98.5702C16.9925 98.5272 16.1265 98.5112 15.2605 98.5112C14.2195 98.5112 13.1765 98.5332 12.1355 98.5582C12.1035 98.5582 12.0715 98.5592 12.0395 98.5592ZM55.6355 54.4402C55.6355 40.3052 55.6355 26.1702 55.6355 12.0352C55.6355 11.0332 55.6375 10.6572 56.0195 10.6572C56.2455 10.6572 56.6055 10.7892 57.1785 11.0022C74.9635 17.6182 92.7465 24.2412 110.539 30.8382C111.407 31.1592 111.749 31.5882 111.748 32.5412C111.723 54.0962 111.723 75.6512 111.746 97.2062C111.747 98.1762 111.474 98.5662 110.557 98.5662C110.508 98.5662 110.457 98.5652 110.404 98.5632C109.583 98.5292 108.761 98.5122 107.939 98.5122C107.102 98.5122 106.266 98.5292 105.431 98.5612C105.386 98.5632 105.343 98.5642 105.301 98.5642C104.41 98.5642 104.155 98.1722 104.16 97.2582C104.194 91.6212 104.179 85.9832 104.175 80.3462C104.173 77.5752 103.032 76.4352 100.234 76.4332C94.6785 76.4302 89.1245 76.4292 83.5695 76.4292C78.0155 76.4292 72.4605 76.4302 66.9065 76.4332C64.0885 76.4342 62.9745 77.5492 62.9725 80.3392C62.9695 85.9352 62.9485 91.5312 62.9915 97.1262C62.9995 98.1212 62.7615 98.5722 61.8045 98.5722C61.7395 98.5722 61.6715 98.5702 61.6005 98.5652C60.8575 98.5232 60.1125 98.5022 59.3665 98.5022C58.6185 98.5022 57.8705 98.5232 57.1265 98.5652C57.0455 98.5692 56.9695 98.5722 56.8965 98.5722C55.9395 98.5722 55.6275 98.1702 55.6365 97.0942C55.6865 90.8352 55.6595 84.5762 55.6595 78.3172V54.4402H55.6355ZM91.3505 3.67224C92.8265 3.67224 94.3015 3.66124 95.7775 3.63824C95.7995 3.63824 95.8215 3.63824 95.8435 3.63824C96.7555 3.63824 97.0995 3.94724 97.0805 4.91524C97.0275 7.56724 97.0625 10.2212 97.0625 12.8742C97.0625 15.4862 97.0425 18.0982 97.0745 20.7092C97.0815 21.3402 97.0155 21.7012 96.5965 21.7012C96.4405 21.7012 96.2355 21.6502 95.9665 21.5452C92.8415 20.3232 89.6915 19.1642 86.5375 18.0172C85.8165 17.7542 85.4865 17.3822 85.4935 16.5742C85.5265 12.6782 85.5365 8.78025 85.4895 4.88425C85.4775 3.88325 85.8765 3.63924 86.7535 3.63924C86.7765 3.63924 86.7995 3.64024 86.8235 3.64024C88.3315 3.66024 89.8415 3.67224 91.3505 3.67224ZM91.9545 0.000244141C89.5415 0.000244141 87.1295 0.00124304 84.7165 0.00224304C82.2495 0.00224304 81.7275 0.506238 81.7195 2.96924C81.7075 6.86524 81.7185 10.7622 81.7145 14.6592C81.7135 15.6282 81.6995 15.9892 81.3265 15.9892C81.1155 15.9892 80.7895 15.8732 80.2845 15.6852C73.8405 13.2812 67.3995 10.8692 60.9565 8.46524C57.1135 7.03124 53.2745 5.58924 49.4185 4.19124C49.1465 4.09224 48.8835 4.04524 48.6355 4.04524C47.8715 4.04524 47.2515 4.48824 46.9575 5.22224C46.5805 6.16524 47.0345 7.13324 48.1365 7.61224C48.9335 7.95924 49.7435 8.29623 50.5785 8.53123C51.5435 8.80323 51.8515 9.36324 51.8455 10.3462C51.8095 15.9842 51.8045 21.6222 51.8495 27.2592C51.8585 28.3052 51.4905 28.8022 50.5205 29.1612C38.9785 33.4282 27.4505 37.7332 15.9185 42.0302C11.1045 43.8232 6.28654 45.6072 1.48154 47.4242C0.200537 47.9082 -0.271464 48.8962 0.150536 49.9562C0.429536 50.6572 1.04154 51.0462 1.82454 51.0462C2.11654 51.0462 2.43353 50.9912 2.76453 50.8792C3.74553 50.5462 4.71154 50.1712 5.68154 49.8052C6.26254 49.5862 6.62854 49.4482 6.85854 49.4482C7.24754 49.4482 7.24754 49.8452 7.24754 50.9162C7.24854 67.1652 7.24653 83.4152 7.25053 99.6642C7.25153 101.634 7.80254 102.18 9.74854 102.197C14.9425 102.243 20.1355 102.323 25.3295 102.323H25.5365C31.4585 102.32 37.3795 102.208 43.3015 102.208C43.5125 102.208 43.7245 102.208 43.9355 102.209C51.7685 102.22 59.6015 102.25 67.4335 102.294C70.8945 102.314 74.3555 102.322 77.8175 102.322C89.4425 102.322 101.069 102.233 112.695 102.198C114.913 102.191 115.377 101.729 115.377 99.4932C115.379 88.6742 115.378 77.8552 115.378 67.0362C115.378 56.4242 115.378 45.8122 115.378 35.2002C115.378 33.6322 115.378 33.0692 116.001 33.0692C116.351 33.0692 116.898 33.2472 117.752 33.5242C118.064 33.6252 118.39 33.7322 118.714 33.7442C118.734 33.7452 118.755 33.7452 118.775 33.7452C119.89 33.7452 120.736 32.6382 120.446 31.5622C120.2 30.6492 119.477 30.2942 118.668 29.9942C113.193 27.9622 107.734 25.8852 102.242 23.8972C101.15 23.5022 100.803 22.9322 100.823 21.8062C100.886 18.2012 100.849 14.5942 100.845 10.9872C100.842 8.12724 100.883 5.26524 100.805 2.40724C100.753 0.494242 100.167 0.00724194 98.2725 0.00424194C96.1655 0.000241943 94.0605 0.000244141 91.9545 0.000244141ZM67.8165 99.0342L67.8645 99.0332H67.8675C69.8415 99.0102 71.9235 98.9992 74.0565 98.9992C76.1735 98.9992 78.2895 99.0102 80.4495 99.0302C80.8425 99.0302 81.4085 98.9852 81.7895 98.6022C82.1715 98.2182 82.2125 97.6552 82.2105 97.2652C82.1825 92.5452 82.1815 87.5322 82.2055 81.4912C82.2075 81.1072 82.1655 80.5512 81.7855 80.1692C81.5005 79.8832 81.0985 79.7502 80.4935 79.7502C78.3905 79.7642 76.2885 79.7712 74.1855 79.7712C72.0665 79.7712 69.9465 79.7642 67.7955 79.7482C67.4235 79.7482 66.8885 79.7912 66.5225 80.1632C66.1525 80.5392 66.1175 81.0902 66.1245 81.4722C66.1555 83.3772 66.1495 85.3172 66.1445 87.1932C66.1415 87.9342 66.1395 88.6752 66.1395 89.4162C66.1395 90.1562 66.1415 90.8972 66.1445 91.6372C66.1505 93.4732 66.1575 95.3712 66.1225 97.2342C66.1145 97.6792 66.1525 98.2392 66.5215 98.6152C66.8905 98.9902 67.4375 99.0342 67.8165 99.0342ZM93.0745 79.7722C90.9895 79.7722 88.9045 79.7632 86.7765 79.7472C86.3435 79.7472 85.7985 79.7952 85.4245 80.1712C85.0465 80.5522 85.0055 81.1102 85.0085 81.4962C85.0465 86.7222 85.0465 92.0312 85.0085 97.2752C85.0055 97.7022 85.0495 98.2392 85.4205 98.6132C85.7885 98.9832 86.3225 99.0312 86.7475 99.0312L86.7955 99.0302H86.7975C88.9085 99.0102 91.0205 98.9982 93.1315 98.9982C95.2365 98.9982 97.2835 99.0102 99.2165 99.0342L99.2745 99.0352C99.6675 99.0352 100.235 98.9902 100.615 98.6022C100.996 98.2122 101.034 97.6302 101.025 97.1672C100.986 95.3432 100.994 93.4852 101.001 91.6882C101.003 90.9482 101.006 90.2092 101.006 89.4702C101.006 88.7162 101.003 87.9612 101.001 87.2072C100.994 85.3442 100.986 83.4162 101.024 81.5252C101.032 81.1302 100.999 80.5612 100.62 80.1742C100.248 79.7952 99.7115 79.7462 99.2435 79.7462H99.2415C97.1855 79.7642 95.1295 79.7722 93.0745 79.7722ZM24.4875 99.0312H24.5275H24.5295C26.6545 99.0102 28.7805 99.0012 30.9055 99.0012C33.0855 99.0012 35.2655 99.0102 37.4775 99.0282C37.8455 99.0282 38.3775 98.9852 38.7465 98.6152C39.1185 98.2422 39.1605 97.6902 39.1595 97.3082C39.1375 88.1922 39.1385 80.1852 39.1635 72.8292C39.1655 72.1872 39.0245 71.7462 38.7195 71.4392C38.3185 71.0382 37.7255 70.9912 37.2745 70.9912H37.2725C35.1125 71.0082 32.9535 71.0192 30.7935 71.0192C28.6165 71.0192 26.6325 71.0082 24.7305 70.9842L24.6695 70.9832C23.9975 70.9832 23.5375 71.1322 23.2225 71.4512C22.8035 71.8742 22.7565 72.5052 22.7625 73.0072C22.7965 75.8752 22.7915 78.7932 22.7855 81.6152C22.7835 82.7202 22.7815 83.8262 22.7815 84.9312L22.7845 88.2092C22.7875 91.1672 22.7915 94.2242 22.7675 97.2302C22.7645 97.6722 22.8085 98.2282 23.1865 98.6092C23.5625 98.9882 24.1085 99.0312 24.4875 99.0312ZM12.0395 99.0412L12.1465 99.0392C13.2065 99.0152 14.2415 98.9932 15.2605 98.9932C16.2085 98.9932 17.0495 99.0122 17.8315 99.0512C17.9255 99.0562 18.0155 99.0582 18.1015 99.0582C18.5065 99.0582 19.0915 99.0112 19.4945 98.6062C19.9225 98.1752 19.9735 97.5072 19.9695 96.9732C19.9255 90.2282 19.9325 83.3692 19.9395 76.7352L19.9445 71.9772C19.9455 69.3132 21.0445 68.2242 23.7355 68.2172C26.0205 68.2122 28.3055 68.2102 30.5905 68.2102C33.0725 68.2102 35.5555 68.2122 38.0375 68.2162C40.9855 68.2202 41.9815 69.2222 41.9825 72.1862L41.9845 77.1912C41.9885 83.7032 41.9925 90.4372 41.9635 97.0592C41.9605 97.6042 42.0125 98.2172 42.4165 98.6222C42.7095 98.9172 43.1275 99.0552 43.7315 99.0552C43.7925 99.0552 43.8565 99.0532 43.9235 99.0512C44.6555 99.0192 45.4475 99.0052 46.4175 99.0052C47.0135 99.0052 47.6105 99.0102 48.2075 99.0152C48.8065 99.0212 49.4065 99.0262 50.0065 99.0262H50.1215C52.0585 99.0242 52.2805 98.7952 52.2805 96.8042L52.2815 70.7592L52.2805 65.7092V34.1162L52.2835 33.9052C52.2925 33.4582 52.3005 32.9962 51.9875 32.6772C51.8685 32.5562 51.6525 32.4112 51.2995 32.4112C51.0705 32.4112 50.7995 32.4712 50.4715 32.5942C36.9855 37.6482 23.2955 42.7372 11.6815 47.0472C10.7965 47.3752 10.4025 47.9362 10.4035 48.8632C10.4215 66.8102 10.4205 82.6772 10.3995 97.3702C10.3985 97.7412 10.4405 98.2772 10.8055 98.6432C11.1575 98.9952 11.6505 99.0412 12.0395 99.0412ZM55.1785 54.9222V78.3172C55.1785 79.9232 55.1795 81.5292 55.1815 83.1352C55.1865 87.7092 55.1915 92.4392 55.1545 97.0912C55.1505 97.5882 55.1985 98.2132 55.6065 98.6242C55.9885 99.0092 56.5255 99.0532 56.8965 99.0532C56.9785 99.0532 57.0635 99.0512 57.1535 99.0462C57.8885 99.0052 58.6325 98.9842 59.3665 98.9842C60.1025 98.9842 60.8455 99.0052 61.5735 99.0462C61.6535 99.0512 61.7315 99.0532 61.8045 99.0532C62.3555 99.0532 62.7585 98.9172 63.0355 98.6382C63.4295 98.2422 63.4775 97.6502 63.4735 97.1232C63.4395 92.7002 63.4455 88.2022 63.4505 83.8512L63.4545 80.3392C63.4565 77.8122 64.3595 76.9162 66.9065 76.9152C72.4605 76.9122 78.0155 76.9112 83.5695 76.9112C89.1245 76.9112 94.6785 76.9122 100.234 76.9152C102.754 76.9162 103.691 77.8462 103.693 80.3462L103.696 83.3402C103.701 87.9012 103.706 92.6182 103.679 97.2552C103.676 97.7022 103.721 98.2642 104.097 98.6422C104.37 98.9172 104.753 99.0452 105.301 99.0452C105.349 99.0452 105.399 99.0442 105.45 99.0422C106.289 99.0102 107.127 98.9942 107.939 98.9942C108.764 98.9942 109.587 99.0112 110.384 99.0442C110.444 99.0472 110.502 99.0482 110.557 99.0482C110.912 99.0482 111.426 99.0052 111.794 98.6382C112.18 98.2512 112.229 97.6692 112.228 97.2062C112.204 75.4602 112.205 53.7042 112.23 32.5422C112.231 31.4122 111.79 30.7872 110.707 30.3862C96.8695 25.2562 83.0385 20.1102 69.2075 14.9642L57.3465 10.5512C56.7165 10.3162 56.3365 10.1752 56.0195 10.1752C55.1545 10.1752 55.1545 10.9962 55.1545 12.0352L55.1535 44.2422V54.4402L55.1785 54.9222ZM91.3505 3.19025C89.8435 3.19025 88.3365 3.17925 86.8295 3.15825H86.7535C86.3235 3.15825 85.7815 3.20524 85.4145 3.57724C85.0405 3.95624 85.0025 4.50824 85.0075 4.89024C85.0495 8.35524 85.0505 12.0672 85.0115 16.5702C85.0025 17.5382 85.4225 18.1242 86.3735 18.4692C89.3975 19.5702 92.6305 20.7582 95.7915 21.9942C96.1195 22.1232 96.3755 22.1822 96.5965 22.1822C96.9255 22.1822 97.1295 22.0452 97.2435 21.9302C97.5415 21.6282 97.5615 21.1582 97.5565 20.7032C97.5335 18.8382 97.5375 16.9402 97.5415 15.1042L97.5445 12.8742C97.5445 12.1192 97.5415 11.3642 97.5385 10.6092C97.5315 8.74524 97.5245 6.81724 97.5615 4.92424C97.5695 4.53124 97.5365 3.96525 97.1585 3.58025C96.7865 3.20025 96.2295 3.15623 95.8435 3.15623H95.7695C94.3375 3.17923 92.8505 3.19025 91.3505 3.19025ZM91.9535 0.481247C94.0595 0.481247 96.1655 0.482237 98.2715 0.486237C99.9525 0.488237 100.279 0.796242 100.323 2.42024C100.38 4.49924 100.374 6.61824 100.367 8.66724C100.365 9.44124 100.363 10.2142 100.363 10.9882C100.364 11.8852 100.367 12.7822 100.37 13.6792C100.379 16.3412 100.389 19.0942 100.341 21.7972C100.317 23.1562 100.82 23.8952 102.078 24.3512C105.713 25.6662 109.395 27.0442 112.955 28.3762C114.803 29.0682 116.651 29.7592 118.501 30.4452C119.326 30.7522 119.807 31.0412 119.981 31.6882C120.08 32.0552 119.997 32.4482 119.754 32.7652C119.512 33.0812 119.156 33.2622 118.734 33.2622H118.731C118.48 33.2532 118.193 33.1602 117.891 33.0622C116.977 32.7662 116.426 32.5872 116.001 32.5872C115.628 32.5872 115.149 32.7352 114.987 33.4372C114.897 33.8272 114.897 34.3722 114.897 35.2002L114.896 67.0362L114.897 75.6912C114.897 83.6252 114.897 91.5592 114.895 99.4932C114.895 101.461 114.648 101.71 112.693 101.716C108.284 101.729 103.875 101.75 99.4645 101.771C92.3695 101.805 85.0325 101.84 77.8175 101.84C74.3565 101.84 70.8965 101.832 67.4365 101.813C59.1845 101.766 51.4975 101.738 43.9365 101.727H43.3015C40.3005 101.727 37.2495 101.756 34.3005 101.784C31.4275 101.811 28.4565 101.84 25.5365 101.841H25.3295C21.7135 101.841 18.0365 101.802 14.4805 101.763C12.9045 101.746 11.3285 101.729 9.75254 101.716C8.07254 101.701 7.73254 101.356 7.73254 99.6642C7.72954 87.8002 7.72953 75.9362 7.72953 64.0722V50.9162C7.72953 49.7842 7.72954 48.9672 6.85854 48.9662C6.54154 48.9662 6.15754 49.1112 5.51154 49.3542L4.96754 49.5602C4.19654 49.8522 3.39954 50.1542 2.60954 50.4222C2.33354 50.5162 2.06954 50.5642 1.82454 50.5642C1.23554 50.5642 0.799534 50.2852 0.597534 49.7772C0.449534 49.4042 0.442538 49.0602 0.577538 48.7542C0.741538 48.3822 1.11254 48.0782 1.65154 47.8742C5.36054 46.4722 9.07754 45.0892 12.7935 43.7072L16.0875 42.4812L22.5785 40.0622C31.7885 36.6292 41.3115 33.0792 50.6875 29.6132C51.8655 29.1772 52.3415 28.4942 52.3315 27.2552C52.2895 22.0222 52.2875 16.4922 52.3275 10.3492C52.3355 9.08924 51.8365 8.38525 50.7085 8.06725C49.8755 7.83325 49.0435 7.48125 48.3285 7.17125C47.4845 6.80325 47.1215 6.10925 47.4045 5.40125C47.6275 4.84625 48.0755 4.52724 48.6355 4.52724C48.8325 4.52724 49.0415 4.56624 49.2545 4.64424C52.4825 5.81424 55.7535 7.03625 58.9175 8.21825L60.7875 8.91624C63.9195 10.0842 67.0505 11.2552 70.1815 12.4252C73.4925 13.6632 76.8035 14.9012 80.1155 16.1362C80.6735 16.3442 81.0295 16.4712 81.3265 16.4712C82.1945 16.4712 82.1955 15.6322 82.1965 14.6592C82.1975 13.1382 82.1965 11.6172 82.1965 10.0972C82.1945 7.72124 82.1935 5.34625 82.2015 2.97025C82.2085 0.786245 82.5145 0.484246 84.7175 0.483246H86.8305L91.9535 0.481247Z" fill="#7C7958"/>
<path d="M72.8216 41.7529C71.0236 41.7529 70.1206 41.7529 69.6186 42.2569C69.1166 42.7609 69.1196 43.6609 69.1256 45.4539C69.1326 47.2639 69.2376 47.3719 71.0076 47.3729L94.3036 47.3739C97.9446 47.3739 98.0856 47.2299 98.0976 43.5059V43.3999C98.0996 42.7509 97.9886 42.3609 97.7256 42.0979C97.4726 41.8449 97.0956 41.7319 96.5036 41.7319C94.4996 41.7559 92.5606 41.7629 90.6216 41.7629L83.6366 41.7529H72.8216ZM70.8286 50.6489C70.1156 50.6489 69.6756 50.7859 69.3996 51.0939C69.1346 51.3889 69.0436 51.8279 69.1136 52.4769C69.1836 53.1279 69.1846 53.8209 69.1146 54.5359C69.0516 55.1749 69.1456 55.6069 69.4086 55.8979C69.6736 56.1899 70.0956 56.3249 70.7386 56.3249C72.7266 56.2989 74.6526 56.2909 76.5766 56.2909L83.5896 56.3029H94.0206C96.0616 56.3029 97.0866 56.3029 97.6346 55.7369C98.1826 55.1729 98.1516 54.1559 98.0916 52.1329C98.0676 51.3769 97.8966 50.6629 96.7856 50.6629C96.1206 50.6829 95.5506 50.6889 94.9816 50.6889L92.3516 50.6749L81.5096 50.6819C77.9636 50.6819 74.4166 50.6759 70.8706 50.6489H70.8286ZM83.6476 59.6289C78.9236 59.6289 74.1986 59.6249 69.4746 59.6189C67.1546 59.6169 65.9756 58.4289 65.9686 56.0869C65.9566 51.4059 65.9546 46.7239 65.9696 42.0429C65.9786 39.7219 67.0996 38.5899 69.3996 38.5829C71.4056 38.5759 73.4126 38.5739 75.4196 38.5739L97.7386 38.5799C100.256 38.5829 101.383 39.7049 101.395 42.2179C101.415 46.8159 101.417 51.4149 101.394 56.0129C101.381 58.4689 100.244 59.6149 97.8146 59.6179C93.0926 59.6249 88.3696 59.6289 83.6476 59.6289Z" fill="#F1EBDF"/>
<path d="M70.7366 56.0841C69.6086 56.0841 69.2476 55.6491 69.3536 54.5591C69.4226 53.8621 69.4276 53.1461 69.3526 52.4511C69.2266 51.2841 69.6426 50.8911 70.8286 50.8911C70.8416 50.8911 70.8546 50.8911 70.8686 50.8911C74.4076 50.9171 77.9446 50.9231 81.4836 50.9231C85.0746 50.9231 88.6646 50.9161 92.2546 50.9161H92.3516C93.2246 50.9161 94.0986 50.9291 94.9726 50.9291C95.5476 50.9291 96.1226 50.9231 96.6976 50.9051C96.7276 50.9041 96.7566 50.9041 96.7856 50.9041C97.5916 50.9041 97.8236 51.2781 97.8486 52.0831C97.9676 56.0621 97.9876 56.0611 94.0206 56.0611H83.5896C81.2416 56.0611 78.8946 56.0501 76.5466 56.0501C74.6306 56.0501 72.7146 56.0571 70.7996 56.0841C70.7776 56.0841 70.7576 56.0841 70.7366 56.0841ZM90.6116 42.0041C92.5546 42.0041 94.4986 41.9971 96.4406 41.9721C96.4616 41.9721 96.4816 41.9721 96.5016 41.9721C97.5536 41.9721 97.8596 42.3411 97.8566 43.3991C97.8446 47.1331 97.8816 47.1331 94.1296 47.1331C90.1356 47.1331 86.1416 47.1341 82.1476 47.1341C78.4346 47.1341 74.7206 47.1331 71.0076 47.1321C69.3716 47.1311 69.3716 47.1231 69.3666 45.4531C69.3556 41.9941 69.3556 41.9941 72.8216 41.9941H83.6366C85.9626 41.9941 88.2866 42.0041 90.6116 42.0041ZM75.3366 38.3331C73.3576 38.3331 71.3776 38.3351 69.3986 38.3411C66.9786 38.3491 65.7376 39.6011 65.7296 42.0421C65.7136 46.7241 65.7156 51.4061 65.7286 56.0871C65.7346 58.5651 67.0086 59.8571 69.4746 59.8601C74.2436 59.8661 79.0116 59.8691 83.7806 59.8691C88.4586 59.8691 93.1366 59.8661 97.8146 59.8591C100.372 59.8561 101.621 58.5991 101.634 56.0141C101.658 51.4151 101.656 46.8161 101.635 42.2171C101.623 39.5611 100.383 38.3431 97.7396 38.3381C95.8506 38.3351 93.9626 38.3341 92.0736 38.3341C89.2806 38.3341 86.4866 38.3361 83.6936 38.3371H83.5346C80.8016 38.3371 78.0686 38.3331 75.3366 38.3331ZM70.7366 56.5661L70.8056 56.5651C72.4726 56.5421 74.2966 56.5321 76.5496 56.5321C77.7376 56.5321 78.9256 56.5351 80.1126 56.5381C81.2716 56.5401 82.4306 56.5431 83.5896 56.5431H94.0226C96.1306 56.5431 97.1886 56.5431 97.8076 55.9051C98.4256 55.2681 98.3946 54.2181 98.3316 52.1261L98.3296 52.0691C98.3086 51.3621 98.1256 50.4221 96.7856 50.4221L96.6826 50.4241C96.1126 50.4421 95.5426 50.4471 94.9726 50.4471C94.5366 50.4471 94.1016 50.4441 93.6656 50.4411C93.2276 50.4381 92.7896 50.4351 92.3516 50.4351H92.2546L86.8686 50.4381L81.4836 50.4411C77.2076 50.4411 73.9346 50.4311 70.8286 50.4091C70.2986 50.4091 69.6366 50.4691 69.2196 50.9331C68.8076 51.3921 68.8246 52.0491 68.8736 52.5031C68.9426 53.1391 68.9426 53.8151 68.8746 54.5121C68.8306 54.9601 68.8196 55.6071 69.2306 56.0591C69.6416 56.5131 70.2866 56.5661 70.7366 56.5661ZM90.6116 41.5221C89.4416 41.5221 88.2716 41.5201 87.1016 41.5171C85.9466 41.5151 84.7916 41.5121 83.6366 41.5121H72.8216C70.9566 41.5121 70.0206 41.5121 69.4486 42.0871C68.8756 42.6611 68.8786 43.5951 68.8846 45.4551C68.8916 47.3911 69.1096 47.6131 71.0076 47.6131L82.1476 47.6151H88.1386H94.1296C98.0906 47.6151 98.3266 47.3851 98.3376 43.5061L98.3386 43.4011C98.3396 42.9231 98.2906 42.3241 97.8966 41.9281C97.5096 41.5401 96.9476 41.4901 96.5016 41.4901H96.4346C94.7486 41.5121 92.8986 41.5221 90.6116 41.5221ZM75.3366 38.8151L79.4346 38.8171L83.5346 38.8181H83.6936L87.5756 38.8171L92.0736 38.8161C93.9616 38.8161 95.8496 38.8171 97.7386 38.8201C100.122 38.8241 101.143 39.8411 101.154 42.2191C101.175 47.0841 101.175 51.5961 101.152 56.0111C101.141 58.3361 100.111 59.3741 97.8136 59.3781C93.1366 59.3841 88.4586 59.3871 83.7806 59.3871C79.0126 59.3871 74.2436 59.3841 69.4746 59.3781C67.2836 59.3761 66.2166 58.2991 66.2096 56.0861C66.1966 51.0221 66.1966 46.4291 66.2106 42.0431C66.2186 39.8531 67.2316 38.8301 69.4006 38.8231C71.3786 38.8171 73.3576 38.8151 75.3366 38.8151Z" fill="#7C7958"/>
</g>
</svg>
