<svg width="91" height="91" viewBox="0 0 91 91" fill="none" xmlns="http://www.w3.org/2000/svg">
<g opacity="0.5">
<path d="M36.8823 2.80988C34.5093 2.80988 32.1363 2.81288 29.7643 2.82388C28.5423 2.82988 27.1003 2.85887 25.6633 3.03587C17.0383 4.09787 9.86428 8.02088 4.34028 14.6979C4.04328 15.0559 3.85627 15.3639 3.90527 15.6959C3.94727 15.9749 4.15527 16.2239 4.57727 16.5009C8.86727 19.3249 12.5373 21.3959 16.1283 23.0169C25.2203 27.1229 35.0183 29.2229 45.2513 29.2579H45.4673C49.2743 29.2579 53.2193 28.9069 57.1943 28.2129C67.3903 26.4349 77.0433 22.4459 85.8853 16.3539C86.1023 16.2059 86.3563 15.9959 86.4003 15.6909C86.4433 15.3869 86.2533 15.1109 86.1063 14.9299C82.9133 11.0029 79.0693 7.95487 74.6803 5.87087C70.3403 3.80887 65.4333 2.80688 59.6773 2.80688L59.3363 2.80788C57.5403 2.81988 55.7433 2.82388 53.9463 2.82388L36.8823 2.80988ZM15.3803 31.8449C14.7483 31.8449 14.2193 31.8799 13.6953 32.0489C12.7263 32.3619 11.9893 33.1389 11.7253 34.1259C11.4603 35.1189 11.7113 36.1639 12.3973 36.9209C13.2623 37.8779 14.3883 38.0009 15.2723 38.0009L37.9913 37.9979L63.3493 38.0009C63.8233 38.0009 64.3833 37.9769 64.9433 37.7959C65.9133 37.4839 66.6503 36.7079 66.9153 35.7219C67.1823 34.7299 66.9303 33.6819 66.2433 32.9189C65.3903 31.9719 64.3103 31.8439 63.3663 31.8439C59.0603 31.8479 39.4143 31.8479 39.4143 31.8479L15.3803 31.8449ZM15.2833 40.5549C14.8103 40.5549 14.2513 40.5799 13.6903 40.7609C12.7223 41.0749 11.9883 41.8509 11.7253 42.8379C11.4603 43.8319 11.7133 44.8779 12.4013 45.6359C13.2663 46.5889 14.3933 46.7119 15.2783 46.7119C19.2763 46.7079 39.2303 46.7079 39.2303 46.7079L63.2643 46.7109C63.7753 46.7109 64.3673 46.6949 64.9493 46.5049C65.9183 46.1899 66.6533 45.4139 66.9163 44.4269C67.1813 43.4339 66.9273 42.3859 66.2383 41.6249C65.3863 40.6819 64.3013 40.5539 63.3523 40.5539L39.3183 40.5589L15.2833 40.5549ZM75.0323 64.1309C75.6283 64.1309 76.1063 64.0679 76.5353 63.9329C77.5093 63.6249 78.2523 62.8549 78.5243 61.8709C78.7973 60.8809 78.5523 59.8319 77.8703 59.0649C77.0173 58.1039 75.8893 57.9739 74.8993 57.9739L44.0053 57.9789L17.8343 57.9749L16.8963 57.9849C16.7413 57.9849 16.4203 57.9849 16.3463 57.9109C16.2623 57.8269 16.2643 57.4749 16.2683 56.9899V56.4299C16.2653 55.9649 16.2633 55.5979 16.3523 55.5079C16.4413 55.4189 16.7923 55.4189 17.2783 55.4189L74.7963 55.4199C75.3683 55.4199 75.9273 55.4069 76.4803 55.2389C77.4843 54.9359 78.2483 54.1579 78.5253 53.1579C78.8013 52.1599 78.5473 51.1009 77.8443 50.3269C76.9973 49.3929 75.9113 49.2639 74.8633 49.2639L48.5623 49.2689C39.0933 49.2689 29.6263 49.2669 20.1573 49.2629C19.3283 49.2629 18.4963 49.3239 17.6853 49.4439C14.0213 49.9819 11.1533 53.7729 11.6693 57.3989C12.2683 61.6059 15.1993 64.1209 19.5103 64.1229C29.5703 64.1289 39.6313 64.1289 49.6913 64.1289H58.2543L75.0323 64.1309ZM7.97627 78.2989C7.82827 78.2989 7.67928 78.3009 7.53028 78.3069C4.88528 78.4159 3.01528 80.1789 2.87928 82.6939C2.75228 85.0279 4.52128 86.9689 7.08628 87.3099C7.37728 87.3479 7.67327 87.3559 7.96927 87.3559H75.2453C76.3113 87.3559 77.2653 87.3139 78.1633 87.2279C81.4203 86.9159 84.3533 84.9999 86.0093 82.1019C87.6763 79.1819 87.8323 75.7959 86.4363 72.8129C84.5373 68.7549 81.1523 66.6959 76.3733 66.6939C65.4843 66.6889 25.8823 66.6879 25.8823 66.6879H7.78627C7.66127 66.6879 7.53728 66.6899 7.41328 66.6979C4.81028 66.8599 2.98727 68.6299 2.87727 71.1049C2.77727 73.3549 4.47927 75.2719 6.92427 75.6649C7.35227 75.7339 7.77428 75.7399 8.24228 75.7399L79.0973 75.7409C79.3023 75.7409 79.6463 75.7409 79.7213 75.8159C79.8013 75.8959 79.7993 76.2309 79.7973 76.6949V77.1389C79.7993 77.6919 79.8013 78.0909 79.6953 78.1979C79.5903 78.3019 79.2223 78.3019 78.6643 78.3019L7.97627 78.2989ZM7.74628 89.9219C4.38228 89.9219 2.06628 88.4609 0.861275 85.5809C-0.357725 82.6659 0.229274 79.9139 2.55827 77.6189C2.78227 77.3969 2.88627 77.2029 2.88327 77.0049C2.88027 76.7499 2.69828 76.5809 2.53928 76.4319L2.41227 76.3089C0.400274 74.2159 -0.204726 71.7919 0.613274 69.1049C1.44127 66.3829 3.36527 64.6999 6.17527 64.2369C6.74927 64.1419 7.37427 64.0999 8.20227 64.0999C8.55227 64.0999 8.90428 64.1069 9.25628 64.1139C9.61128 64.1219 9.96628 64.1279 10.3203 64.1279L10.7583 64.1239C10.7583 64.1239 11.0083 64.1359 11.0643 64.1359C11.2073 64.1359 11.4243 64.1169 11.6463 63.9479L11.8403 63.7999L11.6863 63.6119C10.8193 62.5489 9.76727 61.0999 9.33527 59.3129C8.45827 55.6909 9.27828 52.4869 11.7703 49.7909C12.0313 49.5089 12.2273 49.2969 12.1893 49.0219C12.1533 48.7539 11.8953 48.5629 11.6493 48.4109C10.2663 47.5579 9.34828 46.2249 9.06528 44.6589C8.78128 43.0889 9.17527 41.5159 10.1753 40.2299C10.6833 39.5749 10.8183 39.1279 10.2133 38.3649C8.76927 36.5429 8.55328 34.4829 9.59128 32.4039C10.6193 30.3429 12.3153 29.2949 14.6313 29.2899L15.9883 29.2879C18.5093 29.2839 21.1173 29.2789 23.6943 29.2269L24.9903 29.2009L23.7673 28.7699C21.6593 28.0279 19.4803 27.2609 17.3443 26.4009C12.1623 24.3139 6.96128 21.3949 0.976277 17.2119C0.577277 16.9339 0.346277 16.6169 0.289277 16.2689C0.230277 15.9119 0.353274 15.5219 0.656274 15.1109C6.75227 6.81588 14.8323 1.89688 24.6723 0.489876C26.1533 0.277876 27.6533 0.248878 28.9263 0.248878C28.9263 0.248878 45.9453 0.234879 48.8523 0.234879C52.9923 0.234879 57.1323 0.242875 61.2733 0.268875C71.9803 0.334875 81.0013 4.68488 88.0853 13.1989C88.5663 13.7769 89.0373 14.3639 89.4913 14.9629C89.8653 15.4559 90.0193 15.8739 89.9623 16.2449C89.9053 16.6139 89.6343 16.9659 89.1333 17.3209C81.4143 22.7779 73.8813 26.5379 66.1023 28.8139C66.0203 28.8369 65.9403 28.8699 65.8543 28.9049L65.5113 29.0369L65.5943 29.2559C65.7113 29.5659 65.9743 29.6409 66.1483 29.6909C66.1953 29.7039 66.2423 29.7159 66.2843 29.7359C67.9513 30.5159 69.1323 31.9319 69.5253 33.6209C69.9163 35.3009 69.4833 37.0839 68.3373 38.5119C67.9303 39.0199 67.8063 39.4089 68.3153 40.0129C69.7103 41.6689 70.0293 43.5629 69.2623 45.6399C69.1313 45.9959 69.0733 46.2739 69.2173 46.4799C69.3703 46.6999 69.6703 46.7179 69.9393 46.7179C70.8963 46.7049 71.7863 46.6999 72.6773 46.6999C73.6593 46.6999 74.6423 46.7059 75.6253 46.7109C77.9793 46.7239 79.6873 47.7979 80.7023 49.9049C81.6863 51.9419 81.4593 53.9779 80.0473 55.7909C79.5733 56.3989 79.4413 56.8429 80.0313 57.5829C81.4583 59.3729 81.6833 61.3509 80.6993 63.4629C80.5203 63.8479 80.4833 64.1049 80.5743 64.3239C80.6903 64.6029 80.9943 64.7319 81.3213 64.8489C87.0773 66.9199 90.5353 72.3859 89.9273 78.4499C89.3443 84.2629 84.6063 89.0609 78.6593 89.8569C78.2733 89.9099 77.8813 89.9159 77.5143 89.9159L46.5503 89.9139C33.6173 89.9139 20.6863 89.9149 7.75328 89.9219H7.74628Z" fill="#F1EBDF"/>
<path d="M8.06191 66.9242C20.0769 66.9242 32.0899 66.9222 44.1049 66.9222C54.8609 66.9222 65.6179 66.9242 76.3739 66.9282C80.8499 66.9302 84.2839 68.7682 86.2239 72.9122C89.0999 79.0592 84.8769 86.3502 78.1409 86.9942C77.1739 87.0862 76.2119 87.1212 75.2449 87.1212C52.9879 87.1202 30.7319 87.1202 8.47491 87.1182C8.30691 87.1182 8.13791 87.1212 7.96791 87.1212C7.68291 87.1212 7.39791 87.1142 7.11691 87.0762C4.68791 86.7542 2.99491 84.8932 3.11391 82.7062C3.24291 80.3272 5.02891 78.6452 7.54091 78.5422C7.68691 78.5362 7.83291 78.5352 7.97891 78.5352C8.16591 78.5352 8.35191 78.5372 8.53791 78.5372H20.1499H43.3749C55.1379 78.5372 66.9009 78.5372 78.6639 78.5372C80.0319 78.5372 80.0379 78.5352 80.0319 77.1382C80.0239 75.6172 80.1509 75.5052 79.1029 75.5052C78.9219 75.5052 78.7049 75.5082 78.4469 75.5082H78.4429C55.0979 75.5052 31.7529 75.5072 8.40791 75.5032H8.23591C7.80891 75.5032 7.37891 75.4992 6.96191 75.4322C4.61491 75.0552 3.01691 73.2482 3.11191 71.1152C3.21591 68.7822 4.96391 67.0852 7.42691 66.9322C7.54491 66.9242 7.66291 66.9232 7.78091 66.9232C7.87491 66.9232 7.96791 66.9242 8.06191 66.9242ZM51.6429 63.8942C40.9329 63.8942 30.2199 63.8942 19.5099 63.8882C15.3259 63.8852 12.4779 61.4152 11.9019 57.3662C11.4069 53.8852 14.2009 50.1922 17.7189 49.6762C18.5239 49.5582 19.3309 49.4982 20.1469 49.4982H20.1569C29.6129 49.5022 39.0679 49.5032 48.5239 49.5032C57.3029 49.5032 66.0839 49.5022 74.8629 49.4992H74.8659C75.9269 49.4992 76.9049 49.6412 77.6699 50.4842C79.0499 52.0052 78.3849 54.4172 76.4119 55.0132C75.8819 55.1742 75.3419 55.1842 74.7969 55.1842C67.9709 55.1832 61.1449 55.1822 54.3189 55.1822H46.1279C36.5109 55.1832 26.8949 55.1822 17.2779 55.1832C16.0359 55.1832 16.0249 55.1882 16.0339 56.4322C16.0449 58.0632 15.8969 58.2192 16.8999 58.2192C17.1379 58.2192 17.4399 58.2102 17.8259 58.2102H17.8349C26.7529 58.2132 35.6689 58.2142 44.5879 58.2142C54.6909 58.2142 64.7959 58.2122 74.8989 58.2092H74.9039C75.9669 58.2092 76.9399 58.3712 77.6949 59.2202C79.0279 60.7212 78.3839 63.1032 76.4649 63.7082C75.9999 63.8542 75.5209 63.8962 75.0329 63.8962C68.8629 63.8942 62.6949 63.8942 56.5249 63.8942H51.6429ZM39.9309 40.7932C47.7379 40.7932 55.5459 40.7922 63.3529 40.7892H63.3569C64.3899 40.7892 65.3289 40.9682 66.0649 41.7822C67.4099 43.2702 66.7869 45.6602 64.8769 46.2822C64.3559 46.4512 63.8179 46.4762 63.2729 46.4762H63.2649C58.5539 46.4732 53.8439 46.4722 49.1329 46.4722C45.8319 46.4722 42.5309 46.4722 39.2299 46.4722C35.4389 46.4722 31.6479 46.4712 27.8569 46.4712C23.6669 46.4712 19.4759 46.4722 15.2859 46.4762H15.2779C14.2449 46.4762 13.3099 46.2872 12.5749 45.4782C11.2309 43.9972 11.8559 41.6012 13.7619 40.9852C14.2549 40.8252 14.7649 40.7902 15.2829 40.7902C23.4989 40.7922 31.7149 40.7932 39.9309 40.7932ZM50.9759 32.0842C55.1029 32.0842 59.2309 32.0832 63.3579 32.0792H63.3669C64.3989 32.0792 65.3349 32.2622 66.0679 33.0762C67.4119 34.5662 66.7839 36.9552 64.8709 37.5722C64.3789 37.7312 63.8719 37.7652 63.3549 37.7652H63.3489C55.1379 37.7632 46.9279 37.7622 38.7169 37.7622C30.9049 37.7622 23.0919 37.7632 15.2799 37.7662H15.2759C14.2409 37.7662 13.3049 37.5752 12.5709 36.7632C11.2299 35.2812 11.8599 32.8882 13.7669 32.2722C14.2859 32.1052 14.8209 32.0802 15.3629 32.0802H15.3799C20.1759 32.0832 24.9709 32.0832 29.7679 32.0832C32.9829 32.0832 36.1989 32.0832 39.4139 32.0832C43.2689 32.0832 47.1219 32.0842 50.9759 32.0842ZM53.8639 3.05823C55.6889 3.05823 57.5139 3.05523 59.3379 3.04323C59.4509 3.04223 59.5639 3.04123 59.6769 3.04123C64.8509 3.04123 69.8509 3.83623 74.5789 6.08223C79.0589 8.21023 82.8039 11.2412 85.9229 15.0782C86.3039 15.5462 86.2459 15.8202 85.7519 16.1602C77.0629 22.1452 67.5689 26.1652 57.1539 27.9822C53.2829 28.6572 49.3779 29.0232 45.4639 29.0232C45.3939 29.0232 45.3229 29.0232 45.2529 29.0232C35.1539 28.9892 25.4559 26.9712 16.2249 22.8022C12.1879 20.9792 8.39891 18.7352 4.70591 16.3052C3.95291 15.8092 3.99591 15.4812 4.52191 14.8462C10.0449 8.17123 17.1099 4.32523 25.6919 3.26923C27.0389 3.10323 28.4069 3.06523 29.7649 3.05923C32.0929 3.04823 34.4199 3.04523 36.7479 3.04523C39.5599 3.04523 42.3739 3.04922 45.1859 3.04922H45.2539C48.1249 3.04922 50.9939 3.05823 53.8639 3.05823ZM48.8559 0.000221252C43.0719 0.000221252 37.2859 0.0142212 31.5019 0.0142212C30.6609 0.0142212 29.8199 0.0142217 28.9789 0.0132217H28.9139C27.4829 0.0132217 26.0549 0.054225 24.6389 0.257225C14.4819 1.70923 6.50591 6.75323 0.466911 14.9702C-0.207089 15.8882 -0.0850891 16.7572 0.841911 17.4042C6.00891 21.0152 11.3859 24.2552 17.2559 26.6182C19.3749 27.4712 21.5279 28.2302 23.6889 28.9912C20.6609 29.0532 17.6459 29.0472 14.6309 29.0552C12.2209 29.0602 10.4399 30.1762 9.38091 32.2992C8.29991 34.4652 8.52391 36.6122 10.0289 38.5102C10.5479 39.1652 10.4479 39.4952 9.98991 40.0842C7.83991 42.8522 8.54391 46.7712 11.5249 48.6102C12.1799 49.0142 11.9999 49.1982 11.5979 49.6322C9.01791 52.4212 8.21391 55.6812 9.10591 59.3682C9.51191 61.0432 10.4299 62.4452 11.5049 63.7592C11.3509 63.8772 11.2039 63.9012 11.0629 63.9012C10.9639 63.9012 10.8669 63.8892 10.7729 63.8892C10.7669 63.8892 10.7599 63.8892 10.7539 63.8892C10.6099 63.8922 10.4649 63.8932 10.3209 63.8932C9.61491 63.8932 8.90591 63.8642 8.19991 63.8642C7.50491 63.8642 6.81391 63.8922 6.13791 64.0042C3.24791 64.4802 1.24891 66.2092 0.387911 69.0362C-0.466089 71.8432 0.203911 74.3502 2.24291 76.4722C2.53591 76.7772 2.90591 76.9452 2.39291 77.4512C0.0159104 79.7932 -0.637089 82.6072 0.644911 85.6712C1.93091 88.7462 4.40691 90.1572 7.74691 90.1572H7.75291C21.0009 90.1502 34.2489 90.1492 47.4969 90.1492C52.2379 90.1492 56.9759 90.1492 61.7169 90.1492C66.7699 90.1492 71.8259 90.1492 76.8789 90.1482C77.0909 90.1482 77.3029 90.1512 77.5149 90.1512C77.9099 90.1512 78.3039 90.1422 78.6909 90.0902C84.7849 89.2732 89.5649 84.4222 90.1609 78.4732C90.7779 72.3252 87.2529 66.7332 81.4009 64.6282C80.7909 64.4092 80.5939 64.2462 80.9119 63.5622C81.9179 61.4032 81.7039 59.3032 80.2149 57.4362C79.7289 56.8272 79.7789 56.5182 80.2329 55.9352C81.6969 54.0552 81.9509 51.9492 80.9149 49.8012C79.8659 47.6272 78.0739 46.4892 75.6269 46.4752C74.6409 46.4702 73.6559 46.4642 72.6699 46.4642C71.7809 46.4642 70.8909 46.4692 70.0019 46.4822C69.9799 46.4832 69.9579 46.4832 69.9369 46.4832C69.3479 46.4832 69.2539 46.3412 69.4829 45.7212C70.2659 43.5992 69.9619 41.6022 68.4949 39.8612C68.0819 39.3712 68.1559 39.1132 68.5199 38.6592C71.0299 35.5312 70.0049 31.2162 66.3839 29.5222C66.1919 29.4332 65.9179 29.4472 65.8149 29.1732C65.9439 29.1242 66.0539 29.0722 66.1689 29.0392C74.5609 26.5832 82.1599 22.5382 89.2689 17.5112C90.3709 16.7332 90.4989 15.9002 89.6789 14.8212C89.2219 14.2192 88.7489 13.6292 88.2659 13.0482C81.2449 4.61123 72.3039 0.101226 61.2749 0.033226C57.1349 0.00722601 52.9959 0.000221252 48.8559 0.000221252ZM8.06191 66.4542L7.92391 66.4532H7.78091C7.65291 66.4532 7.52591 66.4552 7.39791 66.4632C4.71191 66.6302 2.75591 68.5342 2.64191 71.0942C2.53691 73.4652 4.32191 75.4852 6.88691 75.8962C7.32991 75.9682 7.77791 75.9742 8.23591 75.9742H8.32191H8.40691L45.4789 75.9762L78.4469 75.9782L78.8369 75.9762L79.1029 75.9752C79.1899 75.9752 79.4269 75.9752 79.5429 75.9952C79.5649 76.1222 79.5639 76.4122 79.5619 76.6922L79.5609 77.1402C79.5629 77.5202 79.5649 77.9522 79.5449 78.0182C79.4519 78.0672 79.0519 78.0672 78.6639 78.0672H57.3429H43.3749H31.7629H20.1499H8.53791L8.26191 78.0662L7.97891 78.0642C7.82691 78.0642 7.67391 78.0662 7.52091 78.0722C4.74791 78.1862 2.78791 80.0382 2.64391 82.6802C2.51291 85.1012 4.40891 87.1912 7.05491 87.5422C7.37591 87.5852 7.69691 87.5912 7.96791 87.5912L8.22591 87.5902L8.47491 87.5882L50.2059 87.5902L75.2449 87.5912C76.3139 87.5912 77.2759 87.5492 78.1849 87.4622C81.5189 87.1432 84.5199 85.1832 86.2129 82.2182C87.9189 79.2312 88.0779 75.7662 86.6499 72.7132C84.7089 68.5652 81.2509 66.4602 76.3739 66.4582C65.6179 66.4532 54.8609 66.4522 44.1049 66.4522L25.2869 66.4532L8.06191 66.4542ZM51.6429 64.3642H54.0839H56.5249L75.0329 64.3662C75.6529 64.3662 76.1529 64.2992 76.6059 64.1562C77.6559 63.8252 78.4579 62.9942 78.7509 61.9332C79.0449 60.8662 78.7819 59.7362 78.0459 58.9082C77.1299 57.8782 75.9439 57.7392 74.8989 57.7392C64.7959 57.7422 54.6909 57.7442 44.5879 57.7442C35.6689 57.7442 26.7529 57.7432 17.8259 57.7402C17.6069 57.7402 17.4149 57.7432 17.2459 57.7452C17.1169 57.7472 17.0019 57.7492 16.8999 57.7492C16.6909 57.7492 16.5809 57.7402 16.5239 57.7302C16.4989 57.5992 16.5009 57.2912 16.5029 56.9912C16.5039 56.8262 16.5049 56.6402 16.5039 56.4292C16.5019 56.1372 16.4999 55.8112 16.5289 55.6832C16.6569 55.6532 16.9849 55.6532 17.2779 55.6532H37.5469H46.1279H50.2239H54.3189C61.1449 55.6532 67.9709 55.6532 74.7969 55.6542C75.3869 55.6542 75.9649 55.6402 76.5479 55.4632C77.6299 55.1372 78.4529 54.2992 78.7519 53.2212C79.0499 52.1442 78.7759 51.0032 78.0179 50.1682C77.1099 49.1672 75.9669 49.0292 74.8629 49.0292C66.0839 49.0322 57.3029 49.0332 48.5239 49.0332C39.0679 49.0332 29.6139 49.0312 20.1469 49.0282C19.3169 49.0282 18.4769 49.0892 17.6509 49.2112C13.8659 49.7662 10.9039 53.6852 11.4369 57.4322C12.0439 61.7012 15.1379 64.3552 19.5099 64.3582C30.2199 64.3642 40.9329 64.3642 51.6429 64.3642ZM39.9309 40.3232C31.7149 40.3232 23.4989 40.3222 15.2829 40.3202C14.8209 40.3202 14.2129 40.3442 13.6169 40.5372C12.5739 40.8752 11.7819 41.7122 11.4979 42.7782C11.2129 43.8492 11.4849 44.9762 12.2269 45.7942C13.1539 46.8152 14.3439 46.9462 15.2859 46.9462C19.4759 46.9432 23.6669 46.9422 27.8569 46.9422H33.9809L39.2299 46.9432L44.1809 46.9422H49.1329C53.8439 46.9422 58.5529 46.9432 63.2729 46.9462C63.8349 46.9462 64.4359 46.9192 65.0219 46.7292C66.0669 46.3892 66.8599 45.5512 67.1429 44.4882C67.4289 43.4172 67.1559 42.2882 66.4129 41.4662C65.4939 40.4502 64.2969 40.3192 63.3529 40.3192C55.5449 40.3222 47.7379 40.3232 39.9309 40.3232ZM50.9759 31.6142L44.7049 31.6132H39.4139H34.5909H29.7679C24.9709 31.6132 20.1759 31.6122 15.3629 31.6102C14.8049 31.6102 14.2079 31.6362 13.6229 31.8252C12.5779 32.1622 11.7829 33.0002 11.4979 34.0652C11.2119 35.1352 11.4829 36.2612 12.2229 37.0792C13.1509 38.1042 14.3419 38.2362 15.2799 38.2362C23.0919 38.2332 30.9049 38.2322 38.7169 38.2322C46.9279 38.2322 55.1379 38.2332 63.3549 38.2362C63.8459 38.2362 64.4259 38.2102 65.0149 38.0202C66.0609 37.6822 66.8569 36.8462 67.1419 35.7832C67.4299 34.7132 67.1589 33.5832 66.4179 32.7612C65.4969 31.7402 64.3039 31.6092 63.3579 31.6092C59.2309 31.6132 55.1029 31.6142 50.9759 31.6142ZM53.8639 2.58823C52.4299 2.58823 50.9949 2.58623 49.5599 2.58423C48.1249 2.58123 46.6899 2.57922 45.2539 2.57922H45.1859L40.9669 2.57722L36.7479 2.57523C34.4189 2.57523 32.0909 2.57823 29.7629 2.58823C28.5329 2.59423 27.0809 2.62422 25.6349 2.80222C16.9479 3.87122 9.72291 7.82323 4.15891 14.5472C3.86791 14.8992 3.60691 15.2872 3.67291 15.7302C3.74091 16.1812 4.12291 16.4842 4.44791 16.6982C8.75291 19.5302 12.4339 21.6062 16.0319 23.2312C25.1559 27.3512 34.9859 29.4582 45.2509 29.4932H45.4639C49.2879 29.4932 53.2479 29.1412 57.2349 28.4452C67.4629 26.6612 77.1469 22.6582 86.0189 16.5482C86.2549 16.3852 86.5749 16.1232 86.6319 15.7242C86.6889 15.3292 86.4629 14.9972 86.2879 14.7812C83.0729 10.8272 79.2019 7.75723 74.7809 5.65823C70.4089 3.58123 65.4689 2.57123 59.6769 2.57123L59.3349 2.57223C57.5119 2.58423 55.6879 2.58823 53.8639 2.58823ZM48.8559 0.470222C53.6809 0.470222 57.6259 0.480227 61.2719 0.503227C71.9049 0.569227 80.8659 4.89123 87.9039 13.3482C88.4129 13.9592 88.8709 14.5342 89.3049 15.1052C89.6379 15.5442 89.7769 15.9042 89.7299 16.2092C89.6829 16.5122 89.4439 16.8122 88.9979 17.1282C81.3009 22.5702 73.7909 26.3182 66.0369 28.5882C65.9449 28.6142 65.8549 28.6502 65.7589 28.6892L65.6469 28.7342L65.2099 28.9012L65.3749 29.3392C65.5329 29.7592 65.8909 29.8612 66.0839 29.9162C66.1189 29.9262 66.1539 29.9342 66.1849 29.9482C67.7859 30.6972 68.9199 32.0552 69.2959 33.6732C69.6709 35.2832 69.2539 36.9932 68.1539 38.3652C67.7039 38.9252 67.5289 39.4452 68.1349 40.1642C69.4719 41.7512 69.7769 43.5662 69.0419 45.5582C68.9159 45.9002 68.7999 46.2922 69.0239 46.6142C69.2609 46.9532 69.7009 46.9532 69.9369 46.9532H70.0089C70.8959 46.9392 71.7829 46.9342 72.6699 46.9342C73.6229 46.9342 74.5769 46.9402 75.5299 46.9452H75.6239C77.8799 46.9582 79.5179 47.9882 80.4909 50.0062C81.4459 51.9862 81.2339 53.8832 79.8619 55.6472C79.3369 56.3202 79.1669 56.8772 79.8469 57.7292C81.2139 59.4432 81.4289 61.3392 80.4859 63.3642C80.3469 63.6632 80.2059 64.0532 80.3569 64.4142C80.5099 64.7812 80.8779 64.9402 81.2419 65.0702C86.8939 67.1042 90.2909 72.4712 89.6939 78.4262C89.1209 84.1322 84.4679 88.8412 78.6289 89.6242C78.2559 89.6742 77.8729 89.6812 77.5149 89.6812L77.1999 89.6802L76.8789 89.6782L61.7169 89.6792H54.6069H47.4969C34.2479 89.6792 21.0009 89.6802 7.74691 89.6872C4.48691 89.6872 2.24291 88.2752 1.07791 85.4892C-0.11709 82.6322 0.43591 80.0392 2.72291 77.7862C2.89491 77.6162 3.12291 77.3502 3.11791 77.0022C3.11391 76.6462 2.87391 76.4232 2.69891 76.2592C2.65991 76.2232 2.61991 76.1862 2.58191 76.1462C0.633911 74.1192 0.0469107 71.7732 0.837911 69.1732C1.63891 66.5422 3.49791 64.9152 6.21391 64.4682C6.77391 64.3752 7.38591 64.3342 8.19991 64.3342C8.54991 64.3342 8.89991 64.3412 9.25091 64.3492C9.60791 64.3562 9.96491 64.3632 10.3209 64.3632C10.4679 64.3632 10.6159 64.3622 10.7729 64.3592C10.8099 64.3592 10.8459 64.3612 10.8839 64.3642C10.9429 64.3682 11.0029 64.3712 11.0629 64.3712C11.3419 64.3712 11.5789 64.2932 11.7899 64.1332L12.1769 63.8382L11.8689 63.4622C11.0169 62.4192 9.98491 61.0002 9.56291 59.2582C8.70691 55.7162 9.50691 52.5852 11.9549 49.9382C12.2229 49.6492 12.4749 49.3762 12.4219 48.9902C12.3729 48.6252 12.0659 48.3912 11.7719 48.2102C10.4469 47.3932 9.56791 46.1162 9.29691 44.6162C9.02491 43.1132 9.40291 41.6062 10.3609 40.3732C10.9079 39.6692 11.0889 39.0912 10.3969 38.2182C9.01391 36.4742 8.80791 34.4992 9.80091 32.5092C10.7869 30.5342 12.4119 29.5302 14.6319 29.5252L16.0849 29.5222C18.5759 29.5182 21.1529 29.5132 23.6989 29.4612L26.2909 29.4082L23.8449 28.5472C21.7459 27.8092 19.5739 27.0452 17.4319 26.1822C12.2689 24.1042 7.08291 21.1922 1.11091 17.0192C0.76591 16.7782 0.566911 16.5132 0.520911 16.2302C0.472911 15.9382 0.581911 15.6082 0.845911 15.2492C6.90291 7.00723 14.9299 2.12022 24.7049 0.722221C26.1729 0.512221 27.6569 0.484222 28.9139 0.484222H28.9789L31.5019 0.485222C34.3939 0.485222 37.2869 0.481226 40.1799 0.477226C43.0719 0.474226 45.9639 0.470222 48.8559 0.470222Z" fill="#7C7958"/>
</g>
</svg>
