<svg width="101" height="101" viewBox="0 0 101 101" fill="none" xmlns="http://www.w3.org/2000/svg">
<g opacity="0.5">
<path d="M27.0911 25.4735C27.3461 25.4735 27.5621 25.4795 27.7441 25.4835L28.1091 25.4905C28.9691 25.4905 29.0711 25.2145 29.4501 24.1925L29.6381 23.6895C31.7151 18.2565 34.0401 14.1285 36.9571 10.6975C37.5861 9.95651 38.2791 9.24451 39.0121 8.49051C39.3811 8.11151 39.7641 7.71551 40.1661 7.29151L40.6641 6.76451L39.9471 6.87251C33.7731 7.80151 28.0911 9.50251 22.5761 12.0745C15.5361 15.3585 9.70412 19.6065 4.74612 25.0615L4.36612 25.4795L17.6061 25.4825C20.7561 25.4825 23.9051 25.4805 27.0551 25.4735H27.0911ZM69.9161 22.3615C70.4271 22.3615 70.8811 22.6995 71.1611 23.2855C71.3091 23.5965 71.4631 23.9175 71.5341 24.2415C71.7281 25.1205 72.2361 25.4965 73.2321 25.4965C78.1041 25.4765 82.9571 25.4755 87.8101 25.4755L94.9351 25.4725C94.9811 25.4725 95.0281 25.4765 95.0761 25.4815C95.1421 25.4865 95.2091 25.4925 95.2771 25.4925C95.4711 25.4925 95.7601 25.4535 96.0331 25.1295L96.1761 24.9585L96.0241 24.7965C86.9541 15.1745 75.6081 9.31551 61.3381 6.88251L61.1581 6.85151L60.8591 7.42651L61.0911 7.69551C61.1861 7.80351 61.2811 7.91151 61.3881 8.00451C63.0061 9.41751 64.5101 11.1495 65.9881 13.2975C66.7521 14.4085 67.4441 15.5705 67.9611 16.4575C68.4081 17.2255 68.2941 17.9865 67.6711 18.3965C67.4511 18.5415 67.2151 18.6155 66.9681 18.6155C66.4981 18.6155 66.0421 18.3415 65.7171 17.8645C65.4821 17.5175 65.2691 17.1575 65.0551 16.7965C64.9191 16.5665 64.7821 16.3355 64.6401 16.1085C62.7851 13.1435 60.9201 10.9715 58.7691 9.27451C56.0591 7.13551 53.2821 6.05051 50.5141 6.05051C48.7361 6.05051 46.9141 6.49651 45.1011 7.37651C42.8871 8.45151 40.8621 10.1235 38.9111 12.4915C36.3341 15.6175 34.2381 19.3315 32.3151 24.1805C32.1681 24.5495 32.0581 24.9285 32.2411 25.1985C32.4241 25.4685 32.8001 25.4905 33.2371 25.4905C38.9061 25.4825 44.5651 25.4785 50.2201 25.4785C56.0301 25.4785 61.8381 25.4825 67.6481 25.4935C68.0771 25.4935 68.5051 25.4685 68.7101 25.1795C68.9111 24.8965 68.8091 24.4905 68.6831 24.1285C68.4231 23.3865 68.7341 22.7255 69.4761 22.4445C69.6221 22.3895 69.7701 22.3615 69.9161 22.3615ZM33.8761 28.2005C33.5781 28.2005 33.2811 28.2025 32.9831 28.2095C32.6721 28.2185 32.4541 28.3155 32.3361 28.4965C32.2191 28.6775 32.2181 28.9125 32.3351 29.1965L32.5781 29.7945C32.7931 30.3285 33.0081 30.8635 33.2501 31.3845C33.8441 32.6725 34.9311 33.3555 36.3901 33.3585C41.0861 33.3665 45.7811 33.3695 50.4771 33.3695C55.1731 33.3695 59.8681 33.3665 64.5641 33.3585C66.0381 33.3565 67.1411 32.6425 67.7531 31.2955C67.9851 30.7845 68.1961 30.2645 68.4051 29.7435C68.6631 29.0985 68.8051 28.7445 68.6221 28.4735C68.4391 28.2025 68.0361 28.2025 67.3681 28.2015L33.8761 28.2005ZM75.4131 28.2005C74.2701 28.2005 73.7491 28.2005 73.5171 28.5445C73.2861 28.8865 73.4761 29.3575 73.8931 30.3885C74.8501 32.7565 75.7511 33.3695 78.2761 33.3715H91.3661C95.0531 33.3715 95.6271 32.9785 96.9541 29.5425C97.1751 28.9705 97.2861 28.6835 97.1231 28.4445C96.9561 28.2025 96.6311 28.2025 95.9831 28.2015L75.4131 28.2005ZM6.01712 28.2005C4.79312 28.2005 4.23412 28.2005 3.98812 28.5655C3.74212 28.9305 3.95312 29.4485 4.41512 30.5815C5.27212 32.6915 6.27312 33.3695 8.53712 33.3705L15.7711 33.3735C18.1821 33.3735 20.5931 33.3715 23.0051 33.3695C25.0881 33.3665 26.1131 32.6745 26.9241 30.7255C26.9861 30.5775 27.0421 30.4265 27.0981 30.2765C27.1891 30.0325 27.2781 29.7875 27.3961 29.5585C27.5571 29.2445 27.7171 28.8425 27.5291 28.5355C27.3411 28.2275 26.9161 28.1865 26.5251 28.1865C24.8101 28.2015 23.1331 28.2045 21.4561 28.2045L6.01712 28.2005ZM50.4291 94.5815C45.9291 94.5815 41.8831 95.8045 39.8681 97.7745L39.4301 98.2025H61.8071L61.2431 97.7565C58.6921 95.7395 54.7511 94.5815 50.4291 94.5815ZM30.8651 100.75C30.2261 100.078 29.9641 99.5305 30.4511 98.7915C30.6991 98.4165 31.0441 98.2185 31.4491 98.2185C31.5141 98.2185 31.5811 98.2235 31.6481 98.2345C32.0151 98.2895 32.3751 98.3185 32.7191 98.3185C34.5281 98.3185 36.0431 97.5955 37.7831 95.9015C40.4071 93.3495 44.0691 92.5415 46.9661 92.1225L47.6121 92.0355C49.0091 91.8505 49.1611 91.7885 49.1181 90.5315C49.1111 90.3155 49.1021 90.0565 49.1021 89.7425C49.1121 76.1765 49.1111 62.6115 49.1101 49.0455L49.1091 37.8235C49.1091 36.2125 48.9981 36.1005 47.4091 36.1005C46.4351 36.0995 45.4611 36.0955 44.4871 36.0905C43.4441 36.0855 42.4011 36.0805 41.3591 36.0805C40.0571 36.0805 38.7561 36.0885 37.4541 36.1135L37.2131 36.1155C33.7501 36.1155 31.5211 34.6445 30.3971 31.6175C30.3621 31.5215 30.3041 31.4485 30.2531 31.3835L30.1631 31.2535L29.9561 31.2105C29.4921 31.2855 29.3951 31.6585 29.3371 31.8795C29.3221 31.9345 29.3091 31.9895 29.2891 32.0365C28.1941 34.6815 26.1841 36.0415 23.3141 36.0785C20.8391 36.1105 18.3621 36.1245 15.8861 36.1245C13.3071 36.1245 10.7281 36.1095 8.14912 36.0805C5.22212 36.0485 3.17712 34.6425 2.07112 31.9025C1.90712 31.4965 1.75412 31.0865 1.60012 30.6755C1.21312 29.6435 0.813122 28.5765 0.250122 27.5865V26.1635C3.73712 21.8725 7.42812 18.3645 11.5301 15.4395C19.0901 10.0525 27.7881 6.39751 37.3841 4.57551C41.0581 3.87651 44.4661 3.50051 47.8031 3.42351C48.1701 3.41451 48.6261 3.36551 48.8991 3.05151C49.0951 2.82751 49.1651 2.50251 49.1141 2.06151C49.0941 1.88751 49.1221 1.69451 49.1491 1.54551C49.2991 0.692509 49.7151 0.281511 50.4571 0.251511H50.4591C51.2041 0.251511 51.6751 0.736513 51.8111 1.58051C52.0781 3.24151 52.1731 3.32751 53.8351 3.42451L53.9681 3.43251C69.4721 4.34751 82.3421 9.27451 93.3131 18.4945C95.6891 20.4905 97.9641 22.8375 100.269 25.6695C100.792 26.3105 100.883 26.9385 100.566 27.7065C99.9881 29.1045 99.4221 30.5065 98.8671 31.9125C97.7871 34.6485 95.7411 36.0515 92.7841 36.0815C90.1941 36.1095 87.6041 36.1245 85.0131 36.1245C82.5451 36.1245 80.0771 36.1105 77.6091 36.0775C74.7461 36.0375 72.7411 34.6675 71.6511 32.0055C71.6321 31.9585 71.6181 31.9095 71.6031 31.8585C71.5441 31.6585 71.4561 31.3545 71.1091 31.2255L71.0231 31.1935L70.9371 31.2245C70.6161 31.3385 70.5241 31.6185 70.4641 31.8025L70.4241 31.9125C69.3031 34.7175 67.2161 36.0855 64.0421 36.0965L62.9121 36.1005C61.4401 36.1055 59.9671 36.1115 58.4951 36.1115C56.7641 36.1115 55.0321 36.1035 53.3011 36.0805H53.2981C52.7211 36.0805 52.3871 36.1825 52.1611 36.4105C51.9241 36.6465 51.8241 36.9945 51.8251 37.5765C51.8481 55.3205 51.8471 73.1315 51.8231 90.5145C51.8221 91.5195 52.1951 91.9325 53.1991 92.0365C56.8071 92.4105 59.8401 93.4665 62.4711 95.2685C63.3731 95.8855 64.1791 96.6325 64.8671 97.4885C65.2781 97.9985 65.7581 98.2365 66.3761 98.2365L66.5141 98.2335C66.7671 98.2195 67.0211 98.2155 67.2751 98.2155L68.4211 98.2245C68.5711 98.2245 69.0631 98.2165 69.0631 98.2165C69.8031 98.2165 70.3231 98.3505 70.6251 99.0125C70.9411 99.7055 70.6251 100.162 70.0841 100.75H30.8651Z" fill="#F1EBDF"/>
<path d="M40.043 97.953C42.056 95.986 46.155 94.832 50.429 94.832C54.317 94.832 58.35 95.787 61.088 97.953H40.043ZM51.71 28.45C54.249 28.45 56.788 28.45 59.328 28.45C62.008 28.45 64.688 28.45 67.368 28.452C68.621 28.452 68.64 28.485 68.174 29.65C67.966 30.168 67.756 30.685 67.525 31.193C66.949 32.461 65.926 33.106 64.563 33.109C59.885 33.116 55.208 33.12 50.53 33.12C45.817 33.12 41.104 33.116 36.391 33.108C35.074 33.106 34.046 32.513 33.477 31.28C33.147 30.566 32.866 29.829 32.566 29.101C32.395 28.685 32.549 28.473 32.99 28.461C33.285 28.452 33.581 28.451 33.876 28.451C39.425 28.45 44.975 28.45 50.524 28.45H51.71ZM85.934 28.45C87.695 28.45 89.457 28.45 91.218 28.45C92.806 28.45 94.395 28.45 95.983 28.452C97.099 28.453 97.103 28.464 96.721 29.453C95.427 32.805 94.964 33.122 91.366 33.122C88.942 33.122 86.518 33.123 84.094 33.123C82.155 33.123 80.215 33.123 78.276 33.122C75.843 33.121 75.047 32.576 74.125 30.295C73.379 28.45 73.379 28.45 75.413 28.45H85.353H85.934ZM21.477 28.455C23.147 28.455 24.818 28.452 26.489 28.437C26.502 28.437 26.514 28.437 26.527 28.437C27.349 28.437 27.568 28.673 27.174 29.445C26.98 29.823 26.857 30.236 26.694 30.63C25.924 32.48 24.996 33.117 23.005 33.12C20.647 33.123 18.29 33.124 15.933 33.124C13.468 33.124 11.002 33.123 8.537 33.121C6.37 33.119 5.464 32.501 4.646 30.489C3.817 28.45 3.817 28.45 6.017 28.45H15.662C17.601 28.45 19.538 28.455 21.477 28.455ZM39.984 7.12C38.769 8.404 37.712 9.422 36.767 10.535C33.472 14.411 31.209 18.879 29.405 23.601C28.844 25.067 28.897 25.24 28.108 25.24C27.864 25.24 27.54 25.224 27.093 25.224H27.054C23.934 25.23 20.814 25.232 17.693 25.232C13.883 25.232 10.073 25.229 6.263 25.229H4.931C10.097 19.546 16.016 15.41 22.682 12.301C28.111 9.769 33.784 8.053 39.984 7.12ZM33.237 25.24C32.463 25.24 32.197 25.154 32.547 24.273C34.204 20.095 36.233 16.133 39.104 12.65C40.81 10.581 42.77 8.78601 45.211 7.60101C47.039 6.71401 48.805 6.301 50.514 6.301C53.364 6.301 56.055 7.451 58.614 9.47C60.988 11.344 62.833 13.691 64.429 16.241C64.794 16.826 65.123 17.435 65.511 18.005C65.895 18.57 66.431 18.866 66.968 18.866C67.256 18.866 67.544 18.781 67.809 18.606C68.531 18.13 68.705 17.238 68.177 16.332C67.549 15.254 66.901 14.184 66.195 13.157C64.851 11.203 63.346 9.383 61.552 7.817C61.408 7.691 61.289 7.536 61.158 7.395C61.204 7.306 61.25 7.21701 61.296 7.12901C74.684 9.41101 86.395 14.947 95.842 24.969C95.65 25.197 95.459 25.242 95.277 25.242C95.158 25.242 95.043 25.223 94.935 25.223C87.707 25.231 80.479 25.216 73.251 25.247H73.233C72.411 25.247 71.956 24.996 71.778 24.188C71.702 23.839 71.542 23.504 71.387 23.179C71.059 22.492 70.511 22.112 69.917 22.112C69.743 22.112 69.565 22.144 69.387 22.211C68.563 22.522 68.123 23.288 68.447 24.212C68.761 25.11 68.488 25.243 67.663 25.243H67.649C61.8 25.233 55.952 25.228 50.103 25.228C44.485 25.228 38.868 25.232 33.25 25.24H33.237ZM50.517 0C50.494 0 50.47 0.00100653 50.447 0.00200653C49.498 0.0400065 49.056 0.634007 48.903 1.50201C48.869 1.69401 48.844 1.898 48.866 2.09C48.96 2.907 48.602 3.155 47.798 3.173C44.28 3.255 40.793 3.673 37.338 4.329C27.913 6.119 19.219 9.653 11.386 15.237C7.074 18.309 3.327 21.971 0 26.076V27.653C0.792 29.025 1.251 30.539 1.839 31.996C2.991 34.85 5.124 36.297 8.146 36.331C10.723 36.359 13.3 36.375 15.877 36.375C18.357 36.375 20.838 36.361 23.317 36.329C26.247 36.291 28.374 34.901 29.52 32.133C29.621 31.889 29.598 31.523 29.996 31.458C30.056 31.545 30.13 31.617 30.162 31.704C31.392 35.016 33.84 36.366 37.212 36.366C37.294 36.366 37.377 36.365 37.459 36.363C38.756 36.339 40.053 36.331 41.35 36.331C43.369 36.331 45.39 36.349 47.409 36.35C48.857 36.351 48.859 36.353 48.859 37.823C48.86 55.13 48.866 72.436 48.852 89.742C48.85 91.842 49.256 91.54 46.93 91.876C43.496 92.372 40.113 93.287 37.609 95.723C36.098 97.193 34.619 98.068 32.72 98.068C32.389 98.068 32.045 98.042 31.686 97.987C31.606 97.975 31.528 97.969 31.45 97.969C30.963 97.969 30.537 98.209 30.243 98.654C29.612 99.609 30.1 100.325 30.759 101H70.193C70.745 100.409 71.262 99.808 70.853 98.91C70.485 98.103 69.813 97.967 69.061 97.967C68.997 97.967 68.932 97.968 68.866 97.969C68.714 97.973 68.562 97.975 68.41 97.975C68.03 97.975 67.65 97.966 67.27 97.966C67.013 97.966 66.757 97.97 66.501 97.983C66.458 97.985 66.416 97.987 66.375 97.987C65.826 97.987 65.426 97.784 65.062 97.332C64.361 96.46 63.542 95.699 62.612 95.062C59.779 93.122 56.606 92.138 53.225 91.788C52.369 91.7 52.072 91.406 52.073 90.515C52.098 72.868 52.098 55.222 52.075 37.576C52.074 36.658 52.329 36.331 53.246 36.331C53.263 36.331 53.281 36.331 53.298 36.331C55.028 36.354 56.757 36.361 58.487 36.361C60.339 36.361 62.191 36.353 64.043 36.347C67.183 36.336 69.462 34.994 70.657 32.006C70.738 31.804 70.765 31.551 71.021 31.46C71.323 31.572 71.326 31.872 71.42 32.101C72.554 34.871 74.67 36.287 77.606 36.327C80.077 36.361 82.549 36.375 85.022 36.375C87.61 36.375 90.199 36.359 92.787 36.332C95.811 36.301 97.968 34.872 99.099 32.005C99.654 30.6 100.22 29.199 100.797 27.803C101.143 26.964 101.049 26.231 100.463 25.511C98.341 22.905 96.046 20.464 93.474 18.303C82.058 8.71 68.74 4.054 53.982 3.182C52.316 3.084 52.313 3.128 52.058 1.541C51.904 0.583 51.333 0 50.517 0ZM38.816 98.453H40.043H61.088H62.526L61.398 97.561C58.804 95.509 54.806 94.332 50.429 94.332C45.867 94.332 41.753 95.582 39.694 97.595L38.816 98.453ZM51.71 27.95H50.524L33.876 27.951C33.576 27.951 33.276 27.952 32.976 27.961C32.48 27.975 32.24 28.186 32.126 28.361C32.013 28.536 31.917 28.838 32.104 29.292L32.345 29.887C32.558 30.414 32.778 30.96 33.023 31.49C33.662 32.873 34.826 33.606 36.39 33.608C41.103 33.616 45.817 33.62 50.53 33.62C55.208 33.62 59.886 33.616 64.564 33.609C66.144 33.606 67.325 32.842 67.98 31.4C68.223 30.864 68.447 30.312 68.638 29.836C68.908 29.161 69.087 28.714 68.829 28.333C68.572 27.952 68.093 27.952 67.368 27.952L59.328 27.95H55.519H51.71ZM85.934 27.95H85.353H75.413C74.179 27.95 73.616 27.95 73.309 28.405C73.004 28.857 73.21 29.367 73.662 30.483C74.657 32.946 75.649 33.621 78.275 33.622L84.094 33.623H87.73L91.366 33.622C95.167 33.622 95.82 33.175 97.188 29.633C97.424 29.02 97.567 28.651 97.329 28.304C97.089 27.953 96.673 27.952 95.983 27.952L91.218 27.95H88.576H85.934ZM21.477 27.955L18.535 27.953L15.662 27.95H6.017C4.702 27.95 4.101 27.95 3.781 28.426C3.461 28.901 3.687 29.458 4.183 30.677C5.077 32.876 6.175 33.619 8.536 33.621C11.002 33.623 13.468 33.624 15.933 33.624C18.291 33.624 20.648 33.623 23.005 33.62C25.183 33.616 26.308 32.858 27.155 30.822C27.218 30.672 27.275 30.519 27.331 30.366C27.423 30.119 27.51 29.886 27.619 29.672C27.809 29.299 27.995 28.818 27.742 28.405C27.489 27.991 26.961 27.937 26.487 27.937H26.484C24.815 27.952 23.146 27.955 21.477 27.955ZM3.8 25.729H4.931H6.263L11.978 25.731L17.693 25.732C20.814 25.732 23.935 25.73 27.093 25.724C27.346 25.724 27.558 25.729 27.738 25.734C27.879 25.737 28.001 25.74 28.108 25.74C29.143 25.74 29.302 25.313 29.684 24.279C29.739 24.132 29.8 23.966 29.872 23.779C31.937 18.374 34.249 14.269 37.148 10.859C37.774 10.123 38.466 9.41001 39.2 8.65501C39.566 8.27801 39.948 7.885 40.347 7.464L41.346 6.41L39.91 6.626C33.71 7.559 28.005 9.267 22.471 11.848C15.401 15.145 9.543 19.412 4.561 24.893L3.8 25.729ZM33.237 25.74H33.251C38.868 25.732 44.486 25.728 50.103 25.728C55.951 25.728 61.8 25.733 67.663 25.743C68.145 25.743 68.64 25.711 68.914 25.324C69.181 24.948 69.066 24.467 68.919 24.047C68.701 23.425 68.942 22.913 69.564 22.679C69.682 22.634 69.801 22.612 69.917 22.612C70.327 22.612 70.698 22.897 70.936 23.394C71.078 23.693 71.225 24.001 71.29 24.295C71.577 25.597 72.536 25.747 73.253 25.747C78.096 25.726 82.94 25.726 87.783 25.726C90.168 25.726 92.552 25.726 94.935 25.723C94.974 25.723 95.014 25.727 95.056 25.731C95.128 25.737 95.202 25.742 95.277 25.742C95.66 25.742 95.97 25.595 96.225 25.291L96.511 24.95L96.206 24.626C87.097 14.963 75.705 9.078 61.38 6.636L61.02 6.575L60.852 6.899L60.789 7.021L60.714 7.165L60.553 7.47601L60.791 7.734L60.903 7.861C61.005 7.977 61.108 8.093 61.223 8.194C62.825 9.592 64.316 11.308 65.783 13.44C66.542 14.545 67.23 15.7 67.745 16.584C68.125 17.236 68.044 17.852 67.533 18.189C67.355 18.306 67.165 18.366 66.968 18.366C66.582 18.366 66.202 18.132 65.924 17.724C65.695 17.387 65.489 17.039 65.271 16.67C65.134 16.438 64.996 16.205 64.853 15.976C62.982 12.986 61.098 10.794 58.924 9.078C56.169 6.904 53.339 5.801 50.514 5.801C48.697 5.801 46.84 6.255 44.993 7.151C42.746 8.242 40.694 9.936 38.718 12.332C36.125 15.478 34.016 19.213 32.082 24.088C31.919 24.501 31.785 24.972 32.034 25.339C32.307 25.74 32.844 25.74 33.237 25.74ZM50.517 0.5C51.271 0.5 51.497 1.202 51.564 1.62C51.85 3.397 52.04 3.57 53.819 3.673L53.953 3.681C69.402 4.594 82.224 9.502 93.152 18.686C95.516 20.672 97.78 23.008 100.076 25.827C100.539 26.396 100.616 26.93 100.335 27.612C99.769 28.98 99.197 30.396 98.634 31.822C97.596 34.453 95.626 35.803 92.782 35.832C90.015 35.861 87.476 35.875 85.022 35.875C82.459 35.875 79.966 35.859 77.612 35.827C74.859 35.79 72.932 34.473 71.883 31.911C71.867 31.872 71.855 31.829 71.843 31.787C71.779 31.569 71.66 31.164 71.196 30.991L71.025 30.927L70.852 30.989C70.418 31.145 70.293 31.521 70.226 31.724C70.215 31.757 70.205 31.789 70.193 31.82C69.113 34.519 67.101 35.836 64.042 35.847L62.923 35.851C61.444 35.856 59.966 35.861 58.487 35.861C56.501 35.861 54.855 35.852 53.305 35.831H53.246C52.845 35.831 52.34 35.877 51.984 36.233C51.622 36.595 51.574 37.116 51.575 37.577C51.598 55.401 51.598 73.211 51.573 90.514C51.572 91.64 52.05 92.17 53.174 92.286C56.738 92.654 59.733 93.697 62.33 95.475C63.212 96.079 64.001 96.81 64.673 97.645C65.135 98.219 65.676 98.487 66.375 98.487C66.425 98.487 66.475 98.485 66.527 98.483C66.774 98.47 67.022 98.466 67.27 98.466C67.458 98.466 67.646 98.468 67.834 98.47C68.026 98.473 68.219 98.475 68.41 98.475C68.567 98.475 68.723 98.473 68.879 98.469L69.062 98.467C69.839 98.467 70.176 98.631 70.398 99.117C70.632 99.631 70.448 99.972 69.973 100.5H30.974C30.384 99.854 30.313 99.456 30.66 98.93C30.862 98.624 31.128 98.469 31.45 98.469C31.503 98.469 31.557 98.473 31.611 98.481C31.99 98.539 32.363 98.568 32.72 98.568C34.574 98.568 36.19 97.801 37.957 96.082C40.53 93.579 44.142 92.784 47.001 92.371C47.245 92.336 47.458 92.307 47.645 92.283C49.13 92.087 49.416 91.927 49.368 90.523C49.361 90.309 49.352 90.053 49.352 89.743C49.363 76.074 49.361 62.406 49.36 48.738L49.359 37.823C49.359 36.072 49.141 35.851 47.41 35.85C46.426 35.85 45.441 35.845 44.457 35.841C43.421 35.836 42.385 35.831 41.35 35.831C39.849 35.831 38.609 35.841 37.45 35.863L37.212 35.866C33.821 35.866 31.729 34.488 30.631 31.53C30.582 31.398 30.506 31.301 30.45 31.23L30.408 31.174L30.228 30.914L29.916 30.964C29.291 31.066 29.153 31.592 29.095 31.818C29.083 31.861 29.074 31.904 29.058 31.941C28.005 34.485 26.071 35.793 23.311 35.829C20.914 35.86 18.413 35.875 15.877 35.875C13.403 35.875 10.804 35.86 8.152 35.831C5.335 35.8 3.367 34.447 2.303 31.809C2.14 31.404 1.986 30.995 1.833 30.586C1.45 29.565 1.055 28.51 0.5 27.521V26.253C3.957 22.011 7.614 18.539 11.676 15.644C19.206 10.277 27.871 6.636 37.431 4.82C41.092 4.125 44.486 3.75 47.809 3.673C48.227 3.664 48.751 3.603 49.088 3.216C49.332 2.935 49.422 2.548 49.363 2.033C49.347 1.892 49.372 1.72201 49.395 1.58801C49.559 0.662005 50.029 0.518999 50.467 0.500999L50.517 0.5Z" fill="#7C7958"/>
</g>
</svg>
