<svg width="96" height="68" viewBox="0 0 96 68" fill="none" xmlns="http://www.w3.org/2000/svg">
<g opacity="0.460007">
<path d="M4.40471 53.6202C4.12871 53.6202 3.85271 53.6212 3.57771 53.6272C3.32071 53.6332 2.86671 53.6432 2.77871 54.0632C2.64171 54.7242 2.49471 55.7052 2.80371 56.5862C2.92371 56.9222 3.19971 57.0932 3.62771 57.0932C3.76571 57.0932 3.91271 57.0762 4.05671 57.0592C4.17471 57.0452 4.28971 57.0312 4.39171 57.0312C14.9867 57.0392 25.5827 57.0402 36.1747 57.0402H91.2537C91.5667 57.0402 91.8817 57.0362 92.1947 57.0252C92.6077 57.0132 92.8447 56.8672 92.9017 56.5942C93.1017 55.6182 93.0977 54.7962 92.8897 54.0812C92.7947 53.7522 92.5437 53.5862 92.1447 53.5862C92.0397 53.5862 91.9277 53.5972 91.8167 53.6072C91.7257 53.6172 91.6347 53.6272 91.5517 53.6272C90.8387 53.5762 90.0507 53.3222 90.0207 52.3912C89.9867 51.3192 90.9187 51.1002 91.4757 51.0662C92.8987 50.9752 92.9987 50.8692 92.9987 49.4442V4.28919C92.9987 2.81919 92.8827 2.7002 91.4397 2.7002H4.20771C2.79571 2.7002 2.68071 2.8142 2.68071 4.2282L2.68671 50.2232C2.68571 50.7422 2.98371 51.0442 3.50571 51.0512C3.50571 51.0512 4.23971 51.0612 4.53371 51.0612L84.5907 51.0602C84.8427 51.0602 85.1117 51.0672 85.3717 51.1162C85.8637 51.2082 86.4487 51.4982 86.4437 52.3502C86.4397 53.0352 86.0737 53.4462 85.3557 53.5752C85.1297 53.6152 84.8957 53.6232 84.6617 53.6232L84.0977 53.6182L4.40471 53.6202ZM15.3177 59.5792C14.3067 59.5792 13.6647 59.8982 13.1687 60.6482C12.9287 61.0092 12.6417 61.3532 12.3637 61.6872C12.1497 61.9452 11.9347 62.2032 11.7367 62.4722C11.6627 62.5722 11.5647 62.6682 11.4667 62.7662C11.1657 63.0692 10.7527 63.4842 11.0077 64.0402C11.2507 64.5712 11.7557 64.5712 11.9217 64.5712C12.0727 64.5712 12.2317 64.5532 12.3877 64.5332C12.5167 64.5172 12.6447 64.5012 12.7607 64.5012C21.1197 64.5122 29.4767 64.5132 37.8327 64.5132L83.1757 64.5162C83.3137 64.5162 83.4517 64.5152 83.5897 64.5072H83.8777C84.0667 64.5072 84.5087 64.5072 84.7047 64.0392C84.8857 63.6072 84.6127 63.2812 84.4317 63.0652L84.3497 62.9652C84.1337 62.6902 83.9107 62.4212 83.6877 62.1512C83.2847 61.6642 82.8677 61.1602 82.5087 60.6372C81.9987 59.8952 81.3547 59.5792 80.3557 59.5792C69.5117 59.5912 58.6747 59.5962 47.8367 59.5962C36.9987 59.5962 26.1617 59.5912 15.3237 59.5792H15.3177ZM83.5907 67.0752C69.7597 67.0672 55.9277 67.0662 42.0977 67.0662L12.1227 67.0672C11.6257 67.0672 11.0617 67.0672 10.5427 66.8942C9.55671 66.5672 8.80671 65.8242 8.48371 64.8542C8.16471 63.8982 8.31471 62.8702 8.89471 62.0332C9.19571 61.6002 9.52471 61.1872 9.85271 60.7742L10.4177 60.0562L10.3027 59.9032C10.1397 59.6862 9.92571 59.5812 9.65071 59.5812C9.58371 59.5812 9.51471 59.5882 9.44871 59.5942C9.39971 59.5992 9.35171 59.6032 9.30571 59.6032C8.45371 59.5992 5.94971 59.5982 5.94971 59.5982L3.51671 59.5962C1.31971 59.5892 0.251709 58.5352 0.251709 56.3732V3.3792C0.252709 1.2582 1.24771 0.270195 3.38271 0.270195H33.0197C52.7797 0.270195 72.5377 0.268198 92.2967 0.250198C93.7297 0.250198 94.6767 0.795197 95.3637 2.0162V57.6942C94.7467 59.0042 93.7367 59.6142 92.1907 59.6142L92.0217 59.6112C91.1777 59.5882 90.3347 59.5802 89.4827 59.5802C88.8477 59.5802 85.2177 59.5972 85.2177 59.5972L85.3267 59.9252C85.5097 60.4842 85.8447 60.8622 86.1397 61.1952L86.3357 61.4202C87.4297 62.7262 87.6557 63.9272 87.0457 65.1952C86.4297 66.4772 85.3337 67.0752 83.5947 67.0752H83.5907Z" fill="#F1EBDF"/>
<path d="M11.9215 64.3212C11.6335 64.3212 11.3765 64.2452 11.2345 63.9362C10.9855 63.3922 11.6365 63.0282 11.9375 62.6192C12.3995 61.9942 12.9485 61.4312 13.3765 60.7862C13.8555 60.0622 14.4505 59.8282 15.3175 59.8282H15.3235C26.1915 59.8402 37.0585 59.8462 47.9265 59.8462C58.7345 59.8462 69.5425 59.8402 80.3495 59.8292H80.3555C81.2185 59.8292 81.8095 60.0602 82.3025 60.7782C82.8635 61.5962 83.5385 62.3362 84.1525 63.1192C84.3395 63.3572 84.6175 63.6002 84.4745 63.9422C84.3555 64.2262 84.1205 64.2572 83.8765 64.2572C83.8075 64.2572 83.7385 64.2552 83.6715 64.2552C83.6385 64.2552 83.6065 64.2552 83.5745 64.2572C83.4465 64.2642 83.3185 64.2662 83.1895 64.2662C83.0075 64.2662 82.8245 64.2622 82.6425 64.2622C71.0425 64.2622 59.4425 64.2622 47.8435 64.2622C44.2075 64.2622 40.5735 64.2622 36.9385 64.2622C28.8805 64.2622 20.8215 64.2612 12.7645 64.2502H12.7625C12.5045 64.2502 12.1995 64.3212 11.9215 64.3212ZM84.1155 50.8132C57.5885 50.8112 31.0615 50.8112 4.5345 50.8112C4.1925 50.8112 3.8495 50.8052 3.5075 50.8002C3.1295 50.7952 2.9355 50.6072 2.9375 50.2232C2.9375 49.9742 2.9315 49.7262 2.9315 49.4772C2.9315 34.3942 2.9305 19.3112 2.9315 4.2282C2.9315 2.9522 2.9335 2.9502 4.2075 2.9502C21.2415 2.9502 38.2725 2.9502 55.3065 2.9502C67.3505 2.9502 79.3965 2.9502 91.4395 2.9502C92.7475 2.9502 92.7485 2.95219 92.7485 4.28919C92.7485 19.3412 92.7485 34.3922 92.7485 49.4442C92.7485 50.7342 92.7475 50.7342 91.4605 50.8162C90.3655 50.8852 89.7415 51.4692 89.7705 52.3982C89.7985 53.2772 90.4175 53.7942 91.4765 53.8732C91.5015 53.8752 91.5265 53.8762 91.5525 53.8762C91.7375 53.8762 91.9525 53.8362 92.1455 53.8362C92.3765 53.8362 92.5745 53.8942 92.6495 54.1502C92.8725 54.9162 92.8195 55.7482 92.6565 56.5432C92.6165 56.7392 92.3755 56.7692 92.1855 56.7752C91.8755 56.7862 91.5645 56.7892 91.2535 56.7892C82.4935 56.7902 73.7355 56.7902 64.9765 56.7902H47.7775C43.7705 56.7902 39.7635 56.7902 35.7565 56.7902C25.3025 56.7902 14.8485 56.7892 4.3945 56.7802C4.1655 56.7802 3.8805 56.8422 3.6275 56.8422C3.3645 56.8422 3.1365 56.7752 3.0405 56.5022C2.7785 55.7552 2.8585 54.9082 3.0235 54.1142C3.0735 53.8742 3.3655 53.8822 3.5835 53.8772C3.8355 53.8712 4.0885 53.8702 4.3415 53.8702H4.6095C31.1055 53.8702 57.6015 53.8702 84.0975 53.8682C84.2835 53.8682 84.4705 53.8732 84.6575 53.8732C84.9075 53.8732 85.1575 53.8642 85.4005 53.8212C86.1955 53.6792 86.6895 53.1862 86.6935 52.3522C86.6985 51.5192 86.2115 51.0192 85.4165 50.8702C85.1505 50.8192 84.8745 50.8102 84.5985 50.8102C84.4375 50.8102 84.2755 50.8132 84.1155 50.8132ZM92.3015 0.000198364H92.2965C71.8135 0.0181984 51.3315 0.020195 30.8485 0.020195C24.4625 0.020195 18.0795 0.020195 11.6935 0.020195C8.9235 0.020195 6.1515 0.020195 3.3815 0.020195C1.0945 0.020195 0.0025 1.10619 0.0015 3.37919C-0.0005 21.0432 -0.0005 38.7082 0.0015 56.3732C0.0015 58.6892 1.1665 59.8392 3.5155 59.8452C4.0365 59.8472 4.5565 59.8472 5.0775 59.8472C5.6055 59.8472 6.1325 59.8472 6.6605 59.8472C7.5405 59.8472 8.4205 59.8482 9.3005 59.8532H9.3045C9.4145 59.8532 9.5335 59.8312 9.6515 59.8312C9.8085 59.8312 9.9655 59.8702 10.1035 60.0532C9.6315 60.6632 9.1305 61.2562 8.6905 61.8902C7.3655 63.7992 8.2575 66.3992 10.4635 67.1322C11.0065 67.3122 11.5625 67.3172 12.1225 67.3172C22.3535 67.3162 32.5805 67.3152 42.8105 67.3152C56.4035 67.3152 69.9985 67.3172 83.5905 67.3252H83.5955C85.2255 67.3252 86.5355 66.8352 87.2715 65.3042C87.9975 63.7932 87.5435 62.4722 86.5265 61.2582C86.1855 60.8512 85.7715 60.4762 85.5635 59.8462C86.9065 59.8462 88.2085 59.8302 89.4935 59.8302C90.3385 59.8302 91.1775 59.8372 92.0155 59.8612C92.0745 59.8622 92.1325 59.8632 92.1905 59.8632C93.7775 59.8632 94.9315 59.2392 95.6135 57.7492V1.95119C94.8975 0.641195 93.8685 0.000198364 92.3015 0.000198364ZM11.9215 64.8212C12.0825 64.8212 12.2525 64.8012 12.4185 64.7812C12.5385 64.7662 12.6555 64.7502 12.7635 64.7502C20.8215 64.7612 28.8805 64.7622 36.9385 64.7622H42.3905H47.8435H82.6425L82.9105 64.7642L83.1895 64.7662C83.3275 64.7662 83.4645 64.7642 83.6015 64.7562L83.6715 64.7552L83.7635 64.7562L83.8765 64.7572C84.0735 64.7572 84.6755 64.7572 84.9355 64.1352C85.1755 63.5622 84.8155 63.1342 84.6225 62.9032L84.5465 62.8102C84.3275 62.5322 84.1015 62.2592 83.8755 61.9862C83.4775 61.5052 83.0665 61.0072 82.7145 60.4952C82.1535 59.6782 81.4475 59.3292 80.3495 59.3292C69.5425 59.3402 58.7345 59.3462 47.9265 59.3462C37.0585 59.3462 26.1915 59.3402 15.3175 59.3282C14.2285 59.3282 13.5005 59.6932 12.9595 60.5092C12.7275 60.8592 12.4575 61.1842 12.1705 61.5282C11.9535 61.7892 11.7365 62.0502 11.5355 62.3222C11.4685 62.4132 11.3795 62.5002 11.2905 62.5892C10.9775 62.9042 10.4525 63.4302 10.7795 64.1442C10.9215 64.4532 11.2345 64.8212 11.9215 64.8212ZM84.1155 51.3132L84.3605 51.3112L84.5985 51.3102C84.8235 51.3102 85.0865 51.3162 85.3245 51.3612C86.1075 51.5092 86.1955 51.9962 86.1935 52.3502C86.1925 52.7032 86.0985 53.1882 85.3125 53.3282C85.0915 53.3682 84.8565 53.3732 84.6575 53.3732L84.3835 53.3712L84.0975 53.3682L14.4095 53.3702H4.6095H4.4755H4.3415C4.0845 53.3702 3.8275 53.3712 3.5375 53.3772C3.3215 53.3822 2.6625 53.3952 2.5335 54.0122C2.3905 54.7012 2.2385 55.7272 2.5685 56.6682C2.6765 56.9752 2.9485 57.3422 3.6275 57.3422C3.7755 57.3422 3.9335 57.3252 4.0875 57.3072C4.1945 57.2942 4.3005 57.2802 4.3945 57.2802C14.8485 57.2892 25.3025 57.2902 35.7565 57.2902H41.7665H47.7775H56.3765H64.9765L91.2535 57.2892C91.5695 57.2892 91.8865 57.2862 92.2035 57.2752C92.8805 57.2522 93.0895 56.9192 93.1455 56.6442C93.3545 55.6272 93.3495 54.7662 93.1295 54.0102C93.0565 53.7582 92.8315 53.3362 92.1455 53.3362C92.0315 53.3362 91.9115 53.3472 91.7925 53.3592C91.7145 53.3662 91.6385 53.3752 91.5345 53.3752H91.5145C90.2985 53.2842 90.2775 52.6052 90.2705 52.3822C90.2445 51.5652 90.9205 51.3512 91.4915 51.3152C93.0355 51.2172 93.2485 50.9902 93.2485 49.4442V4.28919C93.2485 2.67319 93.0285 2.4502 91.4395 2.4502H55.3065H4.2075C2.6635 2.4502 2.4315 2.6832 2.4315 4.2282V49.4772L2.4345 49.8372C2.4365 49.9652 2.4375 50.0932 2.4375 50.2212C2.4345 50.8782 2.8425 51.2912 3.5005 51.3002L3.6195 51.3022C3.9245 51.3062 4.2295 51.3112 4.5345 51.3112H23.1035L84.1155 51.3132ZM92.3015 0.500198C93.6065 0.500198 94.4785 0.989199 95.1135 2.0822V57.6372C94.5405 58.8142 93.6085 59.3632 92.1905 59.3632L92.0295 59.3612C91.2805 59.3402 90.4745 59.3302 89.4935 59.3302C88.8565 59.3302 88.2165 59.3342 87.5695 59.3382C86.9095 59.3422 86.2415 59.3462 85.5635 59.3462H84.8715L85.0885 60.0032C85.2895 60.6102 85.6405 61.0082 85.9515 61.3582C86.0165 61.4322 86.0815 61.5052 86.1435 61.5792C87.1675 62.8022 87.3825 63.9172 86.8205 65.0872C86.2435 66.2892 85.2485 66.8252 83.5905 66.8252C69.9985 66.8172 56.4035 66.8152 42.8105 66.8152L22.2675 66.8162L12.1225 66.8172C11.6205 66.8172 11.1025 66.8172 10.6205 66.6572C9.7115 66.3552 9.0185 65.6692 8.7205 64.7752C8.4265 63.8942 8.5655 62.9472 9.1015 62.1752C9.3935 61.7542 9.7245 61.3382 10.0435 60.9362C10.1965 60.7442 10.3485 60.5522 10.4985 60.3582L10.7325 60.0562L10.5025 59.7522C10.2915 59.4722 10.0055 59.3312 9.6515 59.3312C9.5755 59.3312 9.4985 59.3372 9.4235 59.3452C9.3825 59.3492 9.3435 59.3532 9.3035 59.3532C8.4225 59.3482 7.5415 59.3472 6.6605 59.3472H5.8685H5.0775L3.5175 59.3452C1.4315 59.3402 0.5015 58.4232 0.5015 56.3732C0.4995 38.7082 0.4995 21.0432 0.5015 3.37919C0.5025 1.37519 1.3635 0.520195 3.3815 0.520195H11.6935H21.2705H30.8485C51.3315 0.520195 71.8135 0.518198 92.2965 0.500198H92.3015Z" fill="#7C7958"/>
<path d="M47.7503 37.1925C46.2703 37.1925 46.1333 37.3235 46.1303 38.7545C46.1273 40.4245 46.1783 40.6085 47.7173 40.6115H47.9183C49.4563 40.6115 49.5473 40.4295 49.5493 39.0015C49.5503 38.1595 49.5513 37.7375 49.3143 37.4715C49.0663 37.1935 48.6823 37.1935 47.9153 37.1925H47.7503ZM47.8543 43.1875C47.2243 43.1875 46.5943 43.1755 45.9643 43.1545C44.5473 43.1065 43.6363 42.2035 43.5873 40.7965C43.5423 39.5315 43.5423 38.2525 43.5883 36.9955C43.6393 35.5875 44.5263 34.7085 45.9633 34.6435C46.2023 34.6325 46.4403 34.6295 46.6803 34.6295L47.9083 34.6395L49.0763 34.6295C49.3043 34.6295 49.5303 34.6335 49.7583 34.6455C51.1593 34.7185 52.0303 35.5805 52.0873 36.9485C52.1403 38.2235 52.1403 39.5335 52.0883 40.8395C52.0353 42.1895 51.1223 43.0965 49.7643 43.1505C49.1283 43.1755 48.4913 43.1875 47.8543 43.1875Z" fill="#F1EBDF"/>
<path d="M47.9262 40.361C47.8602 40.361 47.7912 40.361 47.7182 40.361C46.3772 40.358 46.3772 40.358 46.3812 38.756C46.3832 37.486 46.3832 37.442 47.7612 37.442H47.9152C49.3012 37.443 49.3012 37.443 49.2992 39C49.2972 40.301 49.2972 40.361 47.9262 40.361ZM46.6802 34.379C46.4372 34.379 46.1952 34.382 45.9522 34.393C44.4012 34.462 43.3942 35.44 43.3382 36.986C43.2922 38.258 43.2932 39.534 43.3372 40.805C43.3912 42.339 44.4102 43.351 45.9552 43.404C46.5892 43.426 47.2242 43.438 47.8592 43.438C48.4982 43.438 49.1362 43.426 49.7732 43.4C51.2672 43.341 52.2792 42.335 52.3382 40.849C52.3902 39.547 52.3912 38.24 52.3372 36.938C52.2752 35.436 51.2762 34.474 49.7712 34.395C49.5372 34.383 49.3032 34.379 49.0692 34.379C48.6932 34.379 48.3172 34.389 47.9412 34.389H47.9082C47.4992 34.388 47.0902 34.379 46.6802 34.379ZM47.9262 40.861C49.5342 40.861 49.7972 40.6 49.7992 39C49.8002 38.096 49.8012 37.643 49.5022 37.306C49.1802 36.943 48.7042 36.943 47.9102 36.942H47.7612C46.1302 36.942 45.8842 37.179 45.8812 38.755C45.8792 39.676 45.8782 40.138 46.1612 40.478C46.4782 40.858 46.9442 40.859 47.7172 40.861H47.9262ZM46.6802 34.879C46.8902 34.879 47.0992 34.881 47.3082 34.884C47.5082 34.886 47.7082 34.889 47.9412 34.889C48.1312 34.889 48.3222 34.887 48.5122 34.884C48.6982 34.882 48.8832 34.879 49.0692 34.879C49.2952 34.879 49.5202 34.883 49.7452 34.895C51.0052 34.961 51.7872 35.732 51.8372 36.958C51.8902 38.223 51.8902 39.525 51.8382 40.829C51.7902 42.058 50.9912 42.851 49.7542 42.901C49.1412 42.925 48.5032 42.938 47.8592 42.938C47.2302 42.938 46.6002 42.926 45.9722 42.904C44.6992 42.861 43.8812 42.05 43.8372 40.788C43.7922 39.519 43.7932 38.246 43.8372 37.005C43.8842 35.721 44.6632 34.951 45.9752 34.892C46.2102 34.882 46.4452 34.879 46.6802 34.879Z" fill="#7C7958"/>
<path d="M74.6282 37.1924C73.1152 37.1924 73.0252 37.3774 73.0242 38.8294C73.0242 39.6584 73.0232 40.0744 73.2652 40.3384C73.5142 40.6104 73.9032 40.6104 74.6792 40.6114H74.7922C75.5162 40.6114 75.9522 40.6114 76.2112 40.3414C76.4582 40.0864 76.4582 39.6984 76.4582 38.9264C76.4592 37.3074 76.3532 37.1944 74.8232 37.1924H74.6282ZM74.7772 43.1904C74.0952 43.1904 73.4132 43.1734 72.7322 43.1414C71.5612 43.0884 70.7362 42.3304 70.5822 41.1634C70.3762 39.6134 70.3792 38.0754 70.5892 36.5934C70.7542 35.4404 71.5912 34.6964 72.7732 34.6534C73.4542 34.6284 74.1362 34.6134 74.8182 34.6134C75.4652 34.6134 76.1112 34.6274 76.7562 34.6574C78.1192 34.7214 78.9562 35.6044 78.9942 37.0184C79.0062 37.4634 79.0032 37.9104 79.0002 38.3574L78.9992 39.5254C79.0022 39.9274 79.0042 40.3294 78.9952 40.7304C78.9612 42.2014 78.1292 43.0814 76.7122 43.1454C76.0682 43.1754 75.4232 43.1904 74.7772 43.1904Z" fill="#F1EBDF"/>
<path d="M74.7783 40.3609H74.6793C73.2733 40.3599 73.2733 40.3599 73.2743 38.8289C73.2753 37.4979 73.2753 37.4419 74.6363 37.4419C74.6963 37.4419 74.7583 37.4419 74.8243 37.4419C76.2093 37.4439 76.2093 37.4439 76.2083 38.9269C76.2083 40.3299 76.2083 40.3609 74.7783 40.3609ZM74.8223 34.3629C74.1363 34.3629 73.4493 34.3779 72.7643 34.4029C71.4673 34.4509 70.5243 35.2809 70.3423 36.5589C70.1233 38.0979 70.1303 39.6569 70.3343 41.1969C70.5063 42.4899 71.4253 43.3319 72.7213 43.3919C73.4053 43.4239 74.0913 43.4399 74.7783 43.4399C75.4273 43.4399 76.0763 43.4249 76.7243 43.3959C78.2893 43.3239 79.2093 42.3099 79.2453 40.7369C79.2583 40.1469 79.2473 39.5569 79.2473 38.9669C79.2473 38.3149 79.2613 37.6629 79.2443 37.0119C79.2033 35.4939 78.2783 34.4779 76.7673 34.4069C76.1203 34.3769 75.4713 34.3629 74.8223 34.3629ZM74.7783 40.8609C76.4733 40.8609 76.7073 40.6259 76.7083 38.9269C76.7093 37.1669 76.4983 36.9449 74.8163 36.9419H74.6363C72.9363 36.9419 72.7753 37.2749 72.7743 38.8289C72.7733 39.7229 72.7733 40.1719 73.0803 40.5069C73.4043 40.8599 73.8573 40.8609 74.6793 40.8609H74.7783ZM74.8223 34.8629C75.4883 34.8629 76.1353 34.8779 76.7433 34.9069C77.9623 34.9639 78.7103 35.7559 78.7443 37.0249C78.7553 37.4649 78.7523 37.9059 78.7493 38.3459L78.7473 38.9669L78.7493 39.5149C78.7523 39.9189 78.7543 40.3219 78.7453 40.7259C78.7153 42.0659 77.9893 42.8369 76.7013 42.8959C76.0683 42.9249 75.4213 42.9399 74.7783 42.9399C74.1063 42.9399 73.4223 42.9239 72.7443 42.8919C71.6853 42.8429 70.9703 42.1849 70.8303 41.1309C70.6273 39.6019 70.6293 38.0869 70.8373 36.6289C70.9833 35.6029 71.7283 34.9419 72.7823 34.9029C73.5093 34.8759 74.1773 34.8629 74.8223 34.8629Z" fill="#7C7958"/>
<path d="M20.9876 37.1914C19.3376 37.1914 19.2216 37.3024 19.2216 38.8874C19.2206 40.4964 19.3286 40.6094 20.8686 40.6114H21.0286C22.5636 40.6114 22.6546 40.4244 22.6556 38.9624C22.6566 37.3084 22.5476 37.1924 20.9876 37.1914ZM20.8786 43.1914C20.2316 43.1914 19.5846 43.1754 18.9396 43.1434C17.5356 43.0744 16.7136 42.1844 16.6836 40.7044C16.6756 40.2664 16.6776 39.8274 16.6806 39.3894L16.6796 38.2634C16.6766 37.8394 16.6746 37.4164 16.6856 36.9924C16.7276 35.5874 17.5736 34.7144 18.9486 34.6554C19.5966 34.6274 20.2466 34.6134 20.8956 34.6134C21.5746 34.6134 22.2536 34.6284 22.9296 34.6564C24.0996 34.7034 24.9286 35.4554 25.0946 36.6194C25.2966 38.0324 25.3006 39.5394 25.1086 41.0994C24.9546 42.3444 24.1756 43.0684 22.9156 43.1364C22.2386 43.1734 21.5586 43.1914 20.8786 43.1914Z" fill="#F1EBDF"/>
<path d="M21.0466 40.3614C20.9896 40.3614 20.9306 40.3614 20.8696 40.3614C19.4716 40.3594 19.4716 40.3594 19.4716 38.8884C19.4726 37.4674 19.4726 37.4424 20.9076 37.4424H20.9876C22.4066 37.4424 22.4066 37.4424 22.4056 38.9614C22.4046 40.3074 22.4046 40.3614 21.0466 40.3614ZM20.8956 34.3634C20.2426 34.3634 19.5896 34.3774 18.9386 34.4054C17.4226 34.4704 16.4806 35.4804 16.4366 36.9854C16.4186 37.6054 16.4336 38.2264 16.4326 38.8474C16.4326 39.4684 16.4226 40.0894 16.4346 40.7094C16.4646 42.2934 17.3696 43.3164 18.9276 43.3934C19.5776 43.4254 20.2306 43.4414 20.8826 43.4414C21.5656 43.4414 22.2486 43.4234 22.9296 43.3864C24.3056 43.3124 25.1876 42.4904 25.3566 41.1294C25.5436 39.6204 25.5576 38.0924 25.3426 36.5834C25.1586 35.2954 24.2336 34.4584 22.9406 34.4064C22.2606 34.3784 21.5776 34.3634 20.8956 34.3634ZM21.0466 40.8614C22.7446 40.8614 22.9046 40.5254 22.9056 38.9614C22.9056 38.0714 22.9066 37.6254 22.5946 37.2914C22.2696 36.9424 21.8146 36.9424 20.9866 36.9424H20.9076C19.2076 36.9424 18.9726 37.1784 18.9716 38.8884C18.9716 40.6374 19.1836 40.8584 20.8686 40.8614H21.0466ZM20.8956 34.8634C21.5556 34.8634 22.2366 34.8774 22.9206 34.9054C23.9766 34.9484 24.6966 35.6024 24.8476 36.6544C25.0466 38.0464 25.0506 39.5314 24.8606 41.0684C24.7206 42.1964 24.0436 42.8254 22.9026 42.8874C22.2386 42.9234 21.5596 42.9414 20.8826 42.9414C20.2456 42.9414 19.5966 42.9254 18.9526 42.8934C17.6776 42.8304 16.9606 42.0514 16.9346 40.6994C16.9256 40.2714 16.9286 39.8424 16.9306 39.4144L16.9326 38.8474L16.9306 38.2464C16.9266 37.8304 16.9236 37.4144 16.9366 36.9994C16.9736 35.7414 17.7296 34.9584 18.9596 34.9044C19.5906 34.8774 20.2416 34.8634 20.8956 34.8634Z" fill="#7C7958"/>
<path d="M34.3042 37.1921C32.7722 37.1921 32.6812 37.3761 32.6782 38.8171C32.6762 40.4921 32.7842 40.6091 34.3352 40.6111H34.4492C35.9762 40.6111 36.1002 40.4861 36.1012 38.9391C36.1022 37.3081 35.9972 37.1941 34.5022 37.1921H34.3042ZM34.3722 43.1821C33.7892 43.1821 33.2072 43.1741 32.6252 43.1601C31.0542 43.1211 30.1682 42.2281 30.1292 40.6491C30.1192 40.2501 30.1222 39.8491 30.1242 39.4501L30.1322 38.8871L30.1272 38.2751C30.1212 37.8321 30.1162 37.3871 30.1382 36.9451C30.2072 35.5941 31.0652 34.7171 32.3742 34.6571C33.0312 34.6271 33.6882 34.6121 34.3462 34.6121C35.0162 34.6121 35.6862 34.6271 36.3542 34.6541C37.6702 34.7071 38.5652 35.6341 38.6322 37.0161C38.6982 38.3191 38.6972 39.5931 38.6292 40.8031C38.5502 42.2431 37.6222 43.1241 36.1492 43.1601C35.5572 43.1741 34.9642 43.1821 34.3722 43.1821Z" fill="#F1EBDF"/>
<path d="M34.4827 40.3606H34.3357C32.9257 40.3596 32.9257 40.3596 32.9287 38.8176C32.9307 37.4956 32.9307 37.4416 34.3197 37.4416C34.3777 37.4416 34.4387 37.4416 34.5027 37.4416C35.8517 37.4436 35.8517 37.4436 35.8507 38.9376C35.8507 40.3146 35.8507 40.3606 34.4827 40.3606ZM34.3547 34.3616C33.6907 34.3616 33.0257 34.3766 32.3627 34.4066C30.9147 34.4746 29.9627 35.4816 29.8877 36.9326C29.8547 37.5826 29.8827 38.2356 29.8827 38.8866H29.8767C29.8767 39.4766 29.8647 40.0656 29.8797 40.6546C29.9217 42.3546 30.9137 43.3666 32.6187 43.4096C33.2047 43.4246 33.7917 43.4326 34.3797 43.4326C34.9717 43.4326 35.5637 43.4246 36.1547 43.4106C37.7517 43.3706 38.7917 42.4106 38.8797 40.8176C38.9497 39.5486 38.9457 38.2716 38.8827 37.0026C38.8067 35.4786 37.8167 34.4626 36.3637 34.4036C35.6947 34.3766 35.0247 34.3616 34.3547 34.3616ZM34.4827 40.8606C36.1897 40.8606 36.3507 40.5216 36.3507 38.9386C36.3517 37.2456 36.2147 36.9446 34.5037 36.9416H34.3197C32.6787 36.9416 32.4307 37.1866 32.4287 38.8166C32.4267 39.7156 32.4267 40.1676 32.7327 40.5036C33.0577 40.8596 33.5117 40.8596 34.3347 40.8606H34.4827ZM34.3547 34.8616C34.9987 34.8616 35.6677 34.8756 36.3437 34.9026C37.5387 34.9516 38.3207 35.7656 38.3827 37.0276C38.4477 38.3256 38.4467 39.5906 38.3797 40.7896C38.3077 42.1046 37.4927 42.8776 36.1427 42.9106C35.5547 42.9246 34.9667 42.9326 34.3797 42.9326C33.7967 42.9326 33.2137 42.9246 32.6307 42.9106C31.1937 42.8736 30.4147 42.0896 30.3797 40.6426C30.3697 40.2436 30.3717 39.8446 30.3747 39.4446V39.3866H30.3827V38.8866C30.3827 38.6816 30.3797 38.4756 30.3767 38.2706C30.3707 37.8376 30.3647 37.3896 30.3877 36.9586C30.4497 35.7466 31.2157 34.9606 32.3857 34.9066C33.0237 34.8766 33.6857 34.8616 34.3547 34.8616Z" fill="#7C7958"/>
<path d="M61.2192 37.1925C59.7022 37.1925 59.5792 37.3185 59.5782 38.8785C59.5782 40.4965 59.6842 40.6095 61.1912 40.6115H61.3542C62.9072 40.6115 62.9992 40.4255 63.0012 38.9715C63.0022 38.1295 63.0032 37.7085 62.7422 37.4465C62.4892 37.1925 62.1012 37.1925 61.3302 37.1925H61.2192ZM61.2932 43.1895C60.6452 43.1895 59.9962 43.1755 59.3502 43.1485C58.0032 43.0925 57.1212 42.1945 57.0492 40.8045C56.9832 39.5445 56.9822 38.2695 57.0472 37.0165C57.1222 35.5395 58.0532 34.6715 59.6002 34.6365C59.8172 34.6315 60.0342 34.6305 60.2512 34.6305L61.1132 34.6345L61.3632 34.6445C61.5672 34.6445 62.3802 34.6295 62.5812 34.6295C62.8222 34.6295 63.0612 34.6345 63.2992 34.6515C64.6332 34.7435 65.4902 35.6215 65.5372 36.9425C65.5832 38.2005 65.5832 39.5095 65.5382 40.8335C65.4922 42.2045 64.6112 43.0905 63.2362 43.1485C62.5892 43.1755 61.9412 43.1895 61.2932 43.1895Z" fill="#F1EBDF"/>
<path d="M61.3632 40.361C61.3082 40.361 61.2512 40.361 61.1912 40.361C59.8282 40.359 59.8282 40.359 59.8292 38.878C59.8292 37.473 59.8292 37.442 61.2332 37.442H61.3302C62.7532 37.442 62.7532 37.442 62.7512 38.971C62.7492 40.31 62.7492 40.361 61.3632 40.361ZM62.5842 34.38C62.1772 34.38 61.7692 34.394 61.3632 34.394V34.385C60.9942 34.385 60.6262 34.381 60.2582 34.381C60.0372 34.381 59.8162 34.382 59.5942 34.387C57.9372 34.423 56.8812 35.37 56.7972 37.003C56.7322 38.272 56.7332 39.549 56.7992 40.817C56.8792 42.332 57.8752 43.337 59.3392 43.398C59.9902 43.425 60.6422 43.439 61.2952 43.439C61.9462 43.439 62.5972 43.425 63.2472 43.398C64.7542 43.335 65.7392 42.336 65.7892 40.841C65.8322 39.54 65.8342 38.235 65.7872 36.933C65.7352 35.479 64.7642 34.502 63.3162 34.402C63.0732 34.385 62.8292 34.38 62.5842 34.38ZM61.3632 40.861C63.0022 40.861 63.2492 40.614 63.2512 38.971C63.2522 38.077 63.2532 37.628 62.9412 37.293C62.6152 36.942 62.1592 36.942 61.3302 36.942H61.2332C59.5602 36.942 59.3292 37.177 59.3292 38.878C59.3282 40.636 59.5372 40.859 61.1972 40.861H61.3632ZM62.5842 34.88C62.8172 34.88 63.0502 34.884 63.2822 34.901C64.4772 34.983 65.2452 35.769 65.2882 36.951C65.3332 38.212 65.3332 39.515 65.2892 40.825C65.2472 42.071 64.4762 42.846 63.2252 42.899C62.5882 42.925 61.9382 42.939 61.2952 42.939C60.6542 42.939 60.0022 42.926 59.3602 42.899C58.1542 42.848 57.3642 42.041 57.2992 40.791C57.2332 39.542 57.2322 38.276 57.2962 37.029C57.3662 35.678 58.1862 34.918 59.6052 34.887C59.8232 34.882 60.0412 34.881 60.2582 34.881L60.8082 34.882L60.8632 34.883V34.894H61.3632C61.5692 34.894 61.7762 34.891 61.9822 34.887C62.1832 34.883 62.3842 34.88 62.5842 34.88Z" fill="#7C7958"/>
<path d="M56.2884 19.6846C55.9474 19.6846 55.6054 19.5206 55.2434 19.1816C53.1624 17.2376 50.6674 16.2516 47.8264 16.2516C47.5714 16.2516 47.3144 16.2596 47.0544 16.2746C44.6824 16.4146 42.5974 17.2926 40.6814 18.9586L40.5094 19.1136C40.2794 19.3216 40.0634 19.5186 39.7934 19.6006C39.6314 19.6506 39.4764 19.6746 39.3344 19.6746C38.9654 19.6746 38.6524 19.5076 38.4054 19.1786C38.0294 18.6786 38.0394 18.1756 38.4344 17.6826C38.9524 17.0356 39.6234 16.5346 40.2714 16.0886C42.5764 14.5056 45.1094 13.7036 47.8014 13.7036C51.3094 13.7276 54.3754 14.9486 56.9314 17.3306C57.3504 17.7216 57.5684 18.1906 57.5274 18.6166C57.4954 18.9616 57.3014 19.2556 56.9664 19.4666C56.7344 19.6136 56.5124 19.6846 56.2884 19.6846Z" fill="#F1EBDF"/>
<path d="M47.7984 13.4531C44.9844 13.4531 42.4394 14.2961 40.1304 15.8831C39.4384 16.3581 38.7664 16.8671 38.2394 17.5261C37.7804 18.1001 37.7584 18.7331 38.2054 19.3281C38.5084 19.7311 38.8934 19.9241 39.3344 19.9241C39.5034 19.9241 39.6814 19.8961 39.8654 19.8401C40.2634 19.7181 40.5404 19.4121 40.8454 19.1471C42.6324 17.5931 44.6734 16.6651 47.0694 16.5241C47.3234 16.5091 47.5754 16.5011 47.8244 16.5011C50.5864 16.5011 53.0024 17.4301 55.0734 19.3641C55.4494 19.7151 55.8544 19.9351 56.2884 19.9351C56.5484 19.9351 56.8194 19.8561 57.1004 19.6781C58.0064 19.1071 58.0144 17.9981 57.1024 17.1481C54.4904 14.7131 51.3944 13.4781 47.8204 13.4531H47.7984ZM47.7984 13.4531L47.8164 13.9531C51.2434 13.9771 54.2524 15.1751 56.7614 17.5131C57.1234 17.8511 57.3124 18.2441 57.2794 18.5921C57.2544 18.8581 57.1004 19.0871 56.8334 19.2551C56.6424 19.3761 56.4634 19.4351 56.2884 19.4351C56.0184 19.4351 55.7244 19.2881 55.4144 18.9981C53.2854 17.0101 50.7314 16.0011 47.8244 16.0011C47.5654 16.0011 47.3044 16.0091 47.0394 16.0251C44.6104 16.1681 42.4774 17.0661 40.5174 18.7701C40.4584 18.8211 40.4004 18.8731 40.3434 18.9261C40.1254 19.1241 39.9374 19.2951 39.7194 19.3611C39.5824 19.4031 39.4524 19.4241 39.3344 19.4241C39.0444 19.4241 38.8054 19.2951 38.6054 19.0281C38.2994 18.6201 38.3064 18.2421 38.6294 17.8381C39.1264 17.2171 39.7804 16.7291 40.4134 16.2951C42.6744 14.7411 45.1594 13.9531 47.7984 13.9531V13.4531Z" fill="#7C7958"/>
<path d="M52.1294 23.916C51.8124 23.916 51.4724 23.775 51.1184 23.499C49.9904 22.618 48.9204 22.19 47.8474 22.19C46.7714 22.19 45.6924 22.621 44.5514 23.508C44.2024 23.777 43.8664 23.915 43.5514 23.915C43.2224 23.915 42.9254 23.761 42.6704 23.458C42.2184 22.921 42.3124 22.21 42.9104 21.646C44.2644 20.376 45.8804 19.732 47.8544 19.678C49.7984 19.727 51.4604 20.391 52.7784 21.653C53.3714 22.222 53.4594 22.934 53.0024 23.467C52.7474 23.765 52.4534 23.916 52.1294 23.916Z" fill="#F1EBDF"/>
<path d="M47.8473 19.427C45.8603 19.482 44.1583 20.131 42.7393 21.465C42.0313 22.13 41.9463 22.987 42.4783 23.619C42.7843 23.982 43.1523 24.165 43.5513 24.165C43.9173 24.165 44.3093 24.012 44.7043 23.705C45.7903 22.862 46.8193 22.44 47.8473 22.44C48.8713 22.44 49.8923 22.859 50.9643 23.696C51.3653 24.01 51.7603 24.166 52.1283 24.166C52.5223 24.166 52.8853 23.987 53.1913 23.63C53.7273 23.004 53.6513 22.143 52.9513 21.472C51.5153 20.097 49.7713 19.476 47.8473 19.427ZM47.8483 19.927C49.7363 19.978 51.3373 20.619 52.6053 21.833C53.1023 22.309 53.1813 22.873 52.8113 23.305C52.6033 23.548 52.3803 23.666 52.1283 23.666C51.8733 23.666 51.5763 23.54 51.2723 23.302C50.0993 22.386 48.9783 21.94 47.8473 21.94C46.7133 21.94 45.5843 22.388 44.3973 23.31C44.0983 23.542 43.8063 23.665 43.5513 23.665C43.2993 23.665 43.0663 23.541 42.8613 23.297C42.4963 22.863 42.5803 22.301 43.0823 21.829C44.3843 20.605 45.9433 19.982 47.8483 19.927Z" fill="#7C7958"/>
<path d="M47.8401 28.1748C47.5401 28.1748 47.2261 28.0288 46.9761 27.7758C46.7221 27.5178 46.5801 27.1928 46.5851 26.8838C46.5961 26.2548 47.1941 25.6818 47.8381 25.6818C48.5021 25.6878 49.0951 26.2708 49.0931 26.9038C49.0911 27.5288 48.4831 28.1578 47.8661 28.1748H47.8401Z" fill="#F1EBDF"/>
<path d="M47.8396 25.4308C47.0586 25.4308 46.3496 26.1128 46.3356 26.8788C46.3226 27.6638 47.0686 28.4248 47.8406 28.4248C47.8516 28.4248 47.8626 28.4248 47.8736 28.4248C48.6266 28.4038 49.3396 27.6668 49.3426 26.9048C49.3456 26.1358 48.6406 25.4388 47.8526 25.4308H47.8396ZM47.8396 25.4308L47.8476 25.9308C48.3606 25.9358 48.8446 26.4088 48.8426 26.9028C48.8406 27.3958 48.3446 27.9108 47.8406 27.9248C47.6106 27.9248 47.3546 27.8038 47.1546 27.5998C46.9506 27.3928 46.8316 27.1268 46.8356 26.8878C46.8446 26.3958 47.3326 25.9308 47.8396 25.9308V25.4308Z" fill="#7C7958"/>
</g>
</svg>
