<svg width="89" height="73" viewBox="0 0 89 73" fill="none" xmlns="http://www.w3.org/2000/svg">
<g opacity="0.460007">
<path d="M84.6677 21.4585C83.9717 21.4585 83.2727 21.1635 82.4707 20.5295C77.8517 16.8845 72.7897 13.9375 67.4257 11.7705C62.1127 9.6215 56.5607 8.2345 50.9227 7.6465C48.6977 7.4145 46.4607 7.2965 44.2747 7.2965C34.1647 7.2965 24.3477 9.8135 15.0967 14.7785C12.3027 16.2775 9.45974 18.1575 6.15074 20.6955C5.50874 21.1875 4.78573 21.4485 4.05873 21.4485C2.61773 21.4485 1.42273 20.4305 1.08473 18.9145C0.802734 17.6515 1.22273 16.6265 2.40373 15.6875C4.99873 13.6245 7.70973 11.7705 10.4617 10.1795C18.4677 5.5475 27.1867 2.6165 36.3777 1.4685C38.9017 1.1525 41.1387 1.0005 43.2157 1.0005C43.6177 1.0005 44.0187 1.0055 44.4217 1.0185C59.9817 1.1395 74.0757 6.0385 86.3327 15.5825C87.6157 16.5815 88.0577 17.6155 87.7667 18.9355C87.4677 20.2905 86.6347 21.0965 85.2227 21.3985C85.0357 21.4385 84.8487 21.4585 84.6677 21.4585Z" fill="#7C7958"/>
<path d="M43.2206 -1.52588e-05C40.8846 -1.52588e-05 38.5636 0.187985 36.2546 0.475985C26.8996 1.64498 18.1286 4.58799 9.9606 9.31398C7.0956 10.972 4.3736 12.844 1.7816 14.904C0.415603 15.99 -0.284398 17.373 0.108602 19.132C0.573602 21.215 2.2376 22.448 4.0586 22.448C4.9626 22.448 5.9046 22.144 6.7586 21.489C9.5636 19.339 12.4556 17.331 15.5686 15.66C24.6566 10.783 34.2176 8.29598 44.2766 8.29698C46.4346 8.29698 48.6156 8.41098 50.8196 8.64098C56.4256 9.22598 61.8306 10.587 67.0516 12.697C72.3966 14.856 77.3246 17.743 81.8506 21.315C82.7066 21.99 83.6236 22.459 84.6676 22.459C84.9146 22.459 85.1696 22.433 85.4316 22.377C87.1946 22 88.3496 20.932 88.7426 19.151C89.1516 17.302 88.3756 15.906 86.9466 14.793C74.4436 5.05799 60.2746 0.140984 44.4506 0.0179844C44.0406 0.00598439 43.6306 -1.52588e-05 43.2206 -1.52588e-05ZM43.2206 1.99998C43.6106 1.99998 44.0016 2.00598 44.4356 2.01798C59.7486 2.13698 73.6386 6.96598 85.7176 16.372C86.8446 17.249 86.9616 17.944 86.7896 18.719C86.5756 19.692 86.0436 20.2 85.0126 20.421C84.8926 20.447 84.7806 20.459 84.6676 20.459C84.3786 20.459 83.9006 20.385 83.0896 19.745C78.3946 16.04 73.2506 13.044 67.8006 10.842C62.3996 8.65898 56.7556 7.24999 51.0266 6.65199C48.7676 6.41599 46.4966 6.29699 44.2766 6.29699C33.9986 6.29599 24.0216 8.85398 14.6236 13.898C11.7826 15.422 8.8966 17.33 5.5416 19.902C5.0766 20.259 4.5636 20.448 4.0586 20.448C3.0826 20.448 2.2986 19.76 2.0606 18.697C1.9166 18.053 1.9346 17.338 3.0266 16.469C5.5816 14.439 8.2516 12.614 10.9626 11.045C18.8506 6.47998 27.4436 3.59299 36.5026 2.46099C38.9836 2.15099 41.1816 1.99998 43.2206 1.99998Z" fill="#F1EBDF"/>
<path d="M73.0994 35.937C72.3434 35.937 71.6144 35.666 70.9904 35.151C65.7764 30.849 60.0694 27.975 54.0284 26.609C50.6434 25.844 47.2904 25.456 44.0604 25.456C34.8974 25.456 26.2914 28.564 18.4794 34.694C17.4864 35.474 16.7344 35.926 15.8324 35.926C15.7584 35.926 15.6834 35.923 15.6064 35.916C14.2744 35.809 13.2624 35.018 12.8294 33.747C12.4234 32.55 12.8114 31.232 13.8184 30.386C19.7164 25.436 26.5054 22.056 33.9954 20.338C37.4094 19.555 40.5864 19.174 43.7094 19.174C43.9484 19.174 44.1864 19.176 44.4254 19.181C55.8344 19.281 66.0884 23.015 74.9114 30.28C76.3554 31.468 76.5884 33.364 75.4654 34.786C74.8874 35.517 74.0254 35.937 73.0994 35.937Z" fill="#7C7958"/>
<path d="M43.7039 18.1745C40.3439 18.1745 37.0379 18.6145 33.7719 19.3635C26.0889 21.1255 19.2199 24.5485 13.1759 29.6205C11.8339 30.7465 11.3499 32.4985 11.8829 34.0685C12.4459 35.7225 13.8029 36.7735 15.5259 36.9135C15.6299 36.9225 15.7329 36.9265 15.8329 36.9265C17.1149 36.9265 18.1039 36.2605 19.0969 35.4805C26.7359 29.4865 35.0599 26.4555 44.0609 26.4565C47.2259 26.4565 50.4769 26.8315 53.8079 27.5845C59.9939 28.9835 65.4629 31.8865 70.3549 35.9225C71.1859 36.6085 72.1549 36.9375 73.0999 36.9375C74.2979 36.9375 75.4589 36.4085 76.2499 35.4065C77.7099 33.5565 77.4239 31.0515 75.5469 29.5075C66.5079 22.0655 56.1409 18.2835 44.4449 18.1815C44.1969 18.1765 43.9509 18.1745 43.7039 18.1745ZM43.7039 20.1745C43.9379 20.1745 44.1719 20.1765 44.4269 20.1815C55.5909 20.2785 65.6339 23.9355 74.2759 31.0515C75.2979 31.8925 75.4639 33.1735 74.6799 34.1665C74.2879 34.6635 73.7269 34.9375 73.0999 34.9375C72.5789 34.9375 72.0689 34.7445 71.6269 34.3795C66.2909 29.9765 60.4439 27.0345 54.2489 25.6335C50.7929 24.8525 47.3649 24.4565 44.0579 24.4565C34.6679 24.4565 25.8549 27.6365 17.8619 33.9075C17.0209 34.5685 16.4479 34.9265 15.8329 34.9265C15.7859 34.9265 15.7369 34.9245 15.6879 34.9205C14.7579 34.8445 14.0789 34.3135 13.7769 33.4245C13.5039 32.6225 13.7729 31.7305 14.4619 31.1525C20.2369 26.3055 26.8839 22.9955 34.2189 21.3125C37.5589 20.5465 40.6609 20.1745 43.7039 20.1745Z" fill="#F1EBDF"/>
<path d="M61.3416 50.5132C60.6006 50.5132 59.8826 50.2332 59.2636 49.7032L59.1786 49.6302C57.9066 48.5422 56.5916 47.4172 55.0776 46.5202C51.8796 44.6232 48.2046 43.6212 44.4516 43.6212C39.1456 43.6212 34.1006 45.5822 30.2476 49.1442C29.3606 49.9642 28.7166 50.4172 27.8566 50.4612C27.7766 50.4662 27.6966 50.4682 27.6176 50.4682C26.2396 50.4682 25.2286 49.8432 24.6926 48.6602C24.1156 47.3872 24.3656 46.0872 25.3806 45.0962C27.9926 42.5412 31.0616 40.5642 34.5026 39.2182C37.7306 37.9562 40.8466 37.3432 44.0276 37.3432L44.4416 37.3472C51.6676 37.4162 58.0176 39.9722 63.3226 44.9432C64.7106 46.2432 64.8446 48.1412 63.6396 49.4532C63.0126 50.1362 62.1966 50.5132 61.3416 50.5132Z" fill="#7C7958"/>
<path d="M44.0258 36.3437C40.6038 36.3437 37.3178 37.0437 34.1378 38.2867C30.5778 39.6787 27.4148 41.7067 24.6808 44.3817C23.3438 45.6897 23.0448 47.4447 23.7818 49.0737C24.4848 50.6247 25.8648 51.4677 27.6168 51.4677C27.7128 51.4677 27.8098 51.4647 27.9088 51.4597C29.1668 51.3947 30.0568 50.6817 30.9258 49.8777C34.6798 46.4087 39.5508 44.6207 44.4518 44.6207C47.9398 44.6217 51.4448 45.5277 54.5688 47.3797C56.0408 48.2527 57.3208 49.3567 58.6138 50.4637C59.4378 51.1697 60.3958 51.5127 61.3418 51.5127C62.4498 51.5127 63.5398 51.0417 64.3768 50.1297C65.9388 48.4277 65.8258 45.9187 64.0068 44.2137C58.5098 39.0627 51.9948 36.4187 44.4588 36.3477C44.3138 36.3447 44.1698 36.3437 44.0258 36.3437ZM44.0278 36.3437V38.3437C44.1598 38.3437 44.2918 38.3447 44.4398 38.3477C51.3988 38.4137 57.5218 40.8777 62.6388 45.6737C63.6398 46.6117 63.7468 47.8587 62.9038 48.7777C62.4678 49.2517 61.9138 49.5127 61.3418 49.5127C60.8418 49.5127 60.3488 49.3167 59.9148 48.9447L59.8388 48.8797C58.5328 47.7607 57.1808 46.6037 55.5888 45.6597C52.2358 43.6717 48.3848 42.6217 44.4498 42.6207C38.8928 42.6207 33.6078 44.6767 29.5688 48.4097C28.7338 49.1807 28.3058 49.4367 27.8048 49.4627C27.7418 49.4657 27.6788 49.4677 27.6168 49.4677C26.6338 49.4677 25.9758 49.0687 25.6038 48.2477C25.1988 47.3537 25.3638 46.5117 26.0798 45.8117C28.5948 43.3507 31.5518 41.4457 34.8658 40.1497C37.9758 38.9347 40.9718 38.3437 44.0258 38.3437L44.0278 36.3437Z" fill="#F1EBDF"/>
<path d="M44.4495 71.8286C42.5155 71.8286 40.7055 71.0896 39.3545 69.7476C38.0055 68.4066 37.2625 66.6136 37.2625 64.6966C37.2635 60.7866 40.5355 57.4836 44.4075 57.4836C48.3975 57.5036 51.6065 60.7526 51.5955 64.7246C51.5845 68.6376 48.3835 71.8236 44.4595 71.8286H44.4495Z" fill="#7C7958"/>
<path d="M44.4067 56.4841C39.9757 56.4841 36.2637 60.2221 36.2627 64.6961C36.2617 69.2151 39.9007 72.8281 44.4497 72.8281H44.4607C48.9557 72.8231 52.5827 69.2101 52.5957 64.7281C52.6077 60.2351 48.9217 56.5061 44.4457 56.4841H44.4067ZM44.4067 56.4841L44.4357 58.4841C47.7837 58.5001 50.6047 61.3571 50.5957 64.7221C50.5867 68.0851 47.8327 70.8241 44.4497 70.8281C42.7817 70.8281 41.2217 70.1921 40.0587 69.0381C38.8997 67.8871 38.2617 66.3451 38.2627 64.6971C38.2637 61.3291 41.0767 58.4841 44.4067 58.4841V56.4841Z" fill="#F1EBDF"/>
</g>
</svg>
